<?xml version="1.0" encoding="utf-8"?>
<!-- Generator: Adobe Illustrator 23.0.1, SVG Export Plug-In . SVG Version: 6.00 Build 0)  -->
<svg version="1.1" xmlns="http://www.w3.org/2000/svg" xmlns:xlink="http://www.w3.org/1999/xlink" x="0px" y="0px"
	 viewBox="0 0 449 885" style="enable-background:new 0 0 449 885;" xml:space="preserve">
<style type="text/css">
	.st0{fill:#F7F6C4;}
	.st1{opacity:0.15;enable-background:new    ;}
	.st2{fill:#F7B07C;stroke:#F7B07C;stroke-width:1.0788;stroke-miterlimit:10;}
	.st3{fill:#FCCA9E;stroke:#FCCA9E;stroke-width:1.0788;stroke-miterlimit:10;}
	.st4{fill:#EA9963;stroke:#EA9963;stroke-width:1.0788;stroke-miterlimit:10;}
	.st5{fill:#003A1E;}
	.st6{fill:#3B2314;stroke:#3B2314;stroke-width:1.8592;stroke-miterlimit:10;}
	.st7{fill:#3B2314;}
	.st8{fill:none;stroke:#003A1E;stroke-width:20.7217;stroke-miterlimit:10;}
	.st9{fill:#FCCA9E;}
	.st10{fill:#5A5054;}
	.st11{opacity:0.29;fill:#FCCA9E;enable-background:new    ;}
	.st12{fill:#5A5054;stroke:#5A5054;stroke-width:9.1108;stroke-linecap:round;stroke-miterlimit:10;}
	.st13{fill:#3F373B;}
	.st14{fill:none;stroke:#FFFFFF;stroke-width:10.4607;stroke-miterlimit:10;}
	.st15{fill:#FFFFFF;}
	.st16{opacity:0.3;fill:#FFFFFF;enable-background:new    ;}
	.st17{fill:#7C6E73;}
</style>
<g id="Layer_2">
	
		<image style="overflow:visible;" width="218" height="468" xlink:href="../../../../../Desktop/Screen Shot 2019-01-23 at 2.36.44 PM.png"  transform="matrix(0.9898 0 0 0.9898 -429.9145 100.0424)">
	</image>
	<rect x="-37.5" class="st0" width="555.6" height="950.4"/>
</g>
<g id="Layer_1">
	<g>
		<ellipse class="st1" cx="244.7" cy="770.4" rx="126.5" ry="25.9"/>
		<path class="st2" d="M377,532.4l-44.8,229.2c0,11.3-47.9,20.4-107,20.4s-107-9.1-107-20.4l-43-229.2L377,532.4L377,532.4z"/>
		<g>
			<line class="st3" x1="112.7" y1="539.7" x2="133.5" y2="742.4"/>
			<polygon class="st3" points="120.1,539.1 133.5,742.4 105.4,540.6 			"/>
		</g>
		<path class="st3" d="M53.6,536.3v-76.8h343.3c0,0,0.3,50,0,76.8C322.8,568.6,118.8,568.6,53.6,536.3z"/>
		<ellipse class="st2" cx="225.2" cy="459.5" rx="171.6" ry="32.9"/>
		<ellipse class="st4" cx="225.2" cy="458" rx="157.3" ry="25.6"/>
		<path class="st5" d="M288.6,342.1c-0.3,0-0.6,0-1.2,0.3c-6.7,1.2-11.9,3.4-13.1,11.3c-0.3,0.9-0.3,3-0.9,8.5
			c-0.3,1.8-0.9,7.6-1.5,11.6c-0.6,3.7-1.5,4-2.4,4.6l-19.5,11.9l0.3-4.3l5.2-3c1.8-1.2,5.8-3,6.7-10.4c0.3-3,2.4-21,2.7-22.9
			c1.5-14.6,18.6-21.3,36.9-18c0,0,26.8,54.3-27.1,56.4c-4,0.3-6.4,0.9-11,3.4l-14.9,9.1c0-0.3,0.9-7.3,0.9-7.3l18.9-11.3
			c1.8-1.2,3.4-1.8,3.7-1.8c15.5-1.8,29.9-7.3,24.1-30.5c0-0.3-0.3-0.6-0.3-0.9c-0.3-2.1-1.2-5.5-0.3-8.5
			C296.3,339.7,292.6,341.2,288.6,342.1"/>
		<path class="st5" d="M200.8,381.8c0.3,0,0.6,0,0.9,0c5.5,0,10.1,0.6,12.2,7c0.3,0.9,0.9,2.4,2.1,6.4c0.3,1.2,1.8,6.1,3,9.1
			c0.9,3,1.8,3,2.7,3.4l17.4,6.4l-0.9-3.4l-4.6-1.8c-1.8-0.6-5.2-1.5-7-7.3c-0.9-2.1-5.2-16.2-5.8-17.7c-3.7-11.6-18.3-14-32.3-8.5
			c0,0-12.8,47.6,30.8,40.5c3.4-0.6,5.2-0.3,9.5,0.9l13.4,4.9c0-0.3-1.8-5.8-1.8-5.8l-16.8-6.1c-1.8-0.9-3-0.9-3.4-0.9
			c-12.5,0.9-25-0.9-24.1-20.4c0-0.3,0-0.6,0-0.9c0-1.5,0-4.6-1.2-6.7C194.4,381.2,197.5,381.8,200.8,381.8"/>
		<g>
			<path class="st6" d="M382.2,460.1c0,13.1-70.4,23.5-157.3,23.5S67.6,473.2,67.6,460.1C67.6,447,382.2,447.3,382.2,460.1z"/>
			<g>
				<path class="st7" d="M72.2,458c14.9,1.8,29.9-7.6,44.8-5.8c5.2,0.6,10.4,2.7,15.5,2.4c6.1-0.3,11.9-3.4,18-4
					c10.1-0.9,19.8,4.9,29.9,4.6c8.5-0.3,16.5-4.9,24.7-6.7c15.9-3.7,32,2.7,48.2,3c8.5,0.3,17.1-1.2,25.6-1.8
					c10.1-0.6,20.4,0,30.5,0.6c18.9,1.2,37.8,2.4,56.7,3.4c4.9,0.3,10.7,1.2,13.1,5.5"/>
				<g>
					<path class="st7" d="M72.2,461.3c12.5,0.6,23.2-4.3,35.4-5.5c12.2-1.2,22.9,2.1,35.1,0.3c7.6-1.2,14-1.5,21.9,0
						c5.5,0.9,10.4,2.7,15.9,2.7c12.2-0.3,22.9-7.6,35.4-7.9c12.8-0.3,25,4,37.8,4.3c11.9,0.3,23.8-2.1,35.7-2.1
						c12.5,0,25,1.2,37.5,1.8c11.9,0.6,41.8-2.4,50.3,6.7c3,3.4,8.2-1.5,5.2-5.2c-5.8-6.4-13.1-6.4-21.3-6.7
						c-14.9-0.9-30.2-1.8-45.4-2.7c-13.7-0.9-27.4-1.5-41.5-0.6c-16.2,1.2-30.5,0-46.6-1.8c-12.2-1.5-21.3,0-32.9,3.4
						c-10.4,3-17.1,3-27.7,1.2c-5.5-0.9-10.4-2.4-15.9-2.1c-6.1,0.6-11.9,3.7-18,4c-6.7,0.3-13.7-2.7-20.4-2.7
						c-13.7,0-25.9,6.7-39.9,6.1C67.3,454,67.3,461.3,72.2,461.3L72.2,461.3z"/>
				</g>
			</g>
			<g>
				<path class="st7" d="M71,459.5c-0.6,0.3-1.5,0.3-1.8-0.3c-0.3-0.6,0.3-1.5,0.9-1.2"/>
				<g>
					<path class="st7" d="M70.1,456.1C70.4,456.1,70.4,456.1,70.1,456.1c0.3,0,0.9,0.3,1.5,0.6c0,0,0,0,0,0.3
						c0.3,0.6,0.6,0.9,0.9,1.5v0.3c-0.3,0.6-0.3,1.2-0.6,1.8c-0.3,0.3-0.6,0.3-0.6,0.6c-0.9,0-1.8,0.3-2.7,0.3h0.3
						c1.8,0.3,4-0.6,4.6-2.4c0.6-1.8-0.6-4.3-2.4-4.6c-1.5-0.3-2.7,0-4,0.9c-0.9,0.9-1.5,2.4-1.2,4c0.3,3,3.7,4.6,6.4,3.7
						c1.8-0.6,3-2.4,2.4-4.6C74,456.8,71.9,455.5,70.1,456.1L70.1,456.1z"/>
				</g>
			</g>
		</g>
		<path class="st8" d="M217,245.5c0,0,43.6,186,20.4,226.2"/>
		<g>
			<path class="st9" d="M221,210.7c0,0,29.3-48.8,114,18.9C232.8,266.2,221,210.7,221,210.7z"/>
			<path class="st9" d="M218.5,197.6c0,0-8.8-56.1,99.4-58.8C263.3,232.4,218.5,197.6,218.5,197.6z"/>
			<path class="st9" d="M208.2,189.1c0,0-42.7-37.2,38.4-109.1C264.9,187,208.2,189.1,208.2,189.1z"/>
			<path class="st9" d="M195,189.4c0,0-56.7-0.9-40.5-108.2C237.1,151,195,189.4,195,189.4z"/>
			<path class="st9" d="M185,197.9c0,0-44.2,35.7-100.6-56.7C192.6,141.5,185,197.9,185,197.9z"/>
			<path class="st9" d="M182.8,211.1c0,0-11,55.8-113.7,21.3C152.4,162.9,182.8,211.1,182.8,211.1z"/>
			<path class="st9" d="M189.6,222.3c0,0,27.4,49.7-73.5,89.3C135.3,205,189.6,222.3,189.6,222.3z"/>
			<path class="st9" d="M214.2,222c0,0,53.7-18.6,75.3,87.8C188,272.3,214.2,222,214.2,222z"/>
			<path class="st9" d="M202.1,226.9c0,0,53,20.4,1.2,115.5C149.3,248.2,202.1,226.9,202.1,226.9z"/>
		</g>
		<g>
			<path class="st2" d="M218.5,216.8c0,0,44.2-35.7,100.6,56.7C210.9,273.2,218.5,216.8,218.5,216.8z"/>
			<path class="st2" d="M220.6,203.7c0,0,11-55.8,113.7-21.3C251.1,251.9,220.6,203.7,220.6,203.7z"/>
			<path class="st2" d="M213.9,192.5c0,0-27.4-49.7,73.5-89.3C268.2,209.8,213.9,192.5,213.9,192.5z"/>
			<path class="st2" d="M201.4,188.2c0,0-53-20.4-1.2-115.5C254.2,166.5,201.4,188.2,201.4,188.2z"/>
			<path class="st2" d="M189.3,192.8c0,0-53.7,18.6-75.3-87.8C215.5,142.5,189.3,192.8,189.3,192.8z"/>
			<path class="st2" d="M182.5,204.3c0,0-29.3,48.8-114-18.9C170.7,148.9,182.5,204.3,182.5,204.3z"/>
			<path class="st2" d="M185,217.1c0,0,8.8,56.1-99.4,58.8C140.2,182.4,185,217.1,185,217.1z"/>
			<path class="st2" d="M195.3,225.7c0,0,42.7,37.2-38.4,109.1C138.6,227.8,195.3,225.7,195.3,225.7z"/>
			<path class="st2" d="M208.5,225.7c0,0,56.7,0.9,40.5,108.2C166.7,263.8,208.5,225.7,208.5,225.7z"/>
		</g>
		<path class="st10" d="M76.8,294.3L76.8,294.3L76.8,294.3C76.8,294,76.8,294.3,76.8,294.3z"/>
		<path class="st10" d="M76.8,294L76.8,294L76.8,294L76.8,294z"/>
		<g>
			<path class="st11" d="M187.7,168.1c0,0-39,7-23.2-50C218.2,142.8,187.7,168.1,187.7,168.1z"/>
			<path class="st11" d="M165.8,186.1c0,0-25.3,30.5-50-23.2C172.8,147.3,165.8,186.1,165.8,186.1z"/>
			<path class="st11" d="M160.3,214.1c0,0,0.3,39.6-53.3,14.3C140.8,179.7,160.3,214.1,160.3,214.1z"/>
			<path class="st11" d="M174.3,239.1c0,0,25.6,30.2-31.7,45.1C137.4,225.4,174.3,239.1,174.3,239.1z"/>
			<path class="st11" d="M201.1,249.2c0,0,39,6.7,4.9,54.9C163.9,262.6,201.1,249.2,201.1,249.2z"/>
			<path class="st11" d="M228,239.7c0,0,34.1-20.1,39,39C208.2,273.8,228,239.7,228,239.7z"/>
			<path class="st11" d="M242.6,215c0,0,13.4-37.2,54.9,4.9C249.3,254,242.6,215,242.6,215z"/>
			<path class="st11" d="M238,187c0,0-13.7-37.2,45.1-31.7C268.2,212.6,238,187,238,187z"/>
			<path class="st11" d="M216.4,168.4c0,0-34.4-19.5,14.3-53.3C255.7,168.7,216.4,168.4,216.4,168.4z"/>
		</g>
		<g>
			<circle class="st12" cx="201.7" cy="207.4" r="51.2"/>
			<circle class="st13" cx="201.7" cy="207.4" r="45.4"/>
			<circle class="st12" cx="201.7" cy="207.4" r="25.3"/>
		</g>
		<g>
			<path class="st14" d="M270.9,631.7c-0.3,12.2-10.1,21.6-22.3,21.3s-21.6-10.1-21.3-22.3"/>
			<g>
				<g>
					<circle class="st15" cx="201.4" cy="596.4" r="26.5"/>
					<circle class="st2" cx="192.6" cy="591.5" r="6.7"/>
				</g>
				
					<ellipse transform="matrix(2.049367e-02 -0.9998 0.9998 2.049367e-02 -425.5726 814.3114)" class="st16" cx="202.8" cy="624.3" rx="10.7" ry="17.7"/>
			</g>
			<g>
				<g>
					<circle class="st15" cx="293.2" cy="597" r="26.5"/>
					<circle class="st2" cx="284.4" cy="591.8" r="6.7"/>
				</g>
				
					<ellipse transform="matrix(2.049367e-02 -0.9998 0.9998 2.049367e-02 -336.4589 906.4702)" class="st16" cx="294.4" cy="624.9" rx="10.7" ry="17.7"/>
			</g>
		</g>
		<path class="st17" d="M210,183L210,183c-0.6,0.3-1.2,0.6-0.9,1.5c0,0,0,0.3,0,0.9c0,0.3,0,0.6,0.3,1.2c0,0.3,0,0.3,0,0.6l-1.5,1.5
			v-0.3l0.3-0.3c0-0.3,0.6-0.3,0.3-1.2c0-0.3-0.3-2.1-0.3-2.1c-0.3-1.5,1.2-2.4,3-2.7c0,0,4,4.6-1.2,6.1c-0.3,0-0.6,0.3-0.9,0.6
			l-1.2,1.2v-0.6l1.5-1.5c0-0.3,0.3-0.3,0.3-0.3c1.5-0.6,2.7-1.5,1.5-3.4l0,0c0-0.3-0.3-0.6-0.3-0.9C210.9,182.7,210.6,183,210,183"
			/>
		<path class="st17" d="M192.9,183.3L192.9,183.3c-0.3,0.6-0.3,1.2,0,1.8c0,0,0.3,0.3,0.6,0.6c0,0,0.6,0.6,0.9,0.6
			c0.3,0.3,0.3,0.3,0.3,0.3v2.1l-0.3-0.3v-0.6c0-0.3,0-0.6-0.3-1.2c-0.3-0.3-1.5-1.2-1.5-1.5c-1.2-0.9-0.6-2.7,0.6-4
			c0,0,5.8,0.9,3,5.2c-0.3,0.3-0.3,0.6-0.3,0.9v1.8l-0.6-0.6l0.3-2.1c0-0.3,0-0.3,0-0.3c0.6-1.2,1.2-2.7-1.2-3.7l0,0
			c-0.3,0-0.6-0.3-0.6-0.3C193.2,182.4,193.2,183,192.9,183.3"/>
		<path class="st17" d="M180.1,194.3C180.1,194.3,180.1,194.6,180.1,194.3c0.3,0.6,0.3,1.2,1.2,1.2c0,0,0.3,0,0.9,0
			c0.3,0,0.6,0,1.2,0c0.3,0,0.3,0,0.6,0.3l1.2,1.8H185l-0.3-0.6c0-0.3-0.3-0.6-0.9-0.6c-0.3,0-2.1,0-2.1,0c-1.5,0-2.1-1.5-2.1-3.4
			c0,0,5.2-3,5.8,2.1c0,0.3,0,0.6,0.3,0.9l0.9,1.2h-0.6l-1.2-1.8c0-0.3-0.3-0.3-0.3-0.3c-0.3-1.5-0.9-2.7-3-2.1l0,0
			c-0.3,0-0.6,0.3-0.9,0C179.8,193.7,179.8,194,180.1,194.3"/>
		<path class="st17" d="M177.1,211.4C177.4,211.4,177.4,211.4,177.1,211.4c0.6,0.3,1.2,0.6,1.8,0.3c0,0,0.3-0.3,0.6-0.6
			c0,0,0.6-0.6,0.9-0.6c0.3-0.3,0.3-0.3,0.6,0l2.1,0.6l-0.3,0.3h-0.6c-0.3,0-0.6-0.3-1.2,0.3c-0.3,0.3-1.5,1.2-1.8,1.5
			c-1.2,0.9-2.7,0.3-3.7-1.2c0,0,1.8-5.5,5.8-2.1c0.3,0.3,0.6,0.3,0.9,0.6l1.5,0.3l-0.6,0.3l-2.1-0.6c-0.3,0-0.3,0-0.3,0
			c-1.2-0.9-2.4-1.5-3.7,0.3l0,0c0,0.3-0.3,0.6-0.6,0.6C176.4,211.1,176.8,211.1,177.1,211.4"/>
		<path class="st17" d="M185.9,226L185.9,226c0.6,0,1.2-0.3,1.5-0.9c0,0,0-0.3,0.3-0.9c0-0.3,0-0.6,0.3-1.2c0-0.3,0.3-0.3,0.3-0.3
			l1.8-0.9v0.3l-0.6,0.3c-0.3,0-0.6,0.3-0.6,0.9c0,0.3-0.3,2.1-0.6,2.1c-0.3,1.5-1.8,1.8-3.7,1.5c0,0-2.1-5.5,3-5.2
			c0.3,0,0.6,0,1.2-0.3l1.5-0.6v0.6l-1.8,0.9c-0.3,0-0.3,0-0.3,0c-1.5,0-3,0.3-2.7,2.7l0,0c0,0.3,0,0.6,0,0.9
			C185.3,226.3,185.6,226,185.9,226"/>
		<path class="st17" d="M202.1,231.8L202.1,231.8c0.6-0.6,0.9-0.9,0.6-1.8c0,0,0-0.3-0.3-0.6c0,0-0.3-0.6-0.6-0.9
			c-0.3-0.3,0-0.3,0-0.6l0.9-2.1l0.3,0.3l-0.3,0.6c0,0.3-0.3,0.6,0,1.2c0,0.3,0.9,1.8,0.9,1.8c0.6,1.2-0.3,2.7-1.8,3.4
			c0,0-5.2-2.7-0.9-6.1c0.3-0.3,0.6-0.3,0.6-0.9l0.6-1.5l0.3,0.6l-0.9,1.8c0,0.3-0.3,0.3-0.3,0.3c-1.2,0.9-2.1,2.1-0.3,3.7l0,0
			c0,0,0.3,0.3,0.6,0.6C201.7,232.4,201.7,232.1,202.1,231.8"/>
		<path class="st17" d="M218.2,225.7L218.2,225.7c0-0.6,0-1.2-0.6-1.5c0,0-0.3,0-0.6-0.3c-0.3,0-0.6-0.3-0.9-0.3
			c-0.3,0-0.3-0.3-0.3-0.3l-0.6-2.1h0.3l0.3,0.6c0,0.3,0,0.6,0.9,0.9c0.3,0,1.8,0.9,2.1,0.9c1.2,0.6,1.5,2.1,0.6,4
			c0,0-5.8,1.2-4.6-4c0-0.3,0-0.6,0-1.2l-0.6-1.5l0.6,0.3l0.6,2.1c0,0.3,0,0.3,0,0.3c-0.3,1.5,0,3,2.1,3l0,0c0.3,0,0.6,0,0.9,0.3
			C218.2,226.6,218.2,226,218.2,225.7"/>
		<path class="st17" d="M226.4,210.7L226.4,210.7c-0.3-0.6-0.9-0.9-1.5-0.9c0,0-0.3,0-0.9,0.3c-0.3,0-0.6,0.3-1.2,0.3
			c-0.3,0-0.3,0-0.6,0l-1.8-1.2h0.3l0.6,0.3c0.3,0,0.6,0.3,1.2,0.3c0.3,0,1.8-0.6,2.1-0.6c1.2-0.6,2.7,0.6,3,2.4c0,0-3.7,4.6-6.1,0
			c-0.3-0.3-0.3-0.6-0.6-0.9l-1.5-0.9l0.6-0.3l1.8,1.2c0.3,0,0.3,0.3,0.3,0.3c0.9,1.2,1.8,2.4,3.7,0.9l0,0c0.3,0,0.3-0.3,0.6-0.3
			C227.1,211.4,226.7,211.1,226.4,210.7"/>
		<path class="st17" d="M223.4,194L223.4,194c-0.6-0.3-1.2-0.3-1.8,0.3c0,0-0.3,0.3-0.3,0.6c0,0-0.3,0.6-0.6,0.9
			c-0.3,0.3-0.3,0.3-0.3,0.3l-2.1,0.3l0.3-0.3h0.6c0.3,0,0.6,0,0.9-0.6c0.3-0.3,1.2-1.8,1.2-1.8c0.6-1.2,2.4-1.2,4,0
			c0,0,0,5.8-4.6,4c-0.3-0.3-0.6-0.3-1.2-0.3l-1.8,0.3l0.3-0.6l2.1-0.3c0.3,0,0.3,0,0.3,0c1.5,0.6,3,0.6,3.4-1.8l0,0
			c0-0.3,0-0.6,0.3-0.6C224,194,223.7,194,223.4,194"/>
	</g>
</g>
</svg>
