<svg xmlns="http://www.w3.org/2000/svg" viewBox="0 0 449 885"><defs><style>.cls-1{fill:#fbcea5;}.cls-2{opacity:0.53;}.cls-15,.cls-3{fill:#fff;}.cls-4{fill:#d83527;}.cls-5{fill:#e97f26;}.cls-6{fill:#442768;}.cls-7{fill:#6a378d;}.cls-8{fill:#2f1944;}.cls-9{fill:#a09f9f;}.cls-10{fill:#828282;}.cls-11{fill:#aeadae;}.cls-12{fill:#d2d2d1;}.cls-13{fill:#b3b3b3;}.cls-14{fill:#c6c6c5;}.cls-15{opacity:0.43;}</style></defs><title>1-1-chilly-chiles</title><g id="Layer_1" data-name="Layer 1"><rect class="cls-1" x="-12.75" y="-14.59" width="471.95" height="906.56"/><g class="cls-2"><path class="cls-3" d="M68.19,440.27v.89a1.32,1.32,0,0,0,1-.43,1.7,1.7,0,0,0,.4-1.12h0c0-.84-.54-1.73-1.32-1.73v.89c-.14,0-.29.07-.43.34.53.1.24.84,0,1.14A1,1,0,0,0,68.19,440.27Z"/><path class="cls-3" d="M249.89,583.58v.76C250.52,585.6,251.55,583.2,249.89,583.58Z"/><path class="cls-3" d="M108.31,352.47a1.22,1.22,0,0,1,.11-.88,3,3,0,0,0,.24-1.71l-.27-.53a8.44,8.44,0,0,0-.91-.71,3.59,3.59,0,0,1-.89-.78.21.21,0,0,1,0,.08l-1.26-.86c-1.46,1.44-2.06,2.91-1.69,4.16.28.9,1.17,2,3.85,2.28Z"/><path class="cls-3" d="M20.38,116.66a4,4,0,0,0-.84,3.33l.71.71.72,0a2.53,2.53,0,0,0,1.93-.65l.21-.43a2.53,2.53,0,0,0-1.7-3.2l-.43.74.29-.79Z"/><path class="cls-3" d="M25.25,273.69a1.92,1.92,0,0,1-.45-.21.62.62,0,0,1,.14.51l-.76-1.39A3.72,3.72,0,0,0,22,275.44l0,.42A2.27,2.27,0,0,0,24.08,278a2.41,2.41,0,0,0,1.79-.87,3.19,3.19,0,0,0,.69-2.2l-.23-.57A3,3,0,0,0,25.25,273.69Z"/><path class="cls-3" d="M22.67,615.67c-1.43,0-1.65,1.48-1.77,2.27l.76,1H23l.77-.86v-1.52l-.62-.84A2.44,2.44,0,0,0,22.67,615.67Z"/><path class="cls-3" d="M28,707.5l-1,.85a1.16,1.16,0,0,1-.14.52,2.89,2.89,0,0,0-.19,1.93l.79.67a2.18,2.18,0,0,0,2.12-2.33l-.78-1A1.71,1.71,0,0,0,28,707.5Z"/><path class="cls-3" d="M22.56,298.23h-.14c0-.47-.17-1.3-1-1.4l-.61.76-.13,0c.05-.08.11-.15.11-.16s-.27,0-.41,0a1.52,1.52,0,0,0-1.47,1L20,300.06h.36a4.21,4.21,0,0,0,3.8,3.12,4.16,4.16,0,0,0,2-.56l.43-.8A3.75,3.75,0,0,0,22.56,298.23Z"/><path class="cls-3" d="M99.27,643.26l-.56-1.38h-.15a1.27,1.27,0,0,0-1.07.51,2.11,2.11,0,0,0-.28,1.65l1.05.75a1.2,1.2,0,0,0,.56.17,1,1,0,0,0,.92-.84L99,643C99.14,643.05,99.22,643.24,99.27,643.26Z"/><path class="cls-3" d="M62.26,500.29l-.16-.11-1.18.72a2.49,2.49,0,0,0,.29,1.29l0-.14.52,1.25h1l.78-.8A2.24,2.24,0,0,0,62.26,500.29Z"/><path class="cls-3" d="M65.37,190.73a1.76,1.76,0,0,0-1.7,2l.57.73a1.65,1.65,0,0,0,2.12-1.24c0-.1.08-.2.12-.28l-.83-1.29Z"/><path class="cls-3" d="M80.11,699.51a1.05,1.05,0,0,0-.75-.73l-1,.7c0-.17.16-.32.11-.33l-.33,0-.8.62a1.88,1.88,0,0,0,.28,1.53,2.08,2.08,0,0,0,1.56.94,1,1,0,0,0,1-1l-.4-.6A1.31,1.31,0,0,0,80.11,699.51Z"/><path class="cls-3" d="M64.41,753.47a1.36,1.36,0,0,0-1.06.46A1.55,1.55,0,0,0,63,755l1.08.9a1.66,1.66,0,0,0,1.61.29l.56-.78a1.74,1.74,0,0,0-.44-1.27A1.86,1.86,0,0,0,64.41,753.47Z"/><path class="cls-3" d="M71.55,742a2.54,2.54,0,0,0-2.1-1.21,3.21,3.21,0,0,0-.71.09l-.61.65a1.16,1.16,0,0,1-.21.42,2.76,2.76,0,0,0-.49,1.73l.48.73a2.39,2.39,0,0,1,.48.37,2.58,2.58,0,0,0,1.88.84l.32-.08a1.53,1.53,0,0,0,.91-1.19,1,1,0,0,0,.89-1l-.37-.87A2.3,2.3,0,0,1,71.55,742Z"/><path class="cls-3" d="M90.53,611.7l.67-.09a2.94,2.94,0,0,0,1.15-3.31c-.4-1.51-1.74-2.83-2.87-2.83l-.75.44a4.58,4.58,0,0,0-.45,3.59A3.61,3.61,0,0,0,90.53,611.7Z"/><path class="cls-3" d="M100.37,360.62a1.7,1.7,0,0,1-.33.22A2.06,2.06,0,0,0,98.91,363l.29.57a1.52,1.52,0,0,1,.17.36,1.78,1.78,0,0,0,1.72,1.34h0l.72-.7c.35-2.15.52-3.6-.31-4.26Z"/><path class="cls-3" d="M36.53,499.63a2.66,2.66,0,0,0-.16-2.56l-.67-.42H33l-.76.67a3.24,3.24,0,0,0,.41,2.63A2.4,2.4,0,0,0,36.53,499.63Z"/><path class="cls-3" d="M92.25,735.46a3.34,3.34,0,0,1,0-.47,4.73,4.73,0,0,0,0-.53L91,733.62a1.62,1.62,0,0,0-1-.38l-.32,0L89,734.35a5,5,0,0,1,.14,1.2,2.16,2.16,0,0,0,.41,1.45l1.36-.47s-.08.15-.3.1a.74.74,0,0,1,.22.13,1.15,1.15,0,0,0,1.7-.41l-.62-1.19A.46.46,0,0,1,92.25,735.46Z"/><path class="cls-3" d="M39.55,510.16l-.19-.71a1.81,1.81,0,0,0-1-.56l-.59-.87h-.15a4.12,4.12,0,0,0-2,.57c-.17.08-.34.17-.53.24l-.52.87a4.72,4.72,0,0,0,.41,1.61,2.91,2.91,0,0,1,.27,1l.66.81C38.08,513.52,39.2,512.47,39.55,510.16Z"/><path class="cls-3" d="M36.14,727.58l-.43.4h.16l-.95.91c.14,1.6.94,1.69,1.63,1.53l.6-.95a2.18,2.18,0,0,0,0-.25C37.13,728.84,37.11,727.72,36.14,727.58Z"/><path class="cls-3" d="M49.39,583.45a2.27,2.27,0,0,0-2.06,1.62l.9,1.28a1.45,1.45,0,0,0,1.68.73l.59-.84v-1.9l-.66-.85A2.42,2.42,0,0,0,49.39,583.45Z"/><path class="cls-3" d="M36.21,822.27a1.82,1.82,0,0,0-.82-2.06l-.42-.12a2.09,2.09,0,0,0-2,1.31,3.1,3.1,0,0,0,.49,2.77l1.36-.5a.64.64,0,0,1-.62.39,1.15,1.15,0,0,1,.24.13,1.93,1.93,0,0,0,1,.36c.45,0,1-.31,1.12-1.18l-.28-.82A1,1,0,0,1,36.21,822.27Z"/><path class="cls-3" d="M57,674.13a1.49,1.49,0,0,0-1.45,1.36A1.36,1.36,0,0,0,56.78,677l.91-.85a.72.72,0,0,1-.13.37,1.27,1.27,0,0,0,.79-.93l-.13-.71A1.46,1.46,0,0,0,57,674.13Z"/><path class="cls-3" d="M56.54,713h0c-.78,0-1.71.65-1.77,2.49l.83.89a.92.92,0,0,1,.56.24l.79,0a2.12,2.12,0,0,0,1.18-2.32A1.69,1.69,0,0,0,56.54,713Z"/><path class="cls-3" d="M51,201l.49-.92c0-.09,0-.1.08-.28a2.19,2.19,0,0,0,.27-1.18l-.91-.8s-.07,0-.21-.09a1.74,1.74,0,0,0-.95-.31l-1,.86a2.22,2.22,0,0,0-.55.91l1,1.07c-.09,0-.19-.06-.18,0A1.38,1.38,0,0,0,51,201Z"/><path class="cls-3" d="M53.15,569.45h-.07a1.13,1.13,0,0,0-.86.46,1.19,1.19,0,0,0-.19.92l.76.85a1.79,1.79,0,0,0,.83.6l1-.83v-1.14l-.78-.86Z"/><path class="cls-3" d="M53.3,555.8a4.3,4.3,0,0,1,.63-.41,2.79,2.79,0,0,0,1.71-3l-.44-.68a4,4,0,0,0-1.76-.65,1.47,1.47,0,0,0-.86.31,1.26,1.26,0,0,1-.82.25l-.74.74c-.32,2.59.84,3.36,1.56,3.6Z"/><path class="cls-3" d="M394,772.08l1-.46c.51-1.37,1-2.78-.07-4.61l-.65-.38h-2l-.58.29a3.24,3.24,0,0,0-.4,3.49,2.06,2.06,0,0,0-1.65.73,3.42,3.42,0,0,0-.55,2.5l1.14.73c.08,0,.11,0,.27.12a2,2,0,0,0,1.6.28l.53-.48a3,3,0,0,0,.09-2.44l.6,0A1.38,1.38,0,0,1,394,772.08Z"/><path class="cls-3" d="M448.38,387.74a2,2,0,0,0,1.49.27l.58-1.1c0-.15-.07-.32-.1-.5a2.55,2.55,0,0,0-1-1.89l-1.16.63a1.61,1.61,0,0,0-.66,1.86l.59.61Z"/><path class="cls-3" d="M447.5,852.72l-.95,1.11c.05,1.34.66,1.95,1.62,1.72l.62-.85v-.76l-.7-.85A1.27,1.27,0,0,0,447.5,852.72Z"/><path class="cls-3" d="M441.8,632.31a1.88,1.88,0,0,0-1-.33,2.68,2.68,0,0,0-.46,0l-.63.92a2.52,2.52,0,0,0,1.13,2.22l1.23-.76a2,2,0,0,0,.54-.94l-.58-1.06A1.19,1.19,0,0,1,441.8,632.31Z"/><path class="cls-3" d="M437.53,775.05a1.22,1.22,0,0,0-.22.93l.59.69a.87.87,0,0,1,.22.11,1.83,1.83,0,0,0,1.48.28l.52-.42a1.41,1.41,0,0,0-1.33-2.14A1.62,1.62,0,0,0,437.53,775.05Z"/><path class="cls-3" d="M404.86,833.38l-.65-.4h-1.72l-.77.75a4.14,4.14,0,0,1-.15.67,4.64,4.64,0,0,0-.18,2.26l.28.51a2.89,2.89,0,0,0,3.59.09l.38-1a6.38,6.38,0,0,1-.13-.92A4.2,4.2,0,0,0,404.86,833.38Z"/><path class="cls-3" d="M389.88,263.84l-.83.83a1.64,1.64,0,0,1-.1.33,2.13,2.13,0,0,0,0,1.74,1.45,1.45,0,0,0,1.15.7l.83-1.11a3.16,3.16,0,0,1,0-.47,2.17,2.17,0,0,0-.24-1.63A1,1,0,0,0,389.88,263.84Z"/><path class="cls-3" d="M390.66,627.93a1.17,1.17,0,0,0-.22.93l.58.68.22.11a1.77,1.77,0,0,0,1.49.28l.52-.42a1.47,1.47,0,0,0,0-1.38,1.49,1.49,0,0,0-1.38-.75A1.56,1.56,0,0,0,390.66,627.93Z"/><path class="cls-3" d="M388.83,780.08l1.38-.23a.69.69,0,0,0,0,.13.84.84,0,0,1-.63.14c.07.06.26.3.37.43a2.33,2.33,0,0,0,.6.58l1.13-.62c0,.17-.17.32-.11.33l.31,0,.83-.88a8.65,8.65,0,0,1,.08-1.47,5.22,5.22,0,0,0-.11-2.13l-.37-.55a2.4,2.4,0,0,0-1.24-.36,2.61,2.61,0,0,0-2.26,1.56A3.23,3.23,0,0,0,388.83,780.08Z"/><path class="cls-3" d="M431.42,815.91l-.27,0-.49.26a4.27,4.27,0,0,0-.55,2.91l.24.58a2.54,2.54,0,0,0,1.93.64l.71,0,.7-1.11c-.05-.22-.1-.46-.14-.69C433.38,817.53,433.08,815.91,431.42,815.91Z"/><path class="cls-3" d="M439.81,497.9l-.56-.47a4,4,0,0,0-.9-.11,3.3,3.3,0,0,0-3,1.73,4.18,4.18,0,0,0-.06,3.78l.63.47a3.91,3.91,0,0,0,3.82-1.78A4,4,0,0,0,439.81,497.9Z"/><path class="cls-3" d="M402.09,317.56a1.65,1.65,0,0,0-1.53-1.11,2.12,2.12,0,0,0-.68.12l-.5.5a3,3,0,0,0,0,2.47,2,2,0,0,0,1.64,1l.63-.27A2.85,2.85,0,0,0,402.09,317.56Z"/><path class="cls-3" d="M417.29,310.33l-.2-.72a1.6,1.6,0,0,0-1.24-.6,2,2,0,0,0-1.73,1.16l.44.83.6.81h.68l.62-.52A1,1,0,0,0,417.29,310.33Z"/><path class="cls-3" d="M227.43,201.92a3.66,3.66,0,0,0,1,2.34l.69-.38a.58.58,0,0,0,.12.1,1.84,1.84,0,0,0,1.1.53l.66-.42.11-.21c.25-.48.31-.52.51-.52h0l.82-1c-.36-2.37-1.68-3.66-3.82-3.75l-.81,1c0,.13,0,.33,0,.39a.5.5,0,0,1,.29-.28l-.93,1C227.33,201.27,227.39,201.62,227.43,201.92Z"/><path class="cls-3" d="M233.86,704.84,233,703.7l-.05.77-.14-.85a1.55,1.55,0,0,0-1-.39,2,2,0,0,0-.61.11l-.57,1.39a1.92,1.92,0,0,0-.33,1.47l.44.64a1.69,1.69,0,0,1,.48.41,1.64,1.64,0,0,0,2.27.33l.42-.79a6.21,6.21,0,0,0-.15-1.24C233.71,705.34,233.71,705.31,233.86,704.84Z"/><path class="cls-3" d="M279.5,535.51l.67-.56a1.21,1.21,0,0,0,1.42-.45l.2-.69a2.35,2.35,0,0,0,0-.26,2.29,2.29,0,0,0-.28-1.18,2.68,2.68,0,0,0-.06-1l-.83-.64c-1.49.15-1.94,1.53-2.23,2.44l-.14.38.73,1.17a.61.61,0,0,1-.33-.13A1.32,1.32,0,0,0,279.5,535.51Z"/><path class="cls-3" d="M229.61,873.94c-1.47.22-1.82,1.66-2,2.53l1.31.79c-.11,0-.18,0-.12,0a1.17,1.17,0,0,0,.91.56,1.27,1.27,0,0,0,1-.64l-.26-1.29c.16.09.25.29.26.2a2.78,2.78,0,0,0-.3-1.8Z"/><path class="cls-3" d="M203.4,434.4a1.33,1.33,0,0,0-.81-.37c-.24,0-.83.11-1,1.12l1.08.86s0,0,0,.05c-.24,0-.36-.26-.42-.23a1.65,1.65,0,0,0,.33,1.17.92.92,0,0,0,.73.33l.21,0,.68-.8a1.8,1.8,0,0,0,.3-1.34l-.89-.63Z"/><path class="cls-3" d="M249.17,844a3.49,3.49,0,0,0-.38-.82l-.57-.33h-.15a2.18,2.18,0,0,0-1.39.55,1.11,1.11,0,0,1-.39.23l-.59.72a3.45,3.45,0,0,0,.51,2.7,1.69,1.69,0,0,0,1.37.69,2.7,2.7,0,0,0,2.38-2.3l-.62-1A2,2,0,0,1,249.17,844Z"/><path class="cls-3" d="M112.19,504.2l.22-.43a3,3,0,0,0-.19-2,1.2,1.2,0,0,1-.14-.74l-.42-.91a3.21,3.21,0,0,0-1.59-.42,3.62,3.62,0,0,0-2.31.89l-.29.5a3.71,3.71,0,0,0,.51,2.94A2.79,2.79,0,0,0,112.19,504.2Z"/><path class="cls-3" d="M280.36,744.18c-.89,0-2,.38-2.48,2.23l.89,1.07a2.11,2.11,0,0,1,1.28.15,4.52,4.52,0,0,0,.86.24l.89-.86v-1.9l-.63-.84A4.17,4.17,0,0,0,280.36,744.18Z"/><path class="cls-3" d="M255,668.29a2.42,2.42,0,0,0-.91.18l-.49.59-.08.34a7.89,7.89,0,0,0-.29,3l.61.74a1.51,1.51,0,0,1,.65.4,2.88,2.88,0,0,0,1.47.75l.59-.2a3.58,3.58,0,0,0,.88-3.77A2.7,2.7,0,0,0,255,668.29Z"/><path class="cls-3" d="M195.53,632.6l-.48-.17-1,.49a3.19,3.19,0,0,0,0,2.86,3.33,3.33,0,0,0,3.08,1.37l.77-.67C198.55,633.56,196.66,633,195.53,632.6Z"/><path class="cls-3" d="M202.81,290.93l1-.83V289l-.78-.86h-.76a1.12,1.12,0,0,0-.88.49,1.25,1.25,0,0,0-.13,1l.74.78A1.8,1.8,0,0,0,202.81,290.93Z"/><path class="cls-3" d="M396.29,787.55l-1,.47a2.3,2.3,0,0,1-.64.8,3.76,3.76,0,0,0-1,1.32h-.41a1.06,1.06,0,0,0-.88.54l-.22-.11a5,5,0,0,0-.62-3.63,2.73,2.73,0,0,0-2.35-1.1h0A5.22,5.22,0,0,0,388,786l-.55.46-.15.33a5,5,0,0,0-.6,3.21l1,.71c.41,0,1.41,1.31,2,2.09,1.16,1.52,2.26,3,3.55,3a1.66,1.66,0,0,0,.66-.14c.83-.36,1.39-1.81,1.43-3l.22.05L396,792a1.11,1.11,0,0,0,.55.28l.73-.29a3.26,3.26,0,0,0-1-4.39Z"/><path class="cls-3" d="M128.84,671l-.53-1a2,2,0,0,0-.61-.1,1.59,1.59,0,0,0-1,.39l-1.07.68a2,2,0,0,0,.26,1.79l1,1.19.42-.11a.63.63,0,0,1,.52,0l.43.11.92-.64a2.34,2.34,0,0,0-.25-1.77A.52.52,0,0,1,128.84,671Z"/><path class="cls-3" d="M112.24,511.38a3.33,3.33,0,0,0-1.06-3.11l-.49-.24h-.16a2.12,2.12,0,0,0-1.41.56,1.15,1.15,0,0,1-.36.22l-.59.64a2,2,0,0,0,1.16,2.27,2.11,2.11,0,0,1,.22.14.68.68,0,0,1-.16-.52l.61,1.45C111.5,512.66,112.05,512,112.24,511.38Z"/><path class="cls-3" d="M126.47,557.23l1.36-.5a2,2,0,0,0-.4-1.53,1.54,1.54,0,0,0-1.25-.55H126l-.69.65A1.47,1.47,0,0,0,126.47,557.23Z"/><path class="cls-3" d="M129.81,569.75a2,2,0,0,0-1.67.94,1.7,1.7,0,0,0-.08,1.51l.61.49a2.73,2.73,0,0,0,2.26-.53l.32-.54a1.7,1.7,0,0,0-.27-1.31A1.41,1.41,0,0,0,129.81,569.75Z"/><path class="cls-3" d="M201.05,833.37a6.19,6.19,0,0,0-.82,0,2.41,2.41,0,0,0-2.44,1.25c-.62,1.32.25,3,.83,3.94l1.21.07a1.35,1.35,0,0,1,.56-.36l1.35-.61a5.8,5.8,0,0,1,.13-1.28,3.51,3.51,0,0,0-.22-2.51Z"/><path class="cls-3" d="M161.24,817.87a1.44,1.44,0,0,0,.25.24,2.33,2.33,0,0,0,0,.38h0a1.37,1.37,0,0,0,1.24,1.52v-1c.09,0,.15.08.29,0v-.92l.41-.39a1.55,1.55,0,0,0-1.26-2l.07.08-1.36.49A2,2,0,0,0,161.24,817.87Z"/><path class="cls-3" d="M172.81,568.57a2.09,2.09,0,0,0-.46-2.35l-1,.12a.34.34,0,0,1,.26-.16,2.52,2.52,0,0,1-.45-.13,3.46,3.46,0,0,0-1.13-.26,1.64,1.64,0,0,0-1.54,1.13l-.07.3a2.76,2.76,0,0,0,.7,2c.23.3.32.41.32.68l.72.86c1.4.13,2.35-.28,2.79-1.21l-.41-1.21a.53.53,0,0,1,.25.45A1.61,1.61,0,0,1,172.81,568.57Z"/><path class="cls-3" d="M162.15,828.14c-.14-.1-.28-.19-.41-.3l-1.36,1.06a2,2,0,0,0-.54,2.15l.55.6a3.3,3.3,0,0,1,.72.3c.39.22.79.44,2.06.08l.58-.74A3,3,0,0,0,162.15,828.14Z"/><path class="cls-3" d="M119.56,491.34a5.11,5.11,0,0,0-.53,0,1.31,1.31,0,0,0-1.14.53,1.65,1.65,0,0,0-.12,1.38l.74.61h1.7L121,493v-.76l-1-.83Z"/><path class="cls-3" d="M372.2,594.79a2.24,2.24,0,0,0-1.57.68,2.25,2.25,0,0,1-.3.24l-.42.64a3.4,3.4,0,0,0,.95,3l.24.3,1.13.06a4.19,4.19,0,0,0,.46-.58,3.53,3.53,0,0,1,.45-.54l-.28,0,1.31-.42a2.12,2.12,0,0,0-.83-2.19l-.16-.14a.59.59,0,0,1,.09.48l-.38-1.45A2.84,2.84,0,0,0,372.2,594.79Z"/><path class="cls-3" d="M369.74,345.37a1.84,1.84,0,0,0-.4,0c-2,0-2.15,2.34-2.18,3.1l.51.86a2.39,2.39,0,0,1,.43.25,2.34,2.34,0,0,0,1.28.51,1.5,1.5,0,0,0,1.17-.6l-.05-.06.27-.18c.49-1-.35-3.23-.44-3.42Z"/><path class="cls-3" d="M369.82,699.5a3.27,3.27,0,0,0-2,.94l-.31.81a2.85,2.85,0,0,0,2.72,2.52,2.27,2.27,0,0,0,2.24-2.12l-.28-.81A3.77,3.77,0,0,0,369.82,699.5Z"/><path class="cls-3" d="M367.24,851.56h-2l-.71.53a5.06,5.06,0,0,0-.16,4l.13.43,1,.55c1.13-.45,1.61.24,3-.89l.3-.75a10.71,10.71,0,0,0-.76-3.31Z"/><path class="cls-3" d="M366.29,874.82l-.86.52-.67.59v.76l.75.86a1.32,1.32,0,0,1,.43.12,1.54,1.54,0,0,0,.56.13c.82,0,1.06-.91,1.15-1.24l-.85-1.15A1.75,1.75,0,0,0,366.29,874.82Z"/><path class="cls-3" d="M369.82,671.85l-.9.52a2.61,2.61,0,0,1-.38.65,3.49,3.49,0,0,0-.67,3.3l.7.48a1.64,1.64,0,0,0,.1.6,1.27,1.27,0,0,0,.73.66l.84-.26a1.85,1.85,0,0,1,.58-.22,2.23,2.23,0,0,0,1.56-1.06l.08-.29C372.78,673.84,371.89,672.37,369.82,671.85Z"/><path class="cls-3" d="M376.91,768.15c-.28,0-.49-.07-.66-.11a3.88,3.88,0,0,0-.58-.07,2,2,0,0,0-1.39.76l-.27.56a2.81,2.81,0,0,0,.49,2.07,2.93,2.93,0,0,0,2.75.78l.7-.81a4.09,4.09,0,0,0-.57-2.93Z"/><path class="cls-3" d="M376.7,487.73a3.13,3.13,0,0,0-2.83,3.07,1.9,1.9,0,0,0,.49,1.34,1.81,1.81,0,0,0,1.37.54l0,0,.28.21,1.07-.25a10.56,10.56,0,0,0,1.15-3.74l-.45-.94A2.57,2.57,0,0,0,376.7,487.73Z"/><path class="cls-3" d="M374.26,606.81a3.06,3.06,0,0,0,.27-1.25l-.83-.84c-.13,0-.19,0-.4-.24a2,2,0,0,0-1.4-.62,2.75,2.75,0,0,0-.75.13l-.36.25a4.7,4.7,0,0,0,0,4.57l.39.26a2,2,0,0,0,1.6-.29.51.51,0,0,1,.45-.09l.93-1.05A1.16,1.16,0,0,1,374.26,606.81Z"/><path class="cls-3" d="M341.94,747.38a2,2,0,0,1-.33-.25,2.25,2.25,0,0,0-1.56-.67,2.84,2.84,0,0,0-.69.09l-.61.82a2.85,2.85,0,0,0,2.33,3.14l.58-.12a1.45,1.45,0,0,0,.68-1.11,1.38,1.38,0,0,0-.11-.59,1.61,1.61,0,0,0,.12-.33Z"/><path class="cls-3" d="M328.33,856.5h-.19a1.94,1.94,0,0,0-1.41,1.25c-.06.11-.16.33-.21.35l-.38,1c.31,1,.94,3,2.68,3a3.53,3.53,0,0,0,1.86-.66l.37-.61a4.4,4.4,0,0,0-.49-3.17A3,3,0,0,0,328.33,856.5Z"/><path class="cls-3" d="M291.53,712.22l.73-.33a3.42,3.42,0,0,0,.63-1.83,1.45,1.45,0,0,1,.13-.59l-.44-1.18a3.64,3.64,0,0,0-1.45-.35,3.69,3.69,0,0,0-1.47.35l-.5.65a3,3,0,0,0,.33,2.19A2.78,2.78,0,0,0,291.53,712.22Z"/><path class="cls-3" d="M292.35,745l-.8.75a2.69,2.69,0,0,0,1.93,3.22l.79-.25a2.15,2.15,0,0,0,.38-2.21A2.49,2.49,0,0,0,292.35,745Z"/><path class="cls-3" d="M353.58,260.12a5,5,0,0,0-.08-4.05,2.59,2.59,0,0,0-2.32-1.34l-.67.41a3.67,3.67,0,0,0-.26,3.18,3.72,3.72,0,0,0,2.47,2.29Z"/><path class="cls-3" d="M293.7,734.49l-.62-1.23a.39.39,0,0,1,.29.3,2.29,2.29,0,0,1,.19-.74l-.51-1.46h-.44a7.92,7.92,0,0,0-3.3.83l-.5.61a3,3,0,0,0,.22,2,1.27,1.27,0,0,1,.13.74l.69,1A3.42,3.42,0,0,0,293.7,734.49Z"/><path class="cls-3" d="M352.28,126.11c-.07-.38-.13-.72-.17-1a4.71,4.71,0,0,0-1.09-2.84l-1.31.69c0,.11,0,.18,0,.2l-.21,0-.84.86v1.51l.74.86a.49.49,0,0,1,.41.14,2.56,2.56,0,0,0,1.62.61Z"/><path class="cls-3" d="M282.4,400.72l-.66.4a1.28,1.28,0,0,1-.38.31,2.28,2.28,0,0,0-1.1,2.59l.7.54a1.31,1.31,0,0,1-.09-.17,1.74,1.74,0,0,1-.07-.3l.19.48.18.15a.7.7,0,0,1-.18-.13l.32.88c2.07.18,3.19-1,3.24-3.12l-1-.85A1.39,1.39,0,0,0,282.4,400.72Z"/><path class="cls-3" d="M347.16,94.81l-.7-.86a1.25,1.25,0,0,0-.61-.35l-.93,1.09c0,.44.07,1.77,1.25,1.77a1.73,1.73,0,0,0,.38,0l.61-.84Z"/><path class="cls-3" d="M200,251.25a3.21,3.21,0,0,0,2.3,1.78l.8-1.26a.38.38,0,0,1-.17.28,2.07,2.07,0,0,1,.26-.06,1.58,1.58,0,0,0,1.15-.68,1.72,1.72,0,0,0,.17-1.18c-.24-1.51-1.28-2.38-3.07-2.6l-.84.63a2.48,2.48,0,0,1-.47.89,7.61,7.61,0,0,0-.5.83l.08.94Z"/><path class="cls-3" d="M5.31,168.1l.71-.77a3.33,3.33,0,0,0-.51-2.45,2.05,2.05,0,0,0-1.61-.77l-.72.48a2.83,2.83,0,0,0-.05,2.52A2.17,2.17,0,0,0,5.31,168.1Z"/><path class="cls-3" d="M31.07,186.31l.25,0,.7-.78a2,2,0,0,0-.4-1.54,1.52,1.52,0,0,0-1.23-.54h-.23l-.71.79a2.07,2.07,0,0,0,.4,1.55A1.52,1.52,0,0,0,31.07,186.31Z"/><path class="cls-3" d="M-.32,485a5,5,0,0,0,.4,1.64,3.48,3.48,0,0,1,.22.61,1.13,1.13,0,0,0-.15.48,1,1,0,0,0,.71,1.07,2.65,2.65,0,0,0,3.49-1.34,3.42,3.42,0,0,0-.54-3.41l-.47-.32a3.29,3.29,0,0,0-.6-.06,2.89,2.89,0,0,0-1.2.29,1.29,1.29,0,0,1-.93.15Z"/><path class="cls-3" d="M3.57,630.88l-.81.9c.11,2.24.62,2.88,1.54,3.28.27.12.41.17.53,1l1.54-.1a.75.75,0,0,1-.58.58,2,2,0,0,0,1.87.13l.4-.91a1,1,0,0,1,.21-.84,2.79,2.79,0,0,0,.5-1.7l-.72-.83a.4.4,0,0,1,.3.21c0-.07,0-.15-.07-.25a3,3,0,0,0-1.71-2.17l-.86.21A2.66,2.66,0,0,1,3.57,630.88Z"/><path class="cls-3" d="M5.68,448.6v-.77L5,447a1.41,1.41,0,0,0-.6-.36l-1,1.1c0,1.34.6,1.95,1.6,1.72Z"/><path class="cls-3" d="M21.92,108.8a2.87,2.87,0,0,1,2.56.1l1-.57a3.5,3.5,0,0,0-.08-3.72l-.58-.41a3.73,3.73,0,0,0-.46,0,3.56,3.56,0,0,0-2.67,1.43c-.19.2-.47.5-.58.5s-.12,0-.35-.21l-1.21.39a3.24,3.24,0,0,0-.19,1.43c0,.12,0,.14-.1.36l.82,1.26A11.31,11.31,0,0,0,21.92,108.8Z"/><path class="cls-3" d="M24.89,243.6a3.7,3.7,0,0,0-.58,2.68v.57l.38.76a2.39,2.39,0,0,0,1.83.28,1.47,1.47,0,0,1,.29,0s.09,0,.2.1l1.25-.75a11.43,11.43,0,0,0-.74-3.31l-.72-.53H25.43Z"/><path class="cls-3" d="M28.11,504.9l.75.67h1.7l.78-.89a2.16,2.16,0,0,0-2.1-2.34l-.79.66a1,1,0,0,1-.1.23A2.31,2.31,0,0,0,28.11,504.9Z"/><path class="cls-3" d="M16.44,196.79l.26.67a3.87,3.87,0,0,0,2.48,1.27,2,2,0,0,0,1.75-1l.07-.89a7.52,7.52,0,0,1-.48-1.53c-.17-.79-.39-1.76-1.87-1.76a10.22,10.22,0,0,0-1.54.16l-.62,1.15c.15.47.15.5.1.71A6.21,6.21,0,0,0,16.44,196.79Z"/><path class="cls-3" d="M15.91,287.57a2,2,0,0,0,.43.87l.44.23a2.69,2.69,0,0,0,2.35-.6,1.76,1.76,0,0,0,.51-1.11,1.55,1.55,0,0,0-.48-1.06c-.2-.23-.23-.25-.16-.5l-.92-1.08a4,4,0,0,0-2.53,1.89l.5,1.32C16,287.5,15.87,287.43,15.91,287.57Z"/><path class="cls-3" d="M4.88,537.85a1.46,1.46,0,0,1-.25-.13l-1.16.93,0,.31c.09.56.3,1.89,1.58,1.89l.23,0,.67-.62A1.79,1.79,0,0,0,4.88,537.85Z"/><path class="cls-3" d="M7.14,866.37l-.36.21a3.83,3.83,0,0,0-1.15,2.3,4.94,4.94,0,0,1-.39,1.36l.48,1.21a2,2,0,0,1,.65.44,3,3,0,0,0,2.81.72l.43-.3a5.62,5.62,0,0,0,1-3.25,10.67,10.67,0,0,1,.15-1.29l-.93-1a2,2,0,0,1-.76-.17,3.34,3.34,0,0,0-1.24-.28A3.1,3.1,0,0,0,7.14,866.37Z"/><path class="cls-3" d="M-2.93,378.6l.25.87.62.58a2.32,2.32,0,0,0,2-.53,1.63,1.63,0,0,1,.43-.25L.74,378a4.68,4.68,0,0,1-.52-2.09c-.12-1.25-.28-3-2.29-3.56l-.92.52c0,.12-.18.22-.39.39a2.34,2.34,0,0,0-1,1.76l.25.7A6.93,6.93,0,0,1-2.93,378.6Z"/><path class="cls-3" d="M155.69,436.66c.66.43,1.3,1,2.27.48a1,1,0,0,0,.54.18l.81-.88a4.16,4.16,0,0,0-.69-2.12,3.29,3.29,0,0,1-.38-.78l-1.17-.57a4.1,4.1,0,0,0-1.94-.41h0l-.77,1a1.75,1.75,0,0,1-.2,1.28l.59,1.37A2.55,2.55,0,0,1,155.69,436.66Z"/><path class="cls-3" d="M76,406a5.25,5.25,0,0,0,1.59,4.92l1,.09c.16-.12.33-.23.5-.34a3.55,3.55,0,0,0,1.87-3.91l-.16-.41a2.7,2.7,0,0,0-2.32-1.19,6.42,6.42,0,0,0-.91.08,4.17,4.17,0,0,1-.67,0Z"/><path class="cls-3" d="M108.48,37.88a3.26,3.26,0,0,0,2,.78c1.71,0,3.07-1.66,3.3-4l-.09-.48a1.94,1.94,0,0,0-.81-.86,1.1,1.1,0,0,0-.2-.11.75.75,0,0,1,0-.31l-.87-1.07a3.4,3.4,0,0,0-1.46.66,2,2,0,0,1-1.16.45l-.77.86a5.13,5.13,0,0,1-.17,1.11,5.62,5.62,0,0,0-.16,2.46Z"/><path class="cls-3" d="M113.23,547.49a1.46,1.46,0,0,0-.48-.08,1.09,1.09,0,0,0-1.1.81l-.76.76a2.2,2.2,0,0,0,.26,1.3c.08.16.08.18.07.25l.67.92a2.72,2.72,0,0,0,2.28-.54l.27-.39a1.59,1.59,0,0,0-.76-2.2Z"/><path class="cls-3" d="M112.86,798.86a2.55,2.55,0,0,0,.89,2.33,1,1,0,0,0,.86.89l.94-.81a1.35,1.35,0,0,1-.27.26l1.23-.43a1.71,1.71,0,0,0,0-.93l.37-.34a2.12,2.12,0,0,0-.25-1.32c-.08-.16-.09-.18-.08-.26l-.64-.9a4.54,4.54,0,0,0-.84-.08A2,2,0,0,0,112.86,798.86Z"/><path class="cls-3" d="M116.75,433.49l1.41.72c-.07.14-.22.26-.62.24a2.53,2.53,0,0,1,.46.54,3.73,3.73,0,0,0-.77,1.74,5.27,5.27,0,0,1-.14.57l.21.94c.83.82,1.69,1.67,2.75,1.67a2.21,2.21,0,0,0,1.29-.46l.34-.79a21.55,21.55,0,0,1,0-3,9.48,9.48,0,0,0-.8-5.3l-.62-.43h-.1a3.65,3.65,0,0,0-1.47.46l-.13.06-.33-.46c-1.49.62-1.92,1.37-1.53,2.68A1.13,1.13,0,0,1,116.75,433.49Z"/><path class="cls-3" d="M105.59,305.32c.19.07.37.16.56.25a4.23,4.23,0,0,0,2.1.56h0l.7-.56c.45-1.23,1.14-3.12-.23-4.38l-1.25.63h0a.66.66,0,0,1,.62-.48c.16,0,.3.07.2,0a1.67,1.67,0,0,0-1.08-.46,1.37,1.37,0,0,0-.74.23l-.36.6a1.18,1.18,0,0,1-.34.59,2.82,2.82,0,0,0-.7,2.32Z"/><path class="cls-3" d="M101.24,300.37a1.69,1.69,0,0,0,1.42-.76c.52-.77.58-2,.17-3.68l-.83-.62c-3,.33-3.37,1.76-3.33,2.58A2.75,2.75,0,0,0,101.24,300.37Z"/><path class="cls-3" d="M97.84,537.41l.08,0a1.39,1.39,0,0,0,.32.32l1.18-.61c0,.18-.16.33-.11.34l.33,0,.82-.82a8.63,8.63,0,0,1,.12-1c.2-1.25.21-2.33-1.73-2.88l-1,.93a1.85,1.85,0,0,1-.27.17A1.87,1.87,0,0,0,96.53,536l.45.58A1,1,0,0,0,97.84,537.41Z"/><path class="cls-3" d="M124.47,354.28h.23l.63-.43a6.73,6.73,0,0,0,.56-1.9c.06-.32.11-.63.19-.93l-.26-.93a2.86,2.86,0,0,0-1.13-.54,1.45,1.45,0,0,1-.58-.23l-1.22.44-.14.47c-.33,1.07-.7,2.3-.1,3.23A2,2,0,0,0,124.47,354.28Z"/><path class="cls-3" d="M154.41,771l.75-.57a4.39,4.39,0,0,0,0-3.23l-.69-.57-.69,0a2.54,2.54,0,0,0-1.95.66l-.21.79C151.76,768.77,152.18,770.94,154.41,771Z"/><path class="cls-3" d="M95.12,593.16c1.74.32,2.74-.4,2.94-1.87l-.23-.75a2.21,2.21,0,0,0-1.57-.63,1.81,1.81,0,0,0-1.56.79,2.16,2.16,0,0,0-.2,1.86Z"/><path class="cls-3" d="M141.57,99.07a2.63,2.63,0,0,0,2.38-.45,1,1,0,0,1,.82-.29l.83-1.06a4.9,4.9,0,0,1-.12-1.4,2.58,2.58,0,0,0-.32-1.53l-.42,0a.91.91,0,0,0-.89-.74l-.72.48a.48.48,0,0,1,.34-.31l-.27,0a3.22,3.22,0,0,0-1.28.06c-.44-.2-1.1,0-1.26.87a9.73,9.73,0,0,0,.35,3.81Z"/><path class="cls-3" d="M126.1,482.13a2.44,2.44,0,0,0,1.86,1,1.59,1.59,0,0,0,1.56-1.32l-.16-.77a3.42,3.42,0,0,0-2.91-1.45l-.85.73A2.38,2.38,0,0,0,126.1,482.13Z"/><path class="cls-3" d="M156,516.93l.6-1c0-.28-.09-.51-.11-.7a3.44,3.44,0,0,0-1.17-2.42l-1.29.54c0-.2.17-.36.11-.37h-.75l-.73.79a3.79,3.79,0,0,0,.52,2.77C153.7,517.17,154.41,517.32,156,516.93Z"/><path class="cls-3" d="M128,491.17a2.64,2.64,0,0,0,2.28,2.24l1-1a2.42,2.42,0,0,0-1.63-1.88,3.33,3.33,0,0,1-.46-.24Z"/><path class="cls-3" d="M136,696.21c.43.95,1.57,2,4.32,1.2l.56-.68a4.87,4.87,0,0,0-.19-2.26,3.45,3.45,0,0,1-.16-.67l-1-.71c-.29.1-.3.26-.69-.23a2.69,2.69,0,0,0-.27-.32l-1.28.4c0,.15-.15.26-.4.48a2.47,2.47,0,0,0-1,2.54Z"/><path class="cls-3" d="M141.17,498.83l1.35-.34a1.55,1.55,0,0,0-1.27-2,.27.27,0,0,1,.08.07l-1.34.36A1.46,1.46,0,0,0,141.17,498.83Z"/><path class="cls-3" d="M137.27,11.72a3.23,3.23,0,0,0,2.49-1.93L139,8.63a3.62,3.62,0,0,0-3,1.85l.83,1.36Z"/><path class="cls-3" d="M43.41,250.77a1.59,1.59,0,0,0,1.62-1.6l-.89-.88a1.36,1.36,0,0,1-1.12-.21l-1.22.47a1.87,1.87,0,0,0,.24,1.53A1.66,1.66,0,0,0,43.41,250.77Z"/><path class="cls-3" d="M59.16,609.39h0l.12.9a1.68,1.68,0,0,0,1.62.29l.55-.66a2.76,2.76,0,0,0-.32-2.09,2.16,2.16,0,0,0-1.79-.84l-.8,1a.5.5,0,0,1-.08.29,2.2,2.2,0,0,0-.27,1.21l.91.78Z"/><path class="cls-3" d="M61.9,8.49a3.75,3.75,0,0,1,.44.24l1.16-.61,0-.3A3.5,3.5,0,0,0,63,4.87l-.56-.39-.25,0a1.66,1.66,0,0,0-.93.3.45.45,0,0,1-.22.09l-.83.75A2.58,2.58,0,0,0,61.9,8.49Z"/><path class="cls-3" d="M44.4,183.12a2.13,2.13,0,0,0,.13.45V185c.34.22.55,1.79.65,2.55a8.09,8.09,0,0,0,.43,2l1.11.35a10.47,10.47,0,0,1,3.6-1.44,15.68,15.68,0,0,0,2.76-.92,1.48,1.48,0,0,0,.69.14,2.49,2.49,0,0,0,1.62-.53l.25-.66a6.47,6.47,0,0,1,.26-1.36c.08-.35.17-.72.24-1.1a4.33,4.33,0,0,0,.58-.08l.62-1a4.07,4.07,0,0,0-.68-1.55,2,2,0,0,1-.36-1.87l-.41-1a5.64,5.64,0,0,1-2.27-4.37,2.58,2.58,0,0,1,1.27-2.44l.13-1.43A6,6,0,0,0,51,168.63a7.78,7.78,0,0,0-3.24.84l-.47.88c0,.13,0,.24,0,.32l-.7.37a12.71,12.71,0,0,1-.84,3.36c-.74,2.25-1.64,5-1.15,7.53l-.1,0A1.29,1.29,0,0,0,44.4,183.12Z"/><path class="cls-3" d="M30.44,44.92a.63.63,0,0,1,0-.5l-.14.22L30.73,46a1.29,1.29,0,0,1,.39.23,2.19,2.19,0,0,0,1.53.56h0l.49-.24a2.94,2.94,0,0,0,0-3.53l-.48-.23h-.29a2.26,2.26,0,0,0-2.15,1.18l.53,1.29A.58.58,0,0,1,30.44,44.92Z"/><path class="cls-3" d="M35.53,133.91c.09.32.3,1.14,1.15,1.2l.71-.39a1.79,1.79,0,0,1,.7-.67,3,3,0,0,0,1.47-2.74l-.21-.68a2.44,2.44,0,0,0-2-.67h-1l-.77.7a5,5,0,0,1-.3,1.09c-.08.25-.19.56-.35,1.07L35.8,134C35.68,134,35.53,133.87,35.53,133.91Z"/><path class="cls-3" d="M38.59,782.58l-.52.51a4.21,4.21,0,0,0-.13,2.94,2.15,2.15,0,0,0,1.28,1.24l.49-.35a1.06,1.06,0,0,0,.64.38l.77-.35a3.38,3.38,0,0,0,.22-3.16,2.13,2.13,0,0,0-2-1.33A2.63,2.63,0,0,0,38.59,782.58Z"/><path class="cls-3" d="M42.36,343.58l.41.29.87.05a2.14,2.14,0,0,0,.9-2.35,2.18,2.18,0,0,0-1.88-1.71c-.71,0-1.49.56-1.58,2.13l.15.56A3.73,3.73,0,0,0,42.36,343.58Z"/><path class="cls-3" d="M61.48,306.88l.66-1c0-.12,0-.26,0-.41,0-.51,0-1.58-.94-1.83l-.29.22a1.56,1.56,0,0,0-.81-.24H59.9l-.66.72a2.45,2.45,0,0,0,.35,1.92A1.81,1.81,0,0,0,61.48,306.88Z"/><path class="cls-3" d="M82.75,401.88a1.75,1.75,0,0,0,0,1.32,1.51,1.51,0,0,0,1,.72l.71-.21a2.36,2.36,0,0,0,.53-2,2.24,2.24,0,0,0-1.09-1.7l-1.07,1A1.57,1.57,0,0,1,82.75,401.88Z"/><path class="cls-3" d="M88.57,167.7l.93-.93c0-.39-.06-.75-.09-1.07a4.87,4.87,0,0,0-.36-2l-1.35.08c-.09.19-.45.27-.74.29l-.71.73C85.94,167.08,87.66,167.49,88.57,167.7Z"/><path class="cls-3" d="M64.75,80.46l.8,0v0h-.8a2.75,2.75,0,0,0,.61,1.75,1.12,1.12,0,0,0,.83.41v-.87a.38.38,0,0,0,.31-.21c-.83-.23,1-.58.34-1.89a1.35,1.35,0,0,0-.54-.06v-.9A1.58,1.58,0,0,0,64.75,80.46Z"/><path class="cls-3" d="M91.42,273.51l.75-.46a3.29,3.29,0,0,1,.48-.71,4,4,0,0,0,.94-1.76l0-.49a3.05,3.05,0,0,0-2.1-2.15,2,2,0,0,1-.83-.46l-1-.06A3.47,3.47,0,0,0,88.56,271,3.3,3.3,0,0,0,91.42,273.51Z"/><path class="cls-3" d="M72.31,235.22l.77-.74a2.51,2.51,0,0,0-1.44-2.79l-1,.27a3.61,3.61,0,0,0-.48,2.52l.77.74Z"/><path class="cls-3" d="M67.86,323.47l1.11-.6c0,.1-.07.19,0,.13a1.56,1.56,0,0,0,1-2l-1-.64a1.42,1.42,0,0,0-1.23-.79,1.5,1.5,0,0,0-.45.07l-.59.78C66.71,321,66.61,322.76,67.86,323.47Z"/><path class="cls-3" d="M72.22,392.44c-.08,2.93,1.39,3.95,2.64,4.29l.82-.33a2.19,2.19,0,0,1,.67-.57,6.55,6.55,0,0,0,.53-.39l.3-.56a2.66,2.66,0,0,0-.72-2.14,2,2,0,0,1-.2-.27,1.22,1.22,0,0,1,0,.22l-.41-1.44a3.52,3.52,0,0,0-.82-.1,2.29,2.29,0,0,0-1.57.59,1,1,0,0,0-.46-.13Z"/><path class="cls-3" d="M449.19,249c-.56,0-1.89.22-2,2.39l.51.84a3.72,3.72,0,0,1,.52.3,3.73,3.73,0,0,0,.87.47l1-.83a1.2,1.2,0,0,1,.13-.53,2.93,2.93,0,0,0,.18-1.92l-.6-.65A3.39,3.39,0,0,0,449.19,249Z"/><path class="cls-3" d="M439.17,138.15h.91a2.45,2.45,0,0,0,2-.66l.22-.6v-.53a3.79,3.79,0,0,0-.6-2.75l-.57-.23a3,3,0,0,0-2.52,1.3,3.44,3.44,0,0,0-.23,2.86Z"/><path class="cls-3" d="M441.74,468.1c-.25.48-.35.45-.53.49l-.8.66a2.28,2.28,0,0,0,.25,1.77.62.62,0,0,1,.09.51l.69,1.05a2,2,0,0,0,2.29-1.43,4.22,4.22,0,0,0-.72-3.52l-1.15.24Z"/><path class="cls-3" d="M448,187a1.66,1.66,0,0,0,.11.61.9.9,0,0,0,.82.61v-.93s0,.07.06.06a.53.53,0,0,1,.12-.35h.45a.88.88,0,0,1,.12-.43.32.32,0,0,1-.21.08v0a.71.71,0,0,0,.2-.8c-.07,0-.12,0-.2,0v-1C448.51,184.91,448,186.15,448,187Z"/><path class="cls-3" d="M445.72,226.46l.72-.17a8.63,8.63,0,0,0,.65-.69c.43-.51.75-1,1.25-.71l1.1-1a1.2,1.2,0,0,1,.1-.85,3.1,3.1,0,0,0,.27-1.25l-.39-.73-1-.67a2.74,2.74,0,0,0-1.33-.62c-.24-.05-.61-.12-1.3-.31l-1,.75a10.72,10.72,0,0,1-.26,1.39C444.21,223.18,443.62,225.75,445.72,226.46Z"/><path class="cls-3" d="M406.27,148.34l.49.4a4.94,4.94,0,0,0,1,.18c.28,0,.32,0,.74.41l1.23-.39a1.65,1.65,0,0,0,0-.91l.37-.32a1.78,1.78,0,0,0-.3-1.44,2.77,2.77,0,0,0-2.18-1,1.38,1.38,0,0,0-1.35.65l.2.4A1.91,1.91,0,0,0,406.27,148.34Z"/><path class="cls-3" d="M405.77,299.67c1.8.37,2.3-.1,2.66-.54a1.43,1.43,0,0,1,.25.09l1.06-1-.09-.39s0,0,0,0l.26-.28-.47-1.43a1.27,1.27,0,0,1,0-.57l-.59-.95a2.11,2.11,0,0,0-.6-.08,2.76,2.76,0,0,0-1.15.28c-.09,0-.22.08-.26,0l-1.25.21c-.7,1.55-.68,1.91-.42,3.92Z"/><path class="cls-3" d="M415.86,160.41l-.7-1.24a.71.71,0,0,1,.32.13,1.27,1.27,0,0,0-.86-.86l-.91.62a.5.5,0,0,1,.11-.18l-.81.78v1.13l.84.86A2.24,2.24,0,0,0,415.86,160.41Z"/><path class="cls-3" d="M417.84,6.19l.77-.54a3.76,3.76,0,0,0,.28-1.34A7.11,7.11,0,0,1,419,3.2l-.51-1a2.82,2.82,0,0,0-1-.26,1.5,1.5,0,0,0-1,.43,2.82,2.82,0,0,1-.37.29l-.37.66a2.93,2.93,0,0,0,.48,2A2.13,2.13,0,0,0,417.84,6.19Z"/><path class="cls-3" d="M416.78,149l1.19-.6c.21-1.65-.55-2.37-1.34-2.49l-.89.9c0,.23-.05.34-.21.63l.7,1.33A.85.85,0,0,1,416.78,149Z"/><path class="cls-3" d="M401.15,300.46l.71,0,.72-.68a2.57,2.57,0,0,0-1.74-3.21l-.4.76.29-.8-1,.6a1.59,1.59,0,0,1-.21.41,2.68,2.68,0,0,0-.49,1.75l.23.55A2.48,2.48,0,0,0,401.15,300.46Z"/><path class="cls-3" d="M405.92,356.79a2,2,0,0,0-.16,1.82,1.19,1.19,0,0,0,2.14-.44,1.6,1.6,0,0,0-.94-1.73Z"/><path class="cls-3" d="M400.87,70.41a2.76,2.76,0,0,0,.8.19l.8-.62a.58.58,0,0,0,0-.18,4.21,4.21,0,0,0,1.42-2.55c0-.43,0-1.83-2-2.11l-.85.63A12.36,12.36,0,0,1,399.79,69l.58,1.31A4.93,4.93,0,0,1,400.87,70.41Z"/><path class="cls-3" d="M434.3,201a.65.65,0,0,1-.4-.21c.2.93.71,1.11,1.11,1.11a1.45,1.45,0,0,0,.61-.14l.35-.6a1.39,1.39,0,0,0,1.79-1l.07-.42c-.11-2.11-.91-3.28-2.4-3.45l-.69.31a3.9,3.9,0,0,1-.42.48,3.47,3.47,0,0,0-1.11,3.22Z"/><path class="cls-3" d="M405.26,371.27l.76-.07c.13-.1.26-.18.41-.28a2.84,2.84,0,0,0,1.61-2.87,3,3,0,0,0-2-2.24c-.16-.08-.33-.16-.49-.26l-1.13.64a7.4,7.4,0,0,1-.27,1.15C403.87,368.53,403.38,370.33,405.26,371.27Z"/><path class="cls-3" d="M434.16,478.65a1.56,1.56,0,0,0,1.61-1.58l-1.06-.86-.39,0a3.81,3.81,0,0,0-.57-.06,1.18,1.18,0,0,0-1,.41,1.33,1.33,0,0,0-.28,1l.21.52A1.93,1.93,0,0,0,434.16,478.65Z"/><path class="cls-3" d="M429.45,564l.23,0,.34-.46a.3.3,0,0,1-.31.08l.93-.84V562l-.36-.73a1.27,1.27,0,0,0-.72-.24c-.7,0-1.22.67-1.22,1.57a1.77,1.77,0,0,0,.19.82A1.06,1.06,0,0,0,429.45,564Z"/><path class="cls-3" d="M428.26,627.74l-.19.46A2.5,2.5,0,0,0,429.5,631l1.14-.86c0,.1-.08.26,0,.26h0a1.42,1.42,0,0,0,1-1.81,1.61,1.61,0,0,0-1.75-1.52A2.21,2.21,0,0,0,428.26,627.74Z"/><path class="cls-3" d="M432.59,286.79c.08.58.29,1.9,1.58,1.9l.24,0,.53-.33a3.17,3.17,0,0,1,.28-.34,3.06,3.06,0,0,0,.9-2l-.26-.68a2.84,2.84,0,0,0-1.71-.68,1.27,1.27,0,0,0-1.3,1.22l.12.15-.44.51Z"/><path class="cls-3" d="M427.36,237.49l.88-.75a2.19,2.19,0,0,0-.28-1.67l-.74-.38a1.29,1.29,0,0,0-1.16,1.28A1.42,1.42,0,0,0,427.36,237.49Z"/><path class="cls-3" d="M417.16,645.46c-.58,1.68,0,2.36,1.07,3l1.1-.56,0-.21a2.59,2.59,0,0,0-.07-2,1.66,1.66,0,0,0-1.33-.74Z"/><path class="cls-3" d="M423.72,260.63l.74-1.07a3,3,0,0,1,.12-1.24,2.19,2.19,0,0,0-.09-1.82,1.75,1.75,0,0,0-1.45-.64l-.77,1.1a2.79,2.79,0,0,1-.09,1.34,2.11,2.11,0,0,0,.11,1.75A1.61,1.61,0,0,0,423.72,260.63Z"/><path class="cls-3" d="M424,588.82a5.49,5.49,0,0,0,.71,2.88,4.39,4.39,0,0,1,.34.8l1,.63a6.11,6.11,0,0,1,.88-.25,4,4,0,0,0,2.09-1l.27-.44a2,2,0,0,0-.54-2.14l-.72-1.21a3.1,3.1,0,0,0-.81-.1,6.37,6.37,0,0,0-1.3.18l-.59.13Z"/><path class="cls-3" d="M397,343.83l.38.49a2.07,2.07,0,0,0,2.81-.35,3.12,3.12,0,0,0,.38-2.48l-1-.68a1.06,1.06,0,0,1-.69-.18l-1.4.87A2,2,0,0,0,397,343.83Z"/><path class="cls-3" d="M297.36,6.9a1,1,0,0,1,1.07.23,1.43,1.43,0,0,0,1.95,0l.24-.58a3.87,3.87,0,0,0-2.94-4.28l-.94.49a5,5,0,0,0-.34,3.69Z"/><path class="cls-3" d="M225.88,184.17l.91.6.43-.12a.72.72,0,0,1,.52,0l.42.12.63-.15a3.4,3.4,0,0,0,1-2.26v-.16l.05.08a5.11,5.11,0,0,0,1.76,1.07l.51.23,1.07-.68.21-.17a2,2,0,0,0,.82-2l-.51-.48a1.28,1.28,0,0,0-.6-1.68l-2.05-.09-.76.64a1.77,1.77,0,0,1-.22.47,3.26,3.26,0,0,0-.48,1.29,2.48,2.48,0,0,0-.37-.61l-.87-.2a.75.75,0,0,1-.68.08,4.13,4.13,0,0,0-1.46-.15l-.72,1c.07.62.1,1.07.12,1.44A7.69,7.69,0,0,0,225.88,184.17Z"/><path class="cls-3" d="M250.94,603.48a1,1,0,0,0,.89,1l.66-.22a2.06,2.06,0,0,0,.43-2,1.48,1.48,0,0,0-1.44-1l-.34,0-.65.73A1.64,1.64,0,0,0,250.94,603.48Z"/><path class="cls-3" d="M253.22,481.38a3.34,3.34,0,0,1,0,.47,4.88,4.88,0,0,0,0,.53l.54.78.55.22a2.77,2.77,0,0,0,3.29-.39l.24-.87c-.11-.46-.07-.5.21-.78.1-.1.2-.21.29-.32l-.17-1.31a4.5,4.5,0,0,0-2.58-1.06,3,3,0,0,0-2.58,1.71l.55,1.32A.44.44,0,0,1,253.22,481.38Z"/><path class="cls-3" d="M253.62,504.06h.21a2.33,2.33,0,0,0,1.7-.59l.27-.72a2.17,2.17,0,0,0-2.24-2.32h-.31l-.71.74a3.63,3.63,0,0,0,.48,2.51Z"/><path class="cls-3" d="M248.79,664.91l.64,1.05c.18,0,.29.14.52.35a2.26,2.26,0,0,0,1.75.79h0c.95-.18,1.15-1.13,1.26-1.65h0a1,1,0,0,0,.75-1l-.25-.75a3.27,3.27,0,0,1-1.11-2.12l-.81-.76c-2.12.1-2.4,1.2-2.57,2.73A12,12,0,0,1,248.79,664.91Z"/><path class="cls-3" d="M232.68,533.44l-.49,1.41a5.06,5.06,0,0,1,.37.6,3.64,3.64,0,0,0,1.21,1.49l1-.25a17.36,17.36,0,0,1,1.09-1.43A10.78,10.78,0,0,0,238,532l-.07-.78a1.2,1.2,0,0,0-1-.68.93.93,0,0,0-.39.08l-.65-.44a4.93,4.93,0,0,0-2,2.32C233.55,533.08,233.43,533.32,232.68,533.44Z"/><path class="cls-3" d="M244.34,415.37l.71.71a3.56,3.56,0,0,0,1.46-.14.72.72,0,0,1,.68.08l1-1.15c0,.07,0,.2.05.15a1.53,1.53,0,0,0,1-1.14l-.12-.65c-.75-1.26-1.94-2.93-3.49-2.93h0a2.8,2.8,0,0,0-2.21,1.35l-.14.35a2.85,2.85,0,0,0,.67,2.76A1.34,1.34,0,0,1,244.34,415.37Z"/><path class="cls-3" d="M240.36,771.41a1.93,1.93,0,0,0,.46.88l.6.22h.21v-.85h0l.31.86c.86,0,1.37-.35,1.51-1v0a1.55,1.55,0,0,0,.74-.87,1.6,1.6,0,0,0-.11-1.22l-.19-.26a1.91,1.91,0,0,0-1.34-.45,2.79,2.79,0,0,0-2.63,1.55l.58,1.17C240.4,771.35,240.33,771.26,240.36,771.41Z"/><path class="cls-3" d="M242.75,514.73a2.39,2.39,0,0,0,2.08,1.24,7.77,7.77,0,0,0,1.43-.17l.64-1a1.23,1.23,0,0,1,.24-1,3.4,3.4,0,0,0,.42-1l-.44-1-.22-.1a9.28,9.28,0,0,0-1.43-.58,2,2,0,0,0,1-1.69,1,1,0,0,0-1.12-1.1h0l0,0a1.08,1.08,0,0,0-.68-.28,1,1,0,0,0-1,.88l.64,1.06a.41.41,0,0,1-.31-.27,3,3,0,0,1,0,.52l.45.81h-.07a5.88,5.88,0,0,0-2,2.2l.1,1Z"/><path class="cls-3" d="M267.56,656.68l-.63,1c0,.17,0,.28,0,.32a2.73,2.73,0,0,1-.41,0,2,2,0,0,0-1.68.66,2.64,2.64,0,0,0-.35,2l.6.72a1,1,0,0,1,.37.23,2.27,2.27,0,0,0,1.53.55h0l.68-.68a3.88,3.88,0,0,1,1-.52c.84-.35,2.1-.88,1.77-2.17l-.32,0v-1l-1.29-.87a1.51,1.51,0,0,0-1-.39Z"/><path class="cls-3" d="M275.11,560.74c.92.46,2.23.81,3,0l.23-.46a3.13,3.13,0,0,0-.66-2.69,1.64,1.64,0,0,1-.36-.69l-.63-.66-.33,0a1.55,1.55,0,0,0-1,.39l-.29,0-1,.83v2.27l.52.82A5.34,5.34,0,0,1,275.11,560.74Z"/><path class="cls-3" d="M392.59,255.61c.36.19.71.41,1.06.62a15.48,15.48,0,0,0,1.71.92l.82-.71h.05l.88-.75c.22-2-.88-2.41-1.35-2.48L395,254a3,3,0,0,1-.59-.14c-.85-.26-1.85-.22-2.19.64Z"/><path class="cls-3" d="M276.6,196.84l.58-.54.21.23a4.07,4.07,0,0,1,1.76.18,3.39,3.39,0,0,0,3-.34l.31-.65v-.25a2.6,2.6,0,0,0,.51-.12,2.11,2.11,0,0,0,1.12-1.61,3.53,3.53,0,0,0-.46-2.81l-.5-.28h-.22a2,2,0,0,0-1.35.55.82.82,0,0,1-.33.2l-.17-.12c-.53-.39-.72-.54-.66-1.18l-.57-.93a1.73,1.73,0,0,0-1.48.17,2.42,2.42,0,0,0-2.08-1.72l-.77,1.22a5.28,5.28,0,0,1-.2,3C274.93,193.5,274.37,195.75,276.6,196.84Z"/><path class="cls-3" d="M273.35,763.39l.58-.74a1.51,1.51,0,0,1,.27-.69c.06-.11.13-.23.19-.36a4,4,0,0,0,.54,1.89,4.16,4.16,0,0,1,.25.52l.76.55c2.25-.13,2.76-.93,3.15-1.88a3.52,3.52,0,0,1,.18-.4l-.18-1.18a2.36,2.36,0,0,1-.5-.71c-.12-.22-.24-.43-.37-.64l-.5-.32a3,3,0,0,0-2.33.54,2.64,2.64,0,0,1-.46.27l-.23.31a4,4,0,0,0-.1-1.24l-.74-.65c-.1,0-.12,0-.32-.35a1.86,1.86,0,0,0-1.65-1.17l-.35.05a2.82,2.82,0,0,0-2,3.18C269.84,762.31,271.76,763.87,273.35,763.39ZM271.89,758h0v0Z"/><path class="cls-3" d="M264.75,742.16l.61-.66a3,3,0,0,0-.51-2.32,2.58,2.58,0,0,0-2-1.11,2.24,2.24,0,0,0-2,1.29v.91A3.19,3.19,0,0,0,264.75,742.16Z"/><path class="cls-3" d="M257.7,454.55a1.83,1.83,0,0,0,1.88.58l.67-.85v-1.9l-.69-.85-.22,0a1.74,1.74,0,0,0-1,.31c-.14.08-.17.09-.22.09l-.82.72A2.44,2.44,0,0,0,257.7,454.55Z"/><path class="cls-3" d="M265.49,504.42h.23a2.9,2.9,0,0,0,2.4-3.16l-.78-.83h-2l-.78,1c0,.09,0,.09-.07.26a2.31,2.31,0,0,0-.27,1.22l.46.62A1,1,0,0,0,265.49,504.42Z"/><path class="cls-3" d="M263.25,521a1.27,1.27,0,0,0,.85.88l.29-.19a1,1,0,0,0,.87.59l.8-1c-.07-.51-.26-2.09-1.53-2.59l-.94.71h0l-.09.08a.75.75,0,0,1,.12-.34,1.31,1.31,0,0,0-.79.9l.75,1.08A.52.52,0,0,1,263.25,521Z"/><path class="cls-3" d="M166.31,290.57l.42.67a2.24,2.24,0,0,0,2.89-.37,3.2,3.2,0,0,0,.64-2.35l-.43-.72a2.83,2.83,0,0,0-1.27-.33,2.14,2.14,0,0,0-1.69.8A3,3,0,0,0,166.31,290.57Z"/><path class="cls-3" d="M191.9,711.72a2.3,2.3,0,0,0,2.72,1.24l.37-.21a2.16,2.16,0,0,0,.39-2.36,1.9,1.9,0,0,1-.15-.83l-.68-.94a4.76,4.76,0,0,0-.72-.06,2.34,2.34,0,0,0-2.51,1.82l.24.88A3.23,3.23,0,0,1,191.9,711.72Z"/><path class="cls-3" d="M184.39,610.61v-.88l.14,0c-.61-.71,1.57-1.54,1.37-3a1.71,1.71,0,0,0-1.54-1v-.93c-1.61,0-2.92,1.83-2.92,3.34a2.37,2.37,0,0,0,.59,1.63A3,3,0,0,0,184.39,610.61Z"/><path class="cls-3" d="M192.89,406.2a1.52,1.52,0,0,1,.43.25,2.22,2.22,0,0,0,1.94.53l.5-.88L196,406a1.52,1.52,0,0,0,1.28-1.29l-.47-.81a3,3,0,0,0,.13-.79l-.48-.84a3.28,3.28,0,0,1-.73-.45,2.27,2.27,0,0,0-1.41-.56,3.29,3.29,0,0,0-1.13.23l-.53.86a2.45,2.45,0,0,1-.17,1,4.14,4.14,0,0,0-.17,2.2Z"/><path class="cls-3" d="M283,236.81l.05.27c.09.59.29,1.94,1.59,1.94h.23l.68-.72.05-.31c.15-.88.24-1.51-.13-2a1.06,1.06,0,0,0-.88-.42,3.28,3.28,0,0,0-1.07.27Z"/><path class="cls-3" d="M226.57,533.18a3.19,3.19,0,0,0,3.17-2l-1.07-1.09a2.9,2.9,0,0,1-.62-.59,4.27,4.27,0,0,0-3.25-1.79h-.27l-.71.74a2.32,2.32,0,0,1-.21.18,2,2,0,0,0-.79,2.12A3.86,3.86,0,0,0,226.57,533.18Z"/><path class="cls-3" d="M196.43,506a2.35,2.35,0,0,1,0,.27c0,.35,0,1.45,1,1.59l.87-1a.62.62,0,0,1-.1.38.48.48,0,0,1-.29.22h.27a1.2,1.2,0,0,0,1.11-.53,1.67,1.67,0,0,0,0-1.41l-.71-.51H197.2Z"/><path class="cls-3" d="M174.45,237.88h.2l.74-.69a3.53,3.53,0,0,1,.5-1.35,3.57,3.57,0,0,0,.53-2.29l-.64-.79a5,5,0,0,1-1.15-.45,5.71,5.71,0,0,0-2.53-.71h-.27l-.65.48a4.35,4.35,0,0,0,0,4A3.66,3.66,0,0,0,174.45,237.88Z"/><path class="cls-3" d="M167.18,118.33l-1.1-.82a.53.53,0,0,1-.3-.11,1.28,1.28,0,0,0-.65-.2,1.41,1.41,0,0,0-1,.52l-.22.46a2.28,2.28,0,0,0,.32,1.74,2.58,2.58,0,0,0,2.15.78l.79-.86Z"/><path class="cls-3" d="M214.85,672l-.26.46a3,3,0,0,0,.43,2.44c1,1.35,3.18,1.6,4.09.35a3,3,0,0,0,.41-2.37l-.1-.28a3.06,3.06,0,0,0-2.66-1.22A2.86,2.86,0,0,0,214.85,672Z"/><path class="cls-3" d="M213.84,474.85l1-.83a2.13,2.13,0,0,0,.55-.94l-.45-1a1.25,1.25,0,0,0-.54-.12,1.71,1.71,0,0,0-1.58,1.56A1.23,1.23,0,0,0,213.84,474.85Z"/><path class="cls-3" d="M219.27,748.42l.25.23a12.68,12.68,0,0,0,1.54,1.36l.81,0c1.06-.67,1.2-3.14,1.2-3.24a1.89,1.89,0,0,0-.43-1.61l-.89,0a2.53,2.53,0,0,1-.47.11,2.39,2.39,0,0,0-2.27,2.46Z"/><path class="cls-3" d="M210.8,25.52a2.93,2.93,0,0,1,.54.11l1.34-.72a1.19,1.19,0,0,1,.13-.74,3.07,3.07,0,0,0,.19-2l-.49-.61a3.69,3.69,0,0,0-1.46-.35,3.64,3.64,0,0,0-1.45.35l-.51.8v1.89l.2.58A2.12,2.12,0,0,0,210.8,25.52Z"/><path class="cls-3" d="M209,593.71a1.94,1.94,0,0,0,1.43-.67,2.94,2.94,0,0,0,.7-2,3,3,0,0,0-3.33-3v.87h0a8,8,0,0,0-.34,3,2.07,2.07,0,0,0,1.58.85Z"/><path class="cls-3" d="M204.12,44.44l.9-.31a2.52,2.52,0,0,1,.29-.33,2.5,2.5,0,0,0,.87-1.56l-1-1c.08,0,.19.07.18,0a1.37,1.37,0,0,0-1.21-.93,2.1,2.1,0,0,0-.75.17L203,41.81c.08.14.07.24,0,.55A1.66,1.66,0,0,0,204.12,44.44Z"/><path class="cls-3" d="M213.34,528.32l.71-.86v-1.89l-.91-.85c-.33.08-.42,0-.75-.22a2.15,2.15,0,0,0-1.42-.56l-.86.83v.08l-.44-.13-.92,1C209.13,527.69,210.72,528.52,213.34,528.32Z"/><path class="cls-3" d="M201,155.52l.31.15a6.85,6.85,0,0,0,1.95.67l.87-.86c0-.11,0-.12.23-.33a2.05,2.05,0,0,0,.79-2.08l-.87-.72a1.26,1.26,0,0,1-.16-.22,1.71,1.71,0,0,0-1.45-.91l-.58.29a2.68,2.68,0,0,1-.42.37,2.69,2.69,0,0,0-1.13,3Z"/><path class="cls-3" d="M257.73,76.7l-.62-1.32a1.25,1.25,0,0,1-.43-.12,1.54,1.54,0,0,0-.56-.13c-.83,0-1.08.93-1.16,1.24l.21.86A1.56,1.56,0,0,0,257.73,76.7Z"/><path class="cls-3" d="M358.2,612.9l.29,0,.63-1a2.35,2.35,0,0,0,0-.26c0-.36,0-1.48-1-1.63l-.88.86a.68.68,0,0,1,.13-.37,1.25,1.25,0,0,0-.81.93l.74,1.09A1.33,1.33,0,0,0,358.2,612.9Z"/><path class="cls-3" d="M360.64,324.67l.52-.62,0-.2a2.63,2.63,0,0,0-.08-2,1.65,1.65,0,0,0-1.33-.74l-.83,1.06c0,.08,0,.37,0,.54a2.32,2.32,0,0,0,.29,1.68A1.22,1.22,0,0,0,360.64,324.67Z"/><path class="cls-3" d="M353.68,644c-1,.18-1.67.7-1.58,2.62l.61.8a1.06,1.06,0,0,1,.37.23,2.27,2.27,0,0,0,1.53.54h0l.2,0a2.32,2.32,0,0,0,1.5-1.39,3,3,0,0,0-.48-2.34,3,3,0,0,1-.2-.41l-1.28-.32A1.06,1.06,0,0,1,353.68,644Z"/><path class="cls-3" d="M362,226.86l.92-.88a2.31,2.31,0,0,0-.31-1.14l.09-.11-.61-1.47a1.65,1.65,0,0,0-1.62,1.56A2,2,0,0,0,362,226.86Z"/><path class="cls-3" d="M349.54,117.34a2.62,2.62,0,0,0-1.21-.26H348l-.59.38a2.94,2.94,0,0,0-.23,2.79,3.48,3.48,0,0,0,2.88,2l.4-.09a1.58,1.58,0,0,0,.72-1.73h0a2.34,2.34,0,0,0,1.67-.58,2,2,0,0,0,.62-1.5,2.31,2.31,0,0,0-2-2.41C351,115.91,350.22,116.13,349.54,117.34Z"/><path class="cls-3" d="M352.11,407.13l.63,1a.68.68,0,0,1-.44-.43,1.55,1.55,0,0,0,.28,1.16,1.4,1.4,0,0,0,1.41.41l.67-.66a2.27,2.27,0,0,0-.44-1.72,1.54,1.54,0,0,0-1.14-.73A1,1,0,0,0,352.11,407.13Z"/><path class="cls-3" d="M362.14,410.68l-1.08.44a1.92,1.92,0,0,1-.61.65,2.23,2.23,0,0,0-.71,3.15l.77.4a1.39,1.39,0,0,1,1.15.23l1.13-.26a4.41,4.41,0,0,0,.53-3A2.49,2.49,0,0,0,362.14,410.68Z"/><path class="cls-3" d="M352.21,132.12l0-.13-.23,0c-1.37.18-2,1-1.85,2.48.32,1.19,1.06,1.9,2,1.9a2.18,2.18,0,0,0,2-1.7A2.51,2.51,0,0,0,353,132Z"/><path class="cls-3" d="M386.05,269.34l.79-.86a4,4,0,0,1,.29-1c.35-.92.86-2.32-.19-3.39l-.72-.2a4.48,4.48,0,0,1-.62.13,4.9,4.9,0,0,0-2.78,1.2l-.25.79C382.91,268.15,384.12,269.31,386.05,269.34Z"/><path class="cls-3" d="M376.08,278.46c0,.13-.05.16-.26.16h0l-.78.93a11,11,0,0,0,.74,3.29l.81.52a1.46,1.46,0,0,1,1.17.23l1.12-.25a4.19,4.19,0,0,0,.38-3.52,3.12,3.12,0,0,0-2.26-1.94Z"/><path class="cls-3" d="M341.5,525.11v.25a2.06,2.06,0,0,0,2.1,1.78,3.33,3.33,0,0,0,2.26-.94l.25-.73c0-.34-.06-.61-.07-.84a2.59,2.59,0,0,0-1.27-2.41l-.64-.14A3.25,3.25,0,0,0,341.5,525.11Z"/><path class="cls-3" d="M391.31,208.52l.33-.63a3.36,3.36,0,0,0-1.81-3.44,3.71,3.71,0,0,1-.79-.63l-1.23.12a4.36,4.36,0,0,0-.25,4C388.27,209.36,389.85,209.64,391.31,208.52Z"/><path class="cls-3" d="M388.09,54.23a2.9,2.9,0,0,0,2.84,1.24l.67-1.15c0,.1-.09.27,0,.27h0A1.36,1.36,0,0,0,392.65,53l-.65-.75a.47.47,0,0,1,.32.29,2.4,2.4,0,0,1,0-.54l-.24-.68a2.46,2.46,0,0,0-2.05-.45l-.27-.54c-.19,0-.28-.06-.53-.23h0L388,51a1.19,1.19,0,0,1-.24.95,3.47,3.47,0,0,0-.44,1l.28.91A4.62,4.62,0,0,1,388.09,54.23Z"/><path class="cls-3" d="M370.85,331.32a2.28,2.28,0,0,1,.2.65,2.53,2.53,0,0,0,.95,1.72l.26.1c1.57.25,2.23-.4,2.52-.94.68-1.25,0-3-.34-3.72l-.59-.45a4.59,4.59,0,0,0-.72-.05,2.36,2.36,0,0,0-2.52,1.8Z"/><path class="cls-3" d="M376.33,34.24l.66-.19a3.58,3.58,0,0,0,.62-2.74,1.28,1.28,0,0,0-1-1l-.67.22a3.14,3.14,0,0,0-.85,2.6A1.56,1.56,0,0,0,376.33,34.24Z"/><path class="cls-3" d="M367.78,16.93l0,.05a2.08,2.08,0,0,0,1.66,1.13,1.88,1.88,0,0,0,.93-.26l.4-.54c0-.11,0-.24.07-.5a.55.55,0,0,1-.46.38l.75-.76a3,3,0,0,0-.86-2.51,2.69,2.69,0,0,1-.3-.37l-.8-.35A3.46,3.46,0,0,0,367,15.54a1.48,1.48,0,0,0,.5,1.48Z"/><path class="cls-3" d="M365.61,67.66a1.66,1.66,0,0,0,.62-.14,2.07,2.07,0,0,0,1-1.77,2,2,0,0,0,1.34-.52l.31.48a1.43,1.43,0,0,0,.62.37l.93-.73a1.51,1.51,0,0,0,.34-.69l-.67-1a1.31,1.31,0,0,0-.62-.35l-.09.07-.2-.22a2.66,2.66,0,0,1,.09-.32,2.43,2.43,0,0,0,.07-1.86,1.28,1.28,0,0,0-.87-.71l-.2.15-.53-.53-.33.11h0c-.07-.08-.14-.18-.25-.29l-1.31.59a3.38,3.38,0,0,1-.42,1.29l-1.19,1.07c.21.42.15.57-.17,1.17a4.58,4.58,0,0,0-.62,2.2l1,.87A1.41,1.41,0,0,0,365.61,67.66Z"/><path class="cls-3" d="M325.85,176.32l-.42.63a3.09,3.09,0,0,0,.23,1.73,1.13,1.13,0,0,1,.11.88l.35.93a1.85,1.85,0,0,0,2.53-.21,1.27,1.27,0,0,1,.71-.43l.57-1.34c-.09-.14-.09-.14,0-.36a1.53,1.53,0,0,0-.52-1.75l-.21.1a1.68,1.68,0,0,0-.45-.84l-.3-.16a2.84,2.84,0,0,0-.69-.09,2.24,2.24,0,0,0-1.57.68A1.78,1.78,0,0,1,325.85,176.32Z"/><path class="cls-3" d="M324.14,447.94l.77-1a.47.47,0,0,1-.22.38,1.14,1.14,0,0,1,.23-.05,1.39,1.39,0,0,0,1.36-1.21l-.18-.66-.33-.39a3.76,3.76,0,0,1-.25-.31l.19-1.25a1.42,1.42,0,0,0-1.1-.46,5,5,0,0,0-1.81.52l-.29.13-.51.72a4.08,4.08,0,0,0,.55,2.88A2,2,0,0,0,324.14,447.94Z"/><path class="cls-3" d="M305.61,439.48a4.73,4.73,0,0,0,.83.45l1-.71c.23-2.05-1-2.41-1.35-2.48l-.89.85a.81.81,0,0,1,.12-.35,1.27,1.27,0,0,0-.79.93l.51,1A4.17,4.17,0,0,1,305.61,439.48Z"/><path class="cls-3" d="M306.62,786.23a2.53,2.53,0,0,0,.69,2.66c.27.28.31.34.31.56l1.05.85a3,3,0,0,1,.39,0,1.62,1.62,0,0,0,1.55-.35,1.33,1.33,0,0,0,.27-1l-.2-.27a1.67,1.67,0,0,0,.56-1.27L311,787a3.68,3.68,0,0,0-2.62-1.69,2.56,2.56,0,0,0-1.38.43Z"/><path class="cls-3" d="M326.14,453.39a3.65,3.65,0,0,0,.83-2.55l-1-.78a.56.56,0,0,1,0-.26l-1-.89a4.38,4.38,0,0,0-3.26,3.75l.24.73A2.85,2.85,0,0,0,326.14,453.39Z"/><path class="cls-3" d="M322.61,827.68l1.18-.25a2.09,2.09,0,0,0,.28-1.34,1.47,1.47,0,0,1,.11-.67l-1.06-1.07a.66.66,0,0,1,.41.2c-.2-.93-.72-1.13-1.12-1.13a1.62,1.62,0,0,0-.6.14l-.43.43C320.6,825.79,321.81,826.93,322.61,827.68Z"/><path class="cls-3" d="M293.78,180.22a1.92,1.92,0,0,0,2.07,1.14l.66-1c0-.13,0-.26,0-.4,0-.48,0-1.58-.89-1.84a.6.6,0,0,0-.09-.15c-.38-.68-1-1.83-2.24-1.83a2,2,0,0,0-.47.06l-.6.84V179l.92.85C293.41,179.78,293.45,179.66,293.78,180.22Z"/><path class="cls-3" d="M288.38,457.58l-.19.54.39.92a1,1,0,0,0,.86,1l.91-.79a.61.61,0,0,1-.57.54h0a3.28,3.28,0,0,1,.57.28,3,3,0,0,0,.83.35l.69-.26a6.14,6.14,0,0,0,1-2l.19-.54-.18-1a2.42,2.42,0,0,0-1.58-.83,1.47,1.47,0,0,1-.88-.38l-1,.11A6.46,6.46,0,0,0,288.38,457.58Z"/><path class="cls-3" d="M160.6,131.27a3.59,3.59,0,0,0-.4.88,2.69,2.69,0,0,0,.13,2.27,1.46,1.46,0,0,0,.16,1.13l.67.36a.94.94,0,0,0,.5-.15l.05-.17a1,1,0,0,0,.79.65l.36,0a2.5,2.5,0,0,0,1.66-1.39,3.64,3.64,0,0,0-.46-2.79c-.12-.25-.29-.63-.31-.71a2.89,2.89,0,0,1,.61-1c.63-.83,1.57-2.08.64-3.71l-.65-.4h-3.41l-.69.45-.15.3a4.91,4.91,0,0,0-.62,3.27l.23.5A2.66,2.66,0,0,0,160.6,131.27Z"/><path class="cls-3" d="M300.3,529.56l1.34-.39c0-.12.05-.25.09-.4a3.51,3.51,0,0,0,0-2.55,1.56,1.56,0,0,0-1.09-.75l-.68.25C299.24,526.54,299.65,528.74,300.3,529.56Z"/><path class="cls-3" d="M334.33,32.35l.8-.81h.05c0,.2-.17.37-.14.38a1.23,1.23,0,0,0,1.15-1.07l-.65-1a.4.4,0,0,1,.32.29,3.09,3.09,0,0,1,0-.53l-.56-.87a1.76,1.76,0,0,0-.55-.09,1.87,1.87,0,0,0-1.75,1.9A1.58,1.58,0,0,0,334.33,32.35Z"/><path class="cls-3" d="M335,87.41a1.9,1.9,0,0,0,.23,1.57,1.31,1.31,0,0,0,1.1.56,1.6,1.6,0,0,0,1.53-1.13,1.37,1.37,0,0,0-.68-1.53l-.5.33a1.34,1.34,0,0,0-.92-.46Z"/><path class="cls-3" d="M334.19,34.61a1.55,1.55,0,0,0-.2,1.23l.76.68h.68l.76-.74a1.55,1.55,0,0,0,.34-.7l-1-1A1.55,1.55,0,0,0,334.19,34.61Z"/><path class="cls-3" d="M336.41,331l-.92.28a4,4,0,0,0-.79,2.72c0,.31,0,.68-.05,1.15l.61.88a1.32,1.32,0,0,1,.14.31l.55.47a3,3,0,0,0,3.79-2.74,2.9,2.9,0,0,0-.45-2.05,1.82,1.82,0,0,0,0-.4l-.72-.69h-.36a3.6,3.6,0,0,0-1.1.16A.72.72,0,0,1,336.41,331Z"/><path class="cls-3" d="M330.31,784.13a1.33,1.33,0,0,0-.35.93h0a2.3,2.3,0,0,0,1.93,2.17l0-.89a.47.47,0,0,0,.44-.28.67.67,0,0,1-.43-.34v-.21a.55.55,0,0,1-.19-.15,2.3,2.3,0,0,1-.07-.82,1.25,1.25,0,0,0-.21,0v-.89A1.45,1.45,0,0,0,330.31,784.13Z"/><path class="cls-3" d="M328.71,507a2,2,0,0,1-.38.08.3.3,0,0,1,.18.12h-1.22a4.25,4.25,0,0,0-.12,3.63c.36.83.87,1,1.15,1a1.05,1.05,0,0,0,.69-.27l.74.32a2.82,2.82,0,0,0,1.07-2.32,3.36,3.36,0,0,1,.19-1.07l-.13-.87a1.59,1.59,0,0,0-1.33-.69A3.37,3.37,0,0,0,328.71,507Z"/><path class="cls-3" d="M331.1,854.67a2.85,2.85,0,0,0-.54,2.5l.83.67c.35,0,.64-.06.88-.07a2.1,2.1,0,0,0,1.68-.59l-.48-1.44a.44.44,0,0,1,.33.3c0-.08,0-.31,0-.47a4.77,4.77,0,0,0,0-.53l-.84-.82a.81.81,0,0,1-.53-.24l-1.12.34A2.07,2.07,0,0,1,331.1,854.67Z"/><path class="cls-3" d="M287.46,404.18l.34,0a1.25,1.25,0,0,1,.49.13l.93-.36a3.42,3.42,0,0,0,.4-3,2.9,2.9,0,0,0-2.29-1.71l-.9.64-.1.38a8,8,0,0,0-.26,3l.39.64A1.84,1.84,0,0,0,287.46,404.18Z"/><path class="cls-3" d="M325.84,27.6a3.66,3.66,0,0,0,.43-2.68l-.74-.74h-.09a1.67,1.67,0,0,0-.87.21l-1,0a4,4,0,0,0-.58,2.94l.61.79A2.09,2.09,0,0,0,325.84,27.6Z"/></g><path class="cls-4" d="M5.48,490.42s7.66,101.75,43.76,93S8.76,392,213.35,260.67c0,0-77.68,133.47,25.16,248.35,0,0,25.16,20.79,24.07-41.57s-4.38-70-4.38-70S362.59,518,381.83,655.62c14.22,101.75,3.09,243.16-135.66,281.17-142.83,39.13-328.07-54.35-291-254.91C-16.22,526.92,5.48,490.42,5.48,490.42Z"/><path class="cls-5" d="M298.44,914.61c-2.36,2.18-4.7,4.42-7,6.7-3.88,3.91-24.6,13.48-34.6,14.66-25.51,8-47.51,10.6-85.4,10.6-66.63,0-122.57-15.24-137.92-35.79C-6,879-101.56,766,82.49,504.78c0,0,0,83.85,18,85.48s87.12-64.11,34.57-205.48c0,0,162.74,72.35,121.63,305.8,0,0,64.11-14.83,57.52-100.32C314.25,590.26,439.06,784.71,298.44,914.61Z"/><polygon class="cls-6" points="171.2 913.82 42.59 839.57 42.59 691.06 171.2 765.32 171.2 913.82"/><polygon class="cls-7" points="171.2 765.32 42.59 691.06 171.2 616.8 299.81 691.06 171.2 765.32"/><polygon class="cls-8" points="299.38 839.57 170.77 913.82 170.77 765.32 299.38 691.06 299.38 839.57"/><polygon class="cls-9" points="112.2 879.46 82.64 862.39 82.64 714.24 112.2 731.31 112.2 879.46"/><polygon class="cls-10" points="252.03 866.49 222.47 883.56 222.47 735.4 252.03 718.34 252.03 866.49"/><polygon class="cls-11" points="112.38 731.27 82.82 714.21 211.12 640.13 240.68 657.2 112.38 731.27"/><polygon class="cls-12" points="222.15 735.27 251.71 718.2 123.41 644.13 93.85 661.19 222.15 735.27"/><path class="cls-13" d="M91.57,633.88l-.43,41.49a22,22,0,0,0,20.65,22.27c16.35,1,37.89.09,47.54-10L163.71,660Z"/><path class="cls-10" d="M163.89,660s-68,4-72.32-26.15S163.89,660,163.89,660Z"/><path class="cls-13" d="M247.67,632.62l.44,41.49a22.06,22.06,0,0,1-20.66,22.27c-16.35,1-37.89.09-47.54-10l-4.38-27.65Z"/><path class="cls-10" d="M175.36,658.77s68,4,72.31-26.15S175.36,658.77,175.36,658.77Z"/><rect class="cls-14" x="157.54" y="655.51" width="24.6" height="37.43" rx="12.3" ry="12.3"/><rect class="cls-15" x="-12.75" y="-13.63" width="471.95" height="906.56"/></g></svg>