<?xml version="1.0" encoding="utf-8"?>
<!-- Generator: Adobe Illustrator 22.1.0, SVG Export Plug-In . SVG Version: 6.00 Build 0)  -->
<svg version="1.1" id="Layer_1" xmlns="http://www.w3.org/2000/svg" xmlns:xlink="http://www.w3.org/1999/xlink" x="0px" y="0px"
	 viewBox="0 0 389 389" style="enable-background:new 0 0 389 389;" xml:space="preserve">
<style type="text/css">
	.st0{fill:none;stroke:#000000;stroke-width:18;stroke-miterlimit:10;}
	.st1{fill:#D83527;}
	.st2{fill:#E97F26;}
	.st3{fill:#442768;}
	.st4{fill:#6A378D;}
	.st5{fill:#2F1944;}
	.st6{fill:#A09F9F;}
	.st7{fill:#828282;}
	.st8{fill:#AEADAE;}
	.st9{fill:#D2D2D1;}
	.st10{fill:#B3B3B3;}
	.st11{fill:#C6C6C5;}
</style>
<circle class="st0" cx="194.5" cy="192.5" r="168.5"/>
<title>1-1-chilly-chiles</title>
<path class="st1" d="M132.9,144.6c0,0,2.9,38,16.3,34.7s-15.1-71.5,61.3-120.6c0,0-29,49.9,9.4,92.8c0,0,9.4,7.8,9-15.5
	s-1.6-26.2-1.6-26.2s39,45,46.2,96.4c5.3,38,1.2,90.8-50.7,105C169.5,326,100.3,291,114.1,216.1
	C124.8,158.2,132.9,144.6,132.9,144.6z"/>
<path class="st2" d="M242.4,303.1c-0.9,0.8-1.8,1.7-2.6,2.5c-1.4,1.5-9.2,5-12.9,5.5c-9.5,3-17.7,4-31.9,4
	c-24.9,0-45.8-5.7-51.5-13.4C128.7,289.8,93,247.5,161.7,150c0,0,0,31.3,6.7,31.9c6.7,0.6,32.5-23.9,12.9-76.8
	c0,0,60.8,27,45.4,114.2c0,0,23.9-5.5,21.5-37.5C248.3,181.9,294.9,254.5,242.4,303.1z"/>
<polygon class="st3" points="194.9,302.8 146.8,275 146.8,219.5 194.9,247.3 "/>
<polygon class="st4" points="194.9,247.3 146.8,219.5 194.9,191.8 242.9,219.5 "/>
<polygon class="st5" points="242.7,275 194.7,302.8 194.7,247.3 242.7,219.5 "/>
<polygon class="st6" points="172.8,289.9 161.8,283.6 161.8,228.2 172.8,234.6 "/>
<polygon class="st7" points="225,285.1 214,291.5 214,236.1 225,229.7 "/>
<polygon class="st8" points="172.9,234.6 161.8,228.2 209.8,200.5 220.8,206.9 "/>
<polygon class="st9" points="213.9,236.1 224.9,229.7 177,202 166,208.4 "/>
<path class="st10" d="M165.1,198.2l-0.2,15.5c-0.1,4.4,3.3,8.1,7.7,8.3c6.1,0.4,14.2,0,17.8-3.7l1.6-10.3L165.1,198.2z"/>
<path class="st7" d="M192.1,207.9c0,0-25.4,1.5-27-9.8C163.5,186.9,192.1,207.9,192.1,207.9z"/>
<path class="st10" d="M223.4,197.7l0.2,15.5c0.1,4.4-3.3,8-7.7,8.3c-6.1,0.4-14.2,0-17.8-3.7l-1.6-10.3L223.4,197.7z"/>
<path class="st7" d="M196.4,207.5c0,0,25.4,1.5,27-9.8C225,186.5,196.4,207.5,196.4,207.5z"/>
<path class="st11" d="M194.3,206.3L194.3,206.3c2.5,0,4.6,2.1,4.6,4.6v4.8c0,2.5-2.1,4.6-4.6,4.6l0,0c-2.5,0-4.6-2.1-4.6-4.6v-4.8
	C189.7,208.3,191.8,206.3,194.3,206.3z"/>
</svg>
