<svg xmlns="http://www.w3.org/2000/svg" xmlns:xlink="http://www.w3.org/1999/xlink" viewBox="0 0 389 389" width="389" height="389"><circle cx="194.5" cy="192.5" r="168.5" fill="none" stroke="#501756" stroke-miterlimit="10" stroke-width="18"/><path fill="#231f20" d="M216.2 150.7l8.1 15.4 29.8-13.1s-10.6-49.4-66.8-49.4-66.4 56.1-66.2 60.5l1.9 83.8s1 6.4 23 6.9c22 .4 23.7-1.4 23.7-1.4s8.2 9.6 35.4 7.3c0 0 6.6 3.9 17.7 3.1 0 0-5.7-15.8-1.7-25.7s-1.2-52.2-.3-54.3c.8-2.2-4.6-33.1-4.6-33.1z"/><path fill="#231f20" d="M219.6 264.5c-8.3 0-13.6-2.6-14.7-3.2-24.2 2-33.5-5.3-35.4-7.1-1.7.6-7 1.6-23.6 1.3-22-.4-23.6-6.8-23.7-7.5 0-.9-1.7-79.5-1.9-83.9-.1-2.6 3.5-25.3 20.2-42.6 12.1-12.4 27.8-18.8 46.8-18.8 29.4 0 46.2 13.6 55.1 25 9.7 12.3 12.4 24.9 12.5 25l.1.6-31 13.7-6.2-11.8c1.7 9.8 4.4 26.9 3.7 28.7-.2.7.2 5.9.6 11.5 1 14.3 2.6 35.9-.2 42.8-3.8 9.5 1.7 25 1.7 25.1l.3.9-1 .1c-1.2.2-2.3.2-3.3.2zm-14.4-4.7l.2.1c.1 0 6.2 3.6 16.3 3-1.2-3.6-4.9-16.5-1.4-25.3 2.7-6.6 1.1-28.8.1-42.1-.6-8.6-.8-11.4-.5-12.2.5-1.7-2.6-20.9-4.6-32.6l-.8-4.7 10.1 19.1 28.6-12.6c-1.5-5.6-14.3-48.2-65.9-48.2-18.6 0-33.9 6.2-45.7 18.3-16.1 16.6-19.9 39-19.8 41.5.1 4.4 1.8 83 1.9 83.8s1.6 5.7 22.2 6.1c20.4.4 23.1-1.2 23.2-1.3l.6-.6.5.7c.1.1 8.4 9.2 34.8 7z"/><path fill="#231f20" d="M250.1 208.1l-1.7-2.5 7.9-5.4-6.8-11.9c-.1-.2-2-5.2-.4-11.7 1.1-4.7-2.5-16.5-4-20.6l2.8-1c.2.6 5.7 15.8 4.1 22.4-1.2 5.1 0 9.2.3 9.9l8 14zm-21.3-35.7c.7-1.1 1.6-2.1 2.6-2.9 1-.9 2.1-1.6 3.5-2.1.7-.2 1.6-.3 2.2-.1.7.1 1.3.3 1.9.5 1.3.4 2.5.9 3.6 1.6-1.3-.1-2.6-.3-3.8-.5-.6-.1-1.2-.2-1.8-.2-.7-.1-1 0-1.6.1-1.1.3-2.2 1-3.2 1.6-1.2.7-2.2 1.4-3.4 2zm26.2 46.2c-.9-1.6-1.6-3.1-2.2-4.7-.3-.8-.6-1.6-.8-2.5-.2-.8-.4-1.7-.4-2.6.2.8.6 1.6 1.1 2.3.4.7.9 1.4 1.5 2 1 1.3 2.2 2.5 3.3 3.7z"/><path fill="#231f20" d="M244.9 226.2s12.7-2.7 13.3-9.1c-2.8-5.2-13.3 9.1-13.3 9.1zm-10 22.9c-10.1 0-17-3.5-17.4-3.7l1.4-2.7c.1.1 12.9 6.5 29.1 1.3 2.8-.7 3.9-9.8 3.8-15.8l3-.1c.1 2.9.1 17.2-6 18.7-5.1 1.7-9.8 2.3-13.9 2.3zm9.8-71.4c-2.4-1.1-5-1.5-7.3-.9-1.1.4-2.2.8-3.2 1.6-.5.3-1 .8-1.4 1.1l-1.3 1.3-.3.2h-.2c-.8.2-1.5.2-2.3.2-.7 0-1.5-.1-2.2-.4-1.4-.4-2.7-1.1-3.7-2.1 1.3.5 2.6.8 3.9.9h1.9c.6-.1 1.3-.2 1.8-.3l-.4.3c.4-.5.9-1.1 1.4-1.6.5-.4 1-1 1.6-1.3 1.2-.8 2.5-1.4 4-1.7 1.4-.3 2.9-.1 4.2.4 1.4.5 2.6 1.3 3.5 2.3z"/><path fill="#231f20" d="M238.6 181c.4 0 .8.3.8.8s-.3.8-.8.8-.8-.3-.8-.8.4-.8.8-.8m0-4c-2.6 0-4.8 2.1-4.8 4.8 0 2.6 2.1 4.8 4.8 4.8s4.8-2.1 4.8-4.8-2.1-4.8-4.8-4.8z"/><path fill="#231f20" d="M238.6 181c.4 0 .8.3.8.8s-.3.8-.8.8-.8-.3-.8-.8.4-.8.8-.8m0-4c-2.6 0-4.8 2.1-4.8 4.8 0 2.6 2.1 4.8 4.8 4.8s4.8-2.1 4.8-4.8-2.1-4.8-4.8-4.8zm-2.9 15.2s-1.4 11.4-3.7 16.1c-2.3 4.8 5.7 9.8 7 1.5 1.3-8.2-3.3-17.6-3.3-17.6zm-36.5 85.6l-2.9-.7 7-33.9-36.9-8.3-10.5 39.2-2.9-.8 11.2-42 42.7 9.6zm46.2-142.9c-9.8 0-17.8-8-17.8-17.8s8-17.8 17.8-17.8 17.8 8 17.8 17.8c0 9.9-8 17.8-17.8 17.8zm0-32.5c-8.1 0-14.8 6.6-14.8 14.8s6.6 14.8 14.8 14.8c8.1 0 14.8-6.6 14.8-14.8s-6.7-14.8-14.8-14.8z"/><path fill="#231f20" d="M259.2 107.9l-1.9-2.3c.1-.1 10.5-8.9 16.1-13.4 2.1-1.7 2.7-4.9 1.6-8.1-1-2.9-3.6-6.1-8-6.2-8.6-.3-11.1-1.9-14.9-4.3-.6-.4-1.2-.7-1.8-1.1-2.4-1.4-6.5-2-9.8-.3-2.8 1.4-4.4 4.1-4.8 7.9-1 10.5 4.3 20 4.4 20.1l-2.6 1.5c-.2-.4-5.9-10.4-4.8-21.9.6-6.1 3.8-9 6.4-10.3 4.5-2.3 9.8-1.3 12.8.5.7.4 1.3.8 1.9 1.2 3.6 2.3 5.6 3.5 13.4 3.8 6 .2 9.5 4.4 10.8 8.3 1.5 4.5.5 9-2.6 11.5-5.7 4.3-16.1 13.1-16.2 13.1z"/><path fill="#231f20" d="M199.2 107.2c-.1-.2-1.6-5.8 6.8-12.1.5-.3.5-1.9.4-3.3 0-2.1 0-4.6 1.1-7.1 1.5-3.4 4.9-7.8 9.5-9 3.2-.8 6.5 0 9.8 2.5 4.8 3.6 7.6 7.3 7.7 7.4l.2.4 4.7 13-2.8 1-4.6-12.7c-.6-.7-3.1-3.7-7-6.7-2.5-1.9-4.9-2.5-7.2-1.9-3.8 1-6.5 5-7.5 7.3-.8 1.9-.8 4-.8 5.8 0 2.3 0 4.5-1.6 5.7-6.6 5-5.7 8.8-5.7 8.9zm53.6 59.1c-1.2 0-2.5-.1-3.9-.3l.5-3c13.8 2.3 16.6-9.7 16.7-10.3l.3-1.3 1.3.1c4.2.4 7.6-.7 9.5-3.1 1.8-2.2 2.3-5.5 1.1-9-2.4-7.5-17.3-15.8-17.4-15.9l1.5-2.7c.7.4 16.1 8.9 18.9 17.6 1.4 4.5.8 8.8-1.7 11.9-2.4 2.9-6.2 4.4-10.9 4.2-1.1 3.4-5.1 11.8-15.9 11.8z"/><path fill="#231f20" d="M280.4 138.5l-.5-3c4.7-.7 7.9-2.5 9.4-5.2 2.2-3.8 1-8.7.1-11.3-.3-.8-.7-1.5-1.3-2.3-1.1-1.5-2.7-4.6-.6-9.2s2.4-8.1.7-10.6c-2.6-3.9-9.5-4.7-11.9-4.6l-.1-3c.4 0 10.5-.1 14.5 6 2.2 3.4 2.1 8-.5 13.5-1.4 3-.7 5 .2 6.1.8 1.1 1.4 2.1 1.8 3.2 1.1 3.1 2.5 9-.3 13.8-2 3.5-5.9 5.7-11.5 6.6zm-1.8 73.3l-1.5-2.1c-21.3-30.6-10.6-56.3-10.1-57.4l2.8 1.2c-.1.2-9.9 24 8.2 52.1 2.2-5.8 7-20.9 5.7-39.7l3-.2c1.8 24.8-6.6 43-7 43.7z"/><path fill="#231f20" d="M326.9 179l-2.3-.2c-44.8-3.3-52.6-24.5-53-25.4l2.9-1c.1.2 7.4 19.5 47.8 23.2-3.1-6.4-14.2-25.1-41.2-29.3l.5-3c18.1 2.8 29.2 11.7 35.4 18.7 6.7 7.6 9.1 14.5 9.2 14.8zm-127.2-77.2c-8.2 0-17.3-3.7-26.8-10.9-8.4-6.4-14-13.1-14.2-13.4l-1.6-2 2.6-.5c36.8-6.5 49.4 18.8 49.5 19.1l-2.7 1.3c-.5-.9-11.2-22.3-43.5-17.8 5.7 6.1 23.8 23.9 40.9 20.7l.5 3c-1.6.4-3.2.5-4.7.5z"/><path fill="#231f20" d="M208.1 83.7c0-.2-1.4-16.2-12.3-26.5-1.3 5.1-3.6 17.7 1.1 24.4l-2.5 1.7c-6.9-9.8-1.2-28.5-.9-29.3l.7-2.1 1.7 1.4c13.6 11 15.2 29.4 15.2 30.2zm23.3 101.4c-.4.1-.9.2-1.3.4s-.8.4-1.2.8c-.4.3-.6.7-.9 1.1-.2.4-.3 1-.3 1.5-.1-.5-.3-1.1-.2-1.6.1-.6.2-1.1.6-1.6.3-.5.7-1 1.1-1.4s.9-.7 1.5-1.1zm2 1.5c-.3.2-.7.6-1 .9-.3.4-.6.7-.8 1.2-.2.4-.3.9-.3 1.4s.1 1 .3 1.5c-.3-.4-.7-.9-.8-1.4-.2-.5-.2-1.1-.2-1.7.1-.6.2-1.2.5-1.7.2-.6.5-1 .9-1.6zm-2.9-5.6c-.7-.2-1.1-.4-1.7-.7-.5-.3-1-.7-1.4-1.1s-.7-1-.9-1.5-.2-1.1-.2-1.6c.1.5.3 1 .6 1.4s.7.7 1.1.9.9.4 1.3.5 1 .2 1.3.1zm-94.1 117.9l2.1-14.5h1.7l-2.4 17.1h-2.1l-8.1-14.7-2.1 14.7h-1.7l2.4-17.1h2.2zm7.8 2.6h-1.7l2.4-17.1h1.7zm17.4-2.6l2.1-14.5h1.7l-2.4 17.1h-2.1l-8.1-14.7-2.1 14.7H149l2.4-17.1h2.2zm8.1 1h9.2l-.2 1.6h-10.9l2.4-17.1h10.6l-.2 1.6h-8.9l-.8 5.8h8.3l-.2 1.6h-8.3zm17.8 1.6h-1.7L188 286h-5.7l.2-1.6h13.2l-.2 1.6h-5.7zm10.4-1.6h9.2l-.2 1.6H196l2.4-17.1H209l-.2 1.6h-8.9l-.8 5.8h8.3l-.2 1.6h-8.3zm14.3 0h9.2l-.2 1.6h-10.9l2.4-17.1h10.6l-.3 1.6h-8.9l-.8 5.8h8.3l-.2 1.6h-8.3zm25.1-1l2.1-14.5h1.7l-2.4 17.1h-2.1l-8.1-14.7-2.1 14.7h-1.7l2.4-17.1h2.2zm-77.4 24.4h-1.3l.8-5.5-3.8-7.3h1.6l3 6.1 4.7-6.1h1.6l-5.8 7.3zm7.7-1.2h6.9l-.2 1.2h-8.2l1.8-12.8h8l-.2 1.2h-6.6l-.6 4.4h6.2l-.2 1.2h-6.2zm9.1 1.2h-1.5l7.4-12.8h1.3l3.8 12.8h-1.5l-.9-3.4h-6.6zm2.5-4.6h5.6L183 312zm11.5 4.6h-1.3l1.8-12.8h4c1.3 0 2.3.3 3 .9s.9 1.4.8 2.6c-.1.9-.5 1.6-1.2 2.3-.6.6-1.5 1-2.6 1.1l2.8 6.1h-1.6l-2.7-6h-2.2zm1-7.2h2.3c.6 0 1.1-.1 1.5-.2s.8-.3 1-.5c.3-.2.5-.4.6-.7l.3-.9v-.9c-.1-.3-.2-.5-.4-.7s-.5-.4-.9-.5-.9-.2-1.4-.2h-2.3zm16-3.5c-.4-.8-1.2-1.3-2.3-1.3-.3 0-.7 0-1 .1s-.7.2-.9.4c-.3.2-.5.4-.7.7s-.3.6-.4 1 0 .8.1 1.1.4.5.6.7c.3.2.6.4 1 .5s.8.3 1.2.4.8.3 1.1.5c.4.2.7.4 1 .7s.5.6.6 1 .2.9.1 1.5-.3 1.1-.6 1.6-.7.9-1.1 1.2-.9.6-1.5.7c-.5.2-1 .3-1.5.3-.8 0-1.5-.1-2.2-.4s-1.2-.8-1.6-1.5l1.3-.9c.2.5.5.8 1 1.1s1 .4 1.7.4c.3 0 .7-.1 1-.2s.7-.3.9-.5c.3-.2.5-.4.7-.7s.3-.6.4-1 0-.8-.1-1.1-.4-.5-.6-.7c-.3-.2-.6-.4-1-.5s-.8-.3-1.2-.4-.8-.3-1.1-.5c-.4-.2-.7-.4-1-.6s-.5-.6-.6-1-.2-.9-.1-1.5.3-1.2.6-1.6c.3-.5.7-.8 1.1-1.1s.9-.5 1.4-.7c.5-.1 1-.2 1.6-.2.7 0 1.4.1 1.9.3.6.2 1.1.6 1.5 1.2zm-57.7 3.7h-26.5m0-1.5H150v3h-26.5zm114.1 1.5H211m0-1.5h26.5v3H211z"/><path id="a" fill="none" d="M112 214.9l-2-43c-.6-13.3 2.6-26.6 9.4-38 8.4-14.2 21.7-30.8 38.7-33"/><text><textPath startOffset="9.51%" xlink:href="#a"><tspan fill="#231f20" font-family="Avenir-Oblique" font-size="23.81">NO ROSES</tspan></textPath></text></svg>