<?xml version="1.0" encoding="utf-8"?>
<!-- Generator: Adobe Illustrator 22.1.0, SVG Export Plug-In . SVG Version: 6.00 Build 0)  -->
<svg version="1.1" id="Layer_1" xmlns="http://www.w3.org/2000/svg" xmlns:xlink="http://www.w3.org/1999/xlink" x="0px" y="0px"
	 viewBox="0 0 389 389" style="enable-background:new 0 0 389 389;" xml:space="preserve">
<style type="text/css">
	.st0{fill:none;stroke:#501756;stroke-width:18;stroke-miterlimit:10;}
	.st1{fill:#231F20;}
	.st2{fill:none;}
</style>
<circle class="st0" cx="194.5" cy="192.5" r="168.5"/>
<g>
	<g>
		<path class="st1" d="M216.2,150.7l8.1,15.4l29.8-13.1c0,0-10.6-49.4-66.8-49.4s-66.4,56.1-66.2,60.5c0.1,4.4,1.9,83.8,1.9,83.8
			s1,6.4,23,6.9c22,0.4,23.7-1.4,23.7-1.4s8.2,9.6,35.4,7.3c0,0,6.6,3.9,17.7,3.1c0,0-5.7-15.8-1.7-25.7c4-9.9-1.2-52.2-0.3-54.3
			C221.6,181.6,216.2,150.7,216.2,150.7z"/>
		<path class="st1" d="M219.6,264.5c-8.3,0-13.6-2.6-14.7-3.2c-24.2,2-33.5-5.3-35.4-7.1c-1.7,0.6-7,1.6-23.6,1.3
			c-22-0.4-23.6-6.8-23.7-7.5c0-0.9-1.7-79.5-1.9-83.9c-0.1-2.6,3.5-25.3,20.2-42.6c12.1-12.4,27.8-18.8,46.8-18.8
			c29.4,0,46.2,13.6,55.1,25c9.7,12.3,12.4,24.9,12.5,25l0.1,0.6l-31,13.7l-6.2-11.8c1.7,9.8,4.4,26.9,3.7,28.7
			c-0.2,0.7,0.2,5.9,0.6,11.5c1,14.3,2.6,35.9-0.2,42.8c-3.8,9.5,1.7,25,1.7,25.1l0.3,0.9l-1,0.1
			C221.7,264.5,220.6,264.5,219.6,264.5z M205.2,259.8l0.2,0.1c0.1,0,6.2,3.6,16.3,3c-1.2-3.6-4.9-16.5-1.4-25.3
			c2.7-6.6,1.1-28.8,0.1-42.1c-0.6-8.6-0.8-11.4-0.5-12.2c0.5-1.7-2.6-20.9-4.6-32.6l-0.8-4.7l10.1,19.1l28.6-12.6
			c-1.5-5.6-14.3-48.2-65.9-48.2c-18.6,0-33.9,6.2-45.7,18.3c-16.1,16.6-19.9,39-19.8,41.5c0.1,4.4,1.8,83,1.9,83.8l0,0
			c0,0,1.6,5.7,22.2,6.1c20.4,0.4,23.1-1.2,23.2-1.3l0.6-0.6l0.5,0.7c0.1,0.1,8.4,9.2,34.8,7L205.2,259.8z"/>
	</g>
	<g>
		<path class="st1" d="M250.1,208.1l-1.7-2.5l7.9-5.4l-6.8-11.9c-0.1-0.2-2-5.2-0.4-11.7c1.1-4.7-2.5-16.5-4-20.6l2.8-1
			c0.2,0.6,5.7,15.8,4.1,22.4c-1.2,5.1,0,9.2,0.3,9.9l8,14L250.1,208.1z"/>
	</g>
	<g>
		<path class="st1" d="M228.8,172.4c0.7-1.1,1.6-2.1,2.6-2.9c1-0.9,2.1-1.6,3.5-2.1c0.7-0.2,1.6-0.3,2.2-0.1
			c0.7,0.1,1.3,0.3,1.9,0.5c1.3,0.4,2.5,0.9,3.6,1.6c-1.3-0.1-2.6-0.3-3.8-0.5c-0.6-0.1-1.2-0.2-1.8-0.2c-0.7-0.1-1,0-1.6,0.1
			c-1.1,0.3-2.2,1-3.2,1.6C231,171.1,230,171.8,228.8,172.4z"/>
	</g>
	<g>
		<path class="st1" d="M255,218.6c-0.9-1.6-1.6-3.1-2.2-4.7c-0.3-0.8-0.6-1.6-0.8-2.5c-0.2-0.8-0.4-1.7-0.4-2.6
			c0.2,0.8,0.6,1.6,1.1,2.3c0.4,0.7,0.9,1.4,1.5,2c1,1.3,2.2,2.5,3.3,3.7L255,218.6z"/>
	</g>
	<g>
		<path class="st1" d="M244.9,226.2c0,0,12.7-2.7,13.3-9.1C255.4,211.9,244.9,226.2,244.9,226.2z"/>
	</g>
	<g>
		<path class="st1" d="M234.9,249.1c-10.1,0-17-3.5-17.4-3.7l1.4-2.7c0.1,0.1,12.9,6.5,29.1,1.3c2.8-0.7,3.9-9.8,3.8-15.8l3-0.1
			c0.1,2.9,0.1,17.2-6,18.7C243.7,248.5,239,249.1,234.9,249.1z"/>
	</g>
	<g>
		<path class="st1" d="M244.7,177.7c-2.4-1.1-5-1.5-7.3-0.9c-1.1,0.4-2.2,0.8-3.2,1.6c-0.5,0.3-1,0.8-1.4,1.1
			c-0.4,0.4-0.9,0.9-1.3,1.3l-0.3,0.2l-0.2,0c-0.8,0.2-1.5,0.2-2.3,0.2c-0.7,0-1.5-0.1-2.2-0.4c-1.4-0.4-2.7-1.1-3.7-2.1
			c1.3,0.5,2.6,0.8,3.9,0.9c0.6,0,1.3,0,1.9,0c0.6-0.1,1.3-0.2,1.8-0.3l-0.4,0.3c0.4-0.5,0.9-1.1,1.4-1.6c0.5-0.4,1-1,1.6-1.3
			c1.2-0.8,2.5-1.4,4-1.7c1.4-0.3,2.9-0.1,4.2,0.4C242.6,175.9,243.8,176.7,244.7,177.7z"/>
	</g>
	<g>
		<path class="st1" d="M238.6,181c0.4,0,0.8,0.3,0.8,0.8s-0.3,0.8-0.8,0.8s-0.8-0.3-0.8-0.8S238.2,181,238.6,181 M238.6,177
			c-2.6,0-4.8,2.1-4.8,4.8c0,2.6,2.1,4.8,4.8,4.8s4.8-2.1,4.8-4.8C243.4,179.1,241.3,177,238.6,177L238.6,177z"/>
	</g>
	<g>
		<path class="st1" d="M238.6,181c0.4,0,0.8,0.3,0.8,0.8s-0.3,0.8-0.8,0.8s-0.8-0.3-0.8-0.8S238.2,181,238.6,181 M238.6,177
			c-2.6,0-4.8,2.1-4.8,4.8c0,2.6,2.1,4.8,4.8,4.8s4.8-2.1,4.8-4.8C243.4,179.1,241.3,177,238.6,177L238.6,177z"/>
	</g>
	<g>
		<path class="st1" d="M235.7,192.2c0,0-1.4,11.4-3.7,16.1c-2.3,4.8,5.7,9.8,7,1.5C240.3,201.6,235.7,192.2,235.7,192.2z"/>
	</g>
	<g>
		<polygon class="st1" points="199.2,277.8 196.3,277.1 203.3,243.2 166.4,234.9 155.9,274.1 153,273.3 164.2,231.3 206.9,240.9 		
			"/>
	</g>
	<g>
		<path class="st1" d="M245.4,134.9c-9.8,0-17.8-8-17.8-17.8c0-9.8,8-17.8,17.8-17.8c9.8,0,17.8,8,17.8,17.8
			C263.2,127,255.2,134.9,245.4,134.9z M245.4,102.4c-8.1,0-14.8,6.6-14.8,14.8s6.6,14.8,14.8,14.8c8.1,0,14.8-6.6,14.8-14.8
			S253.5,102.4,245.4,102.4z"/>
	</g>
	<g>
		<path class="st1" d="M259.2,107.9l-1.9-2.3c0.1-0.1,10.5-8.9,16.1-13.4c2.1-1.7,2.7-4.9,1.6-8.1c-1-2.9-3.6-6.1-8-6.2
			c-8.6-0.3-11.1-1.9-14.9-4.3c-0.6-0.4-1.2-0.7-1.8-1.1c-2.4-1.4-6.5-2-9.8-0.3c-2.8,1.4-4.4,4.1-4.8,7.9c-1,10.5,4.3,20,4.4,20.1
			l-2.6,1.5c-0.2-0.4-5.9-10.4-4.8-21.9c0.6-6.1,3.8-9,6.4-10.3c4.5-2.3,9.8-1.3,12.8,0.5c0.7,0.4,1.3,0.8,1.9,1.2
			c3.6,2.3,5.6,3.5,13.4,3.8c6,0.2,9.5,4.4,10.8,8.3c1.5,4.5,0.5,9-2.6,11.5C269.7,99.1,259.3,107.9,259.2,107.9z"/>
	</g>
	<g>
		<path class="st1" d="M199.2,107.2c-0.1-0.2-1.6-5.8,6.8-12.1c0.5-0.3,0.5-1.9,0.4-3.3c0-2.1,0-4.6,1.1-7.1c1.5-3.4,4.9-7.8,9.5-9
			c3.2-0.8,6.5,0,9.8,2.5c4.8,3.6,7.6,7.3,7.7,7.4l0.2,0.4l4.7,13l-2.8,1L232,87.3c-0.6-0.7-3.1-3.7-7-6.7c-2.5-1.9-4.9-2.5-7.2-1.9
			c-3.8,1-6.5,5-7.5,7.3c-0.8,1.9-0.8,4-0.8,5.8c0,2.3,0,4.5-1.6,5.7c-6.6,5-5.7,8.8-5.7,8.9L199.2,107.2z"/>
	</g>
	<g>
		<path class="st1" d="M252.8,166.3c-1.2,0-2.5-0.1-3.9-0.3l0.5-3c13.8,2.3,16.6-9.7,16.7-10.3l0.3-1.3l1.3,0.1
			c4.2,0.4,7.6-0.7,9.5-3.1c1.8-2.2,2.3-5.5,1.1-9c-2.4-7.5-17.3-15.8-17.4-15.9l1.5-2.7c0.7,0.4,16.1,8.9,18.9,17.6
			c1.4,4.5,0.8,8.8-1.7,11.9c-2.4,2.9-6.2,4.4-10.9,4.2C267.6,157.9,263.6,166.3,252.8,166.3z"/>
	</g>
	<g>
		<path class="st1" d="M280.4,138.5l-0.5-3c4.7-0.7,7.9-2.5,9.4-5.2c2.2-3.8,1-8.7,0.1-11.3c-0.3-0.8-0.7-1.5-1.3-2.3
			c-1.1-1.5-2.7-4.6-0.6-9.2c2.1-4.6,2.4-8.1,0.7-10.6c-2.6-3.9-9.5-4.7-11.9-4.6l-0.1-3c0.4,0,10.5-0.1,14.5,6
			c2.2,3.4,2.1,8-0.5,13.5c-1.4,3-0.7,5,0.2,6.1c0.8,1.1,1.4,2.1,1.8,3.2c1.1,3.1,2.5,9-0.3,13.8C289.9,135.4,286,137.6,280.4,138.5
			z"/>
	</g>
	<g>
		<path class="st1" d="M278.6,211.8l-1.5-2.1c-21.3-30.6-10.6-56.3-10.1-57.4l2.8,1.2c-0.1,0.2-9.9,24,8.2,52.1
			c2.2-5.8,7-20.9,5.7-39.7l3-0.2c1.8,24.8-6.6,43-7,43.7L278.6,211.8z"/>
	</g>
	<g>
		<path class="st1" d="M326.9,179l-2.3-0.2c-44.8-3.3-52.6-24.5-53-25.4l2.9-1c0.1,0.2,7.4,19.5,47.8,23.2
			c-3.1-6.4-14.2-25.1-41.2-29.3l0.5-3c18.1,2.8,29.2,11.7,35.4,18.7c6.7,7.6,9.1,14.5,9.2,14.8L326.9,179z"/>
	</g>
	<g>
		<path class="st1" d="M199.7,101.8c-8.2,0-17.3-3.7-26.8-10.9c-8.4-6.4-14-13.1-14.2-13.4l-1.6-2l2.6-0.5
			c36.8-6.5,49.4,18.8,49.5,19.1l-2.7,1.3c-0.5-0.9-11.2-22.3-43.5-17.8c5.7,6.1,23.8,23.9,40.9,20.7l0.5,3
			C202.8,101.7,201.2,101.8,199.7,101.8z"/>
	</g>
	<g>
		<path class="st1" d="M208.1,83.7c0-0.2-1.4-16.2-12.3-26.5c-1.3,5.1-3.6,17.7,1.1,24.4l-2.5,1.7c-6.9-9.8-1.2-28.5-0.9-29.3
			l0.7-2.1l1.7,1.4c13.6,11,15.2,29.4,15.2,30.2L208.1,83.7z"/>
	</g>
	<g>
		<path class="st1" d="M231.4,185.1c-0.4,0.1-0.9,0.2-1.3,0.4c-0.4,0.2-0.8,0.4-1.2,0.8c-0.4,0.3-0.6,0.7-0.9,1.1
			c-0.2,0.4-0.3,1-0.3,1.5c-0.1-0.5-0.3-1.1-0.2-1.6c0.1-0.6,0.2-1.1,0.6-1.6c0.3-0.5,0.7-1,1.1-1.4c0.4-0.4,0.9-0.7,1.5-1.1
			L231.4,185.1z"/>
	</g>
	<g>
		<path class="st1" d="M233.4,186.6c-0.3,0.2-0.7,0.6-1,0.9c-0.3,0.4-0.6,0.7-0.8,1.2c-0.2,0.4-0.3,0.9-0.3,1.4c0,0.5,0.1,1,0.3,1.5
			c-0.3-0.4-0.7-0.9-0.8-1.4c-0.2-0.5-0.2-1.1-0.2-1.7c0.1-0.6,0.2-1.2,0.5-1.7c0.2-0.6,0.5-1,0.9-1.6L233.4,186.6z"/>
	</g>
	<g>
		<path class="st1" d="M230.5,181c-0.7-0.2-1.1-0.4-1.7-0.7c-0.5-0.3-1-0.7-1.4-1.1c-0.4-0.4-0.7-1-0.9-1.5
			c-0.2-0.5-0.2-1.1-0.2-1.6c0.1,0.5,0.3,1,0.6,1.4c0.3,0.4,0.7,0.7,1.1,0.9c0.4,0.2,0.9,0.4,1.3,0.5c0.4,0.1,1,0.2,1.3,0.1
			L230.5,181z"/>
	</g>
	<g>
		<path class="st1" d="M136.4,298.9L136.4,298.9l2.1-14.5h1.7l-2.4,17.1h-1.7h-0.4l-8.1-14.7h0l-2.1,14.7h-1.7l2.4-17.1h1.7h0.5
			L136.4,298.9z"/>
		<path class="st1" d="M144.2,301.5h-1.7l2.4-17.1h1.7L144.2,301.5z"/>
		<path class="st1" d="M161.6,298.9L161.6,298.9l2.1-14.5h1.7l-2.4,17.1h-1.7h-0.4l-8.1-14.7h0l-2.1,14.7h-1.7l2.4-17.1h1.7h0.5
			L161.6,298.9z"/>
		<path class="st1" d="M169.7,299.9h9.2l-0.2,1.6h-9.2h-1.7l2.4-17.1h1.7h8.9l-0.2,1.6h-8.9l-0.8,5.8h8.3l-0.2,1.6h-8.3L169.7,299.9
			z"/>
		<path class="st1" d="M187.5,301.5h-1.7L188,286h-5.7l0.2-1.6h5.7h1.7h5.8l-0.2,1.6h-5.7L187.5,301.5z"/>
		<path class="st1" d="M197.9,299.9h9.2l-0.2,1.6h-9.2h-1.7l2.4-17.1h1.7h8.9l-0.2,1.6h-8.9l-0.8,5.8h8.3l-0.2,1.6h-8.3L197.9,299.9
			z"/>
		<path class="st1" d="M212.2,299.9h9.2l-0.2,1.6H212h-1.7l2.4-17.1h1.7h8.9L223,286h-8.9l-0.8,5.8h8.3l-0.2,1.6h-8.3L212.2,299.9z"
			/>
		<path class="st1" d="M237.3,298.9L237.3,298.9l2.1-14.5h1.7l-2.4,17.1H237h-0.4l-8.1-14.7h0l-2.1,14.7h-1.7l2.4-17.1h1.7h0.5
			L237.3,298.9z"/>
		<path class="st1" d="M159.9,323.3h-1.3l0.8-5.5l-3.8-7.3h1.6l3,6.1l4.7-6.1h1.6l-5.8,7.3L159.9,323.3z"/>
		<path class="st1" d="M167.6,322.1h6.9l-0.2,1.2h-6.9h-1.3l1.8-12.8h1.3h6.7l-0.2,1.2h-6.6l-0.6,4.4h6.2l-0.2,1.2h-6.2L167.6,322.1
			z"/>
		<path class="st1" d="M176.7,323.3h-1.5l7.4-12.8h1.3l3.8,12.8h-1.5l-0.9-3.4h-6.6L176.7,323.3z M179.2,318.7h5.6L183,312
			L179.2,318.7z"/>
		<path class="st1" d="M190.7,323.3h-1.3l1.8-12.8h1.3h2.7c1.3,0,2.3,0.3,3,0.9c0.7,0.6,0.9,1.4,0.8,2.6c-0.1,0.9-0.5,1.6-1.2,2.3
			c-0.6,0.6-1.5,1-2.6,1.1l2.8,6.1h-1.6l-2.7-6h-2.2L190.7,323.3z M191.7,316.1h2.3c0.6,0,1.1-0.1,1.5-0.2c0.4-0.1,0.8-0.3,1-0.5
			c0.3-0.2,0.5-0.4,0.6-0.7c0.1-0.3,0.2-0.6,0.3-0.9c0-0.3,0-0.6,0-0.9c-0.1-0.3-0.2-0.5-0.4-0.7c-0.2-0.2-0.5-0.4-0.9-0.5
			c-0.4-0.1-0.9-0.2-1.4-0.2h-2.3L191.7,316.1z"/>
		<path class="st1" d="M207.7,312.6c-0.4-0.8-1.2-1.3-2.3-1.3c-0.3,0-0.7,0-1,0.1c-0.3,0.1-0.7,0.2-0.9,0.4
			c-0.3,0.2-0.5,0.4-0.7,0.7c-0.2,0.3-0.3,0.6-0.4,1c-0.1,0.4,0,0.8,0.1,1.1c0.1,0.3,0.4,0.5,0.6,0.7c0.3,0.2,0.6,0.4,1,0.5
			c0.4,0.1,0.8,0.3,1.2,0.4c0.4,0.1,0.8,0.3,1.1,0.5c0.4,0.2,0.7,0.4,1,0.7c0.3,0.3,0.5,0.6,0.6,1c0.1,0.4,0.2,0.9,0.1,1.5
			c-0.1,0.6-0.3,1.1-0.6,1.6c-0.3,0.5-0.7,0.9-1.1,1.2c-0.4,0.3-0.9,0.6-1.5,0.7c-0.5,0.2-1,0.3-1.5,0.3c-0.8,0-1.5-0.1-2.2-0.4
			c-0.7-0.3-1.2-0.8-1.6-1.5l1.3-0.9c0.2,0.5,0.5,0.8,1,1.1c0.5,0.3,1,0.4,1.7,0.4c0.3,0,0.7-0.1,1-0.2c0.3-0.1,0.7-0.3,0.9-0.5
			c0.3-0.2,0.5-0.4,0.7-0.7c0.2-0.3,0.3-0.6,0.4-1c0.1-0.4,0-0.8-0.1-1.1c-0.1-0.3-0.4-0.5-0.6-0.7c-0.3-0.2-0.6-0.4-1-0.5
			c-0.4-0.1-0.8-0.3-1.2-0.4s-0.8-0.3-1.1-0.5c-0.4-0.2-0.7-0.4-1-0.6s-0.5-0.6-0.6-1c-0.1-0.4-0.2-0.9-0.1-1.5
			c0.1-0.6,0.3-1.2,0.6-1.6c0.3-0.5,0.7-0.8,1.1-1.1c0.4-0.3,0.9-0.5,1.4-0.7c0.5-0.1,1-0.2,1.6-0.2c0.7,0,1.4,0.1,1.9,0.3
			c0.6,0.2,1.1,0.6,1.5,1.2L207.7,312.6z"/>
	</g>
	<g>
		<line class="st1" x1="150" y1="316.3" x2="123.5" y2="316.3"/>
		<rect x="123.5" y="314.8" class="st1" width="26.5" height="3"/>
	</g>
	<g>
		<line class="st1" x1="237.6" y1="316.3" x2="211" y2="316.3"/>
		<rect x="211" y="314.8" class="st1" width="26.5" height="3"/>
	</g>
</g>
<path id="SVGID_x5F_1_x5F_" class="st2" d="M112,214.9l-2-43c-0.6-13.3,2.6-26.6,9.4-38c8.4-14.2,21.7-30.8,38.7-33"/>
<text><textPath  xlink:href="#SVGID_x5F_1_x5F_" startOffset="9.5053%">
<tspan  class="st1" style="font-family:'Avenir-Oblique'; font-size:23.8074px;">NO ROSES</tspan></textPath>
</text>
</svg>
