<?xml version="1.0" encoding="utf-8"?>
<!-- Generator: Adobe Illustrator 22.1.0, SVG Export Plug-In . SVG Version: 6.00 Build 0)  -->
<svg version="1.1" id="Layer_1" xmlns="http://www.w3.org/2000/svg" xmlns:xlink="http://www.w3.org/1999/xlink" x="0px" y="0px"
	 viewBox="0 0 389 389" style="enable-background:new 0 0 389 389;" xml:space="preserve">
<style type="text/css">
	.st0{fill:none;stroke:#075173;stroke-width:18;stroke-miterlimit:10;}
	.st1{opacity:0.32;}
	.st2{fill:#B9161C;stroke:#B9161C;stroke-width:0.68;stroke-miterlimit:10;}
	.st3{opacity:0.48;}
	.st4{fill:#DD323E;}
	.st5{fill:#E9818C;}
	.st6{fill:#DD323E;stroke:#DD323E;stroke-width:0.68;stroke-miterlimit:10;}
	.st7{fill:#E9818C;stroke:#E9818C;stroke-width:0.68;stroke-miterlimit:10;}
	.st8{fill:#B9161C;stroke:#B9161C;stroke-width:0.6376;stroke-miterlimit:10;}
	.st9{fill:#B9161C;}
	.st10{fill:#F6D807;}
	.st11{fill:#3B2314;stroke:#3B2314;stroke-width:0.6099;stroke-miterlimit:10;}
	.st12{fill:#3B2314;}
	.st13{fill:none;stroke:#075173;stroke-width:6.7975;stroke-miterlimit:10;}
	.st14{fill:#C9B30C;}
	.st15{fill:#5A5054;}
	.st16{opacity:0.29;fill:#FFFFFF;}
	.st17{fill:#5A5054;stroke:#5A5054;stroke-width:2.9887;stroke-linecap:round;stroke-miterlimit:10;}
	.st18{fill:#3F373B;}
	.st19{fill:none;stroke:#FFFFFF;stroke-width:3.4315;stroke-miterlimit:10;}
	.st20{fill:#FFFFFF;}
	.st21{fill:#B9161C;stroke:#B9161C;stroke-width:0.7525;stroke-miterlimit:10;}
	.st22{opacity:0.3;fill:#FFFFFF;}
	.st23{fill:#7C6E73;}
	.st24{fill:#CAD053;stroke:#DDE35A;stroke-width:0.4788;stroke-miterlimit:10;}
	.st25{fill:#DDE35A;stroke:#DDE35A;stroke-width:0.4788;stroke-miterlimit:10;}
	.st26{fill:#D8E7A7;stroke:#D8E7A7;stroke-width:0.4788;stroke-miterlimit:10;}
	.st27{fill:#CAD053;stroke:#CAD053;stroke-width:0.4788;stroke-miterlimit:10;}
	.st28{opacity:0.5;}
	.st29{fill:#D8E7A7;}
	.st30{fill:#DDE35A;}
	.st31{fill:#3B2314;stroke:#3B2314;stroke-width:0.4294;stroke-miterlimit:10;}
	.st32{stroke:#000000;stroke-width:1.8794;stroke-miterlimit:10;}
	.st33{fill:none;}
	.st34{fill:#075173;}
	.st35{fill:#378DCC;}
</style>
<circle class="st0" cx="194.5" cy="192.5" r="168.5"/>
<g>
	<ellipse class="st1" cx="226.1" cy="284.5" rx="41.5" ry="8.5"/>
	<path class="st2" d="M269.5,206.4l-14.7,75.2c0,3.7-15.7,6.7-35.1,6.7c-19.4,0-35.1-3-35.1-6.7l-14.1-75.2H269.5z"/>
	<g class="st3">
		<line class="st4" x1="182.8" y1="208.8" x2="189.6" y2="275.3"/>
		<polygon class="st5" points="185.2,208.6 189.6,275.3 180.4,209.1 		"/>
	</g>
	<path class="st6" d="M163.4,207.7v-25.2H276c0,0,0.1,16.4,0,25.2C251.7,218.3,184.8,218.3,163.4,207.7z"/>
	<ellipse class="st7" cx="219.7" cy="182.5" rx="56.3" ry="10.8"/>
	<ellipse class="st8" cx="219.7" cy="182" rx="51.6" ry="8.4"/>
	<path class="st9" d="M240.5,144c-0.1,0-0.2,0-0.4,0.1c-2.2,0.4-3.9,1.1-4.3,3.7c-0.1,0.3-0.1,1-0.3,2.8c-0.1,0.6-0.3,2.5-0.5,3.8
		c-0.2,1.2-0.5,1.3-0.8,1.5l-6.4,3.9l0.1-1.4l1.7-1c0.6-0.4,1.9-1,2.2-3.4c0.1-1,0.8-6.9,0.9-7.5c0.5-4.8,6.1-7,12.1-5.9
		c0,0,8.8,17.8-8.9,18.5c-1.3,0.1-2.1,0.3-3.6,1.1l-4.9,3c0-0.1,0.3-2.4,0.3-2.4l6.2-3.7c0.6-0.4,1.1-0.6,1.2-0.6
		c5.1-0.6,9.8-2.4,7.9-10c0-0.1-0.1-0.2-0.1-0.3c-0.1-0.7-0.4-1.8-0.1-2.8C243,143.2,241.8,143.7,240.5,144"/>
	<path class="st10" d="M211.7,157c0.1,0,0.2,0,0.3,0c1.8,0,3.3,0.2,4,2.3c0.1,0.3,0.3,0.8,0.7,2.1c0.1,0.4,0.6,2,1,3
		c0.3,1,0.6,1,0.9,1.1l5.7,2.1l-0.3-1.1l-1.5-0.6c-0.6-0.2-1.7-0.5-2.3-2.4c-0.3-0.7-1.7-5.3-1.9-5.8c-1.2-3.8-6-4.6-10.6-2.8
		c0,0-4.2,15.6,10.1,13.3c1.1-0.2,1.7-0.1,3.1,0.3l4.4,1.6c0-0.1-0.6-1.9-0.6-1.9l-5.5-2c-0.6-0.3-1-0.3-1.1-0.3
		c-4.1,0.3-8.2-0.3-7.9-6.7c0-0.1,0-0.2,0-0.3c0-0.5,0-1.5-0.4-2.2C209.6,156.8,210.6,157,211.7,157"/>
	<g>
		<path class="st11" d="M271.2,182.7c0,4.3-23.1,7.7-51.6,7.7s-51.6-3.4-51.6-7.7S271.2,178.5,271.2,182.7z"/>
		<g>
			<path class="st12" d="M169.5,182c4.9,0.6,9.8-2.5,14.7-1.9c1.7,0.2,3.4,0.9,5.1,0.8c2-0.1,3.9-1.1,5.9-1.3
				c3.3-0.3,6.5,1.6,9.8,1.5c2.8-0.1,5.4-1.6,8.1-2.2c5.2-1.2,10.5,0.9,15.8,1c2.8,0.1,5.6-0.4,8.4-0.6c3.3-0.2,6.7,0,10,0.2
				c6.2,0.4,12.4,0.8,18.6,1.1c1.6,0.1,3.5,0.4,4.3,1.8"/>
			<g>
				<path class="st12" d="M169.5,183.1c4.1,0.2,7.6-1.4,11.6-1.8c4-0.4,7.5,0.7,11.5,0.1c2.5-0.4,4.6-0.5,7.2,0
					c1.8,0.3,3.4,0.9,5.2,0.9c4-0.1,7.5-2.5,11.6-2.6c4.2-0.1,8.2,1.3,12.4,1.4c3.9,0.1,7.8-0.7,11.7-0.7c4.1,0,8.2,0.4,12.3,0.6
					c3.9,0.2,13.7-0.8,16.5,2.2c1,1.1,2.7-0.5,1.7-1.7c-1.9-2.1-4.3-2.1-7-2.2c-4.9-0.3-9.9-0.6-14.9-0.9c-4.5-0.3-9-0.5-13.6-0.2
					c-5.3,0.4-10,0-15.3-0.6c-4-0.5-7,0-10.8,1.1c-3.4,1-5.6,1-9.1,0.4c-1.8-0.3-3.4-0.8-5.2-0.7c-2,0.2-3.9,1.2-5.9,1.3
					c-2.2,0.1-4.5-0.9-6.7-0.9c-4.5,0-8.5,2.2-13.1,2C167.9,180.7,167.9,183.1,169.5,183.1L169.5,183.1z"/>
			</g>
		</g>
		<g>
			<path class="st12" d="M169.1,182.5c-0.2,0.1-0.5,0.1-0.6-0.1s0.1-0.5,0.3-0.4"/>
			<g>
				<path class="st12" d="M168.8,181.4C168.9,181.4,168.9,181.4,168.8,181.4c0.1,0,0.3,0.1,0.5,0.2c0,0,0,0,0,0.1
					c0.1,0.2,0.2,0.3,0.3,0.5c0,0,0,0.1,0,0.1c-0.1,0.2-0.1,0.4-0.2,0.6c-0.1,0.1-0.2,0.1-0.2,0.2c-0.3,0-0.6,0.1-0.9,0.1
					c0,0,0.1,0,0.1,0c0.6,0.1,1.3-0.2,1.5-0.8c0.2-0.6-0.2-1.4-0.8-1.5c-0.5-0.1-0.9,0-1.3,0.3c-0.3,0.3-0.5,0.8-0.4,1.3
					c0.1,1,1.2,1.5,2.1,1.2c0.6-0.2,1-0.8,0.8-1.5C170.1,181.6,169.4,181.2,168.8,181.4L168.8,181.4z"/>
			</g>
		</g>
	</g>
	<path class="st13" d="M217,112.3c0,0,14.3,61,6.7,74.2"/>
	<path class="st14" d="M218.3,100.9c0,0,9.6-16,37.4,6.2C222.2,119.1,218.3,100.9,218.3,100.9z"/>
	<path class="st14" d="M217.5,96.6c0,0-2.9-18.4,32.6-19.3C232.2,108,217.5,96.6,217.5,96.6z"/>
	<path class="st14" d="M214.1,93.8c0,0-14-12.2,12.6-35.8C232.7,93.1,214.1,93.8,214.1,93.8z"/>
	<path class="st14" d="M209.8,93.9c0,0-18.6-0.3-13.3-35.5C223.6,81.3,209.8,93.9,209.8,93.9z"/>
	<path class="st14" d="M206.5,96.7c0,0-14.5,11.7-33-18.6C209,78.2,206.5,96.7,206.5,96.7z"/>
	<path class="st14" d="M205.8,101c0,0-3.6,18.3-37.3,7C195.8,85.2,205.8,101,205.8,101z"/>
	<path class="st14" d="M208,104.7c0,0,9,16.3-24.1,29.3C190.2,99,208,104.7,208,104.7z"/>
	<path class="st14" d="M216.1,104.6c0,0,17.6-6.1,24.7,28.8C207.5,121.1,216.1,104.6,216.1,104.6z"/>
	<path class="st14" d="M212.1,106.2c0,0,17.4,6.7,0.4,37.9C194.8,113.2,212.1,106.2,212.1,106.2z"/>
	<g>
		<path class="st10" d="M217.5,102.9c0,0,14.5-11.7,33,18.6C215,121.4,217.5,102.9,217.5,102.9z"/>
		<path class="st10" d="M218.2,98.6c0,0,3.6-18.3,37.3-7C228.2,114.4,218.2,98.6,218.2,98.6z"/>
		<path class="st10" d="M216,94.9c0,0-9-16.3,24.1-29.3C233.8,100.6,216,94.9,216,94.9z"/>
		<path class="st10" d="M211.9,93.5c0,0-17.4-6.7-0.4-37.9C229.2,86.4,211.9,93.5,211.9,93.5z"/>
		<path class="st10" d="M207.9,95c0,0-17.6,6.1-24.7-28.8C216.5,78.5,207.9,95,207.9,95z"/>
		<path class="st10" d="M205.7,98.8c0,0-9.6,16-37.4-6.2C201.8,80.6,205.7,98.8,205.7,98.8z"/>
		<path class="st10" d="M206.5,103c0,0,2.9,18.4-32.6,19.3C191.8,91.6,206.5,103,206.5,103z"/>
		<path class="st10" d="M209.9,105.8c0,0,14,12.2-12.6,35.8C191.3,106.5,209.9,105.8,209.9,105.8z"/>
		<path class="st10" d="M214.2,105.8c0,0,18.6,0.3,13.3,35.5C200.5,118.3,214.2,105.8,214.2,105.8z"/>
	</g>
	<path class="st15" d="M171,128.3L171,128.3C171,128.3,171,128.3,171,128.3C171,128.2,171,128.3,171,128.3z"/>
	<path class="st15" d="M171,128.2C171,128.2,171,128.2,171,128.2L171,128.2L171,128.2z"/>
	<g>
		<path class="st16" d="M207.4,86.9c0,0-12.8,2.3-7.6-16.4C217.4,78.6,207.4,86.9,207.4,86.9z"/>
		<path class="st16" d="M200.2,92.8c0,0-8.3,10-16.4-7.6C202.5,80.1,200.2,92.8,200.2,92.8z"/>
		<path class="st16" d="M198.4,102c0,0,0.1,13-17.5,4.7C192,90.7,198.4,102,198.4,102z"/>
		<path class="st16" d="M203,110.2c0,0,8.4,9.9-10.4,14.8C190.9,105.7,203,110.2,203,110.2z"/>
		<path class="st16" d="M211.8,113.5c0,0,12.8,2.2,1.6,18C199.6,117.9,211.8,113.5,211.8,113.5z"/>
		<path class="st16" d="M220.6,110.4c0,0,11.2-6.6,12.8,12.8C214.1,121.6,220.6,110.4,220.6,110.4z"/>
		<path class="st16" d="M225.4,102.3c0,0,4.4-12.2,18,1.6C227.6,115.1,225.4,102.3,225.4,102.3z"/>
		<path class="st16" d="M223.9,93.1c0,0-4.5-12.2,14.8-10.4C233.8,101.5,223.9,93.1,223.9,93.1z"/>
		<path class="st16" d="M216.8,87c0,0-11.3-6.4,4.7-17.5C229.7,87.1,216.8,87,216.8,87z"/>
	</g>
	<g>
		<circle class="st17" cx="212" cy="99.8" r="16.8"/>
		<circle class="st18" cx="212" cy="99.8" r="14.9"/>
		<circle class="st17" cx="212" cy="99.8" r="8.3"/>
	</g>
	<g>
		<path class="st19" d="M234.7,239c-0.1,4-3.3,7.1-7.3,7c-4-0.1-7.1-3.3-7-7.3"/>
		<g>
			<g>
				<circle class="st20" cx="211.9" cy="227.4" r="8.7"/>
				<circle class="st21" cx="209" cy="225.8" r="2.2"/>
			</g>
			
				<ellipse transform="matrix(2.049388e-02 -0.9998 0.9998 2.049388e-02 -28.5587 443.9858)" class="st22" cx="212.3" cy="236.6" rx="3.5" ry="5.8"/>
		</g>
		<g>
			<g>
				<circle class="st20" cx="242" cy="227.6" r="8.7"/>
				<circle class="st21" cx="239.1" cy="225.9" r="2.2"/>
			</g>
			
				<ellipse transform="matrix(2.049388e-02 -0.9998 0.9998 2.049388e-02 0.7696 474.2745)" class="st22" cx="242.4" cy="236.7" rx="3.5" ry="5.8"/>
		</g>
	</g>
	<path class="st23" d="M214.7,91.8C214.7,91.8,214.7,91.8,214.7,91.8c-0.2,0.1-0.4,0.2-0.3,0.5c0,0,0,0.1,0,0.3c0,0.1,0,0.2,0.1,0.4
		c0,0.1,0,0.1,0,0.2l-0.5,0.5l0-0.1l0.1-0.1c0-0.1,0.2-0.1,0.1-0.4c0-0.1-0.1-0.7-0.1-0.7c-0.1-0.5,0.4-0.8,1-0.9c0,0,1.3,1.5-0.4,2
		c-0.1,0-0.2,0.1-0.3,0.2l-0.4,0.4c0,0,0-0.2,0-0.2l0.5-0.5c0-0.1,0.1-0.1,0.1-0.1c0.5-0.2,0.9-0.5,0.5-1.1c0,0,0,0,0,0
		c0-0.1-0.1-0.2-0.1-0.3C215,91.7,214.9,91.8,214.7,91.8"/>
	<path class="st23" d="M209.1,91.9C209.1,91.9,209.1,91.9,209.1,91.9c-0.1,0.2-0.1,0.4,0,0.6c0,0,0.1,0.1,0.2,0.2
		c0,0,0.2,0.2,0.3,0.2c0.1,0.1,0.1,0.1,0.1,0.1l0,0.7l-0.1-0.1l0-0.2c0-0.1,0-0.2-0.1-0.4c-0.1-0.1-0.5-0.4-0.5-0.5
		c-0.4-0.3-0.2-0.9,0.2-1.3c0,0,1.9,0.3,1,1.7c-0.1,0.1-0.1,0.2-0.1,0.3l0,0.6c0,0-0.2-0.2-0.2-0.2l0.1-0.7c0-0.1,0-0.1,0-0.1
		c0.2-0.4,0.4-0.9-0.4-1.2c0,0,0,0,0,0c-0.1,0-0.2-0.1-0.2-0.1C209.2,91.6,209.2,91.8,209.1,91.9"/>
	<path class="st23" d="M204.9,95.5C204.9,95.5,204.9,95.6,204.9,95.5c0.1,0.2,0.1,0.4,0.4,0.4c0,0,0.1,0,0.3,0c0.1,0,0.2,0,0.4,0
		c0.1,0,0.1,0,0.2,0.1l0.4,0.6l-0.1,0l-0.1-0.2c0-0.1-0.1-0.2-0.3-0.2c-0.1,0-0.7,0-0.7,0c-0.5,0-0.7-0.5-0.7-1.1c0,0,1.7-1,1.9,0.7
		c0,0.1,0,0.2,0.1,0.3l0.3,0.4c0,0-0.2,0-0.2,0l-0.4-0.6c0-0.1-0.1-0.1-0.1-0.1c-0.1-0.5-0.3-0.9-1-0.7c0,0,0,0,0,0
		c-0.1,0-0.2,0.1-0.3,0C204.8,95.3,204.8,95.4,204.9,95.5"/>
	<path class="st23" d="M203.9,101.1C204,101.1,204,101.1,203.9,101.1c0.2,0.1,0.4,0.2,0.6,0.1c0,0,0.1-0.1,0.2-0.2
		c0,0,0.2-0.2,0.3-0.2c0.1-0.1,0.1-0.1,0.2,0l0.7,0.2l-0.1,0.1l-0.2,0c-0.1,0-0.2-0.1-0.4,0.1c-0.1,0.1-0.5,0.4-0.6,0.5
		c-0.4,0.3-0.9,0.1-1.2-0.4c0,0,0.6-1.8,1.9-0.7c0.1,0.1,0.2,0.1,0.3,0.2l0.5,0.1c0,0-0.2,0.1-0.2,0.1l-0.7-0.2c-0.1,0-0.1,0-0.1,0
		c-0.4-0.3-0.8-0.5-1.2,0.1c0,0,0,0,0,0c0,0.1-0.1,0.2-0.2,0.2C203.7,101,203.8,101,203.9,101.1"/>
	<path class="st23" d="M206.8,105.9C206.8,105.9,206.8,105.9,206.8,105.9c0.2,0,0.4-0.1,0.5-0.3c0,0,0-0.1,0.1-0.3
		c0-0.1,0-0.2,0.1-0.4c0-0.1,0.1-0.1,0.1-0.1l0.6-0.3l0,0.1l-0.2,0.1c-0.1,0-0.2,0.1-0.2,0.3c0,0.1-0.1,0.7-0.2,0.7
		c-0.1,0.5-0.6,0.6-1.2,0.5c0,0-0.7-1.8,1-1.7c0.1,0,0.2,0,0.4-0.1l0.5-0.2c0,0,0,0.2,0,0.2l-0.6,0.3c-0.1,0-0.1,0-0.1,0
		c-0.5,0-1,0.1-0.9,0.9c0,0,0,0,0,0c0,0.1,0,0.2,0,0.3C206.6,106,206.7,105.9,206.8,105.9"/>
	<path class="st23" d="M212.1,107.8C212.1,107.8,212.1,107.8,212.1,107.8c0.2-0.2,0.3-0.3,0.2-0.6c0,0,0-0.1-0.1-0.2
		c0,0-0.1-0.2-0.2-0.3c-0.1-0.1,0-0.1,0-0.2l0.3-0.7l0.1,0.1l-0.1,0.2c0,0.1-0.1,0.2,0,0.4c0,0.1,0.3,0.6,0.3,0.6
		c0.2,0.4-0.1,0.9-0.6,1.1c0,0-1.7-0.9-0.3-2c0.1-0.1,0.2-0.1,0.2-0.3l0.2-0.5c0,0,0.1,0.2,0.1,0.2l-0.3,0.6c0,0.1-0.1,0.1-0.1,0.1
		c-0.4,0.3-0.7,0.7-0.1,1.2c0,0,0,0,0,0c0,0,0.1,0.1,0.2,0.2C212,108,212,107.9,212.1,107.8"/>
	<path class="st23" d="M217.4,105.8C217.4,105.8,217.4,105.8,217.4,105.8c0-0.2,0-0.4-0.2-0.5c0,0-0.1,0-0.2-0.1
		c-0.1,0-0.2-0.1-0.3-0.1c-0.1,0-0.1-0.1-0.1-0.1l-0.2-0.7l0.1,0l0.1,0.2c0,0.1,0,0.2,0.3,0.3c0.1,0,0.6,0.3,0.7,0.3
		c0.4,0.2,0.5,0.7,0.2,1.3c0,0-1.9,0.4-1.5-1.3c0-0.1,0-0.2,0-0.4l-0.2-0.5c0,0,0.2,0.1,0.2,0.1l0.2,0.7c0,0.1,0,0.1,0,0.1
		c-0.1,0.5,0,1,0.7,1c0,0,0,0,0,0c0.1,0,0.2,0,0.3,0.1C217.4,106.1,217.4,105.9,217.4,105.8"/>
	<path class="st23" d="M220.1,100.9C220.1,100.9,220.1,100.9,220.1,100.9c-0.1-0.2-0.3-0.3-0.5-0.3c0,0-0.1,0-0.3,0.1
		c-0.1,0-0.2,0.1-0.4,0.1c-0.1,0-0.1,0-0.2,0l-0.6-0.4l0.1,0l0.2,0.1c0.1,0,0.2,0.1,0.4,0.1c0.1,0,0.6-0.2,0.7-0.2
		c0.4-0.2,0.9,0.2,1,0.8c0,0-1.2,1.5-2,0c-0.1-0.1-0.1-0.2-0.2-0.3l-0.5-0.3c0,0,0.2-0.1,0.2-0.1l0.6,0.4c0.1,0,0.1,0.1,0.1,0.1
		c0.3,0.4,0.6,0.8,1.2,0.3c0,0,0,0,0,0c0.1,0,0.1-0.1,0.2-0.1C220.3,101.1,220.2,101,220.1,100.9"/>
	<path class="st23" d="M219.1,95.4C219.1,95.4,219.1,95.4,219.1,95.4c-0.2-0.1-0.4-0.1-0.6,0.1c0,0-0.1,0.1-0.1,0.2
		c0,0-0.1,0.2-0.2,0.3c-0.1,0.1-0.1,0.1-0.1,0.1l-0.7,0.1l0.1-0.1l0.2,0c0.1,0,0.2,0,0.3-0.2c0.1-0.1,0.4-0.6,0.4-0.6
		c0.2-0.4,0.8-0.4,1.3,0c0,0,0,1.9-1.5,1.3c-0.1-0.1-0.2-0.1-0.4-0.1l-0.6,0.1c0,0,0.1-0.2,0.1-0.2l0.7-0.1c0.1,0,0.1,0,0.1,0
		c0.5,0.2,1,0.2,1.1-0.6c0,0,0,0,0,0c0-0.1,0-0.2,0.1-0.2C219.3,95.4,219.2,95.4,219.1,95.4"/>
</g>
<g>
	<ellipse class="st1" cx="149.7" cy="286.2" rx="29.8" ry="6.9"/>
	<path class="st24" d="M178.5,230.8l-10.4,52.9c0,2.6-11.1,4.7-24.7,4.7c-13.6,0-24.7-2.1-24.7-4.7l-10-52.9H178.5z"/>
	<path class="st25" d="M103.8,231.7V214h79.3c0,0,0.1,11.5,0,17.8C166,239.2,118.9,239.2,103.8,231.7z"/>
	<ellipse class="st26" cx="143.5" cy="214" rx="39.7" ry="7.6"/>
	<ellipse class="st27" cx="143.5" cy="213.6" rx="36.3" ry="5.9"/>
	<g class="st28">
		<line class="st29" x1="117.5" y1="234.4" x2="122.3" y2="281.2"/>
		<polygon class="st29" points="120.2,234.1 122.3,281.2 114.8,234.6 		"/>
	</g>
	<g>
		<path class="st30" d="M183.1,231.7c-17.1,7.5-64.2,7.5-79.3,0"/>
		<path class="st30" d="M183.1,231.7c-6.2,2.6-12.9,3.8-19.6,4.6c-6.7,0.8-13.4,1.2-20.1,1.2c-6.7,0-13.4-0.3-20.1-1.1
			c-6.6-0.8-13.4-1.9-19.5-4.7c1.6,0.6,3.1,1.3,4.7,1.7l2.4,0.7l2.5,0.5c1.6,0.4,3.3,0.6,4.9,0.9c1.7,0.3,3.3,0.5,5,0.6
			c6.7,0.7,13.4,1,20.1,0.9c6.7,0,13.4-0.3,20.1-1.1c1.7-0.2,3.3-0.4,5-0.7c0.8-0.1,1.7-0.2,2.5-0.4l2.5-0.5
			C176.8,233.9,180,232.9,183.1,231.7z"/>
	</g>
	<path class="st31" d="M179.8,214.1c0,3-16.3,5.4-36.3,5.4s-36.3-2.4-36.3-5.4S179.8,211.1,179.8,214.1z"/>
	<g>
		<g>
			<path class="st12" d="M133.1,213.8c3.8-0.2,7.4-1.3,11.2-1.2c3.6,0.1,7.2,0,10.8,0c3.4,0,6.3,1.7,9.7,1.6
				c3.6,0,10.8-2.5,13.7,0.3c0.8,0.7,2-0.4,1.2-1.2c-2-1.9-4.7-1.6-7.4-1.4c-2.5,0.2-5,0.7-7.5,0.7c-2.8,0-4.7-1.1-7.3-1.6
				c-3.6-0.6-7.6,0.2-11.3,0.1c-4.6-0.2-8.6,0.8-13.1,1.1C132,212.2,132,213.9,133.1,213.8L133.1,213.8z"/>
		</g>
	</g>
	<path class="st32" d="M148.5,260.8c0,2.2-1.8,3.9-4,3.8c-2.2,0-3.9-1.8-3.8-4"/>
	<g>
		<path class="st33" d="M139.6,180.8c2.8-1.8,5.1-4.2,1.8-8.2c0-0.1-0.1-0.1-0.1-0.2c-0.3-0.4-0.8-1-0.9-1.6c0,0-0.5,0.6-1.3,1.2
			c-0.1,0-0.1,0.1-0.2,0.1c-1.2,0.9-2,1.8-1.5,3.4c0.1,0.2,0.2,0.7,0.6,1.7c0.1,0.4,0.6,1.6,0.8,2.4c0.3,0.8,0.1,0.9,0,1.1l-2.4,3.8
			c0.1,0.2,0.2,0.3,0.3,0.5l2.3-3.6C139.3,181.1,139.5,180.9,139.6,180.8z"/>
		<path class="st33" d="M130.1,155.6v4.8c0.3-1.3,0.6-2.6,1-3.8L130.1,155.6z"/>
		<path class="st33" d="M134.3,161.7c2.5,0,5-0.5,4.5-4.4c0-0.1,0-0.1,0-0.2c0-0.3-0.1-0.9,0.1-1.4c0,0-0.6,0.2-1.3,0.2
			c-0.1,0-0.1,0-0.2,0c-1.1,0.1-2,0.3-2.3,1.5c0,0.2-0.1,0.5-0.3,1.3c-0.1,0.3-0.3,1.2-0.5,1.8c-0.2,0.6-0.3,0.6-0.5,0.7l-3.3,1.5
			c0,0.1,0,0.3,0,0.4l3.1-1.4C134,161.7,134.2,161.7,134.3,161.7z"/>
		<path class="st33" d="M125.7,169.8c-0.2-0.8-0.5-2.1-0.5-2.5c-0.2-1.1-0.3-1.6-0.4-1.8c-0.4-1.7-1.6-2-3.1-2.2c-0.1,0-0.2,0-0.3,0
			c-0.9-0.1-1.7-0.4-1.7-0.4c0.3,0.6,0.2,1.4,0.1,1.8c0,0.1,0,0.1,0,0.2c-0.8,5.2,2.5,6,5.8,6.1c0.1,0,0.4,0.1,0.8,0.3l3.7,1.7
			c0-0.2-0.1-0.4-0.1-0.6l-3.8-1.9C126.1,170.6,125.8,170.6,125.7,169.8z"/>
		<path class="st33" d="M130.6,162.2l0.9-0.4c0.3-0.2,1-0.4,1.3-1.5c0.1-0.5,0.8-3.3,0.9-3.6c0.5-2.3,3.4-3.1,6.3-2.1
			c0,0,3.2,9.3-5.5,8.5c-0.7-0.1-1,0-1.8,0.3l-2.2,1c0,0.1,0,0.1,0,0.2h10.2v-10.4h-8.3c-0.9,2.7-1.5,5.5-1.8,8.3L130.6,162.2z"/>
		<path class="st33" d="M152.8,207.9c4.4-0.8,8.5-2.6,6.4-9.2c0-0.1-0.1-0.2-0.1-0.3c-0.1-0.6-0.4-1.6-0.2-2.4c0,0-1,0.5-2.1,0.8
			c-0.1,0-0.2,0-0.3,0.1c-1.9,0.5-3.4,1.1-3.6,3.5c0,0.3-0.1,0.9-0.1,2.4c0,0.5-0.1,2.2-0.2,3.4c-0.1,1.1-0.4,1.2-0.6,1.4l-3.9,2.7
			c0,0.3,0,0.5,0,0.8l3.7-2.5C152.3,208.1,152.7,208,152.8,207.9z"/>
		<path class="st33" d="M131.9,154.1h-0.7l0.5,0.5C131.8,154.4,131.8,154.3,131.9,154.1z"/>
		<path class="st33" d="M130.4,154.1l-1.4-1.4c-0.1-0.1-0.3-0.2-0.2-0.8c0.1-0.6,0.2-1.6,0.2-1.9c0.1-0.8,0.2-1.2,0.2-1.4
			c0.1-1.3-0.6-1.8-1.6-2.3c-0.1,0-0.1-0.1-0.2-0.1c-0.6-0.3-1.1-0.7-1.1-0.7c0,0.5-0.2,1-0.4,1.3c0,0.1-0.1,0.1-0.1,0.1
			c-1.8,3.5,0.2,4.9,2.6,5.8c0.1,0,0.3,0.1,0.5,0.4l1,1v-0.2H130.4z"/>
		<path class="st33" d="M130.1,154.1v0.2l1.3,1.3c0-0.1,0.1-0.3,0.1-0.4l-1.1-1.1H130.1z"/>
		<path class="st33" d="M134.1,195.7c-0.6-1-1.5-2.4-1.8-2.8c-0.8-1.3-1.1-1.8-1.3-2.1c-1.3-1.9-2.9-1.8-4.8-1.3
			c-0.1,0-0.2,0.1-0.3,0.1c-1.2,0.3-2.3,0.3-2.3,0.3c0.6,0.7,0.8,1.7,1,2.2c0,0.1,0,0.2,0.1,0.3c1.4,6.8,5.8,6.4,10.1,4.9
			c0.1,0,0.5-0.1,1.2,0l5.5,0.5c-0.1-0.2-0.2-0.5-0.3-0.7l-5.7-0.6C135,196.5,134.7,196.6,134.1,195.7z"/>
		<path class="st33" d="M133.6,228.1c0.4-1.5,1.1-3.7,1.3-4.3c0.6-1.9,0.8-2.7,0.9-3.1c0.8-3-0.8-4.5-2.9-6
			c-0.1-0.1-0.3-0.2-0.4-0.2c-1.3-0.9-2.3-2-2.3-2c-0.1,1.2-1,2.3-1.4,2.9c-0.1,0.1-0.2,0.2-0.2,0.3c-5.6,7.4-1.3,11.5,3.9,14.5
			c0.1,0.1,0.6,0.4,1,1.2l3.3,4.6c0.1-0.3,0.2-0.7,0.4-1l-3.4-4.9C133.5,229.7,133.2,229.5,133.6,228.1z"/>
		<path class="st33" d="M147.8,214.8c-0.4,2.7-1,5.4-1.8,8c-0.9,3-2,5.8-3,8.7c-1,2.8-2.1,5.6-2.6,8.3c-0.3,1.3-0.4,2.7-0.3,3.8
			c0.1,1.2,0.5,2,1.1,2.7l3,3.5l1.9,2.4l0.7-0.9c0.5-0.7,1.6-1.9,1-4.7c-0.2-1.1-2-7.9-2.2-8.6c-1.5-5.5,3.7-10.2,10.8-11.6
			c0,0,17,15.8-2,24c-1.4,0.6-2.2,1.1-3.5,2.7l-2.1,2.7c3,4.2,5.8,8.6,8.2,13.2c1.5,2.7,2.8,5.5,4,8.4c0.3,0.7,0.6,1.4,0.9,2.2
			c0.3,0.7,0.6,1.5,0.8,2.2c0.3,0.7,0.5,1.5,0.8,2.2c0.3,0.8,0.5,1.5,0.7,2.4l-6.7,1.6c-0.1-0.6-0.3-1.3-0.5-2
			c-0.2-0.7-0.4-1.4-0.6-2.1c-0.2-0.7-0.4-1.4-0.7-2.1c-0.2-0.7-0.5-1.4-0.7-2.1c-1-2.7-2.2-5.4-3.4-8.1c-2.5-5.3-5.4-10.4-8.8-15.3
			l-2.6-3.6l-2.8-3.5c-0.3-0.4-0.6-0.8-0.9-1.3c-0.2-0.5-0.5-0.9-0.6-1.4l-0.2-0.7c-0.1-0.2-0.1-0.5-0.1-0.7c0-0.2-0.1-0.5-0.1-0.7
			l0-0.7c-0.1-1.9,0.2-3.6,0.6-5.1c0,0,0,0,0-0.1l-2.3-3.2c-1.3-1.6-2-2.2-3.4-2.9c-18.7-9-1-24.1-1-24.1c7.1,1.6,12,6.6,10.3,12
			c-0.2,0.7-2.2,7.4-2.5,8.5c-0.6,2.4,0.1,3.7,0.7,4.5c0.5-1.2,1-2.4,1.4-3.6c1.2-2.8,2.4-5.5,3.3-8.3c0.8-2.3,1.5-4.5,1.9-6.8h-3.6
			h3.6c0.1-0.5,0.2-1.1,0.3-1.6c0.2-1.4,0.3-2.8,0.2-4.2c-0.1-1.4-0.3-2.8-0.7-4.1c-0.5-1.8-1.3-3.5-2-5.2l-3.8-0.4
			c-1.5-0.1-2.2,0.1-3.3,0.5c-14.3,6.2-14.1-11.3-14.1-11.3c4.4-3.2,9.6-3.6,11.9,0.1c0.3,0.5,3.1,4.9,3.6,5.6
			c1.2,1.8,2.4,1.8,3.1,1.9l1,0.1c-1.3-2.4-2.6-4.9-4-7.3c-1.5-2.7-2.8-5.4-4-8.2c-0.8-1.9-1.4-3.9-2-5.8l-2.8-1.4
			c-1.1-0.5-1.6-0.5-2.5-0.5c-11.6,0.7-7-11.6-7-11.6c3.9-1.1,7.7,0,8.3,3.1c0.1,0.4,0.9,4.2,1.1,4.9c0.4,1.5,1.2,1.9,1.7,2.1
			l0.6,0.3c-0.6-3.7-0.5-7.6,0.2-11.3v-4.8l-0.6-0.7c-0.6-0.6-1-0.8-1.6-1c-8.4-2.5-2.1-9.9-2.1-9.9c3,0.2,5.5,1.9,5.1,4.3
			c0,0.3-0.4,3.2-0.5,3.7c-0.1,1.2,0.4,1.6,0.7,1.9l0.1,0.1h0.7c0-0.1,0.1-0.2,0.1-0.3l0,0l0,0c0.4-0.8,0.8-1.5,1.2-2.2l-0.1,0
			l1.6-2.8l0.1,0.3l0,0l-0.1-0.3l0.4-0.5c0.2-0.2,0.5-0.5,0.4-1.3c0-0.3-0.4-2.2-0.4-2.4c-0.3-1.6,1.2-2.8,3.2-3
			c0,0,4.4,4.7-1.1,6.6c-0.4,0.1-0.6,0.3-1,0.7l-1.2,1.4c0,0-0.1-0.8-0.1-0.8l1.6-1.7c0.1-0.2,0.3-0.3,0.3-0.3
			c1.5-0.7,2.8-1.7,1.5-3.9c0,0,0-0.1-0.1-0.1c-0.1-0.2-0.3-0.5-0.3-0.9c0,0-0.3,0.3-0.7,0.5c0,0-0.1,0-0.1,0.1
			c-0.6,0.3-1.1,0.7-1,1.6c0,0.1,0.1,0.3,0.2,0.9c0,0.1,0.1,0.6,0.2,0.9c0,0,0.1-0.1,0.1-0.1c0,0.1-0.1,0.1-0.1,0.2
			c0,0.1,0,0.2,0,0.3c0.1,0.4,0,0.5-0.1,0.5l-1.6,1.8c-0.1,0.1-0.1,0.2-0.2,0.3l-0.6,1.1c-0.6,1.1-1.2,2.3-1.7,3.5
			c0,0.1,0,0.1-0.1,0.2h8.3v10.4h-10.2c-0.1,2.4,0.1,4.8,0.6,7.1c0.6,2.9,1.6,5.7,2.9,8.4c0.6,1.3,1.3,2.7,2,4l0.6-0.9
			c0.3-0.4,0.8-1.2,0.3-2.7c-0.2-0.6-1.5-4.3-1.6-4.7c-1.1-3,1.6-5.9,5.5-7c0,0,10.3,8,0.1,13.5c-0.8,0.4-1.2,0.7-1.8,1.7l-1.6,2.5
			c0.3,0.5,0.6,1,0.9,1.5c3.1,5.2,6.5,10.3,8.6,16.2c0.5,1.5,0.9,3.2,1,4.8c0,0.1,0,0.2,0,0.4l0.1-0.1c0.5-0.4,1.6-1,1.8-3.1
			c0.1-0.8,0.4-6.1,0.4-6.6c0.2-4.3,4.9-6.5,10.3-5.8c0,0,8.6,15.2-6.9,16.7c-1.2,0.1-1.8,0.3-3.1,1.1l-2.6,1.8c0,0.1,0,0.3,0,0.4
			C147.9,214,147.8,214.4,147.8,214.8h16.5v-73.3h-47v146.6h47v-73.3H147.8z"/>
		<path class="st33" d="M152.4,248c5.3-2.8,9.7-6.7,4.5-14.3c-0.1-0.1-0.2-0.2-0.2-0.3c-0.4-0.7-1.2-1.8-1.3-3c0,0-1,1-2.4,1.9
			c-0.1,0.1-0.3,0.1-0.4,0.2c-2.2,1.4-3.8,2.8-3.2,5.8c0.1,0.4,0.3,1.2,0.8,3.2c0.2,0.6,0.7,2.9,1.1,4.4c0.3,1.4,0,1.6-0.2,2
			l-4.2,5.4l0.1,0.2c0.1,0.2,0.3,0.4,0.4,0.6l3.8-4.9C151.8,248.4,152.2,248.1,152.4,248z"/>
		<path class="st10" d="M135.9,197.4c-0.6-0.1-1.1,0-1.2,0c-4.2,1.4-8.7,1.9-10.1-4.9c0-0.1,0-0.2-0.1-0.3c-0.2-0.6-0.4-1.6-1-2.2
			c0,0,1.1,0,2.3-0.3c0.1,0,0.2-0.1,0.3-0.1c1.9-0.5,3.5-0.6,4.8,1.3c0.2,0.2,0.5,0.8,1.3,2.1c0.3,0.4,1.2,1.9,1.8,2.8
			c0.6,0.9,0.9,0.8,1.2,0.9l5.7,0.6c-0.2-0.3-0.3-0.7-0.5-1l-1-0.1c-0.7-0.1-1.9-0.1-3.1-1.9c-0.5-0.7-3.3-5.1-3.6-5.6
			c-2.2-3.7-7.5-3.3-11.9-0.1c0,0-0.2,17.4,14.1,11.3c1.1-0.5,1.7-0.6,3.3-0.5l3.8,0.4c-0.3-0.6-0.5-1.2-0.8-1.8L135.9,197.4z"/>
		<path class="st34" d="M126.5,171.4c-0.4-0.2-0.7-0.3-0.8-0.3c-3.4-0.1-6.6-0.9-5.8-6.1c0-0.1,0-0.1,0-0.2c0-0.4,0.1-1.2-0.1-1.8
			c0,0,0.8,0.3,1.7,0.4c0.1,0,0.2,0,0.3,0c1.4,0.1,2.6,0.5,3.1,2.2c0.1,0.2,0.1,0.7,0.4,1.8c0.1,0.4,0.3,1.6,0.5,2.5
			c0.2,0.8,0.4,0.8,0.6,0.9l3.8,1.9c0-0.3-0.1-0.5-0.2-0.8c0,0,0-0.1,0-0.1l-0.6-0.3c-0.4-0.2-1.3-0.6-1.7-2.1
			c-0.2-0.6-1-4.5-1.1-4.9c-0.6-3.1-4.4-4.2-8.3-3.1c0,0-4.6,12.2,7,11.6c0.9,0,1.4,0,2.5,0.5l2.8,1.4c-0.1-0.5-0.3-1.1-0.4-1.6
			L126.5,171.4z"/>
		<path class="st9" d="M138.8,180.8c0.1-0.2,0.3-0.3,0-1.1c-0.3-0.8-0.7-2-0.8-2.4c-0.4-1.1-0.5-1.5-0.6-1.7
			c-0.5-1.7,0.3-2.6,1.5-3.4c0.1-0.1,0.1-0.1,0.2-0.1c0.7-0.6,1.3-1.2,1.3-1.2c0.1,0.7,0.6,1.3,0.9,1.6c0,0.1,0.1,0.1,0.1,0.2
			c3.3,4,1,6.4-1.8,8.2c-0.1,0-0.3,0.3-0.6,0.7l-2.3,3.6c0.2,0.4,0.5,0.8,0.7,1.2l1.6-2.5c0.7-0.9,1.1-1.3,1.8-1.7
			c10.3-5.5-0.1-13.5-0.1-13.5c-3.9,1.1-6.6,4-5.5,7c0.1,0.4,1.5,4.1,1.6,4.7c0.5,1.5-0.1,2.2-0.3,2.7l-0.6,0.9
			c0.1,0.2,0.3,0.5,0.4,0.7L138.8,180.8z"/>
		<path class="st10" d="M132.7,163.3c0.8-0.3,1.2-0.4,1.8-0.3c8.7,0.8,5.5-8.5,5.5-8.5c-2.9-0.9-5.8-0.2-6.3,2.1
			c-0.1,0.3-0.8,3.2-0.9,3.6c-0.3,1.2-1,1.4-1.3,1.5l-0.9,0.4l0,0.2c0,0.2,0,0.3,0,0.5l3.3-1.5c0.2-0.1,0.3-0.1,0.5-0.7
			c0.2-0.6,0.4-1.6,0.5-1.8c0.2-0.8,0.3-1.2,0.3-1.3c0.4-1.3,1.3-1.5,2.3-1.5c0.1,0,0.1,0,0.2,0c0.7,0,1.3-0.2,1.3-0.2
			c-0.2,0.5-0.1,1-0.1,1.4c0,0.1,0,0.1,0,0.2c0.4,3.9-2,4.4-4.5,4.4c-0.1,0-0.3,0-0.6,0.2l-3.1,1.4c0,0.4,0,0.7-0.1,1.1L132.7,163.3
			z"/>
		<path class="st9" d="M129.1,153.3c-0.2-0.3-0.5-0.4-0.5-0.4c-2.4-0.9-4.4-2.3-2.6-5.8c0,0,0.1-0.1,0.1-0.1
			c0.1-0.3,0.4-0.8,0.4-1.3c0,0,0.5,0.4,1.1,0.7c0.1,0,0.1,0,0.2,0.1c1,0.5,1.7,1,1.6,2.3c0,0.2-0.1,0.5-0.2,1.4
			c0,0.3-0.2,1.2-0.2,1.9c-0.1,0.6,0.1,0.7,0.2,0.8l1.4,1.4h0.8l-0.1-0.1c-0.3-0.3-0.8-0.7-0.7-1.9c0-0.5,0.4-3.4,0.5-3.7
			c0.3-2.4-2.1-4.1-5.1-4.3c0,0-6.3,7.5,2.1,9.9c0.6,0.2,1,0.4,1.6,1l0.6,0.7v-1.3L129.1,153.3z"/>
		<path class="st9" d="M131.5,155.2c0.1-0.2,0.1-0.4,0.2-0.6l-0.5-0.5h-0.8L131.5,155.2z"/>
		<path class="st9" d="M131.4,155.6l-1.3-1.3v1.3l1,1C131.2,156.3,131.3,155.9,131.4,155.6z"/>
		<path class="st34" d="M136.4,145.5c-0.1-0.6-0.1-0.8-0.2-0.9c-0.1-0.9,0.4-1.2,1-1.6c0,0,0.1,0,0.1-0.1c0.4-0.2,0.7-0.5,0.7-0.5
			c0,0.3,0.2,0.7,0.3,0.9c0,0,0,0.1,0.1,0.1c1.3,2.2,0,3.2-1.5,3.9c0,0-0.2,0.1-0.3,0.3l-1.6,1.7c0,0,0.1,0.7,0.1,0.8l1.2-1.4
			c0.4-0.4,0.6-0.5,1-0.7c5.5-1.9,1.1-6.6,1.1-6.6c-2,0.2-3.5,1.4-3.2,3c0,0.2,0.4,2.1,0.4,2.4c0.1,0.8-0.2,1.1-0.4,1.3l-0.4,0.5
			l0.1,0.3c0.5-0.8,1.1-1.7,1.7-2.5C136.5,146.1,136.4,145.7,136.4,145.5z"/>
		<path class="st34" d="M136.5,147.3c0.1-0.1,0.2-0.1,0.1-0.5c0-0.1,0-0.2,0-0.3c-0.6,0.8-1.1,1.7-1.6,2.6L136.5,147.3z"/>
		<path class="st34" d="M134.8,148.7l-1.6,2.8l0.1,0c0.5-0.9,1-1.7,1.6-2.6L134.8,148.7z"/>
		<path class="st35" d="M134.7,149.4c-0.2,0.4-0.4,0.7-0.6,1.1L134.7,149.4z"/>
		<path class="st34" d="M148,213.2l-1.5,1.1c0-0.1,0.1-2.1,0.1-2.1l1.5-1c0-0.3,0-0.5,0-0.8l-1.5,1l0-1.2l1.4-1c0-0.1,0-0.2,0-0.4
			c-0.2-1.6-0.5-3.2-1-4.8c-2.1-5.9-5.6-11-8.6-16.2c-0.3-0.5-0.6-1-0.9-1.5L137,187c0-0.1-0.5-1.5-0.5-1.5l0.3-0.4
			c-0.1-0.2-0.2-0.3-0.3-0.5l-0.2,0.3l-0.3-0.8l0.1-0.2c-0.7-1.3-1.4-2.6-2-4c-1.2-2.7-2.3-5.5-2.9-8.4c-0.5-2.3-0.7-4.7-0.6-7.1
			h-0.4h0h0v-4c-0.7,3.7-0.8,7.5-0.2,11.3l0.6,0.3l0.2,0.9l-0.6-0.3c0,0.2,0.1,0.4,0.1,0.6l0.6,0.3c0,0,0.3,1.5,0.3,1.6l-0.6-0.3
			c0.5,2,1.2,3.9,2,5.8c1.2,2.8,2.6,5.6,4,8.2c1.3,2.5,2.7,4.9,4,7.3l0.7,0.1l0.6,1l-0.8-0.1c0.1,0.2,0.2,0.5,0.3,0.7l0.9,0.1
			c0,0,1.1,1.7,1.1,1.8l-1.2-0.1c0.8,1.7,1.5,3.5,2,5.2c0.4,1.3,0.6,2.7,0.7,4.1c0,1.4,0,2.8-0.2,4.2c-0.1,0.5-0.2,1.1-0.3,1.6h3.3
			c0.1-0.4,0.1-0.8,0.2-1.2C148,213.4,148,213.3,148,213.2z"/>
		<path class="st35" d="M134.7,149.4c0.1-0.1,0.1-0.2,0.2-0.3l0,0l0-0.2l0,0l0,0.2L134.7,149.4z"/>
		<polygon class="st35" points="132.4,153.9 132.4,153.9 132.4,153.9 		"/>
		<path class="st34" d="M130.1,164.5h0.4c0-0.1,0-0.1,0-0.2L130.1,164.5z"/>
		<path class="st34" d="M132.4,153.9C132.4,153.9,132.4,153.9,132.4,153.9L132.4,153.9C132.4,153.9,132.4,153.9,132.4,153.9
			c0.5-1.2,1.1-2.3,1.7-3.5l-0.6,1.1l-0.2,0c-0.4,0.7-0.9,1.5-1.2,2.2l0,0l0,0c0,0.1-0.1,0.2-0.1,0.3h0.4
			C132.4,154,132.4,154,132.4,153.9z"/>
		<path class="st35" d="M136.6,146.3c0,0-0.1,0.1-0.1,0.1c0,0,0,0,0,0C136.6,146.4,136.6,146.4,136.6,146.3z"/>
		<path class="st34" d="M130.1,164.5c0-0.1,0.3-1.2,0.3-1.2l0.1-0.1c0-0.1,0-0.3,0-0.4l-0.1,0l0.1-0.5c0.3-2.8,0.9-5.6,1.8-8.3h-0.4
			c-0.1,0.2-0.1,0.4-0.2,0.5l0.1,0.1l-0.1,0.7l-0.1-0.2c0,0.1-0.1,0.3-0.1,0.4l0.2,0.2c0,0-0.1,1.1-0.2,1.2l-0.4-0.4
			c-0.4,1.3-0.7,2.5-1,3.8L130.1,164.5L130.1,164.5z"/>
		<path class="st34" d="M146.6,211.3l1.5-1c0-0.4,0-0.8,0-1.1l-1.4,1L146.6,211.3z"/>
		<path class="st34" d="M148.1,211.1l-1.5,1c0,0-0.1,2-0.1,2.1l1.5-1.1C148,212.5,148.1,211.8,148.1,211.1z"/>
		<path class="st34" d="M142.2,197.9l-0.9-0.1c0.3,0.6,0.6,1.2,0.8,1.8l1.2,0.1C143.3,199.7,142.2,197.9,142.2,197.9z"/>
		<path class="st34" d="M141.8,197.2l-0.6-1l-0.7-0.1c0.2,0.3,0.4,0.7,0.5,1L141.8,197.2z"/>
		<path class="st34" d="M130.8,173.4l-0.6-0.3c0.1,0.5,0.2,1.1,0.4,1.6l0.6,0.3C131.1,174.9,130.8,173.4,130.8,173.4z"/>
		<path class="st34" d="M130.1,172.6l0.6,0.3l-0.2-0.9l-0.6-0.3c0,0,0,0.1,0,0.1C129.9,172,130,172.3,130.1,172.6z"/>
		<path class="st34" d="M136.4,185.5c0,0,0.5,1.5,0.5,1.5l0.4-0.7c-0.2-0.4-0.5-0.8-0.7-1.2L136.4,185.5z"/>
		<path class="st34" d="M136.2,184.9l0.2-0.3c-0.1-0.2-0.3-0.5-0.4-0.7l-0.1,0.2L136.2,184.9z"/>
		<path class="st34" d="M130.5,162.8L130.5,162.8c0.1-0.2,0.1-0.3,0.1-0.5L130.5,162.8z"/>
		<path class="st34" d="M130.5,163.2l-0.1,0.1c0,0-0.3,1.1-0.3,1.2h0l0.4-0.2C130.5,163.9,130.5,163.6,130.5,163.2z"/>
		<path class="st34" d="M131.7,155.3l0.1-0.7l-0.1-0.1c-0.1,0.2-0.1,0.4-0.2,0.6L131.7,155.3z"/>
		<path class="st34" d="M131.4,157c0-0.1,0.2-1.2,0.2-1.2l-0.2-0.2c-0.1,0.3-0.2,0.7-0.3,1L131.4,157z"/>
		<path class="st34" d="M134.9,149.1c0.5-0.9,1-1.8,1.6-2.6c0,0,0,0,0,0c-0.6,0.8-1.2,1.6-1.7,2.5L134.9,149.1L134.9,149.1z"/>
		<path class="st34" d="M134.1,150.4c0.2-0.4,0.4-0.7,0.6-1.1l0.1-0.2l0-0.2c-0.6,0.8-1.1,1.7-1.6,2.6l0.2,0L134.1,150.4z"/>
	</g>
	<g>
		<circle cx="135.9" cy="252.7" r="4.8"/>
		<circle class="st20" cx="138.3" cy="253" r="1.5"/>
		<circle cx="153.4" cy="252.7" r="4.8"/>
		<circle class="st20" cx="155.8" cy="252.7" r="1.5"/>
	</g>
</g>
</svg>
