<?xml version="1.0" encoding="utf-8"?>
<!-- Generator: Adobe Illustrator 23.0.2, SVG Export Plug-In . SVG Version: 6.00 Build 0)  -->
<svg version="1.1" id="Layer_1" xmlns="http://www.w3.org/2000/svg" xmlns:xlink="http://www.w3.org/1999/xlink" x="0px" y="0px"
	 viewBox="0 0 449 887" style="enable-background:new 0 0 449 887;" xml:space="preserve">
<style type="text/css">
	.st0{fill:#F3EE77;}
	.st1{fill:#F5969C;}
	.st2{fill:#FDB936;}
	.st3{fill:#F79235;}
	.st4{fill:#CA707E;}
	.st5{fill:#FF5622;enable-background:new    ;}
</style>
<path class="st0" d="M-589.5-84.7h449L-391.2,50.1l-198.3,106.5V-84.7z"/>
<path class="st1" d="M-140.5,314.9L-391.2,50.1l250.7-134.8L-140.5,314.9L-140.5,314.9z M-589.5,792.5l189-287l-189-348.9V792.5z"/>
<path class="st2" d="M-391.2,50.1l-9.3,455.4l-189-348.9L-391.2,50.1z"/>
<path class="st3" d="M-140.5,314.9l-260,190.6l9.3-455.4L-140.5,314.9z"/>
<path class="st4" d="M-140.5,800.7l-260-295.2l-202.7,304.2L-140.5,800.7z"/>
<path class="st0" d="M-140.5,314.9v485.8l-260-295.2L-140.5,314.9z"/>
<path class="st5" d="M-13.4,1076.8l6.4-1600l497.2,2l-6.4,1600L-13.4,1076.8z"/>
</svg>
