<?xml version="1.0" encoding="utf-8"?>
<!-- Generator: Adobe Illustrator 23.0.2, SVG Export Plug-In . SVG Version: 6.00 Build 0)  -->
<svg version="1.1" id="Layer_1" xmlns="http://www.w3.org/2000/svg" xmlns:xlink="http://www.w3.org/1999/xlink" x="0px" y="0px"
	 viewBox="0 0 449 887" style="enable-background:new 0 0 449 887;" xml:space="preserve">
<style type="text/css">
	.st0{fill:#CA707E;}
	.st1{fill:#FDB936;}
	.st2{fill:#F3EE77;}
	.st3{fill:#F5969C;}
	.st4{fill:#F79235;}
	.st5{fill:#FF5622;enable-background:new    ;}
	.st6{fill:#FFFFFF;}
</style>
<path class="st0" d="M-172.2-46.9l-449,302.8V-46.9H-172.2z"/>
<path class="st1" d="M-172.2,322.2l-449-66.3l449-302.8L-172.2,322.2L-172.2,322.2z"/>
<path class="st2" d="M-621.2,443.5V255.9l261.9,38.7L-621.2,443.5z M-359.3,294.6l187.1,543.9V322.2L-359.3,294.6z"/>
<path class="st3" d="M-621.2,840.1l261.9-545.5l-261.9,148.9V840.1z"/>
<path class="st4" d="M-172.2,838.5l-187.1-543.9l-261.9,545.5L-172.2,838.5z"/>
<path class="st5" d="M-29.3,903.2l6.4-1600l497.2,2l-6.4,1600L-29.3,903.2z"/>
<g>
	<g>
		<g>
			<path class="st6" d="M209.4,136.8c-1.5-0.7-2.1-2-2.4-3.6c-0.7-3.5-0.5-6.9-0.1-10.4c0.3-2.2,0.6-4.4,1-6.6c0.2-1,0.6-2,1-3
				c1.3-3.1,3.9-4.7,6.8-5.9c0.6-1.5,1.2-3.1,1.9-4.6c1-2.3,2.3-4.5,4.7-5.7c0.3-0.1,0.5-0.6,0.6-0.9c0.1-0.5,0.1-0.9,0.1-1.4
				c0-4,0.1-8,0.1-12c0.1-5.8,0.2-11.5,0.3-17.3c0.1-5.1,0.2-10.3,0.3-15.4c0.1-5.7,0.2-11.4,0.3-17.1c0.1-5,0.2-10.1,0.3-15.1
				c0.1-7.4,0.3-14.8,0.4-22.1c0-1.9,0-3.7,0-5.6c0-0.7,0.2-1.3,0.4-1.9c0.3-0.7,0.9-1,1.6-0.9c0.7,0.1,1.2,0.4,1.4,1.1
				c0.1,0.4,0.2,0.9,0.2,1.4c-0.1,7.8-0.3,15.6-0.5,23.4c0,2.6,0,5.1-0.1,7.7c-0.1,6.4-0.2,12.8-0.3,19.1
				c-0.1,6.6-0.2,13.1-0.3,19.7c-0.1,5-0.2,10.1-0.3,15.1c-0.1,5.8-0.2,11.6-0.3,17.4c0,1.2-0.1,2.5-0.2,3.7c2.6,0,5.1,0,7.8,0
				c0.1-0.8,0.1-1.4,0.1-2.1c0-13.4,0-26.9,0-40.3c0-21.1,0-42.1,0-63.2c0-0.7,0-1.4,0.1-2.1c0.2-1,0.9-1.6,1.7-1.6
				c0.8,0.1,1.5,0.8,1.6,1.8c0,0.6,0,1.1,0,1.7c0,34.8,0,69.6,0,104.4c0,0.7,0,1.3,0,1.9c0.2,0.2,0.2,0.2,0.3,0.3
				c2.6,0.6,4.2,2.3,5.4,4.6c1,2,1.8,4.1,2.8,6.3c4.9,1.6,7.3,5.3,8.1,10.3c0.6,3.9,1.1,7.8,0.9,11.8c-0.1,1.3-0.2,2.7-0.4,4
				c-0.2,1.5-0.8,2.7-2.5,3.4c0,1.4,0,2.9,0.4,4.2c1,3.2,1.9,6.4,3,9.5c2.3,6.5,4.6,13,7.5,19.3c1.6,3.3,3.4,6.5,5.1,9.8
				c3.3,6.3,7.3,12.3,10.8,18.5c3.7,6.4,6.6,13.2,8.9,20.2c1.6,4.9,2.7,9.9,3.3,15c0.6,4.6,0.5,9.2,0,13.8
				c-0.4,3.4-0.9,6.9-1.6,10.3c-0.7,3.5-2.1,6.7-3.8,9.8c-0.9,1.7-1.8,3.3-2.8,5c-0.5,0.8-0.9,1.6-1.5,2.3
				c-3.6,4.4-7.4,8.6-12.3,11.6c-2.5,1.5-4.9,3.1-7.5,4.4c-4.9,2.4-10.1,4-15.4,5.2c-3.5,0.8-7,1.7-10.7,1.9
				c-3.5,0.2-7,0.2-10.4-0.1c-7.9-0.7-15.4-2.8-22.7-5.7c-1.2-0.5-2.4-0.9-3.5-1.6c-3.4-2-6.7-4.1-10-6.1c-0.2-0.1-0.4-0.3-0.6-0.4
				c-4.2-4-8.4-8-11.2-13.2c-2.4-4.6-4.8-9.1-5.8-14.2c-0.5-2.7-0.9-5.4-1.2-8c-0.3-3.5-0.5-7-0.4-10.6c0.2-6.8,1.6-13.4,3.8-19.9
				c2.1-6.4,4.7-12.6,8-18.4c2.2-3.9,4.6-7.7,6.9-11.5c1.7-3,3.3-6,5.1-8.9c3.7-6.4,6.7-13.3,9.3-20.2c1.8-4.8,3.5-9.7,5.1-14.6
				C209.1,141.7,209.7,139.4,209.4,136.8z M220.7,134.2c-0.3,0-0.5,0-0.6,0.1c-1.7,0.6-3.5,1.3-5.2,2c-0.3,0.1-0.6,0.5-0.7,0.8
				c-0.5,1.8-1,3.6-1.3,5.4c-0.6,3.7-1.3,7.4-2.5,11c-2.5,7-5.1,14-8.5,20.6c-2.8,5.4-5.8,10.6-8.8,15.9c-2.4,4.1-4.8,8.2-6.7,12.6
				c-3.6,8.9-6.7,17.9-8.3,27.4c-0.4,2.2-0.5,4.5-0.5,6.7c0.1,4.6,0.4,9.1,0.7,13.7c0.1,1.9,0.5,3.9,1,5.8c1.2,4.6,3.5,8.7,5.6,13
				c2.2,4.3,5.4,7.7,8.9,10.8c3.5,3.1,7.6,5.4,11.9,7.3c4.2,1.8,8.6,2.8,12.9,4c4.1,1.2,8.3,0.9,12.4,1.4c0.3,0,0.6,0,0.9,0
				c1.5-0.1,3-0.1,4.6-0.2c0.8,0,1.6-0.1,2.4-0.2c2.3-0.5,4.5-1,6.8-1.5c7.1-1.6,13.5-4.4,19.5-8.5c3.7-2.5,6.6-5.9,9.5-9.2
				c0.2-0.3,0.5-0.6,0.6-1c1.7-3.3,3.5-6.5,5.1-9.9c2.1-4.4,3.2-9.2,3.3-14.1c0-1.9,0.2-3.8,0.3-5.7c0.5-5.1,0.3-10.1-0.8-15.1
				c-1.7-7.9-4.2-15.5-7.2-23c-2.5-6.4-6.2-12.1-9.5-18.1c-2.5-4.5-5.1-8.9-7.3-13.6c-2.4-5.1-4.4-10.3-6.5-15.5
				c-1.6-3.8-2.6-7.8-3.4-11.9c-0.5-2.6-1.1-5.2-1.7-7.8c-0.1-0.5-0.3-0.8-0.8-1c-1.3-0.4-2.5-0.9-3.8-1.3c-0.6-0.2-1.2-0.3-1.9-0.6
				c0,0.8,0,1.3,0.1,1.9c0.4,3.4,0.9,6.9,1.3,10.3c0.6,4.8,1.2,9.5,1.8,14.3c0.6,4.9,1.3,9.8,1.9,14.7c0.6,4.8,1.2,9.6,1.8,14.4
				c0.6,4.9,1.3,9.8,1.9,14.7c0.5,4.2,1.2,8.3,1.6,12.5c0.4,4.1,0.7,8.3,1,12.4c0.1,1.9-0.5,2.5-2.5,2.6c-0.1,0-0.1,0.1-0.4,0.3
				c0.1,1.8,0.1,3.8,0.3,5.7c0.1,1.2-0.1,1.8-0.7,2c-0.6,0.2-1.2-0.2-1.6-1.4c-0.4-1-0.7-2.1-1.1-3.1c-0.4-1-1.1-1.9-2.2-2.2
				c-0.8,0.4-0.9,1-1.1,1.6c-0.3,0.7-0.4,1.5-0.7,2.2c-0.4,1.2-0.9,2.3-1.9,3.2c-1.3,1.2-2.9,1.4-4.4,0.7c-1.5-0.7-2.6-2.6-2.4-4.1
				c0-0.1,0-0.3,0.1-0.4c0.3-0.3,0.6-0.6,1-0.7c0.2,0,0.6,0.4,0.8,0.7c0.2,0.4,0.2,0.9,0.3,1.4c0.3,0.8,0.8,1.4,1.7,1.5
				c0.9,0.2,1.6-0.3,2-1.1c0.5-0.9,0.8-1.9,1.2-2.9c0.3-0.7,0.4-1.5,0.7-2.2c1-2.2,2.9-2.6,4.8-1c0.3,0.3,0.7,0.6,1.1,0.9
				c0.2-1.5,0.1-2.6-1-3.7c-1.3-1.3-2.1-2.9-2.4-4.8c-0.1-1.1,0.4-2.1,1.2-2.4c0.9-0.3,1.8,0,2.5,0.9c0.7,0.9,1.1,1.9,1.2,3
				c0.1,0.9,0.2,1.8,0.3,2.7c0.1,0.7,0.4,1,1.3,1c-0.5-3.2,0-6.4-1-9.5c-3.1-0.5-6.1-1.1-9.1-1.4c-2.2-0.2-4-0.9-5.4-2.7
				c-1.3-1.6-2.8-3-4.3-4.6c-0.7,0.7-1.4,1.3-2,2c-1.3,1.3-2.5,2.7-3.7,3.9c-0.4,0.4-1.1,0.8-1.7,1c-1.3,0.3-2.6,0.4-3.9,0.6
				c-2.5,0.4-5,0.8-7.4,1.2c-0.7,1.5-1.2,8.1-0.8,9.5c0.6,0,0.9-0.4,1-1c0.1-0.4,0-0.9,0.1-1.3c0.2-1.4,0.3-2.9,1.1-4.1
				c0.8-1.2,1.9-1.6,2.9-1.2c0.9,0.4,1.3,1.5,1,2.9c-0.4,1.8-1.3,3.3-2.5,4.6c-1,1-1,2.1-0.8,3.5c0.6-0.5,1-0.9,1.4-1.2
				c1.7-1.2,3.4-0.9,4.4,1c0.4,0.8,0.6,1.7,0.9,2.5c0.4,0.9,0.7,1.9,1.2,2.7c0.4,0.7,1.1,1.2,2,1c0.9-0.2,1.5-0.8,1.8-1.7
				c0.1-0.3,0.1-0.7,0.2-1c0.1-0.6,0.4-1,1.1-0.9c0.6,0.1,0.8,0.6,0.9,1.1c0.1,1.4-1.1,3.4-2.5,4.1c-1.4,0.7-3.1,0.5-4.2-0.6
				c-0.7-0.7-1.2-1.5-1.6-2.3c-0.4-0.9-0.6-1.9-1-2.8c-0.3-0.7-0.4-1.5-1.2-1.9c-1,0.3-1.6,1-2,1.9c-0.3,0.6-0.5,1.2-0.7,1.9
				c-0.3,0.7-0.5,1.4-0.8,2.1c-0.2,0.6-0.6,1-1.3,0.9c-0.7-0.1-0.8-0.7-0.8-1.3c0-0.6,0.2-1.2,0.2-1.8c0-1.6,0-3.2,0-4.8
				c-2.3-0.1-2.9-0.8-2.8-3c0.3-7.4,1.3-14.7,2.3-22c0.6-4.8,1.2-9.6,1.8-14.5c0.6-4.8,1.2-9.5,1.8-14.3c0.6-4.9,1.3-9.8,1.9-14.7
				c0.6-4.9,1.2-9.7,1.9-14.6c0.6-4.7,1.2-9.3,1.8-14C220.8,134.8,220.7,134.6,220.7,134.2z M249.2,219.1
				c-3.6-27.8-7.1-55.4-10.6-82.9c-0.5,0.3-0.8,0.7-1,1.1c-1.8,3.4-3.5,6.8-5.3,10.1c-0.4,0.8-0.4,1.5,0,2.4c0.9,1.9,1.6,4,2.4,5.9
				c0.2,0.6,0.4,1.2-0.3,1.6c-0.8,0.4-1.1,1.2-1.4,1.9c-0.3,0.8-0.6,1.7-0.8,2.6c-0.2,0.6-0.5,1-1.2,1c-0.7,0-1-0.5-1.2-1.1
				c-0.3-0.9-0.6-1.9-0.9-2.8c-0.2-0.5-0.5-1-0.9-1.4c-0.9-0.9-1-0.9-0.6-2.1c0.8-2,1.6-4.1,2.5-6.1c0.3-0.6,0.3-1.2,0-1.8
				c-1.9-3.7-3.8-7.3-5.8-11c-0.1-0.2-0.3-0.4-0.6-0.7c-0.2,1.1-0.3,2.1-0.4,3c-1.1,8.6-2.2,17.2-3.2,25.8c-1.2,9.3-2.4,18.7-3.6,28
				c-1,8.2-2.1,16.3-3.1,24.5c-0.1,0.5,0,1.1,0,1.7c0.7-0.1,1.2-0.1,1.7-0.2c2.7-0.4,5.3-0.9,8-1.3c0.5-0.1,1.1-0.2,1.4-0.6
				c1.9-2,3.8-4,5.8-6c-0.9-0.8-1.7-1.6-2.5-2.4c-1-1-0.9-1.5,0.4-1.9c0.7-0.3,1.3-0.6,1.6-1.4c0.5-1.4,2.1-1.6,3.1-0.6
				c0.2,0.2,0.4,0.6,0.4,0.9c0.1,0.5,0.5,0.8,1,0.9c0.3,0.1,0.6,0.2,0.9,0.4c0.6,0.3,0.7,0.8,0.3,1.3c-0.3,0.3-0.6,0.6-0.9,0.9
				c-0.7,0.7-1.3,1.3-2,2c1.9,2,3.7,3.9,5.5,5.8c0.4,0.4,1,0.7,1.6,0.8c2.1,0.4,4.3,0.8,6.5,1.1
				C246.7,218.8,247.8,218.9,249.2,219.1z M250.5,132.2c0.1-0.5,0.3-0.9,0.3-1.3c0.6-3.4,0.5-6.7-0.1-10.1c-0.4-2-0.9-3.9-1.4-5.8
				c-0.2-0.9-0.9-1.6-1.7-2c-3.8-1.8-7.8-3.1-12-3.4c-2.6-0.2-5.3-0.3-8-0.1c-4.6,0.3-8.9,1.5-13,3.4c-1,0.5-1.8,1.1-2,2.2
				c-0.4,1.7-0.9,3.5-1.2,5.3c-0.8,3.7-1,7.4-0.1,11c0.1,0.3,0.2,0.6,0.4,1c1.5-0.5,2.8-1,4.2-1.5c2.4-0.8,4.7-1.7,7.1-2.4
				c3.6-1.1,7.4-1.4,11.2-0.9c4.2,0.5,8.3,1.7,12.2,3.4C247.6,131.6,248.9,132.1,250.5,132.2z M231,146.4c2.3-4.2,4.7-8.5,7-12.8
				c-3.6-1.2-12.4-1.2-14.2-0.1C226.2,137.8,228.6,142.1,231,146.4z M243.4,106.9c-0.6-1.8-1.4-3.2-2.6-4.3
				c-0.2-0.2-0.4-0.3-0.6-0.4c-1.2-0.3-2.5-0.8-3.7-0.9c-2.8-0.2-5.7-0.2-8.6-0.2c-1.8,0-3.6,0.3-5.3,0.8c-2.5,0.7-3.2,2.8-4.2,5.1
				C226.9,103.8,235.1,103.8,243.4,106.9z M233.2,155.8c-0.6-1.5-1.3-3.3-2.1-5.1c-0.1,0-0.2,0-0.3,0c-0.7,1.8-1.5,3.7-2.1,5.2
				c0.9,1.7,1.6,3.1,2.2,4.4C231.7,158.9,232.3,157.5,233.2,155.8z M229.9,208.5c0,0.1-0.1,0.3-0.1,0.4c0.4,0.3,0.8,0.7,1.1,0.9
				c0.5-0.4,0.9-0.7,1.2-1c0-0.1-0.1-0.2-0.1-0.3C231.3,208.5,230.6,208.5,229.9,208.5z M247,226.9c0.1,0,0.2-0.1,0.3-0.1
				c-0.2-0.7-0.1-1.5-1.1-1.9C246.5,225.6,246.8,226.3,247,226.9z M215.7,224.9c-0.1-0.1-0.2-0.1-0.3-0.2c-0.6,0.6-0.7,1.3-0.5,2.2
				C215.2,226.2,215.4,225.6,215.7,224.9z"/>
		</g>
	</g>
	<g>
		<g>
			<path class="st6" d="M230.3,335c-1.4,0-2.6-1.2-2.6-2.6v-22.2c0-1.4,1.2-2.6,2.6-2.6c1.4,0,2.6,1.2,2.6,2.6v22.2
				C232.9,333.8,231.8,335,230.3,335z"/>
		</g>
		<g>
			<path class="st6" d="M263.7,329.1c-1.1,0-2.1-0.7-2.5-1.7l-7.6-20.8c-0.5-1.4,0.2-2.9,1.6-3.4c1.4-0.5,2.9,0.2,3.4,1.6l7.6,20.8
				c0.5,1.4-0.2,2.9-1.6,3.4C264.3,329.1,264,329.1,263.7,329.1z"/>
		</g>
		<g>
			<path class="st6" d="M293,312.2c-0.7,0-1.5-0.3-2-0.9l-14.2-17c-0.9-1.1-0.8-2.8,0.3-3.7c1.1-0.9,2.8-0.8,3.7,0.3l14.2,17
				c0.9,1.1,0.8,2.8-0.3,3.7C294.2,312,293.6,312.2,293,312.2z"/>
		</g>
		<g>
			<path class="st6" d="M314.8,286.2c-0.4,0-0.9-0.1-1.3-0.4l-19.2-11.1c-1.3-0.7-1.7-2.3-1-3.6c0.7-1.3,2.3-1.7,3.6-1l19.2,11.1
				c1.3,0.7,1.7,2.3,1,3.6C316.6,285.8,315.7,286.2,314.8,286.2z"/>
		</g>
		<g>
			<path class="st6" d="M326.4,254.4c-0.2,0-0.3,0-0.5,0l-21.8-3.8c-1.4-0.3-2.4-1.6-2.1-3c0.3-1.4,1.6-2.4,3-2.1l21.8,3.8
				c1.4,0.3,2.4,1.6,2.1,3C328.7,253.5,327.6,254.4,326.4,254.4z"/>
		</g>
		<g>
			<path class="st6" d="M304.5,224.4c-1.2,0-2.4-0.9-2.6-2.2c-0.3-1.4,0.7-2.8,2.1-3l21.8-3.8c1.4-0.2,2.8,0.7,3,2.1
				c0.3,1.4-0.7,2.8-2.1,3l-21.8,3.8C304.8,224.4,304.7,224.4,304.5,224.4z"/>
		</g>
		<g>
			<path class="st6" d="M295.6,199.8c-0.9,0-1.8-0.5-2.3-1.3c-0.7-1.3-0.3-2.9,1-3.6l19.2-11.1c1.3-0.7,2.9-0.3,3.6,1
				c0.7,1.3,0.3,2.9-1,3.6l-19.2,11.1C296.5,199.7,296,199.8,295.6,199.8z"/>
		</g>
		<g>
			<path class="st6" d="M278.8,179.7c-0.6,0-1.2-0.2-1.7-0.6c-1.1-0.9-1.3-2.6-0.3-3.7l14.2-17c0.9-1.1,2.6-1.3,3.7-0.3
				c1.1,0.9,1.3,2.6,0.3,3.7l-14.2,17C280.3,179.4,279.5,179.7,278.8,179.7z"/>
		</g>
		<g>
			<path class="st6" d="M181.9,179.7c-0.7,0-1.5-0.3-2-0.9l-14.2-17c-0.9-1.1-0.8-2.8,0.3-3.7c1.1-0.9,2.8-0.8,3.7,0.3l14.2,17
				c0.9,1.1,0.8,2.8-0.3,3.7C183.1,179.5,182.5,179.7,181.9,179.7z"/>
		</g>
		<g>
			<path class="st6" d="M165,199.8c-0.4,0-0.9-0.1-1.3-0.4l-19.2-11.1c-1.3-0.7-1.7-2.3-1-3.6c0.7-1.3,2.3-1.7,3.6-1l19.2,11.1
				c1.3,0.7,1.7,2.3,1,3.6C166.8,199.3,165.9,199.8,165,199.8z"/>
		</g>
		<g>
			<path class="st6" d="M156.1,224.4c-0.2,0-0.3,0-0.5,0l-21.8-3.8c-1.4-0.3-2.4-1.6-2.1-3c0.3-1.4,1.6-2.4,3-2.1l21.8,3.8
				c1.4,0.3,2.4,1.6,2.1,3C158.4,223.5,157.3,224.4,156.1,224.4z"/>
		</g>
		<g>
			<path class="st6" d="M134.3,254.4c-1.2,0-2.4-0.9-2.6-2.2c-0.3-1.4,0.7-2.8,2.1-3l21.8-3.8c1.4-0.3,2.8,0.7,3,2.1
				c0.3,1.4-0.7,2.8-2.1,3l-21.8,3.8C134.6,254.4,134.4,254.4,134.3,254.4z"/>
		</g>
		<g>
			<path class="st6" d="M145.8,286.2c-0.9,0-1.8-0.5-2.3-1.3c-0.7-1.3-0.3-2.9,1-3.6l19.2-11.1c1.3-0.7,2.9-0.3,3.6,1
				c0.7,1.3,0.3,2.9-1,3.6l-19.2,11.1C146.7,286.1,146.3,286.2,145.8,286.2z"/>
		</g>
		<g>
			<path class="st6" d="M167.6,312.2c-0.6,0-1.2-0.2-1.7-0.6c-1.1-0.9-1.3-2.6-0.3-3.7l14.2-17c0.9-1.1,2.6-1.3,3.7-0.3
				c1.1,0.9,1.3,2.6,0.3,3.7l-14.2,17C169.1,311.9,168.4,312.2,167.6,312.2z"/>
		</g>
		<g>
			<path class="st6" d="M197,329.1c-0.3,0-0.6-0.1-0.9-0.2c-1.4-0.5-2.1-2-1.6-3.4l7.6-20.8c0.5-1.4,2-2.1,3.4-1.6
				c1.4,0.5,2.1,2,1.6,3.4l-7.6,20.8C199,328.5,198,329.1,197,329.1z"/>
		</g>
	</g>
</g>
</svg>
