<?xml version="1.0" encoding="utf-8"?>
<!-- Generator: Adobe Illustrator 23.0.2, SVG Export Plug-In . SVG Version: 6.00 Build 0)  -->
<svg version="1.1" id="Layer_1" xmlns="http://www.w3.org/2000/svg" xmlns:xlink="http://www.w3.org/1999/xlink" x="0px" y="0px"
	 viewBox="0 0 187 187" style="enable-background:new 0 0 187 187;" xml:space="preserve">
<style type="text/css">
	.st0{fill:#FFFFFF;}
	.st1{fill:#FF5622;}
</style>
<g>
	<polygon class="st0" points="10.8,93.7 69.7,38.9 83.4,53.6 52.6,82.3 128.8,82.3 128.8,104.2 51.6,104.2 83,133.4 69.2,148.1 	"/>
	<path class="st1" d="M69.5,43.1l9.7,10.4L44.9,85.3h80.9v15.9H44l34.7,32.4L69,143.9L15.2,93.7L69.5,43.1 M69.8,34.6l-4.4,4.1
		L11.1,89.3l-4.7,4.4l4.7,4.4L65,148.3l4.4,4.1l4.1-4.4l9.7-10.4l4.1-4.4l-4.4-4.1l-23.6-22h66.6h6v-6V85.3v-6h-6H60.2l23.1-21.4
		l4.4-4.1l-4.1-4.4L73.9,39L69.8,34.6L69.8,34.6z"/>
</g>
</svg>
