<?xml version="1.0" encoding="utf-8"?>
<!-- Generator: Adobe Illustrator 22.1.0, SVG Export Plug-In . SVG Version: 6.00 Build 0)  -->
<svg version="1.1" id="Layer_1" xmlns="http://www.w3.org/2000/svg" xmlns:xlink="http://www.w3.org/1999/xlink" x="0px" y="0px"
	 viewBox="0 0 187 187" style="enable-background:new 0 0 187 187;" xml:space="preserve">
<style type="text/css">
	.st0{opacity:0.31;fill:#FFFFFF;enable-background:new    ;}
	.st1{fill:#FACDA5;}
	.st2{fill:#E6BDC4;}
	.st3{fill:#F9F6C3;}
	.st4{enable-background:new    ;}
</style>
<path class="st0" d="M0,0h187v187H0V0z"/>
<path class="st1" d="M10,93.7l89.4,51.6V42.1L10,93.7z M99.4,60H166v66.6H99.4V60z"/>
<path class="st2" d="M99.4,60l66.6,66.6V60H99.4z"/>
<path class="st3" d="M99.4,42v103.5l-37.3-21.7L99.4,42z"/>
<g class="st4">
	<path d="M55.6,82H61c1.9,0,3.3,0.5,4.1,1.6c0.8,1,1.2,2.5,1.2,4.4c0,1.8-0.4,3.2-1.2,4.3c-0.8,1.1-2.2,1.7-4.1,1.7h-3.9v10.9h-1.5
		V82z M60.7,92.7c1.4,0,2.4-0.4,3.1-1.1c0.6-0.7,1-2,1-3.7c0-1.2-0.1-2.2-0.4-2.9s-0.7-1.2-1.3-1.4c-0.6-0.3-1.4-0.4-2.4-0.4h-3.6
		v9.6H60.7z"/>
	<path d="M69.3,82h5.5c1.9,0,3.2,0.5,3.9,1.5c0.7,1,1.1,2.4,1.1,4.2c0,1.5-0.2,2.7-0.7,3.7c-0.5,1-1.4,1.5-2.6,1.8l3.7,11.8h-1.5
		l-3.6-11.5h-4.3v11.5h-1.5V82z M74.8,92.2c1.4,0,2.3-0.4,2.8-1.1c0.5-0.7,0.8-1.9,0.8-3.4c0-1.5-0.3-2.7-0.8-3.4
		c-0.5-0.7-1.5-1.1-2.8-1.1h-3.9v9H74.8z"/>
	<path d="M83.6,82h7.9v1.2h-6.4v9.2h5.2v1.2h-5.2v10.1h6.4v1.2h-8V82z"/>
	<path d="M93.3,82h1.5l4.8,20.2l4.4-20.2h1.5l-5.2,22.9h-1.4L93.3,82z"/>
	<path d="M108.4,82h1.5v22.9h-1.5V82z"/>
	<path d="M115,103.4c-0.8-1.2-1.3-2.9-1.3-5v-10c0-2.1,0.4-3.7,1.3-4.9c0.9-1.2,2.3-1.7,4.4-1.7c2,0,3.5,0.6,4.4,1.8
		c0.9,1.2,1.3,2.8,1.3,4.9v10c0,2.1-0.4,3.8-1.3,5s-2.3,1.8-4.4,1.8S115.8,104.6,115,103.4z M122.6,102.6c0.6-0.9,0.9-2.2,0.9-3.9
		V88.1c0-1.7-0.3-3-0.9-3.8s-1.7-1.3-3.2-1.3s-2.6,0.4-3.2,1.3s-0.9,2.1-0.9,3.8v10.6c0,1.7,0.3,3,0.9,3.9s1.7,1.3,3.2,1.3
		S122,103.5,122.6,102.6z"/>
	<path d="M129.8,103.7c-0.9-1-1.3-2.4-1.3-4.2V82h1.5v17.6c0,1.4,0.3,2.5,0.9,3.2c0.6,0.8,1.7,1.1,3.3,1.1c1.5,0,2.5-0.4,3.2-1.2
		s1-1.9,1-3.2V82h1.5v17.5c0,1.8-0.4,3.1-1.3,4.2c-0.9,1-2.3,1.5-4.4,1.5C132.1,105.2,130.6,104.7,129.8,103.7z"/>
	<path d="M142.9,99.2l1.3-0.4c0.2,1.7,0.6,3,1.2,3.8c0.6,0.8,1.6,1.3,3,1.3c2.4,0,3.6-1.2,3.6-3.7c0-0.9-0.2-1.8-0.7-2.6
		c-0.5-0.8-1.2-1.7-2.3-2.7l-4.2-4.2c-1.3-1.3-2-2.8-2-4.4c0-1.5,0.5-2.6,1.4-3.5c0.9-0.8,2.1-1.2,3.7-1.2c1.6,0,2.9,0.4,3.8,1.3
		c0.9,0.9,1.4,2.4,1.5,4.4l-1.3,0.3c-0.1-1.7-0.5-2.9-1.1-3.7S149.3,83,148,83c-1.1,0-2,0.3-2.6,0.8c-0.7,0.6-1,1.4-1,2.5
		c0,0.6,0.1,1.2,0.4,1.7c0.3,0.6,0.7,1.1,1.3,1.7l4.1,4.1c1.1,1,1.9,2.1,2.5,3.1c0.6,1,0.9,2.1,0.9,3.2c0,1.7-0.5,2.9-1.4,3.8
		c-0.9,0.8-2.2,1.3-3.7,1.3C145.1,105.2,143.2,103.2,142.9,99.2z"/>
</g>
</svg>
