<?xml version="1.0" encoding="utf-8"?>
<!-- Generator: Adobe Illustrator 22.1.0, SVG Export Plug-In . SVG Version: 6.00 Build 0)  -->
<svg version="1.1" id="Layer_1" xmlns="http://www.w3.org/2000/svg" xmlns:xlink="http://www.w3.org/1999/xlink" x="0px" y="0px"
	 viewBox="0 0 187 187" style="enable-background:new 0 0 187 187;" xml:space="preserve">
<style type="text/css">
	.st0{opacity:0.31;fill:#FFFFFF;enable-background:new    ;}
	.st1{fill:#F9F6C3;}
	.st2{fill:#FACDA5;}
	.st3{fill:#E6BDC4;}
	.st4{enable-background:new    ;}
</style>
<path class="st0" d="M0,0h187v187H0V0z"/>
<path class="st1" d="M173,93.7l-89.4,51.6V42.1L173,93.7z"/>
<path class="st2" d="M83.6,126.7H17V60h66.6V126.7z"/>
<path class="st1" d="M83.6,60L17,126.7V60H83.6z"/>
<path class="st3" d="M83.6,42v103.5l37.3-21.7L83.6,42z"/>
<g class="st4">
	<path d="M32.6,84h1.2l7.8,19.3V84h1.4v22.9h-1.2l-7.8-19.4v19.4h-1.4V84z"/>
	<path d="M47.1,84H55v1.2h-6.4v9.2h5.2v1.2h-5.2v10.1h6.4v1.2h-8V84z"/>
	<path d="M61.6,95l-5-11H58l4.5,9.8l4.4-9.8h1.5l-5.2,11.3l5.3,11.7H67l-4.7-10.3l-4.2,10.3h-1.5L61.6,95z"/>
	<path d="M74.1,85.2h-4.6V84h10.6v1.2h-4.5v21.7h-1.5V85.2z"/>
</g>
</svg>
