<?xml version="1.0" encoding="utf-8"?>
<!-- Generator: Adobe Illustrator 23.0.2, SVG Export Plug-In . SVG Version: 6.00 Build 0)  -->
<svg version="1.1" id="Layer_1" xmlns="http://www.w3.org/2000/svg" xmlns:xlink="http://www.w3.org/1999/xlink" x="0px" y="0px"
	 viewBox="0 0 187 187" style="enable-background:new 0 0 187 187;" xml:space="preserve">
<style type="text/css">
	.st0{fill:#FFFFFF;}
	.st1{fill:#FF5622;}
</style>
<g>
	<polygon class="st0" points="105.6,133.4 136.5,104.7 60.2,104.7 60.2,82.8 137.4,82.8 106.1,53.6 119.8,38.9 178.3,93.3 
		119.4,148.1 	"/>
	<path class="st1" d="M120,43.1l53.9,50.2l-54.3,50.6l-9.7-10.4l34.2-31.8H63.2V85.8h81.9l-34.7-32.4L120,43.1 M119.7,34.6l-4.1,4.4
		l-9.7,10.4l-4.1,4.4l4.4,4.1l23.6,22H63.2h-6v6v15.9v6h6h65.6l-23.1,21.4l-4.4,4.1l4.1,4.4l9.7,10.4l4.1,4.4l4.4-4.1L178,97.7
		l4.7-4.4l-4.7-4.4l-53.9-50.2L119.7,34.6L119.7,34.6z"/>
</g>
</svg>
