<svg xmlns="http://www.w3.org/2000/svg" id="Layer_1" viewBox="0 0 1600 489" width="1600" height="489"><style>.st0{fill:#ca707e}.st1{fill:#f3ee77}.st2{fill:#f79235}.st3{fill:#f5969c}.st4{fill:#fdb936}.st5{opacity:.54;fill:#fff}</style><path d="M0 0h1600v489H0V0z" class="st0"/><path d="M0 0l558.2 254.6L985.8 0z" class="st1"/><path d="M558.2 254.6l-372 153L0 0z" class="st2"/><path d="M652 482.9l-93.8-228.3-599.9 245.3h703.9z" class="st3"/><path d="M985.8 0L655.7 489l-97.5-234.4zM1600 0l-276.1 275.2L1600 489z" class="st4"/><path d="M985.8 0l256.6 228.8L1600 0z" class="st2"/><path d="M1242.4 228.8l81.5 46.4L1600 0zM985.8 5.2V489L820.7 244.5 991-8.2z" class="st3"/><path d="M1242.4 228.8L1600 407.6V489z" class="st2"/><path d="M985.8 489l256.6-260.2L985.8 0z" class="st1"/><path d="M0-4.1h1600v497.2H0z" class="st5"/></svg>