<?xml version="1.0" encoding="utf-8"?>
<!-- Generator: Adobe Illustrator 22.1.0, SVG Export Plug-In . SVG Version: 6.00 Build 0)  -->
<svg version="1.1" id="Layer_1" xmlns="http://www.w3.org/2000/svg" xmlns:xlink="http://www.w3.org/1999/xlink" x="0px" y="0px"
	 viewBox="0 0 1600 362.4" style="enable-background:new 0 0 1600 362.4;" xml:space="preserve">
<style type="text/css">
	.st0{fill:#CA707E;}
	.st1{fill:#F3EE77;}
	.st2{fill:#F79235;}
	.st3{fill:#F5969C;}
	.st4{fill:#FDB936;}
	.st5{opacity:0.89;fill:#FFFFFF;enable-background:new    ;}
</style>
<path class="st0" d="M1629.8,492.4H-4.8V-7.2h1634.6V492.4z"/>
<polygon class="st1" points="1629.8,492.4 1059.5,232.3 622.6,492.4 "/>
<polygon class="st2" points="1059.5,232.3 1439.5,76 1629.8,492.4 "/>
<polygon class="st3" points="963.7,-0.9 1059.5,232.3 1672.4,-18.3 953.2,-18.3 "/>
<polygon class="st4" points="622.6,492.4 959.9,-7.2 1059.5,232.3 "/>
<polygon class="st4" points="-4.8,492.4 277.2,211.3 -4.8,-7.2 "/>
<polygon class="st2" points="622.6,492.4 360.5,258.7 -4.8,492.4 "/>
<polygon class="st3" points="360.5,258.7 277.2,211.3 -4.8,492.4 "/>
<polygon class="st3" points="622.6,487.1 622.6,-7.2 791.3,242.6 617.3,500.8 "/>
<polygon class="st2" points="360.5,258.7 -4.8,76 -4.8,-7.2 "/>
<polygon class="st1" points="622.6,-7.2 360.5,258.7 622.6,492.4 "/>
<rect x="-40.3" y="-31" class="st5" width="1769.6" height="547.2"/>
</svg>
