<?xml version="1.0" encoding="utf-8"?>
<!-- Generator: Adobe Illustrator 22.1.0, SVG Export Plug-In . SVG Version: 6.00 Build 0)  -->
<svg version="1.1" id="Layer_1" xmlns="http://www.w3.org/2000/svg" xmlns:xlink="http://www.w3.org/1999/xlink" x="0px" y="0px"
	 viewBox="0 0 1600 362.4" style="enable-background:new 0 0 1600 362.4;" xml:space="preserve">
<style type="text/css">
	.st0{fill:#CA707E;}
	.st1{fill:#F3EE77;}
	.st2{fill:#F79235;}
	.st3{fill:#F5969C;}
	.st4{fill:#FDB936;}
	.st5{opacity:0.89;fill:#FFFFFF;enable-background:new    ;}
</style>
<path class="st0" d="M1629.8,492.4H-4.8V-7.2h1634.6L1629.8,492.4L1629.8,492.4z"/>
<path class="st1" d="M1629.8,492.4l-570.3-260.1L622.6,492.4H1629.8z"/>
<path class="st2" d="M1059.5,232.3l380-156.3l190.3,416.4L1059.5,232.3z"/>
<path class="st3" d="M963.7-0.9l95.8,233.2l612.9-250.6H953.2L963.7-0.9z"/>
<path class="st4" d="M622.6,492.4L959.9-7.2l99.6,239.5L622.6,492.4z M-4.8,492.4l282-281.1L-4.8-7.2L-4.8,492.4z"/>
<path class="st2" d="M622.6,492.4L360.5,258.7L-4.8,492.4H622.6z"/>
<path class="st3" d="M360.5,258.7l-83.3-47.4l-282,281.1L360.5,258.7z M622.6,487.1V-7.2l168.7,249.8l-174,258.2L622.6,487.1z"/>
<path class="st2" d="M360.5,258.7L-4.8,76V-7.2L360.5,258.7z"/>
<path class="st1" d="M622.6-7.2L360.5,258.7l262.1,233.7V-7.2z"/>
<path class="st5" d="M-40.3-31h1769.6v547.2H-40.3V-31z"/>
</svg>
