<?xml version="1.0" encoding="utf-8"?>
<!-- Generator: Adobe Illustrator 22.1.0, SVG Export Plug-In . SVG Version: 6.00 Build 0)  -->
<svg version="1.1" id="Layer_1" xmlns="http://www.w3.org/2000/svg" xmlns:xlink="http://www.w3.org/1999/xlink" x="0px" y="0px"
	 viewBox="0 0 1600 489" style="enable-background:new 0 0 1600 489;" xml:space="preserve">
<style type="text/css">
	.st0{fill:#CA707E;}
	.st1{fill:#F3EE77;}
	.st2{fill:#F79235;}
	.st3{fill:#F5969C;}
	.st4{fill:#FDB936;}
	.st5{opacity:0.54;fill:#FFFFFF;}
</style>
<path class="st0" d="M0,0h1600v489H0V0z"/>
<polygon class="st1" points="0,0 558.2,254.6 985.8,0 "/>
<polygon class="st2" points="558.2,254.6 186.2,407.6 0,0 "/>
<polygon class="st3" points="652,482.9 558.2,254.6 -41.7,499.9 662.2,499.9 "/>
<polygon class="st4" points="985.8,0 655.7,489 558.2,254.6 "/>
<polygon class="st4" points="1600,0 1323.9,275.2 1600,489 "/>
<polygon class="st2" points="985.8,0 1242.4,228.8 1600,0 "/>
<polygon class="st3" points="1242.4,228.8 1323.9,275.2 1600,0 "/>
<polygon class="st3" points="985.8,5.2 985.8,489 820.7,244.5 991,-8.2 "/>
<polygon class="st2" points="1242.4,228.8 1600,407.6 1600,489 "/>
<polygon class="st1" points="985.8,489 1242.4,228.8 985.8,0 "/>
<rect y="-4.1" class="st5" width="1600" height="497.2"/>
</svg>
