<svg xmlns="http://www.w3.org/2000/svg" id="Layer_1" viewBox="0 0 1600 362.4" width="1600" height="362.4"><style>.st0{fill:#ca707e}.st1{fill:#f3ee77}.st2{fill:#f79235}.st3{fill:#f5969c}.st4{fill:#fdb936}.st5{opacity:.89;fill:#fff;enable-background:new}</style><path d="M1629.8 492.4H-4.8V-7.2h1634.6v499.6z" class="st0"/><path d="M1629.8 492.4l-570.3-260.1-436.9 260.1z" class="st1"/><path d="M1059.5 232.3l380-156.3 190.3 416.4z" class="st2"/><path d="M963.7-.9l95.8 233.2 612.9-250.6H953.2z" class="st3"/><path d="M622.6 492.4L959.9-7.2l99.6 239.5zm-627.4 0l282-281.1L-4.8-7.2z" class="st4"/><path d="M622.6 492.4L360.5 258.7-4.8 492.4z" class="st2"/><path d="M360.5 258.7l-83.3-47.4-282 281.1zm262.1 228.4V-7.2l168.7 249.8-174 258.2z" class="st3"/><path d="M360.5 258.7L-4.8 76V-7.2z" class="st2"/><path d="M622.6-7.2L360.5 258.7l262.1 233.7z" class="st1"/><path d="M-40.3-31h1769.6v547.2H-40.3z" class="st5"/></svg>