<?xml version="1.0" encoding="utf-8"?>
<!-- Generator: Adobe Illustrator 23.0.1, SVG Export Plug-In . SVG Version: 6.00 Build 0)  -->
<svg version="1.1" id="Layer_1" xmlns="http://www.w3.org/2000/svg" xmlns:xlink="http://www.w3.org/1999/xlink" x="0px" y="0px"
	 viewBox="0 0 389 389" style="enable-background:new 0 0 389 389;" xml:space="preserve">
<style type="text/css">
	.st0{fill:none;stroke:#000000;stroke-width:18;stroke-miterlimit:10;}
	.st1{fill:none;stroke:#231F20;stroke-width:1.9217;stroke-miterlimit:10;}
</style>
<circle class="st0" cx="194.5" cy="192.5" r="168.5"/>
<title>1-1-chilly-chiles</title>
<g>
	<g>
		<path d="M173.4,170.1c5.2-0.4,10-2.5,14.9-4.1c0.2-4.7,0.1-9.3,0-14c-1.9,0.9-3.6,1.8-5.4,2.6c-1.8,0.8-3.6,1.6-5.7,1.7
			c0.2-0.1,0.3-0.2,0.5-0.2c3.5-1.3,6.8-3,10-4.7c0.4-0.2,0.7-0.5,0.7-1c0-2.3-0.1-4.6-0.1-6.8c0-0.1,0-0.2-0.1-0.4
			c-0.2,0.1-0.5,0.1-0.7,0.3c-2.2,1.3-4.5,2.5-7,3.2c-0.6,0.2-1.2,0.3-1.8,0.1c0.1-0.1,0.3-0.2,0.4-0.2c3-0.9,5.8-2.5,8.5-4.1
			c0.3-0.2,0.6-0.3,0.5-0.8c-0.3-1.7-0.5-3.5-1.1-5.2c-1.6,0.7-3.2,1.5-4.8,2.1c-1.6,0.7-3.2,1.1-4.9,1.4c0.7-0.5,1.5-0.6,2.3-1
			c0.8-0.4,1.7-0.7,2.5-1c0.8-0.4,1.6-0.7,2.3-1.2c0.8-0.4,1.5-0.8,2.3-1.3c-0.1-0.3-0.2-0.6-0.3-1.1c0.3,0.2,0.4,0.3,0.5,0.4
			c0.1,0.1,0.1,0.2,0.3,0.4c1.9-1.2,3.6-2.6,5.1-4.1c-0.5-2.7-5.2-14.8-6.4-16.2c-1.7,1.2-3.3,2.4-5,3.5c-1.7,1-3.5,1.9-5.5,2.2
			c0.9-0.4,1.8-0.8,2.7-1.2c0.9-0.4,1.8-0.9,2.7-1.4c0.9-0.5,1.6-1.2,2.4-1.8c0.8-0.6,1.5-1.3,2.3-2c-0.7-1.5-2-2.6-2.5-4.2
			c0.8,0.4,1,1.2,1.5,1.8c0.5,0.6,0.9,1.2,1.4,2c0.3-0.5,0.5-0.8,0.7-1.2c0.7-1.3,0.9-2.8,1.2-4.3c0.1-0.5-0.1-1.1-0.5-1.4
			c-1.1-1-2.3-1.9-3.6-2.8c-1.1,3.7-3.2,6.5-6.2,8.7c-1.5,1.1-4.3,2.6-5.6,2.6c0.3-0.2,0.4-0.2,0.5-0.3c3.3-1.5,6.2-3.4,8.3-6.4
			c0.8-1.2,1.5-2.5,2-3.9c0.1-0.4,0.2-0.8,0.2-1.2c-1.2-0.7-2.4-1.4-3.7-2.2c-0.7,1.6-1.5,3-2.9,4.1c0.5,0.6,1,1.2,1.5,1.7
			c0,0.1-0.1,0.1-0.1,0.2c-0.5-0.5-1.1-1-1.6-1.4c-0.4,0.1-0.7,0.3-1.3,0.5c0.2-0.2,0.3-0.4,0.4-0.5c0.1-0.1,0.2-0.3,0.4-0.4
			c-1.1-1-2.4-1.6-3.8-2.1c-0.2-0.1-0.5,0.1-0.7,0.2c-0.4,0.3-0.9,0.6-1.3,0.9c0-0.1-0.1-0.1-0.1-0.2c0.4-0.4,0.7-0.8,1.2-1.3
			c-1.6-0.5-3-0.9-4.5-1.1c1.7-0.5,3.3,0.4,4.9,0.7c1-0.9,1.5-2.2,2-3.6c-3-0.8-5.8-1.6-8.8-2.4c0.3,1,0.6,1.9,0.3,2.8
			c-0.2,0.8-0.3,1.8-1.2,2.5c0.1-0.7,0.2-1.2,0.3-1.7c0.3-1.4-0.1-2.7-0.9-3.9c-0.8-1.2-1.8-2.4-2.7-3.5c-3.3-4-5.9-8.4-8-13.1
			c-0.8-1.8-1.5-3.7-2.5-5.5c-2.1-4-5.5-6.2-10-6.5c-3-0.2-6,0.1-8.9,0.6c-0.4,0.1-0.8,0.2-1.3,0.1c0.1-0.5,0.5-0.5,0.7-0.6
			c1.7-0.5,3.5-0.9,5.3-1c1-0.1,2.1-0.2,3.1-0.2c5.1-0.1,9.2,1.8,12,6.2c1,1.6,1.6,3.3,2.4,5c1.1,2.3,2,4.7,3.2,7
			c1.4,2.6,2.9,5.1,4.9,7.4c0.7,0.9,1.4,1.8,2.1,2.7c0.2,0.3,0.5,0.5,0.9,0.5c1.8,0.3,3.5,0.6,5.3,1.1c2,0.5,4,1,6,1.6
			c0.9,0.3,1.9,0.6,2.8,1c3.3,1.5,6.3,3.4,9.1,5.6c3.1,2.5,5.3,5.6,7,9.2c3.1,6.7,4.4,13.8,4.9,21.1c0.1,2,0.2,4,0.3,6
			c0.1,1.9,0.2,3.9,0.3,5.9c0.2-0.1,0.3-0.1,0.5-0.2c3.2-1.8,6.5-3.2,10.1-3.8c2.9-0.4,5.7,0,8.3,1.2c0.5,0.2,1,0.5,1.4,0.8
			c1.8,1.4,3.4,3,4.5,5c0.8,1.3,1.5,2.8,2.2,4.2c1.2,2.2,2.5,4.4,3.7,6.6c2.2,4.2,4.4,8.5,5.8,13.1c0.5,1.8,0.8,3.7,1,5.5
			c0.1,0.9-0.3,1.9-0.6,2.8c-0.6,1.3-1.3,2.6-2,3.8c-0.6,1.1-1.3,2.1-2,3.1c-1.5,2.3-3.3,4.3-5.3,6.2c-3.5,3.4-7,6.8-10.5,10.1
			c-1.4,1.3-2.8,2.5-4.2,3.7c-0.2,0.2-0.5,0.4-0.7,0.7c0.2,0,0.4-0.1,0.5-0.1c15.5-5.5,31.5-7.7,48-6.3c5.2,0.4,10.3,1.4,15.2,3.1
			c3.9,1.3,7.6,3.1,10.8,5.8c0.3,0.3,0.6,0.6,0.9,0.9c0.1,0.1,0.2,0.4,0.3,0.7c-0.8,0-1.4,0.1-2,0.1c-5.7-0.1-11.3,0.5-16.9,1.7
			c-2,0.4-4,1-6,1.6c-1,0.3-2,0.8-3,1.2c0.2,0.2,0.2,0.3,0.3,0.3c4,1.1,7.8,2.8,11.5,4.5c3.3,1.5,6.4,3.3,9.2,5.6
			c2.2,1.8,4.1,3.8,6,5.9c0.4,0.5,0.8,0.9,1.2,1.4c0.2,0.2,0.2,0.5,0.4,0.8c-0.7,0.1-1.2-0.1-1.7-0.3c-4.8-2.4-10-3.7-15.3-4.6
			c-11.3-1.9-22.6-1.8-33.9-0.5c-4.8,0.6-9.5,1.4-14.2,2.7c-0.1,0-0.3,0.1-0.5,0.2c0.2,0.3,0.4,0.6,0.5,0.9c3.2,4.8,7,9.1,11,13.2
			c1.4,1.4,2.7,2.7,4.1,4c4.4,4.2,8.1,8.9,11.4,14c3.2,5,6.9,9.7,10.8,14.2c1.3,1.4,2.5,2.9,3.8,4.3c1.4,1.5,2.5,3.1,3.6,4.8
			c1.1,1.8,2.3,3.5,3.4,5.3c1.8,2.9,2.9,6,3.4,9.4c0.1,0.6,0.2,1.2,0.3,1.8c0.3,1.5-0.1,2.9-0.8,4.2c-0.8,1.4-1.9,2.1-3.5,2
			c-4-0.4-7.7-1.4-11.1-3.7c-2.5-1.7-5.2-2.9-7.9-4.2c-2.5-1.2-5-2.5-7.5-3.7c-2.2-1.1-4.2-2.5-6.2-4c-4.8-3.7-9.6-7.4-14.4-11.1
			c-5.1-3.9-9.9-8.2-14.5-12.8c-0.7-0.7-1.3-1.3-2-1.9c-2.8-2.3-5.4-4.7-8-7.3c-2.5-2.5-5.1-5-7.7-7.5c-1.6-1.6-3.2-3.2-4.9-4.8
			c-1.6-1.5-3.3-2.9-4.9-4.3c-2.5-2.2-5-4.5-7.5-6.8c-1.2-1.1-2.4-2.3-3.6-3.4c-0.5-0.5-1-1-1-1.8c-1.1,0.3-2.2,0.6-3.3,0.9
			c-4.6,1.4-9.3,2.8-13.9,4.2c-1.5,0.4-3.1,0.7-4.7,0.9c-1.9,0.2-3.8,0.2-5.7,0.2c-1.7,0-3.1-0.8-4.2-2.2c-1-1.3-1.8-2.8-2.5-4.3
			c-1.4-3.5-2.8-7-4.3-10.4c-1-2.5-1.7-5.1-2.5-7.7c-0.6-1.9-1.2-3.7-1.6-5.6c-0.8-3.1-1.2-6.3-0.7-9.5c0.3-1.6,0.7-3.2,1.5-4.6
			c2.3-3.8,5.2-7.2,8.4-10.3c1.1-1.1,2.2-2.1,3.3-3.2c-0.2-0.7-0.4-1.4-0.7-2.1c-0.3-0.9-0.7-1.8-0.9-2.7c-0.2-0.5-0.4-0.8-1-0.8
			c-1.7-0.1-3.4-0.2-5.2-0.2c-6.7,0-13,1.5-18.9,4.4c-9.4,4.5-16.3,11.7-21.4,20.7c-1.2,2.1-2.1,4.3-3.1,6.4
			c-0.1,0.2-0.1,0.4-0.2,0.5c-0.1,0.2-0.3,0.4-0.4,0.4c-0.2,0-0.5-0.2-0.6-0.4c-0.1-0.2-0.2-0.5-0.2-0.8c-0.2-1.8-0.4-3.7-0.5-5.5
			c0-7,1.4-13.7,4.5-19.9c1.5-3,3.4-5.6,5.9-7.7c0.1-0.1,0.1-0.1,0.2-0.3c-0.2-0.1-0.4-0.1-0.6-0.1c-2-0.1-3.9,0.1-5.8,0.5
			c-3.3,0.8-6.6,1.7-9.8,3.1c-1.6,0.7-3.1,1.7-4.5,2.7c-0.6,0.5-1.3,0.7-2.3,0.7c0.1-0.4,0.1-0.8,0.2-1.1c0.8-2.1,1.8-4.1,3.2-5.9
			c3.9-5.1,8.5-9.4,14.1-12.6c3.5-2,7.1-3.8,11-5c2.6-0.8,5.2-1.4,7.8-2.2c1.3-0.4,2.6-0.7,3.8-1.1c2.8-0.9,5.7-1.4,8.7-1.8
			c1.5-0.2,2.9-0.5,4.4-0.7c1-0.1,2-0.2,2.9-0.3c0.3,0,0.7,0,1-0.1c0-0.4,0-0.7-0.1-1c-0.5-4.9-0.8-9.8-0.5-14.7
			c0.2-3.4,0.5-6.8,1.4-10.2c1.8-6.5,4.8-12.5,9.5-17.4c1-1.1,2.2-2,3.4-3c0.7-0.6,1.5-1.2,2.2-1.9c-0.4-1.8-0.6-3.6-0.5-5.4
			c0-0.4,0-0.9,0-1.3c0.2-2.9,0-5.8-1-8.6c-1-3-2.1-5.9-3.7-8.7c-0.6-1-1.3-1.9-2.2-2.7c-1.2-1-2.5-1.4-4.1-1.1
			c-1.8,0.3-3.5,0.8-5.1,1.6c-0.7,0.4-1.4,0.3-2-0.1c-1.6-1-2.6-2.5-2.8-4.4c-0.1-1.2-0.1-2.5,0.4-3.6c1.4-0.2,2.5,0.1,3.5,1.2
			c0.9,1,1.7,2.1,1.9,3.5c0.1,0.7,0.1,1.4,0.1,2.2c0.5-0.2,0.9-0.5,1.4-0.6c0.9-0.3,1.9-0.7,2.8-0.9c2.3-0.5,4.2,0.4,5.8,2
			c1.1,1.1,1.9,2.3,2.6,3.7c1.5,3.1,2.8,6.3,3.8,9.6c0.5,1.6,0.5,3.3,0.5,5c-0.1,1.4-0.2,2.8-0.2,4.3c0,2.1,0.3,4.1,1.4,5.9
			c0.7,1.2,1.7,1.9,3,2.3c1.8,0.5,3.6,0.7,5.3-0.4c0.9-0.5,1.7-1.1,2.6-1.6c0.3-0.2,0.7-0.5,1.1-0.2c0.2,0.2,0.1,0.8-0.4,1.1
			c-1,0.8-2,1.7-3.1,2.4c-0.8,0.5-1.8,0.8-2.8,0.8c-1.2,0-2.4-0.2-3.6-0.5c-1.8-0.6-3-1.8-3.9-3.4c-0.1-0.2-0.2-0.5-0.4-0.8
			c-0.1,0-0.3,0.1-0.3,0.1c-1.4,1.2-2.7,2.3-4,3.5c-0.4,0.4-0.8,0.9-1,1.4c-0.4,0.7-0.3,1,0.3,1.5c0.2,0.2,0.5,0.4,0.8,0.6
			c0.9-0.8,1.5-1.8,2.6-2.4c-0.7,0.8-1.4,1.6-2.1,2.6c3.4,1.7,6.6,3.3,10.5,2.9c0.1-0.9,0.2-1.8,0.4-2.7c-0.3,0-0.5,0-0.7,0
			c-1.1,0-2.2,0-3.2-0.2c-0.7-0.1-1.4-0.5-2-0.8c-0.5-0.3-0.9-0.8-0.7-1.4c0.1,0,0.1,0,0.2,0c0.9,1.4,2.3,1.7,3.7,1.9
			c0.8,0.1,1.7,0,2.5,0c0.4,0,0.6-0.2,0.7-0.6c0.1-0.3,0.2-0.6,0.5-0.8c0.1,0,0.1,0,0.2,0.1c0,0.3-0.1,0.7-0.1,1.1
			c2.4-0.3,4.4-1.5,6.7-1.9c-2.2,1.1-4.5,2-7,2.6c-0.1,0.9-0.3,1.7-0.4,2.7c2.8-0.2,5.3-0.6,7.8-1.3c-2.4,1.2-5.1,1.5-7.7,1.9
			c-0.2,0.9-0.1,2.3,0.4,3.4c3.1-0.2,6.2-0.8,9.3-1.5c-2.9,1.3-6,1.8-9.3,2.2c0.1,1.2,0.5,2.2,0.8,3.3c-0.6-0.5-0.6-1.1-0.8-1.6
			c-0.2-0.5-0.3-1.1-0.5-1.6c-5,0.4-9.9,0.1-14.5-2.3c-0.7,0.9-1.6,3-2.1,4.7c1.1,0.3,2.3,0.6,3.5,0.9c0.4-0.9,0.8-1.8,1.2-2.7
			c0.1,0,0.1,0,0.2,0.1c-0.3,0.8-0.6,1.7-0.9,2.6c0.2,0.1,0.4,0.2,0.6,0.2c1,0.2,2,0.4,3,0.5c3.4,0.2,6.9,0.5,10.3-0.3
			c2.9-0.6,5.8-1.4,8.6-2.1c0.4-0.1,0.9-0.2,1.4-0.1c-0.3,0.1-0.5,0.2-0.8,0.3c-2.6,0.7-5.2,1.4-7.8,2.1c-2.6,0.7-5.3,0.9-8,0.8
			c-1.7-0.1-3.3-0.1-5-0.3c-0.9-0.1-1.7-0.3-2.7-0.5c-1.4,2.9-1.9,5.9-2.3,9.1c1.5,0.5,3.1,0.3,4.5,1.1c-1.5-0.1-3-0.2-4.7-0.4
			c-0.1,1.5-0.2,3-0.4,4.5c1,0,1.9,0.1,2.7,0.1c0,0.1,0,0.2,0,0.2c-0.9,0.1-1.7,0.2-2.7,0.3c0,1,0,2.1,0,3.2c1,0.2,2,0,3,0
			c-0.9,0.6-1.9,0.4-3,0.6c0.1,0.8,0.1,1.5,0.2,2.3c-0.6-0.6-0.4-1.5-0.6-2.3c-0.9-0.2-1.9-0.2-3.1-0.2c0,1.4-0.1,2.7-0.1,4.2
			c2.1,0,4.1-0.1,6-0.1c0,0.1,0,0.2,0,0.3c-0.6,0.2-1.3,0.2-1.9,0.2c-0.7,0.1-1.3,0.1-2,0.2c-0.7,0-1.4,0-2.1,0.1
			c0.1,1.5,0.3,3,0.4,4.5c0.8,0.3,1.4,0.1,2.1,0.1c1.7-0.2,3.3-0.3,5-0.5c0.4,0,0.8-0.1,1.1,0.3c-2.6,0.3-5.3,0.7-8,1
			c0.2,1.4,0.4,2.9,0.6,4.4c1.2,0.1,2.2-0.1,3.3-0.3c1-0.2,2.1-0.4,3.2-0.5c-0.4,0.3-0.9,0.5-1.4,0.6c-0.5,0.2-1,0.3-1.5,0.4
			c-0.5,0.1-1.1,0.2-1.6,0.3c-0.5,0.1-1,0.1-1.6,0.1c-0.1,0.6,0.1,2.1,0.6,3.5c2.3-0.3,4.6-1,7-0.8c0,0.1,0,0.1,0,0.2
			c-2.3,0.4-4.6,0.8-7,1.2c0.3,1.4,0.6,2.7,0.9,4c2.2-0.1,4.1-0.9,6.4-1.3c-0.6,0.7-1.3,0.8-2,1c-0.6,0.2-1.3,0.4-2,0.6
			c-0.7,0.2-1.4,0.3-2.2,0.4c0.3,1.2,0.7,2.4,1,3.6c1.9-0.4,3.6-1.1,5.5-1.2c-1.6,0.8-3.4,1.2-5.2,1.8c0.4,1.2,0.9,2.4,1.4,3.6
			c1.8-0.3,3.3-0.9,5-1.4c-1.3,1.1-2.9,1.6-4.7,2c0.2,0.7,0.5,1.3,0.7,1.8c0.2,0.6,0.5,1.2,0.7,1.9c1.8-0.7,3.5-1.4,5.2-2
			c0,0.1,0.1,0.1,0.1,0.2c-0.4,0.5-1,0.6-1.6,0.9c-0.5,0.3-1.1,0.6-1.7,0.8c-0.6,0.3-1.2,0.5-1.9,0.8c0.4,1.3,0.9,2.4,1.4,3.7
			c1.5-0.3,2.9-0.7,4.4-1c-0.3-0.9-0.5-1.6-0.8-2.4c0.1,0,0.1,0,0.2-0.1c0.3,0.8,0.7,1.5,1,2.3c0.6,0,1.1,0,1.6,0c0,0.1,0,0.1,0,0.2
			c-0.4,0.1-0.8,0.3-1.3,0.4c0.4,1,0.8,2,1.2,3c0.9-0.1,1.8-0.3,2.6-0.4c0,0.1,0,0.1,0,0.2c-0.7,0.3-1.4,0.5-2.2,0.9
			c0.2,1,0.9,1.7,1.4,2.6c0.8-0.3,1.6-0.5,2.4-0.8c-0.5,0.7-1.3,0.9-2,1.3c0.1,0.3,0.3,0.7,0.4,1.1c-0.2-0.1-0.3-0.1-0.3-0.1
			c-0.6-0.8-0.6-0.7-1.5-0.4c-0.9,0.4-1.9,0.7-2.9,1c-0.3,0.1-0.6,0.2-1,0.3c0,0.3-0.1,0.5-0.1,0.9c-0.3-0.3-0.4-0.5-0.6-0.7
			c-1.1,0.3-2.1,0.6-3.2,1c0.4,1.2,0.9,2.3,1.3,3.3c3.9-1,7.7-2.1,11.3-3.7c1.1-0.5,2.3-0.8,3.4-1.1c0.1,0,0.2,0,0.4,0.1
			c-2.3,1.2-4.7,2.3-7.1,3.1c-2.5,0.8-5,1.6-7.6,2.4c0.4,0.9,0.8,1.6,1.2,2.4c0.2-0.1,0.4-0.1,0.6-0.2c3-1.4,6.1-2.6,9.1-4.2
			c6.1-3.2,12.2-6.5,18.1-10.1c4.8-2.9,9.5-5.8,14.3-8.8c2.4-1.5,4.7-3.2,7-4.8c0.6-0.4,0.9-1,1.1-1.7c0.6-1.9,0.6-3.9,0.8-5.9
			c0-0.2,0-0.5,0-0.8c-1.2,0.8-2.3,1.5-3.4,2.3c-0.2,0.1-0.3,0.4-0.3,0.6c0,0.5,0,1,0,1.6c0,0.4,0,0.7-0.1,1.1
			c-0.5-0.8-0.3-1.8-0.5-2.6c-1.5,0.8-3,1.5-4.6,2.3c0,0.5,0,1.1-0.1,1.6c0,0.6,0,1.1,0,1.7c0,0.5,0.2,1.1-0.3,1.8
			c-0.3-1.7-0.1-3.3-0.2-5c-1.5,0.5-2.9,1-4.4,1.4c-2.7,0.8-5.3,1.7-8.1,2c-0.8,0.1-1.6,0.1-2.4,0.1
			C173.4,170.3,173.4,170.2,173.4,170.1z M134.1,190.2C134.1,190.2,134,190.2,134.1,190.2c-0.2,0-0.2,0-0.3,0.1
			c-0.1,0.2-0.3,0.3-0.4,0.5c-2.1,2.5-3.7,5.3-5.1,8.3c-1,2.3-1.1,4.7-0.8,7.1c0.3,2.2,1,4.5,1.6,6.7c0.6,2.4,1.4,4.7,2.1,7.1
			c1.1,3.5,2.2,7.1,3.7,10.4c0.7,1.6,1.4,3.2,2.1,4.7c0.5,1,1,2,1.6,2.9c0.9,1.3,2.1,2,3.8,1.9c1.4-0.1,2.9-0.1,4.3-0.2
			c1.2-0.1,2.3-0.2,3.5-0.5c2.9-0.8,5.7-1.6,8.5-2.5c3.6-1.1,7.2-2.3,10.8-3.4c4.6-1.4,9.1-3.2,13.2-5.7c2.6-1.6,5.2-3.3,7.8-4.9
			c4.7-2.9,9.3-6,13.8-9.1c4.2-3,8.1-6.3,11.9-9.9c3.5-3.4,7-6.7,10.5-10c2.1-2.1,4.1-4.2,5.7-6.8c0.3-0.6,0.7-1.1,1.1-1.6
			c1-1.5,2-3.1,2.5-4.9c0.1-0.3,0.2-0.5,0.2-0.8c-0.3-2.1-0.3-4.2-1.1-6.3c-1.6-4.1-3.4-8.2-5.5-12c-2-3.6-4-7.1-6.1-10.7
			c-0.2-0.4-0.5-0.9-0.8-1.2c-1.7-1.7-3.2-3.5-5.5-4.6c-1.6-0.8-3.2-1.1-4.9-1.1c-0.2,0-0.3,0.1-0.5,0.1c0.1,0.1,0.1,0.1,0.1,0.1
			c0.1,0.1,0.2,0.1,0.3,0.2c1,0.7,1.5,1.7,1.3,2.9c-0.1,0.9-0.3,1.9-0.6,2.8c-0.4,1.8-1.3,3.5-2.1,5.1c-2.4,5-6,9-9.8,12.9
			c0,0,0,0-0.1,0.1c-2.7,2.3-5.5,4.5-8.5,6.4c-5,3.2-10,6.3-15.1,9.4c-3.7,2.3-7.5,4.4-11.3,6.5c-3.4,1.9-6.9,3.8-10.4,5.6
			c-1.6,0.8-3.3,1.5-5,2.2c-2.7,1.2-5.3,2.4-8,3.5c-1.6,0.7-3.4,1.2-5.1,1.5c-1.5,0.2-3.1,0.3-4.6-0.3c-1.5-0.6-2.4-1.7-2.5-3.3
			c0-0.7,0-1.5,0.2-2.2c0.4-1.3,1-2.5,1.6-3.7C132.8,192.3,133.5,191.3,134.1,190.2z M193.8,222.4c0.9,1.9,1.7,3.6,2.9,5.1
			c1.5,1.8,3,3.6,4.5,5.4c1.9,2.2,3.8,4.4,5.6,6.6c3.2,3.9,6.1,7.9,9.5,11.6c2.7,3,5.3,6.1,8.3,8.9c4.3,4,8.7,8,13,11.9
			c3.1,2.8,6.1,5.7,8.8,8.8c1,1.2,2,2.6,2.5,4.1c0.3,0.8,0.5,1.6,0.6,2.4c0.1,1.3-0.9,2.2-2.2,2.3c-0.5,0-1.1,0-1.6-0.2
			c-1-0.4-2-0.8-2.8-1.3c-2.6-1.7-5.3-3.4-7.7-5.3c-4-3.2-8-6.3-12.1-9.3c-2.8-2-5.5-4.2-7.9-6.7c-3.8-3.9-7.6-7.8-11.4-11.7
			c-4-4.1-8-8.3-12.4-12.1c-0.7-0.6-1.4-1.3-2-2c-2.5-2.6-4.8-5.3-6.8-8.3c-0.5-0.8-1.2-1.5-1-2.6c-3.8,1.8-7.5,3.4-11.4,4.6
			c1.7,1.6,3.4,3.2,5.1,4.7c2-0.7,3.4-2.1,5.2-2.9c-1.4,1.3-2.9,2.5-4.7,3.4c1.4,1.2,2.7,2.4,4,3.6c0.5-0.3,0.9-0.5,1.3-0.8
			c0.4-0.2,0.7-0.5,1-0.8c0.3-0.2,0.6-0.6,1.2-0.5c-1,0.8-2,1.6-3,2.5c1.2,1,2.2,1.9,3.4,2.8c1.1-0.8,2.1-1.6,3.2-2.3
			c0,0.1,0.1,0.1,0.1,0.2c-0.8,0.9-1.8,1.6-2.8,2.5c1.1,1,2.2,2,3.2,2.9c1.6-0.9,2.5-2.6,4.1-3.4c0,0,0.1,0.1,0.1,0.1
			c-1.2,1.3-2.4,2.6-3.6,3.9c1.4,1.4,2.9,2.8,4.3,4.3c1.7-0.8,2.9-2.3,4.4-3.2c-0.6,0.7-1.1,1.4-1.8,2c-0.7,0.6-1.4,1.2-2.1,1.8
			c1.1,1,2.1,2,3.2,3.1c0.7-0.7,1.3-1.3,1.9-1.9c0.6-0.6,1.1-1.3,2-1.5c-1,1.4-2.3,2.5-3.5,3.8c1.2,1.1,2.3,2.2,3.4,3.3
			c1.2-1,2-2.3,3.5-2.6c-1,1-2.1,2-3.1,3.1c1.3,1.3,2.5,2.6,3.9,3.7c1-1,1.7-2.1,2.9-2.7c-0.7,1.1-1.8,1.9-2.5,3.1
			c1.2,1,2.4,2,3.5,2.9c1-0.9,2-1.7,2.9-2.5c0.1,0.1,0.1,0.1,0.2,0.2c-0.4,0.4-0.8,0.9-1.2,1.3c-0.4,0.5-1,0.8-1.3,1.4
			c1,0.9,1.9,1.9,2.9,2.8c1.1-1.1,2.1-2.1,3.1-3.2c0,0,0.1,0.1,0.1,0.1c-0.8,1.3-1.8,2.3-2.8,3.5c0.6,0.6,1.1,1.1,1.7,1.6
			c0.5,0.5,1.1,1,1.6,1.5c0.5-0.7,1-1.3,1.4-1.8c1-1.4,1-1.4,1.7-1.6c-0.9,1.4-1.8,2.6-2.6,3.9c0.8,0.7,1.6,1.4,2.4,2.1
			c0.6-0.7,1.1-1.2,1.6-1.8c0.5-0.6,0.9-1.3,1.6-1.6c-0.7,1.4-1.9,2.4-2.7,3.8c1,0.9,2,1.7,3,2.5c0.5-0.6,1-1,1.5-1.5
			c0.4-0.5,0.9-1,1.3-1.4c0.1,0,0.1,0.1,0.2,0.1c-0.4,0.5-0.8,1.1-1.2,1.6c-0.4,0.5-0.8,1-1.3,1.6c1,0.7,1.8,1.4,2.7,2.1
			c0.8-0.9,1.6-1.7,2.4-2.5c-0.4,1.1-1.3,1.8-2,2.9c0.9,0.7,1.8,1.3,2.7,1.9c0.8-0.7,1.2-1.5,2-2.1c0,0,0.1,0.1,0.1,0.1
			c-0.5,0.8-1,1.5-1.6,2.3c1.4,1,2.7,2,4.1,3.1c0.9-1.2,1.8-2.4,2.6-3.5c0.1,0,0.1,0.1,0.2,0.1c-0.6,1.4-1.6,2.5-2.3,3.7
			c1.1,0.9,2.2,1.8,3.4,2.7c1.2-1.3,2.4-2.6,3.6-3.8c0.1,0,0.1,0.1,0.2,0.1c-1,1.4-2.1,2.7-3.4,4c1.1,0.9,2.1,1.8,3.3,2.5
			c1.3-1.5,2.5-2.8,4-4c0,0,0.1,0.1,0.1,0.1c-1.2,1.4-2.4,2.8-3.7,4.2c1.4,0.9,2.6,1.8,4,2.6c0.9-1.1,1.7-2.2,2.6-3.1
			c0.1,0,0.1,0.1,0.2,0.1c-0.7,1.1-1.4,2.1-2.2,3.3c1.5,0.7,2.9,1.4,4.3,2.1c1.4-1.1,2.7-2.2,4-3.3c-0.7,1.5-2.2,2.4-3.3,3.6
			c0.7,0.3,1.3,0.6,1.9,0.9c3.4,1.6,6.8,3.2,9.9,5.3c1.2,0.8,2.6,1.4,4,1.8c1.1,0.3,2.1,0.7,3.2,1c0.6,0.2,1.2,0.3,1.8,0.4
			c0.4,0.1,0.7,0,1-0.3c1.5-1.1,2-2.6,1.8-4.4c-0.1-0.6-0.2-1.3-0.3-1.9c-0.3-1.9-0.7-3.8-1.5-5.6c-0.1-0.3-0.2-0.7-0.4-0.8
			c-1.1,1.5-2.2,2.9-3.3,4.3c0.2,0.7,0.4,1.3,0.5,2c0.3,1,0.3,2.1-0.2,3.1c-0.3,0.8-0.9,0.9-1.8,0.4c0.2-0.1,0.4-0.1,0.6-0.1
			c0.4,0,0.6-0.2,0.7-0.5c0.6-1.6,0.1-3-0.4-4.4c-4,2.9-4.4,3.1-5.3,2.9c0.2-0.1,0.4-0.3,0.6-0.4c0.2-0.1,0.3-0.3,0.5-0.4
			c-0.6-1.6-1.5-3.1-2.3-4.6c-0.4,0.2-0.7,0.4-1.1,0.6c-0.3,0.1-0.6,0.4-1,0.2c0.6-0.4,1.1-0.8,1.7-1.2c-1.1-1.8-2.2-3.6-3.7-5
			c-0.4,0.2-0.7,0.4-1,0.6c0,0-0.1-0.1-0.1-0.1c0.3-0.3,0.5-0.6,0.8-0.8c-0.4-0.5-0.7-1-1-1.5c0,0,0.1-0.1,0.1-0.1
			c0.4,0.4,0.8,0.9,1.2,1.3c1.1-1.1,2.2-2.2,3.3-3.3c-0.9-1.3-1.8-2.5-2.6-3.7c-1.1,0.9-2.1,1.7-3.1,2.5c-0.1-0.1-0.1-0.1-0.2-0.2
			c0.9-0.9,1.9-1.9,2.9-2.8c-1.2-1.5-2.2-3-3.5-4.3c-0.5,0.5-1,0.9-1.4,1.3c0,0-0.1-0.1-0.1-0.1c0.4-0.5,0.9-1,1.3-1.5
			c-1.1-1.5-2.2-3-3.2-4.4c-0.3,0.2-0.5,0.3-0.9,0.5c0.3-0.4,0.4-0.7,0.6-0.9c-1.8-2.7-3.7-5.2-5.7-7.7c-0.6,0.7-1.1,1.3-1.6,1.8
			c-1.2,1.3-1.2,1.3-1.8,1.4c1-1.2,2-2.5,3-3.6c-0.8-1.5-2.1-2.3-2.9-3.6c0.1-0.1,0.1-0.1,0.2-0.2c1,1,2.1,2.1,3.1,3.2
			c0.9-1.1,1.6-2.2,2.2-3.4c0.2-0.4,0-0.7-0.2-0.9c-0.9-1.3-1.9-2.5-2.8-3.8c-0.1-0.2-0.3-0.3-0.5-0.5c-0.6,1.6-1.3,3-2.2,4.2
			c-1,1.3-1.9,2.6-3,3.7c0.2-0.5,0.5-0.9,0.8-1.3c1.5-2.1,2.9-4.1,3.8-6.5c0.2-0.5,0.2-0.8-0.1-1.1c-0.8-0.9-1.6-1.8-2.4-2.7
			c-0.2-0.3-0.5-0.5-0.8-0.8c-0.4,1.1-0.9,2.2-1.3,3.2c0.2,0.3,0.3,0.6,0.5,0.9c-0.1,0-0.1,0.1-0.2,0.1c-0.2-0.2-0.5-0.4-0.8-0.7
			c-1.6,2.3-3.5,4.2-5.5,6.1c1.6-2.4,3.6-4.4,5.1-6.8c-1-1.7-2.4-3.1-3.8-4.5c-0.8,1.1-1.6,2.1-2.3,3.1c1.1,1.2,2.2,2.4,3.3,3.6
			c-0.1,0.1-0.1,0.1-0.2,0.2c-1.4-0.9-2.3-2.3-3.5-3.3c-0.2,0.1-0.4,0.2-0.8,0.4c0.2-0.3,0.3-0.5,0.5-0.7c-1.1-1.1-2.1-2.2-3.2-3.3
			c-0.7,0.7-1.3,1.6-2.2,2c0.6-0.8,1.2-1.6,1.9-2.4c-0.8-1-1.5-1.9-2.2-2.9c0.1,0,0.1-0.1,0.2-0.1c0.8,0.9,1.5,1.7,2.4,2.6
			c0.8-1.1,1.6-2.1,2.4-3.2c-1.2-1-2.4-2-3.6-3.1c-1.1,1.2-2,2.4-3.1,3.6c-0.1-0.1-0.1-0.1-0.2-0.2c0.9-1.2,1.9-2.5,2.9-3.7
			c-1.2-1.1-2.3-2.2-3.4-3.3c-0.9,0.9-1.8,1.8-2.7,2.6c-0.9,0.8-1.7,1.7-2.9,2.2c1.7-1.8,3.6-3.4,5.1-5.4c-1.3-1.3-2.5-2.6-3.8-3.9
			c-0.6,0.7-1.1,1.4-1.7,2.1c0.7,0.9,1.4,1.7,2,2.6c-1.1-0.4-1.5-1.5-2.3-2.2c-0.8,0.8-1.5,1.5-2.3,2.3c-0.1-0.1-0.1-0.1-0.2-0.2
			c0.7-0.9,1.4-1.7,2.1-2.5c-0.3-0.8-3.1-4.7-3.7-5.1c-0.6,0.5-1,1.3-1.8,1.6c0.5-0.7,1.1-1.4,1.6-2.1c-0.3-0.5-0.5-0.8-0.8-1.2
			c-0.2-0.4-0.5-0.8-0.8-1.1c0.1,0,0.1-0.1,0.2-0.1c0.5,0.7,1,1.4,1.6,2.2c0.6-0.8,1.1-1.4,1.6-2.1c-0.9-1.5-1.8-2.9-2.7-4.4
			c-0.5,0.6-0.9,1.1-1.4,1.6c-0.9,1-0.9,1-1.4,1.1c0.8-1.1,1.6-2.1,2.4-3.2c-0.5-1.1-1.4-1.9-1.7-3c0.1,0,0.1-0.1,0.2-0.1
			c0.6,0.8,1.3,1.7,1.9,2.6c1.1-1.3,1.7-2.7,2.3-4.2c0.4-0.8,0.3-1.7,0-2.5c-0.4-0.9-0.7-1.8-1.1-2.7c-0.1-0.2-0.2-0.4-0.4-0.8
			c-0.8,1.7-1.7,3.2-2.9,4.4c-1.2,1.3-2.4,2.5-3.7,3.6c0.1-0.3,0.3-0.5,0.4-0.7c1-1.1,2.1-2.2,3-3.4c0.9-1.2,1.6-2.5,2.4-3.8
			c0.5-0.8,0.5-1.6,0.2-2.4c-0.1-0.4-0.2-0.8-0.3-1.2c-0.1-0.5-0.3-0.9-0.5-1.4c-0.3-0.7-0.5-0.7-1.1-0.3c-0.3,0.3-0.7,0.6-1,0.8
			c-4.4,3-8.8,6-13.2,9.1C194.5,222,194.2,222.2,193.8,222.4z M285.3,234.6C285.4,234.5,285.4,234.5,285.3,234.6
			c-0.1-0.3-0.2-0.5-0.4-0.6c-3.7-3.8-8-6.9-12.8-9.2c-4.5-2.1-9-4.2-13.9-5.4c-0.8-0.2-0.9-0.6-0.5-1.3c0.1-0.2,0.3-0.4,0.5-0.5
			c0.8-0.5,1.6-1.2,2.5-1.5c1.6-0.6,3.3-1.1,4.9-1.6c5.5-1.4,11.2-2.1,16.9-2.1c0.7,0,1.3,0,2,0c-0.2-0.3-0.4-0.6-0.7-0.7
			c-1.5-0.9-2.9-1.8-4.5-2.6c-3.9-1.9-8-3-12.3-3.7c-6.2-1.1-12.4-1.4-18.7-1.2c-12.5,0.4-24.7,2.9-36.5,6.9c-0.1,0-0.3,0.1-0.4,0.2
			c0.2,0.6,0.3,1.2,0.5,1.7c0.6,1.9,1.2,3.9,2,5.8c1.7,4,3.8,7.7,6.1,11.4c0.6,0.9,1.2,1.8,1.8,2.7c0.2,0,0.3,0,0.4-0.1
			c3.3-1,6.7-1.7,10.1-2.3c11.9-2,23.9-2.1,35.8-0.5c4.4,0.6,8.8,1.4,13,2.9C282.7,233.6,284,234.1,285.3,234.6z M131.2,152.3
			c-1.2,0.1-2.4,0.2-3.6,0.4c-1.2,0.2-2.5,0.5-3.7,0.7c-2.4,0.5-4.7,0.9-7.1,1.4c-1.6,0.4-3.2,1-4.9,1.5c-2.6,0.7-5.2,1.4-7.8,2.2
			c-5.1,1.5-9.8,4-14.3,6.8c-3.7,2.4-6.8,5.4-9.7,8.7c-1.3,1.5-2.5,3-3.4,4.7c-0.1,0.2-0.1,0.4-0.3,0.7c0.3-0.2,0.4-0.3,0.5-0.3
			c1.9-1.4,4-2.4,6.3-3.1c1.8-0.5,3.6-1.1,5.4-1.6c2.8-0.8,5.7-1.2,8.7-0.8c0.6,0.1,1.2,0.2,1.7,0.3c0.9,0.3,1,0.9,0.3,1.5
			c-0.1,0.1-0.2,0.2-0.4,0.3c-1.2,0.7-2.1,1.6-3,2.5c-2.7,2.9-4.5,6.3-5.8,10c-1.9,5.3-2.6,10.8-2.4,16.5c0,0.5,0,0.9,0.1,1.4
			c0.2-0.2,0.4-0.4,0.5-0.6c0.8-1.6,1.4-3.2,2.3-4.8c6.9-12.3,17-20.6,30.8-23.9c4.8-1.2,9.6-1.4,14.5-0.6c0.3,0,0.6,0.1,1,0.1
			C134.8,168.2,132.7,160.4,131.2,152.3z M182.2,229.6c0.2,1.1,0.3,1.2,0.9,1.9c0.4,0.5,0.7,0.9,1.1,1.4c2.3,3.2,4.9,6.1,7.8,8.7
			c3.8,3.4,7.4,6.9,10.9,10.5c3.4,3.5,7,7,10.3,10.6c3.7,3.9,7.7,7.4,12,10.5c2.8,2,5.6,4.1,8.2,6.3c3,2.5,6.2,4.7,9.6,6.8
			c0.9,0.6,1.9,1,2.9,1.5c0.3,0.2,0.7,0.3,1.1,0.3c0.7,0,1.1-0.4,0.9-1c-0.1-0.7-0.4-1.3-0.6-1.9c-0.6-1.3-1.4-2.5-2.4-3.5
			c-1.4-1.5-2.7-3-4.1-4.4c-4-3.8-7.9-7.5-12-11.1c-4.5-4-8.7-8.2-12.6-12.7c-2.7-3.1-5.4-6.3-7.9-9.5c-2.3-3-4.7-6-7.1-9
			c-1.8-2.3-3.7-4.6-5.5-6.9c-1.1-1.4-1.9-2.9-2.5-4.5c-0.1-0.2-0.2-0.4-0.3-0.6C189.4,225.2,185.8,227.4,182.2,229.6z M198.7,167.5
			c0.3-0.3,0.6-0.4,0.8-0.6c1.4-1.5,2.8-3,4.3-4.5c2.9-3,5.1-6.6,6.8-10.4c0.6-1.4,1-2.9,1.3-4.4c0.3-1.4-0.1-2-1.4-2.7
			c-0.7-0.3-1.3-0.3-2-0.1c-1.2,0.4-2.5,0.7-3.7,1.1c-1.6,0.6-3.3,1.2-4.6,2.4c-0.4,0.4-0.5,0.7-0.5,1.2c0,1.9,0,3.8-0.1,5.7
			C199.4,159.3,199.3,163.3,198.7,167.5z M146.2,198.2c-1.7-1.9-2.7-4.2-3.6-6.5c-1-2.3-1.8-4.6-2.8-7c-0.6,0.4-0.9,1-1.3,1.5
			c-0.8,1.2-1.6,2.3-2.4,3.5c-1.6,2.2-3,4.6-3.9,7.2c-0.3,0.7-0.4,1.6-0.4,2.3c0,1.1,0.6,1.9,1.6,2.2c0.8,0.2,1.6,0.3,2.4,0.3
			c3.7-0.2,7-1.8,10.3-3.3C146.2,198.3,146.2,198.3,146.2,198.2z M192.9,130.5c1-0.7,2.4-2.6,3.1-4c0.4-0.8,0.4-1.6,0.2-2.4
			c-0.6-2.8-1.5-5.5-2.6-8.2c-1-2.5-2.3-4.8-4-6.8c-0.2-0.3-0.5-0.5-0.8-0.9c-0.5,2.3-0.8,4.5-2.3,6.2c1.1,2.7,2.3,5.3,3.4,8
			C190.9,125.1,191.8,127.8,192.9,130.5z M135.4,120.1c-0.1,0.2-0.2,0.2-0.2,0.3c-1,2.6-2,5.3-2.5,8.1c-0.3,1.7-0.2,1.9,1.4,2.5
			c0.1,0,0.2,0.1,0.4,0.1c1.2,0.3,2.5,0.6,3.7,0.9c0.3,0.1,0.7,0.1,1.1,0.1c0.4-3.2,1-6.2,2.3-9.1c-1.2-0.3-2.3-0.6-3.6-1
			c-0.4,1-0.7,2-1.1,3c-0.3-1.2,0.5-2.1,0.6-3.2C136.6,121.6,135.7,121.2,135.4,120.1z M188.9,165.9c1.4-0.8,2.6-1.5,3.9-2.1
			c0.6-0.3,0.7-0.7,0.7-1.3c0-4,0-8.1,0-12.1c0-0.5,0-0.9,0-1.4c-0.1,0-0.2,0-0.3,0c-1.3,0.8-2.7,1.6-4,2.4
			c-0.3,0.2-0.4,0.4-0.4,0.8c0,0.2,0,0.4,0,0.6c0,4.1,0,8.2,0,12.4C188.9,165.3,188.9,165.5,188.9,165.9z M194,162.7
			c0.1,0,0.1,0.1,0.2,0.1c1.1-0.7,2.1-1.5,3.2-2.2c0.4-0.2,0.4-0.6,0.4-1c0.3-4.6,0.3-9.3,0.3-13.9c0-0.2-0.1-0.4-0.1-0.6
			c-1.3,1.1-2.5,2-3.6,3.1c-0.2,0.2-0.3,0.5-0.3,0.7c-0.1,2.6-0.1,5.2-0.2,7.8C193.9,158.8,194,160.7,194,162.7z M220.1,233.6
			c-2.1-3.7-4.2-7.3-6.3-11c-0.7,1.9-1.6,3.6-2.8,5.1c0.9,1.5,1.8,2.9,2.8,4.4c1.2-1.7,2.1-3.3,2-5.4c0.5,0.5,0.5,1,0.5,1.4
			c-0.2,1.3-0.8,2.5-1.5,3.5c-0.2,0.3-0.4,0.7-0.7,1c1.1,1.8,2.4,3.4,3.7,5C218.8,236.3,219.5,234.9,220.1,233.6z M154.2,115.2
			C154.1,115.2,154.1,115.2,154.2,115.2c-0.2-0.1-0.3-0.1-0.4-0.1c-2.6,0.1-5.1-0.4-7.5-1.7c-1-0.5-1.9-0.9-3-1.4
			c-0.9,1.4-1.8,2.8-2.7,4.1c2.8,2.2,10.9,3.1,14.1,2.2C154.5,117.3,154.3,116.3,154.2,115.2z M250.4,276.6c0.7-1,1.3-1.8,1.9-2.7
			c0.3-0.4,0.3-0.7,0-1.2c-1.5-2.2-3-4.4-4.5-6.5c-0.2-0.3-0.4-0.6-0.7-0.9c-0.9,1.3-1.7,2.4-2.5,3.6
			C246.6,271.5,248.4,274,250.4,276.6z M193.4,139.8c-1.7,1.1-3.1,2-4.6,3c0,2.6,0.1,5.2,0.1,7.9c1.6-0.9,3-1.8,4.3-2.6
			c0.2-0.1,0.3-0.5,0.3-0.7c0-1,0-1.9,0-2.9C193.5,143,193.5,141.5,193.4,139.8z M188.8,141.9c1.5-1,2.9-2,4.2-2.9
			c0.3-0.2,0.3-0.6,0.3-0.9c-0.2-1.7-0.4-3.4-0.6-5.1c0-0.2-0.1-0.4-0.2-0.6c-1.7,1.3-3.3,2.6-5,3.9
			C187.9,138.1,188.3,139.9,188.8,141.9z M197.7,135.9c-1.2,1.1-2.3,2.2-3.5,3.3c-0.3,0.2-0.3,0.5-0.3,0.8c0,2.2,0.1,4.5,0.1,6.7
			c0,0.2,0,0.5,0.1,0.8c0.4-0.3,0.7-0.5,1-0.8c0.8-0.7,1.5-1.4,2.3-2.1c0.5-0.4,0.7-0.9,0.6-1.5c-0.2-2.2-0.3-4.5-0.4-6.7
			C197.7,136.3,197.7,136.1,197.7,135.9z M264.5,296.4c0.1-0.1,0.3-0.2,0.4-0.3c1-1.3,1.7-2.8,2.2-4.3c0.1-0.2,0-0.6-0.1-0.8
			c-0.7-1.2-1.5-2.4-2.3-3.6c-0.1-0.2-0.4-0.4-0.5-0.5c-1.1,1.5-2.1,2.8-3.1,4.3C262.3,292.8,263.4,294.6,264.5,296.4z M267.8,301.7
			c0.7-0.9,1.4-1.6,2-2.4c0.4-0.5,0.7-1,1-1.6c0.2-0.4,0.2-0.7-0.1-1.1c-0.9-1.3-1.7-2.7-2.6-4c-0.1-0.1-0.2-0.3-0.4-0.5
			c-0.6,1.9-1.5,3.6-2.8,5.1C265.8,298.6,266.8,300.1,267.8,301.7z M196.8,127.1c-0.1,0-0.2,0-0.2,0c-0.7,1.6-1.8,2.9-3,4.1
			c-0.4,0.4-0.5,0.8-0.4,1.4c0.3,1.7,0.5,3.4,0.7,5c0,0.2,0.1,0.4,0.1,0.7c1.3-1.2,2.5-2.3,3.4-3.6c0.2-0.3,0.3-0.6,0.2-1
			C197.3,131.5,197,129.3,196.8,127.1z M260.7,291.4c-1.2,1.2-2.4,2-3.3,3c1.3,1.8,2.6,3.4,3.8,5.1c1.1-0.8,2.1-1.6,2.9-2.8
			C263,295,261.9,293.3,260.7,291.4z M260.3,282.5c-1.3-1.4-2.4-3-3.8-4.4c-0.8,1.3-1.5,2.5-2.2,3.7c1.1,1.4,2.2,2.8,3.4,4.2
			C259,285.1,259.7,284.1,260.3,282.5z M220.6,234c-0.8,1.4-1.6,2.7-2.4,4.1c1.2,1.3,2.5,2.5,3.8,3.9c0.8-1,1.5-2,2.2-2.9
			C222.9,237.4,221.7,235.7,220.6,234z M261.5,300.1c0.8,1.5,1.5,3,2.4,4.6c1.2-0.9,2.5-1.6,3.5-2.7c-0.9-1.6-1.9-3-2.9-4.5
			C263.4,298.4,262.5,299.3,261.5,300.1z M260.9,283.1c-0.1,0-0.2,0-0.2,0c-0.4,1.6-1.7,2.5-2.6,3.6c0.9,1.3,1.8,2.5,2.7,3.8
			c1.3-1.3,2.2-2.7,3.1-4.2C262.8,285.2,261.8,284.2,260.9,283.1z M256.2,277.7c-1-1.3-2-2.5-3-3.8c-0.9,1.1-1.6,2.1-2.4,3.2
			c1,1.4,2.1,2.8,3.2,4.3C254.9,280.3,255.5,279,256.2,277.7z M172,102.8c1.4,0.8,2.7,1.5,4.1,2.3c1.1-1.1,1.8-2.5,2.4-4
			c-1.5-0.7-2.8-1.4-4.4-1.7C173.7,100.7,173.1,101.8,172,102.8z M136.3,132.4c-0.7-0.2-1.3-0.3-2-0.5c-0.7-0.2-1.3-0.5-2-0.8
			c-0.1,1.7-0.2,3.2-0.3,4.8c0,0.2,0.1,0.5,0.3,0.6c1,0.5,2.1,0.8,3.3,0.9C135.7,135.7,136,134.1,136.3,132.4z M227.2,253.1
			c1.1,1.2,2.1,2.3,3.4,3.3c0.8-1.1,1.5-2.1,2.2-3.2c-1.1-1.1-2.1-2.2-3.1-3.3C228.8,251.1,228,252.1,227.2,253.1z M212,235
			c1.2,1.7,2.4,3.3,3.7,5.1c0.6-0.7,1.1-1.4,1.7-2.1c-1.3-1.7-2.5-3.4-3.8-5.1C213.1,233.7,212.6,234.3,212,235z M151,185.4
			c-1.6,0.4-3.1,0.7-4.6,1.1c0.4,1.1,0.8,2.1,1.2,3.1c1.7-0.4,3.3-0.8,4.8-1.5C151.9,187.2,151.5,186.4,151,185.4z M222.3,242.5
			c1.1,1.1,2.2,2.2,3.4,3.3c0.4-0.6,0.7-1.1,1-1.6c0.6-1.2,0.6-1.3-0.3-2.3c-0.3-0.4-0.6-0.7-0.9-1.1c-0.3-0.4-0.6-0.8-1-1.2
			C223.7,240.6,223,241.5,222.3,242.5z M234.7,250.8c-0.4,0.9-0.8,1.6-1.2,2.4c1.3,1.5,2.6,2.9,3.9,4.4c0.6-0.9,0.8-1.9,1.1-2.9
			C237.2,253.4,236,252.2,234.7,250.8z M126.9,69.4c-0.3,0.9-0.2,1.7-0.1,2.5c0.2,1.5,1,2.7,2.2,3.6c0.6,0.4,1,0.3,1.2-0.4
			c0.1-0.4,0.2-0.8,0.1-1.3c-0.1-1.3-0.8-2.3-1.5-3.3C128.4,69.9,127.8,69.6,126.9,69.4z M144.9,183c0.4,1,0.7,1.9,1.1,2.8
			c1.5-0.4,3-0.7,4.5-1c-0.4-1.1-0.8-2-1.2-3C147.8,182.2,146.4,182.6,144.9,183z M138,114.6c-0.9,1.3-1.7,2.7-2.1,4.3
			c-0.3,1.3,0.3,2.2,1.5,2.4c0.7-1.6,1.4-3.2,2.1-4.7C139.2,115.9,138.6,115.3,138,114.6z M132.6,150.8c0.1,1.6,0.3,3.1,0.7,4.6
			c0,0.2,0.2,0.4,0.4,0.5c0.8,0.4,1.6,0.5,2.5,0.4c-0.2-1.6-0.4-3.1-0.6-4.4C134.5,151.6,133.6,151.2,132.6,150.8z M138.2,175.2
			c0.4,1.4,0.9,2.9,1.4,4.3c1-0.4,2-0.8,2.9-1.1c-0.5-1.3-1-2.5-1.4-3.7C140.1,174.8,139.2,175,138.2,175.2z M132.1,145.4
			c0.1,1.2,0,2.4,0.3,3.5c0.3,1.3,1.4,2.2,3,2.1c-0.1-1.5-0.2-3-0.4-4.4C134.1,146.1,133.2,145.8,132.1,145.4z M226.1,246.2
			c1.2,1,2.3,2,3.6,3c0.4-0.9,0.8-1.6,1.1-2.3c-1.1-1.2-2.1-2.3-3.2-3.5C227.1,244.4,226.6,245.3,226.1,246.2z M136.6,132.4
			c-0.2,1.7-0.4,3.4-0.6,5c1,0.1,1.9,0.2,2.8-0.1c0.1-1.5,0.2-3,0.3-4.5C138.2,132.7,137.5,132.6,136.6,132.4z M131.9,140.6
			c0,1.1,0.1,2.3,0.2,3.4c0,0.3,0.2,0.6,0.4,0.7c0.7,0.5,1.5,0.9,2.5,1c0-1.3,0.1-2.6,0.1-3.9C134.1,141.4,133,141,131.9,140.6z
			 M140.1,116c0.9-1.4,1.8-2.8,2.6-4c-0.5-0.6-1.1-1.2-1.7-1.9c-0.6,0.8-1.2,1.6-1.8,2.4c-0.9,1.3-0.8,2,0.4,3.1
			C139.8,115.7,139.9,115.8,140.1,116z M145.7,186.7c-1.1,0.4-2.3,0.4-3.4,0.8c0.4,1.2,0.8,2.3,1.3,3.3c1.2-0.2,2.8-0.8,3.3-1.1
			C146.5,188.7,146.1,187.7,145.7,186.7z M144.1,182.5c-0.5-1.2-0.9-2.3-1.3-3.4c-1,0.4-1.9,0.8-2.9,1.1c0.2,1.1,0.8,2.6,1.1,3.1
			C142,183.1,142.9,182.8,144.1,182.5z M137.9,174.5c1,0,2-0.1,2.8-0.6c-0.5-1.2-0.9-2.4-1.4-3.6c-0.9,0.2-1.6,0.4-2.5,0.7
			C137.2,172.2,137.6,173.3,137.9,174.5z M230,249.6c1,1,2,2.1,3.1,3.3c0.4-0.9,0.8-1.6,1.2-2.4c-1.1-1.1-2-2.1-3.1-3.1
			C230.8,248.1,230.4,248.8,230,249.6z M134.5,161c0.3,1.3,0.6,2.6,0.9,3.8c0,0.2,0.3,0.4,0.5,0.5c0.7,0.1,1.3,0.2,2.1,0
			c-0.3-1.3-0.6-2.7-0.8-4C136.2,161.2,135.4,161.1,134.5,161z M138.1,166c-0.8,0-1.7,0-2.6-0.1c0.4,1.5,0.8,2.9,1.2,4.4
			c0.9-0.2,1.6-0.4,2.4-0.7C138.8,168.4,138.5,167.3,138.1,166z M142.1,186.7c1.1-0.2,2.2-0.3,3.2-0.7c-0.4-1-0.7-1.9-1.1-2.8
			c-1.1,0.3-2.1,0.5-3.2,0.8C141.4,184.9,141.7,185.7,142.1,186.7z M133.5,156.7c0.2,1.1,0.5,2.2,0.7,3.2c0,0.2,0.2,0.3,0.3,0.4
			c0.7,0.3,1.5,0.5,2.4,0.2c-0.2-1.2-0.5-2.3-0.7-3.5C135.3,157,134.5,156.8,133.5,156.7z M131.9,137.2c0,0.5,0,1,0,1.4
			c0,0.5,0.2,1,0.6,1.3c0.8,0.6,1.7,1,2.8,1.1c0.1-1,0.1-2,0.2-2.9C134.2,137.8,133.1,137.5,131.9,137.2z M138.8,138.1
			c-1,0-1.9,0-2.9,0c0,0.5-0.1,1-0.1,1.4c0,0.5,0,1-0.1,1.5c1.1,0.1,2,0.1,3,0.2C138.8,140.2,138.8,139.2,138.8,138.1z"/>
		<path d="M163.6,134c0.2,0.4,0.3,0.9,0.5,1.3c0.7,1.7,1,3.5,1.1,5.3c0.2,4.1-0.1,8.2-0.9,12.3c-0.7,3.3-1.1,6.7-1.7,10
			c-0.5,3.3-0.3,6.6,0.6,9.8c0.5,1.8,0.9,3.5,0.9,5.4c0,2-0.5,3.7-1.6,5.3c-1.2,1.8-3,2.2-4.8,1c-1.7-1.1-2.9-2.6-3.9-4.3
			c-1-1.7-1.5-3.6-2.1-5.5c-0.4-1.5-0.9-3-1.3-4.4c-0.4-1.2-1-2.4-1.8-3.4c-0.6-0.7-0.9-1.6-1-2.5c-0.1-0.5-0.2-1-0.4-1.5
			c-0.5-1.3-0.7-2.6-0.7-3.9c0-3.3-0.6-6.6-0.9-9.9c-0.2-2.3-0.4-4.6-0.5-6.9c-0.1-2.8,0.3-5.5,1.3-8.2c1-2.6,2.8-4.5,5.1-5.9
			c2.3-1.3,4.7-1.1,7-0.1c0.7,0.3,1.3,0.6,1.9,1c1.3,0.8,2.1,1.9,2.6,3.3C163.2,132.7,163.4,133.4,163.6,134
			C163.6,134,163.6,134,163.6,134z M162.4,134.9c-0.3-0.8-0.5-1.4-0.7-2c-0.3-0.9-0.7-1.7-1.5-2.3c-1.5-1.2-3.1-2-5-2.1
			c-1-0.1-2,0.1-2.9,0.6c-2.5,1.5-4.3,3.5-5,6.4c-0.6,2.5-0.9,5.1-0.7,7.7c0.1,1.9,0.4,3.7,0.6,5.6c0.3,2.7,0.9,5.4,0.8,8.2
			c0,2.3,0.1,4.5,0.7,6.7c0.2,0.8,0.5,1.5,1,2.1c0.9,1.1,1.6,2.3,2,3.6c0.5,1.7,1,3.4,1.5,5.1c0.5,1.8,1,3.5,1.9,5.1
			c0.8,1.4,1.8,2.7,3.2,3.6c1.3,0.8,2.3,0.6,3.1-0.7c0.8-1.4,1.3-2.9,1.2-4.5c0-1.6-0.3-3.1-0.7-4.6c-1-3.5-1.3-7-0.7-10.5
			c0.6-3.5,1.2-7,1.8-10.5c0.5-2.7,1-5.3,0.9-8.1C163.8,141.1,164,137.8,162.4,134.9z"/>
		<path d="M138,72.2c0.4,0,0.8-0.1,1.1,0c3,0.4,5.3,1.9,6.9,4.5c1.2,1.9,2.1,3.9,2.8,6c1.1,3.4,2.1,6.9,2.8,10.4
			c0.5,2.3,0.7,4.6,1.1,6.9c0.2,0.9,0.4,1.9,0.7,2.8c0.3,0.9,0.8,1.6,1.9,1.7c0.3,0,0.5,0.2,0.8,0.3c-1,0.6-2.2,0.6-2.9-0.1
			c-0.7-0.6-1.1-1.4-1.3-2.3c-0.3-1.8-0.7-3.6-0.9-5.5c-0.6-4.2-1.2-8.3-2.5-12.3c-0.3-0.8-0.5-1.6-0.7-2.4
			c-0.6-2.3-1.7-4.3-3.1-6.1c-1.5-1.9-3.5-2.9-5.8-3.4c-0.3-0.1-0.6-0.1-0.8-0.2C138,72.4,138,72.3,138,72.2z"/>
		<path d="M160.8,101.5c-0.1-0.6-0.2-1.3-0.3-1.9c-0.2-1.5-0.8-2.8-1.7-4c-0.4-0.6-0.8-1.1-1.3-1.7c-2.1-2.4-3.9-5.1-5.4-7.9
			c-0.6-1.1-1-2.2-1.5-3.4c-0.8-2-1.6-3.9-2.4-5.9c-0.6-1.4-1.2-2.7-2.2-3.8c-0.1-0.1-0.1-0.2-0.2-0.4c0.3-0.2,0.5,0,0.7,0.1
			c0.8,0.8,1.4,1.7,1.9,2.7c0.9,2,1.8,3.9,2.6,5.9c1.6,4.3,4.1,8.1,7,11.7c0.9,1.1,1.7,2.3,2.4,3.5c0.7,1.2,0.9,2.6,0.9,4
			c0,0.3-0.1,0.6-0.2,1C160.9,101.5,160.9,101.5,160.8,101.5z"/>
		<path d="M154.4,93.3c0.9,2.5,1.8,5.1,2.8,7.6c0,0-0.1,0.1-0.1,0.1c-0.1-0.1-0.3-0.2-0.4-0.3c-0.2-0.4-0.5-0.9-0.6-1.3
			c-0.6-1.9-1.3-3.9-1.9-5.8c0-0.1,0-0.2,0-0.2C154.3,93.3,154.3,93.3,154.4,93.3z"/>
	</g>
</g>
<path class="st1" d="M144.3,70.3"/>
<path class="st1" d="M146.5,79.9"/>
</svg>
