<?xml version="1.0" encoding="utf-8"?>
<!-- Generator: Adobe Illustrator 22.1.0, SVG Export Plug-In . SVG Version: 6.00 Build 0)  -->
<svg version="1.1" id="Layer_1" xmlns="http://www.w3.org/2000/svg" xmlns:xlink="http://www.w3.org/1999/xlink" x="0px" y="0px"
	 viewBox="0 0 449 449" style="enable-background:new 0 0 449 449;" xml:space="preserve">
<style type="text/css">
	.st0{fill:#B9161C;stroke:#B9161C;stroke-width:0.68;stroke-miterlimit:10;}
	.st1{opacity:0.2;fill:#FFFFFF;enable-background:new    ;}
	.st2{fill:none;stroke:#075173;stroke-width:18;stroke-miterlimit:10;}
	.st3{opacity:0.32;enable-background:new    ;}
	.st4{opacity:0.48;}
	.st5{fill:none;}
	.st6{fill:#E9818C;}
	.st7{fill:#DD323E;stroke:#DD323E;stroke-width:0.68;stroke-miterlimit:10;}
	.st8{fill:#E9818C;stroke:#E9818C;stroke-width:0.68;stroke-miterlimit:10;}
	.st9{fill:#B9161C;stroke:#B9161C;stroke-width:0.6376;stroke-miterlimit:10;}
	.st10{fill:#B9161C;}
	.st11{fill:#F6D807;}
	.st12{fill:#3B2314;stroke:#3B2314;stroke-width:0.6099;stroke-miterlimit:10;}
	.st13{fill:#3B2314;}
	.st14{fill:none;stroke:#075173;stroke-width:6.7975;stroke-miterlimit:10;}
	.st15{fill:#C9B30C;}
	.st16{fill:#5A5054;}
	.st17{opacity:0.29;fill:#FFFFFF;enable-background:new    ;}
	.st18{fill:#5A5054;stroke:#5A5054;stroke-width:2.9887;stroke-linecap:round;stroke-miterlimit:10;}
	.st19{fill:#3F373B;}
	.st20{fill:none;stroke:#FFFFFF;stroke-width:3.4315;stroke-miterlimit:10;}
	.st21{fill:#FFFFFF;}
	.st22{fill:#B9161C;stroke:#B9161C;stroke-width:0.7525;stroke-miterlimit:10;}
	.st23{opacity:0.3;fill:#FFFFFF;enable-background:new    ;}
	.st24{fill:#7C6E73;}
	.st25{fill:#CAD053;stroke:#DDE35A;stroke-width:0.4788;stroke-miterlimit:10;}
	.st26{fill:#DDE35A;stroke:#DDE35A;stroke-width:0.4788;stroke-miterlimit:10;}
	.st27{fill:#D8E7A7;stroke:#D8E7A7;stroke-width:0.4788;stroke-miterlimit:10;}
	.st28{fill:#CAD053;stroke:#CAD053;stroke-width:0.4788;stroke-miterlimit:10;}
	.st29{opacity:0.5;}
	.st30{fill:#D8E7A7;}
	.st31{fill:#DDE35A;}
	.st32{fill:#3B2314;stroke:#3B2314;stroke-width:0.4294;stroke-miterlimit:10;}
	.st33{stroke:#000000;stroke-width:1.8794;stroke-miterlimit:10;}
	.st34{fill:#075173;}
	.st35{fill:#378DCC;}
</style>
<title>colour-1</title>
<rect class="st0" width="449" height="449"/>
<rect x="224.5" class="st1" width="224.5" height="449"/>
<circle class="st2" cx="-237.5" cy="140.5" r="168.5"/>
<g>
	<ellipse class="st3" cx="-205.9" cy="232.5" rx="41.5" ry="8.5"/>
	<path class="st0" d="M-162.5,154.4l-14.7,75.2c0,3.7-15.7,6.7-35.1,6.7s-35.1-3-35.1-6.7l-14.1-75.2L-162.5,154.4L-162.5,154.4z"/>
	<g class="st4">
		<line class="st5" x1="-249.2" y1="156.8" x2="-242.4" y2="223.3"/>
		<polygon class="st6" points="-246.8,156.6 -242.4,223.3 -251.6,157.1 		"/>
	</g>
	<path class="st7" d="M-268.6,155.7v-25.2H-156c0,0,0.1,16.4,0,25.2C-180.3,166.3-247.2,166.3-268.6,155.7z"/>
	<ellipse class="st8" cx="-212.3" cy="130.5" rx="56.3" ry="10.8"/>
	<ellipse class="st9" cx="-212.3" cy="130" rx="51.6" ry="8.4"/>
	<path class="st10" d="M-191.5,92c-0.1,0-0.2,0-0.4,0.1c-2.2,0.4-3.9,1.1-4.3,3.7c-0.1,0.3-0.1,1-0.3,2.8c-0.1,0.6-0.3,2.5-0.5,3.8
		c-0.2,1.2-0.5,1.3-0.8,1.5l-6.4,3.9l0.1-1.4l1.7-1c0.6-0.4,1.9-1,2.2-3.4c0.1-1,0.8-6.9,0.9-7.5c0.5-4.8,6.1-7,12.1-5.9
		c0,0,8.8,17.8-8.9,18.5c-1.3,0.1-2.1,0.3-3.6,1.1l-4.9,3c0-0.1,0.3-2.4,0.3-2.4l6.2-3.7c0.6-0.4,1.1-0.6,1.2-0.6
		c5.1-0.6,9.8-2.4,7.9-10c0-0.1-0.1-0.2-0.1-0.3c-0.1-0.7-0.4-1.8-0.1-2.8C-189,91.2-190.2,91.7-191.5,92"/>
	<path class="st11" d="M-220.3,105c0.1,0,0.2,0,0.3,0c1.8,0,3.3,0.2,4,2.3c0.1,0.3,0.3,0.8,0.7,2.1c0.1,0.4,0.6,2,1,3
		c0.3,1,0.6,1,0.9,1.1l5.7,2.1l-0.3-1.1l-1.5-0.6c-0.6-0.2-1.7-0.5-2.3-2.4c-0.3-0.7-1.7-5.3-1.9-5.8c-1.2-3.8-6-4.6-10.6-2.8
		c0,0-4.2,15.6,10.1,13.3c1.1-0.2,1.7-0.1,3.1,0.3l4.4,1.6c0-0.1-0.6-1.9-0.6-1.9l-5.5-2c-0.6-0.3-1-0.3-1.1-0.3
		c-4.1,0.3-8.2-0.3-7.9-6.7c0-0.1,0-0.2,0-0.3c0-0.5,0-1.5-0.4-2.2C-222.4,104.8-221.4,105-220.3,105"/>
	<g>
		<path class="st12" d="M-160.8,130.7c0,4.3-23.1,7.7-51.6,7.7s-51.6-3.4-51.6-7.7C-264,126.4-160.8,126.5-160.8,130.7z"/>
		<g>
			<path class="st13" d="M-262.5,130c4.9,0.6,9.8-2.5,14.7-1.9c1.7,0.2,3.4,0.9,5.1,0.8c2-0.1,3.9-1.1,5.9-1.3
				c3.3-0.3,6.5,1.6,9.8,1.5c2.8-0.1,5.4-1.6,8.1-2.2c5.2-1.2,10.5,0.9,15.8,1c2.8,0.1,5.6-0.4,8.4-0.6c3.3-0.2,6.7,0,10,0.2
				c6.2,0.4,12.4,0.8,18.6,1.1c1.6,0.1,3.5,0.4,4.3,1.8"/>
			<g>
				<path class="st13" d="M-262.5,131.1c4.1,0.2,7.6-1.4,11.6-1.8c4-0.4,7.5,0.7,11.5,0.1c2.5-0.4,4.6-0.5,7.2,0
					c1.8,0.3,3.4,0.9,5.2,0.9c4-0.1,7.5-2.5,11.6-2.6c4.2-0.1,8.2,1.3,12.4,1.4c3.9,0.1,7.8-0.7,11.7-0.7c4.1,0,8.2,0.4,12.3,0.6
					c3.9,0.2,13.7-0.8,16.5,2.2c1,1.1,2.7-0.5,1.7-1.7c-1.9-2.1-4.3-2.1-7-2.2c-4.9-0.3-9.9-0.6-14.9-0.9c-4.5-0.3-9-0.5-13.6-0.2
					c-5.3,0.4-10,0-15.3-0.6c-4-0.5-7,0-10.8,1.1c-3.4,1-5.6,1-9.1,0.4c-1.8-0.3-3.4-0.8-5.2-0.7c-2,0.2-3.9,1.2-5.9,1.3
					c-2.2,0.1-4.5-0.9-6.7-0.9c-4.5,0-8.5,2.2-13.1,2C-264.1,128.7-264.1,131.1-262.5,131.1L-262.5,131.1z"/>
			</g>
		</g>
		<g>
			<path class="st13" d="M-262.9,130.5c-0.2,0.1-0.5,0.1-0.6-0.1s0.1-0.5,0.3-0.4"/>
			<g>
				<path class="st13" d="M-263.2,129.4C-263.1,129.4-263.1,129.4-263.2,129.4c0.1,0,0.3,0.1,0.5,0.2c0,0,0,0,0,0.1
					c0.1,0.2,0.2,0.3,0.3,0.5v0.1c-0.1,0.2-0.1,0.4-0.2,0.6c-0.1,0.1-0.2,0.1-0.2,0.2c-0.3,0-0.6,0.1-0.9,0.1h0.1
					c0.6,0.1,1.3-0.2,1.5-0.8s-0.2-1.4-0.8-1.5c-0.5-0.1-0.9,0-1.3,0.3c-0.3,0.3-0.5,0.8-0.4,1.3c0.1,1,1.2,1.5,2.1,1.2
					c0.6-0.2,1-0.8,0.8-1.5C-261.9,129.6-262.6,129.2-263.2,129.4L-263.2,129.4z"/>
			</g>
		</g>
	</g>
	<path class="st14" d="M-215,60.3c0,0,14.3,61,6.7,74.2"/>
	<path class="st15" d="M-213.7,48.9c0,0,9.6-16,37.4,6.2C-209.8,67.1-213.7,48.9-213.7,48.9z"/>
	<path class="st15" d="M-214.5,44.6c0,0-2.9-18.4,32.6-19.3C-199.8,56-214.5,44.6-214.5,44.6z"/>
	<path class="st15" d="M-217.9,41.8c0,0-14-12.2,12.6-35.8C-199.3,41.1-217.9,41.8-217.9,41.8z"/>
	<path class="st15" d="M-222.2,41.9c0,0-18.6-0.3-13.3-35.5C-208.4,29.3-222.2,41.9-222.2,41.9z"/>
	<path class="st15" d="M-225.5,44.7c0,0-14.5,11.7-33-18.6C-223,26.2-225.5,44.7-225.5,44.7z"/>
	<path class="st15" d="M-226.2,49c0,0-3.6,18.3-37.3,7C-236.2,33.2-226.2,49-226.2,49z"/>
	<path class="st15" d="M-224,52.7c0,0,9,16.3-24.1,29.3C-241.8,47-224,52.7-224,52.7z"/>
	<path class="st15" d="M-215.9,52.6c0,0,17.6-6.1,24.7,28.8C-224.5,69.1-215.9,52.6-215.9,52.6z"/>
	<path class="st15" d="M-219.9,54.2c0,0,17.4,6.7,0.4,37.9C-237.2,61.2-219.9,54.2-219.9,54.2z"/>
	<g>
		<path class="st11" d="M-214.5,50.9c0,0,14.5-11.7,33,18.6C-217,69.4-214.5,50.9-214.5,50.9z"/>
		<path class="st11" d="M-213.8,46.6c0,0,3.6-18.3,37.3-7C-203.8,62.4-213.8,46.6-213.8,46.6z"/>
		<path class="st11" d="M-216,42.9c0,0-9-16.3,24.1-29.3C-198.2,48.6-216,42.9-216,42.9z"/>
		<path class="st11" d="M-220.1,41.5c0,0-17.4-6.7-0.4-37.9C-202.8,34.4-220.1,41.5-220.1,41.5z"/>
		<path class="st11" d="M-224.1,43c0,0-17.6,6.1-24.7-28.8C-215.5,26.5-224.1,43-224.1,43z"/>
		<path class="st11" d="M-226.3,46.8c0,0-9.6,16-37.4-6.2C-230.2,28.6-226.3,46.8-226.3,46.8z"/>
		<path class="st11" d="M-225.5,51c0,0,2.9,18.4-32.6,19.3C-240.2,39.6-225.5,51-225.5,51z"/>
		<path class="st11" d="M-222.1,53.8c0,0,14,12.2-12.6,35.8C-240.7,54.5-222.1,53.8-222.1,53.8z"/>
		<path class="st11" d="M-217.8,53.8c0,0,18.6,0.3,13.3,35.5C-231.5,66.3-217.8,53.8-217.8,53.8z"/>
	</g>
	<path class="st16" d="M-261,76.3L-261,76.3L-261,76.3C-261,76.2-261,76.3-261,76.3z"/>
	<path class="st16" d="M-261,76.2L-261,76.2L-261,76.2L-261,76.2z"/>
	<g>
		<path class="st17" d="M-224.6,34.9c0,0-12.8,2.3-7.6-16.4C-214.6,26.6-224.6,34.9-224.6,34.9z"/>
		<path class="st17" d="M-231.8,40.8c0,0-8.3,10-16.4-7.6C-229.5,28.1-231.8,40.8-231.8,40.8z"/>
		<path class="st17" d="M-233.6,50c0,0,0.1,13-17.5,4.7C-240,38.7-233.6,50-233.6,50z"/>
		<path class="st17" d="M-229,58.2c0,0,8.4,9.9-10.4,14.8C-241.1,53.7-229,58.2-229,58.2z"/>
		<path class="st17" d="M-220.2,61.5c0,0,12.8,2.2,1.6,18C-232.4,65.9-220.2,61.5-220.2,61.5z"/>
		<path class="st17" d="M-211.4,58.4c0,0,11.2-6.6,12.8,12.8C-217.9,69.6-211.4,58.4-211.4,58.4z"/>
		<path class="st17" d="M-206.6,50.3c0,0,4.4-12.2,18,1.6C-204.4,63.1-206.6,50.3-206.6,50.3z"/>
		<path class="st17" d="M-208.1,41.1c0,0-4.5-12.2,14.8-10.4C-198.2,49.5-208.1,41.1-208.1,41.1z"/>
		<path class="st17" d="M-215.2,35c0,0-11.3-6.4,4.7-17.5C-202.3,35.1-215.2,35-215.2,35z"/>
	</g>
	<g>
		<circle class="st18" cx="-220" cy="47.8" r="16.8"/>
		<circle class="st19" cx="-220" cy="47.8" r="14.9"/>
		<circle class="st18" cx="-220" cy="47.8" r="8.3"/>
	</g>
	<g>
		<path class="st20" d="M-197.3,187c-0.1,4-3.3,7.1-7.3,7s-7.1-3.3-7-7.3"/>
		<g>
			<g>
				<circle class="st21" cx="-220.1" cy="175.4" r="8.7"/>
				<circle class="st22" cx="-223" cy="173.8" r="2.2"/>
			</g>
			
				<ellipse transform="matrix(2.049367e-02 -0.9998 0.9998 2.049367e-02 -399.6863 -38.8201)" class="st23" cx="-219.7" cy="184.6" rx="3.5" ry="5.8"/>
		</g>
		<g>
			<g>
				<circle class="st21" cx="-190" cy="175.6" r="8.7"/>
				<circle class="st22" cx="-192.9" cy="173.9" r="2.2"/>
			</g>
			
				<ellipse transform="matrix(2.049367e-02 -0.9998 0.9998 2.049367e-02 -370.4536 -8.5886)" class="st23" cx="-189.6" cy="184.8" rx="3.5" ry="5.8"/>
		</g>
	</g>
	<path class="st24" d="M-217.3,39.8L-217.3,39.8c-0.2,0.1-0.4,0.2-0.3,0.5c0,0,0,0.1,0,0.3c0,0.1,0,0.2,0.1,0.4c0,0.1,0,0.1,0,0.2
		l-0.5,0.5v-0.1l0.1-0.1c0-0.1,0.2-0.1,0.1-0.4c0-0.1-0.1-0.7-0.1-0.7c-0.1-0.5,0.4-0.8,1-0.9c0,0,1.3,1.5-0.4,2
		c-0.1,0-0.2,0.1-0.3,0.2l-0.4,0.4v-0.2l0.5-0.5c0-0.1,0.1-0.1,0.1-0.1c0.5-0.2,0.9-0.5,0.5-1.1l0,0c0-0.1-0.1-0.2-0.1-0.3
		C-217,39.7-217.1,39.8-217.3,39.8"/>
	<path class="st24" d="M-222.9,39.9L-222.9,39.9c-0.1,0.2-0.1,0.4,0,0.6c0,0,0.1,0.1,0.2,0.2c0,0,0.2,0.2,0.3,0.2
		c0.1,0.1,0.1,0.1,0.1,0.1v0.7l-0.1-0.1v-0.2c0-0.1,0-0.2-0.1-0.4c-0.1-0.1-0.5-0.4-0.5-0.5c-0.4-0.3-0.2-0.9,0.2-1.3
		c0,0,1.9,0.3,1,1.7c-0.1,0.1-0.1,0.2-0.1,0.3v0.6l-0.2-0.2l0.1-0.7c0-0.1,0-0.1,0-0.1c0.2-0.4,0.4-0.9-0.4-1.2l0,0
		c-0.1,0-0.2-0.1-0.2-0.1C-222.8,39.6-222.8,39.8-222.9,39.9"/>
	<path class="st24" d="M-227.1,43.5C-227.1,43.5-227.1,43.6-227.1,43.5c0.1,0.2,0.1,0.4,0.4,0.4c0,0,0.1,0,0.3,0c0.1,0,0.2,0,0.4,0
		c0.1,0,0.1,0,0.2,0.1l0.4,0.6h-0.1l-0.1-0.2c0-0.1-0.1-0.2-0.3-0.2c-0.1,0-0.7,0-0.7,0c-0.5,0-0.7-0.5-0.7-1.1c0,0,1.7-1,1.9,0.7
		c0,0.1,0,0.2,0.1,0.3l0.3,0.4h-0.2l-0.4-0.6c0-0.1-0.1-0.1-0.1-0.1c-0.1-0.5-0.3-0.9-1-0.7l0,0c-0.1,0-0.2,0.1-0.3,0
		C-227.2,43.3-227.2,43.4-227.1,43.5"/>
	<path class="st24" d="M-228.1,49.1C-228,49.1-228,49.1-228.1,49.1c0.2,0.1,0.4,0.2,0.6,0.1c0,0,0.1-0.1,0.2-0.2
		c0,0,0.2-0.2,0.3-0.2c0.1-0.1,0.1-0.1,0.2,0l0.7,0.2l-0.1,0.1h-0.2c-0.1,0-0.2-0.1-0.4,0.1c-0.1,0.1-0.5,0.4-0.6,0.5
		c-0.4,0.3-0.9,0.1-1.2-0.4c0,0,0.6-1.8,1.9-0.7c0.1,0.1,0.2,0.1,0.3,0.2l0.5,0.1l-0.2,0.1l-0.7-0.2c-0.1,0-0.1,0-0.1,0
		c-0.4-0.3-0.8-0.5-1.2,0.1l0,0c0,0.1-0.1,0.2-0.2,0.2C-228.3,49-228.2,49-228.1,49.1"/>
	<path class="st24" d="M-225.2,53.9L-225.2,53.9c0.2,0,0.4-0.1,0.5-0.3c0,0,0-0.1,0.1-0.3c0-0.1,0-0.2,0.1-0.4
		c0-0.1,0.1-0.1,0.1-0.1l0.6-0.3v0.1l-0.2,0.1c-0.1,0-0.2,0.1-0.2,0.3c0,0.1-0.1,0.7-0.2,0.7c-0.1,0.5-0.6,0.6-1.2,0.5
		c0,0-0.7-1.8,1-1.7c0.1,0,0.2,0,0.4-0.1l0.5-0.2v0.2l-0.6,0.3c-0.1,0-0.1,0-0.1,0c-0.5,0-1,0.1-0.9,0.9l0,0
		C-225.3,53.7-225.3,53.8-225.2,53.9C-225.4,54-225.3,53.9-225.2,53.9"/>
	<path class="st24" d="M-219.9,55.8L-219.9,55.8c0.2-0.2,0.3-0.3,0.2-0.6c0,0,0-0.1-0.1-0.2c0,0-0.1-0.2-0.2-0.3
		c-0.1-0.1,0-0.1,0-0.2l0.3-0.7l0.1,0.1l-0.1,0.2c0,0.1-0.1,0.2,0,0.4c0,0.1,0.3,0.6,0.3,0.6c0.2,0.4-0.1,0.9-0.6,1.1
		c0,0-1.7-0.9-0.3-2c0.1-0.1,0.2-0.1,0.2-0.3l0.2-0.5l0.1,0.2l-0.3,0.6c0,0.1-0.1,0.1-0.1,0.1c-0.4,0.3-0.7,0.7-0.1,1.2l0,0
		c0,0,0.1,0.1,0.2,0.2C-220,56-220,55.9-219.9,55.8"/>
	<path class="st24" d="M-214.6,53.8L-214.6,53.8c0-0.2,0-0.4-0.2-0.5c0,0-0.1,0-0.2-0.1c-0.1,0-0.2-0.1-0.3-0.1s-0.1-0.1-0.1-0.1
		l-0.2-0.7h0.1l0.1,0.2c0,0.1,0,0.2,0.3,0.3c0.1,0,0.6,0.3,0.7,0.3c0.4,0.2,0.5,0.7,0.2,1.3c0,0-1.9,0.4-1.5-1.3c0-0.1,0-0.2,0-0.4
		l-0.2-0.5l0.2,0.1l0.2,0.7c0,0.1,0,0.1,0,0.1c-0.1,0.5,0,1,0.7,1l0,0c0.1,0,0.2,0,0.3,0.1C-214.6,54.1-214.6,53.9-214.6,53.8"/>
	<path class="st24" d="M-211.9,48.9L-211.9,48.9c-0.1-0.2-0.3-0.3-0.5-0.3c0,0-0.1,0-0.3,0.1c-0.1,0-0.2,0.1-0.4,0.1
		c-0.1,0-0.1,0-0.2,0l-0.6-0.4h0.1l0.2,0.1c0.1,0,0.2,0.1,0.4,0.1c0.1,0,0.6-0.2,0.7-0.2c0.4-0.2,0.9,0.2,1,0.8c0,0-1.2,1.5-2,0
		c-0.1-0.1-0.1-0.2-0.2-0.3l-0.5-0.3l0.2-0.1l0.6,0.4c0.1,0,0.1,0.1,0.1,0.1c0.3,0.4,0.6,0.8,1.2,0.3l0,0c0.1,0,0.1-0.1,0.2-0.1
		C-211.7,49.1-211.8,49-211.9,48.9"/>
	<path class="st24" d="M-212.9,43.4L-212.9,43.4c-0.2-0.1-0.4-0.1-0.6,0.1c0,0-0.1,0.1-0.1,0.2c0,0-0.1,0.2-0.2,0.3
		c-0.1,0.1-0.1,0.1-0.1,0.1l-0.7,0.1l0.1-0.1h0.2c0.1,0,0.2,0,0.3-0.2c0.1-0.1,0.4-0.6,0.4-0.6c0.2-0.4,0.8-0.4,1.3,0
		c0,0,0,1.9-1.5,1.3c-0.1-0.1-0.2-0.1-0.4-0.1l-0.6,0.1l0.1-0.2l0.7-0.1c0.1,0,0.1,0,0.1,0c0.5,0.2,1,0.2,1.1-0.6l0,0
		c0-0.1,0-0.2,0.1-0.2C-212.7,43.4-212.8,43.4-212.9,43.4"/>
</g>
<g>
	<ellipse class="st3" cx="-282.3" cy="234.2" rx="29.8" ry="6.9"/>
	<path class="st25" d="M-253.5,178.8l-10.4,52.9c0,2.6-11.1,4.7-24.7,4.7c-13.6,0-24.7-2.1-24.7-4.7l-10-52.9L-253.5,178.8
		L-253.5,178.8z"/>
	<path class="st26" d="M-328.2,179.7V162h79.3c0,0,0.1,11.5,0,17.8C-266,187.2-313.1,187.2-328.2,179.7z"/>
	<ellipse class="st27" cx="-288.5" cy="162" rx="39.7" ry="7.6"/>
	<ellipse class="st28" cx="-288.5" cy="161.6" rx="36.3" ry="5.9"/>
	<g class="st29">
		<line class="st5" x1="-314.5" y1="182.4" x2="-309.7" y2="229.2"/>
		<polygon class="st30" points="-311.8,182.1 -309.7,229.2 -317.2,182.6 		"/>
	</g>
	<g>
		<path class="st31" d="M-248.9,179.7c-17.1,7.5-64.2,7.5-79.3,0"/>
		<path class="st31" d="M-248.9,179.7c-6.2,2.6-12.9,3.8-19.6,4.6s-13.4,1.2-20.1,1.2c-6.7,0-13.4-0.3-20.1-1.1
			c-6.6-0.8-13.4-1.9-19.5-4.7c1.6,0.6,3.1,1.3,4.7,1.7l2.4,0.7l2.5,0.5c1.6,0.4,3.3,0.6,4.9,0.9c1.7,0.3,3.3,0.5,5,0.6
			c6.7,0.7,13.4,1,20.1,0.9c6.7,0,13.4-0.3,20.1-1.1c1.7-0.2,3.3-0.4,5-0.7c0.8-0.1,1.7-0.2,2.5-0.4l2.5-0.5
			C-255.2,181.9-252,180.9-248.9,179.7z"/>
	</g>
	<path class="st32" d="M-252.2,162.1c0,3-16.3,5.4-36.3,5.4s-36.3-2.4-36.3-5.4S-252.2,159.1-252.2,162.1z"/>
	<g>
		<g>
			<path class="st13" d="M-298.9,161.8c3.8-0.2,7.4-1.3,11.2-1.2c3.6,0.1,7.2,0,10.8,0c3.4,0,6.3,1.7,9.7,1.6
				c3.6,0,10.8-2.5,13.7,0.3c0.8,0.7,2-0.4,1.2-1.2c-2-1.9-4.7-1.6-7.4-1.4c-2.5,0.2-5,0.7-7.5,0.7c-2.8,0-4.7-1.1-7.3-1.6
				c-3.6-0.6-7.6,0.2-11.3,0.1c-4.6-0.2-8.6,0.8-13.1,1.1C-300,160.2-300,161.9-298.9,161.8L-298.9,161.8z"/>
		</g>
	</g>
	<path class="st33" d="M-283.5,208.8c0,2.2-1.8,3.9-4,3.8c-2.2,0-3.9-1.8-3.8-4"/>
	<g>
		<path class="st5" d="M-292.4,128.8c2.8-1.8,5.1-4.2,1.8-8.2c0-0.1-0.1-0.1-0.1-0.2c-0.3-0.4-0.8-1-0.9-1.6c0,0-0.5,0.6-1.3,1.2
			c-0.1,0-0.1,0.1-0.2,0.1c-1.2,0.9-2,1.8-1.5,3.4c0.1,0.2,0.2,0.7,0.6,1.7c0.1,0.4,0.6,1.6,0.8,2.4c0.3,0.8,0.1,0.9,0,1.1l-2.4,3.8
			c0.1,0.2,0.2,0.3,0.3,0.5l2.3-3.6C-292.7,129.1-292.5,128.9-292.4,128.8z"/>
		<path class="st5" d="M-301.9,103.6v4.8c0.3-1.3,0.6-2.6,1-3.8L-301.9,103.6z"/>
		<path class="st5" d="M-297.7,109.7c2.5,0,5-0.5,4.5-4.4c0-0.1,0-0.1,0-0.2c0-0.3-0.1-0.9,0.1-1.4c0,0-0.6,0.2-1.3,0.2
			c-0.1,0-0.1,0-0.2,0c-1.1,0.1-2,0.3-2.3,1.5c0,0.2-0.1,0.5-0.3,1.3c-0.1,0.3-0.3,1.2-0.5,1.8c-0.2,0.6-0.3,0.6-0.5,0.7l-3.3,1.5
			c0,0.1,0,0.3,0,0.4l3.1-1.4C-298,109.7-297.8,109.7-297.7,109.7z"/>
		<path class="st5" d="M-306.3,117.8c-0.2-0.8-0.5-2.1-0.5-2.5c-0.2-1.1-0.3-1.6-0.4-1.8c-0.4-1.7-1.6-2-3.1-2.2c-0.1,0-0.2,0-0.3,0
			c-0.9-0.1-1.7-0.4-1.7-0.4c0.3,0.6,0.2,1.4,0.1,1.8c0,0.1,0,0.1,0,0.2c-0.8,5.2,2.5,6,5.8,6.1c0.1,0,0.4,0.1,0.8,0.3l3.7,1.7
			c0-0.2-0.1-0.4-0.1-0.6l-3.8-1.9C-305.9,118.6-306.2,118.6-306.3,117.8z"/>
		<path class="st5" d="M-301.4,110.2l0.9-0.4c0.3-0.2,1-0.4,1.3-1.5c0.1-0.5,0.8-3.3,0.9-3.6c0.5-2.3,3.4-3.1,6.3-2.1
			c0,0,3.2,9.3-5.5,8.5c-0.7-0.1-1,0-1.8,0.3l-2.2,1c0,0.1,0,0.1,0,0.2h10.2v-10.4h-8.3c-0.9,2.7-1.5,5.5-1.8,8.3L-301.4,110.2z"/>
		<path class="st5" d="M-279.2,155.9c4.4-0.8,8.5-2.6,6.4-9.2c0-0.1-0.1-0.2-0.1-0.3c-0.1-0.6-0.4-1.6-0.2-2.4c0,0-1,0.5-2.1,0.8
			c-0.1,0-0.2,0-0.3,0.1c-1.9,0.5-3.4,1.1-3.6,3.5c0,0.3-0.1,0.9-0.1,2.4c0,0.5-0.1,2.2-0.2,3.4c-0.1,1.1-0.4,1.2-0.6,1.4l-3.9,2.7
			c0,0.3,0,0.5,0,0.8l3.7-2.5C-279.7,156.1-279.3,156-279.2,155.9z"/>
		<path class="st5" d="M-300.1,102.1h-0.7l0.5,0.5C-300.2,102.4-300.2,102.3-300.1,102.1z"/>
		<path class="st5" d="M-301.6,102.1l-1.4-1.4c-0.1-0.1-0.3-0.2-0.2-0.8c0.1-0.6,0.2-1.6,0.2-1.9c0.1-0.8,0.2-1.2,0.2-1.4
			c0.1-1.3-0.6-1.8-1.6-2.3c-0.1,0-0.1-0.1-0.2-0.1c-0.6-0.3-1.1-0.7-1.1-0.7c0,0.5-0.2,1-0.4,1.3c0,0.1-0.1,0.1-0.1,0.1
			c-1.8,3.5,0.2,4.9,2.6,5.8c0.1,0,0.3,0.1,0.5,0.4l1,1v-0.2h0.5V102.1z"/>
		<path class="st5" d="M-301.9,102.1v0.2l1.3,1.3c0-0.1,0.1-0.3,0.1-0.4l-1.1-1.1H-301.9z"/>
		<path class="st5" d="M-297.9,143.7c-0.6-1-1.5-2.4-1.8-2.8c-0.8-1.3-1.1-1.8-1.3-2.1c-1.3-1.9-2.9-1.8-4.8-1.3
			c-0.1,0-0.2,0.1-0.3,0.1c-1.2,0.3-2.3,0.3-2.3,0.3c0.6,0.7,0.8,1.7,1,2.2c0,0.1,0,0.2,0.1,0.3c1.4,6.8,5.8,6.4,10.1,4.9
			c0.1,0,0.5-0.1,1.2,0l5.5,0.5c-0.1-0.2-0.2-0.5-0.3-0.7l-5.7-0.6C-297,144.5-297.3,144.6-297.9,143.7z"/>
		<path class="st5" d="M-298.4,176.1c0.4-1.5,1.1-3.7,1.3-4.3c0.6-1.9,0.8-2.7,0.9-3.1c0.8-3-0.8-4.5-2.9-6
			c-0.1-0.1-0.3-0.2-0.4-0.2c-1.3-0.9-2.3-2-2.3-2c-0.1,1.2-1,2.3-1.4,2.9c-0.1,0.1-0.2,0.2-0.2,0.3c-5.6,7.4-1.3,11.5,3.9,14.5
			c0.1,0.1,0.6,0.4,1,1.2l3.3,4.6c0.1-0.3,0.2-0.7,0.4-1l-3.4-4.9C-298.5,177.7-298.8,177.5-298.4,176.1z"/>
		<path class="st5" d="M-284.2,162.8c-0.4,2.7-1,5.4-1.8,8c-0.9,3-2,5.8-3,8.7c-1,2.8-2.1,5.6-2.6,8.3c-0.3,1.3-0.4,2.7-0.3,3.8
			c0.1,1.2,0.5,2,1.1,2.7l3,3.5l1.9,2.4l0.7-0.9c0.5-0.7,1.6-1.9,1-4.7c-0.2-1.1-2-7.9-2.2-8.6c-1.5-5.5,3.7-10.2,10.8-11.6
			c0,0,17,15.8-2,24c-1.4,0.6-2.2,1.1-3.5,2.7l-2.1,2.7c3,4.2,5.8,8.6,8.2,13.2c1.5,2.7,2.8,5.5,4,8.4c0.3,0.7,0.6,1.4,0.9,2.2
			c0.3,0.7,0.6,1.5,0.8,2.2c0.3,0.7,0.5,1.5,0.8,2.2c0.3,0.8,0.5,1.5,0.7,2.4l-6.7,1.6c-0.1-0.6-0.3-1.3-0.5-2
			c-0.2-0.7-0.4-1.4-0.6-2.1c-0.2-0.7-0.4-1.4-0.7-2.1c-0.2-0.7-0.5-1.4-0.7-2.1c-1-2.7-2.2-5.4-3.4-8.1c-2.5-5.3-5.4-10.4-8.8-15.3
			l-2.6-3.6l-2.8-3.5c-0.3-0.4-0.6-0.8-0.9-1.3c-0.2-0.5-0.5-0.9-0.6-1.4l-0.2-0.7c-0.1-0.2-0.1-0.5-0.1-0.7s-0.1-0.5-0.1-0.7v-0.7
			c-0.1-1.9,0.2-3.6,0.6-5.1c0,0,0,0,0-0.1l-2.3-3.2c-1.3-1.6-2-2.2-3.4-2.9c-18.7-9-1-24.1-1-24.1c7.1,1.6,12,6.6,10.3,12
			c-0.2,0.7-2.2,7.4-2.5,8.5c-0.6,2.4,0.1,3.7,0.7,4.5c0.5-1.2,1-2.4,1.4-3.6c1.2-2.8,2.4-5.5,3.3-8.3c0.8-2.3,1.5-4.5,1.9-6.8h-3.6
			h3.6c0.1-0.5,0.2-1.1,0.3-1.6c0.2-1.4,0.3-2.8,0.2-4.2s-0.3-2.8-0.7-4.1c-0.5-1.8-1.3-3.5-2-5.2l-3.8-0.4
			c-1.5-0.1-2.2,0.1-3.3,0.5c-14.3,6.2-14.1-11.3-14.1-11.3c4.4-3.2,9.6-3.6,11.9,0.1c0.3,0.5,3.1,4.9,3.6,5.6
			c1.2,1.8,2.4,1.8,3.1,1.9l1,0.1c-1.3-2.4-2.6-4.9-4-7.3c-1.5-2.7-2.8-5.4-4-8.2c-0.8-1.9-1.4-3.9-2-5.8l-2.8-1.4
			c-1.1-0.5-1.6-0.5-2.5-0.5c-11.6,0.7-7-11.6-7-11.6c3.9-1.1,7.7,0,8.3,3.1c0.1,0.4,0.9,4.2,1.1,4.9c0.4,1.5,1.2,1.9,1.7,2.1
			l0.6,0.3c-0.6-3.7-0.5-7.6,0.2-11.3v-4.8l-0.6-0.7c-0.6-0.6-1-0.8-1.6-1c-8.4-2.5-2.1-9.9-2.1-9.9c3,0.2,5.5,1.9,5.1,4.3
			c0,0.3-0.4,3.2-0.5,3.7c-0.1,1.2,0.4,1.6,0.7,1.9l0.1,0.1h0.7c0-0.1,0.1-0.2,0.1-0.3l0,0l0,0c0.4-0.8,0.8-1.5,1.2-2.2h-0.1
			l1.6-2.8l0.1,0.3l0,0l-0.1-0.3l0.4-0.5c0.2-0.2,0.5-0.5,0.4-1.3c0-0.3-0.4-2.2-0.4-2.4c-0.3-1.6,1.2-2.8,3.2-3
			c0,0,4.4,4.7-1.1,6.6c-0.4,0.1-0.6,0.3-1,0.7l-1.2,1.4l-0.1-0.8l1.6-1.7c0.1-0.2,0.3-0.3,0.3-0.3c1.5-0.7,2.8-1.7,1.5-3.9
			c0,0,0-0.1-0.1-0.1c-0.1-0.2-0.3-0.5-0.3-0.9c0,0-0.3,0.3-0.7,0.5c0,0-0.1,0-0.1,0.1c-0.6,0.3-1.1,0.7-1,1.6
			c0,0.1,0.1,0.3,0.2,0.9c0,0.1,0.1,0.6,0.2,0.9l0.1-0.1c0,0.1-0.1,0.1-0.1,0.2c0,0.1,0,0.2,0,0.3c0.1,0.4,0,0.5-0.1,0.5l-1.6,1.8
			c-0.1,0.1-0.1,0.2-0.2,0.3l-0.6,1.1c-0.6,1.1-1.2,2.3-1.7,3.5c0,0.1,0,0.1-0.1,0.2h8.3v10.4h-10.2c-0.1,2.4,0.1,4.8,0.6,7.1
			c0.6,2.9,1.6,5.7,2.9,8.4c0.6,1.3,1.3,2.7,2,4l0.6-0.9c0.3-0.4,0.8-1.2,0.3-2.7c-0.2-0.6-1.5-4.3-1.6-4.7c-1.1-3,1.6-5.9,5.5-7
			c0,0,10.3,8,0.1,13.5c-0.8,0.4-1.2,0.7-1.8,1.7l-1.6,2.5c0.3,0.5,0.6,1,0.9,1.5c3.1,5.2,6.5,10.3,8.6,16.2c0.5,1.5,0.9,3.2,1,4.8
			c0,0.1,0,0.2,0,0.4l0.1-0.1c0.5-0.4,1.6-1,1.8-3.1c0.1-0.8,0.4-6.1,0.4-6.6c0.2-4.3,4.9-6.5,10.3-5.8c0,0,8.6,15.2-6.9,16.7
			c-1.2,0.1-1.8,0.3-3.1,1.1l-2.6,1.8c0,0.1,0,0.3,0,0.4C-284.1,162-284.2,162.4-284.2,162.8h16.5V89.5h-47v146.6h47v-73.3H-284.2z"
			/>
		<path class="st5" d="M-279.6,196c5.3-2.8,9.7-6.7,4.5-14.3c-0.1-0.1-0.2-0.2-0.2-0.3c-0.4-0.7-1.2-1.8-1.3-3c0,0-1,1-2.4,1.9
			c-0.1,0.1-0.3,0.1-0.4,0.2c-2.2,1.4-3.8,2.8-3.2,5.8c0.1,0.4,0.3,1.2,0.8,3.2c0.2,0.6,0.7,2.9,1.1,4.4c0.3,1.4,0,1.6-0.2,2
			l-4.2,5.4l0.1,0.2c0.1,0.2,0.3,0.4,0.4,0.6l3.8-4.9C-280.2,196.4-279.8,196.1-279.6,196z"/>
		<path class="st11" d="M-296.1,145.4c-0.6-0.1-1.1,0-1.2,0c-4.2,1.4-8.7,1.9-10.1-4.9c0-0.1,0-0.2-0.1-0.3c-0.2-0.6-0.4-1.6-1-2.2
			c0,0,1.1,0,2.3-0.3c0.1,0,0.2-0.1,0.3-0.1c1.9-0.5,3.5-0.6,4.8,1.3c0.2,0.2,0.5,0.8,1.3,2.1c0.3,0.4,1.2,1.9,1.8,2.8
			c0.6,0.9,0.9,0.8,1.2,0.9l5.7,0.6c-0.2-0.3-0.3-0.7-0.5-1l-1-0.1c-0.7-0.1-1.9-0.1-3.1-1.9c-0.5-0.7-3.3-5.1-3.6-5.6
			c-2.2-3.7-7.5-3.3-11.9-0.1c0,0-0.2,17.4,14.1,11.3c1.1-0.5,1.7-0.6,3.3-0.5l3.8,0.4c-0.3-0.6-0.5-1.2-0.8-1.8L-296.1,145.4z"/>
		<path class="st34" d="M-305.5,119.4c-0.4-0.2-0.7-0.3-0.8-0.3c-3.4-0.1-6.6-0.9-5.8-6.1c0-0.1,0-0.1,0-0.2c0-0.4,0.1-1.2-0.1-1.8
			c0,0,0.8,0.3,1.7,0.4c0.1,0,0.2,0,0.3,0c1.4,0.1,2.6,0.5,3.1,2.2c0.1,0.2,0.1,0.7,0.4,1.8c0.1,0.4,0.3,1.6,0.5,2.5
			c0.2,0.8,0.4,0.8,0.6,0.9l3.8,1.9c0-0.3-0.1-0.5-0.2-0.8v-0.1l-0.6-0.3c-0.4-0.2-1.3-0.6-1.7-2.1c-0.2-0.6-1-4.5-1.1-4.9
			c-0.6-3.1-4.4-4.2-8.3-3.1c0,0-4.6,12.2,7,11.6c0.9,0,1.4,0,2.5,0.5l2.8,1.4c-0.1-0.5-0.3-1.1-0.4-1.6L-305.5,119.4z"/>
		<path class="st10" d="M-293.2,128.8c0.1-0.2,0.3-0.3,0-1.1c-0.3-0.8-0.7-2-0.8-2.4c-0.4-1.1-0.5-1.5-0.6-1.7
			c-0.5-1.7,0.3-2.6,1.5-3.4c0.1-0.1,0.1-0.1,0.2-0.1c0.7-0.6,1.3-1.2,1.3-1.2c0.1,0.7,0.6,1.3,0.9,1.6c0,0.1,0.1,0.1,0.1,0.2
			c3.3,4,1,6.4-1.8,8.2c-0.1,0-0.3,0.3-0.6,0.7l-2.3,3.6c0.2,0.4,0.5,0.8,0.7,1.2l1.6-2.5c0.7-0.9,1.1-1.3,1.8-1.7
			c10.3-5.5-0.1-13.5-0.1-13.5c-3.9,1.1-6.6,4-5.5,7c0.1,0.4,1.5,4.1,1.6,4.7c0.5,1.5-0.1,2.2-0.3,2.7l-0.6,0.9
			c0.1,0.2,0.3,0.5,0.4,0.7L-293.2,128.8z"/>
		<path class="st11" d="M-299.3,111.3c0.8-0.3,1.2-0.4,1.8-0.3c8.7,0.8,5.5-8.5,5.5-8.5c-2.9-0.9-5.8-0.2-6.3,2.1
			c-0.1,0.3-0.8,3.2-0.9,3.6c-0.3,1.2-1,1.4-1.3,1.5l-0.9,0.4v0.2c0,0.2,0,0.3,0,0.5l3.3-1.5c0.2-0.1,0.3-0.1,0.5-0.7
			c0.2-0.6,0.4-1.6,0.5-1.8c0.2-0.8,0.3-1.2,0.3-1.3c0.4-1.3,1.3-1.5,2.3-1.5c0.1,0,0.1,0,0.2,0c0.7,0,1.3-0.2,1.3-0.2
			c-0.2,0.5-0.1,1-0.1,1.4c0,0.1,0,0.1,0,0.2c0.4,3.9-2,4.4-4.5,4.4c-0.1,0-0.3,0-0.6,0.2l-3.1,1.4c0,0.4,0,0.7-0.1,1.1
			L-299.3,111.3z"/>
		<path class="st10" d="M-302.9,101.3c-0.2-0.3-0.5-0.4-0.5-0.4c-2.4-0.9-4.4-2.3-2.6-5.8l0.1-0.1c0.1-0.3,0.4-0.8,0.4-1.3
			c0,0,0.5,0.4,1.1,0.7c0.1,0,0.1,0,0.2,0.1c1,0.5,1.7,1,1.6,2.3c0,0.2-0.1,0.5-0.2,1.4c0,0.3-0.2,1.2-0.2,1.9
			c-0.1,0.6,0.1,0.7,0.2,0.8l1.4,1.4h0.8l-0.1-0.1c-0.3-0.3-0.8-0.7-0.7-1.9c0-0.5,0.4-3.4,0.5-3.7c0.3-2.4-2.1-4.1-5.1-4.3
			c0,0-6.3,7.5,2.1,9.9c0.6,0.2,1,0.4,1.6,1l0.6,0.7v-1.3L-302.9,101.3z"/>
		<path class="st10" d="M-300.5,103.2c0.1-0.2,0.1-0.4,0.2-0.6l-0.5-0.5h-0.8L-300.5,103.2z"/>
		<path class="st10" d="M-300.6,103.6l-1.3-1.3v1.3l1,1C-300.8,104.3-300.7,103.9-300.6,103.6z"/>
		<path class="st34" d="M-295.6,93.5c-0.1-0.6-0.1-0.8-0.2-0.9c-0.1-0.9,0.4-1.2,1-1.6c0,0,0.1,0,0.1-0.1c0.4-0.2,0.7-0.5,0.7-0.5
			c0,0.3,0.2,0.7,0.3,0.9c0,0,0,0.1,0.1,0.1c1.3,2.2,0,3.2-1.5,3.9c0,0-0.2,0.1-0.3,0.3l-1.6,1.7c0,0,0.1,0.7,0.1,0.8l1.2-1.4
			c0.4-0.4,0.6-0.5,1-0.7c5.5-1.9,1.1-6.6,1.1-6.6c-2,0.2-3.5,1.4-3.2,3c0,0.2,0.4,2.1,0.4,2.4c0.1,0.8-0.2,1.1-0.4,1.3l-0.4,0.5
			l0.1,0.3c0.5-0.8,1.1-1.7,1.7-2.5C-295.5,94.1-295.6,93.7-295.6,93.5z"/>
		<path class="st34" d="M-295.5,95.3c0.1-0.1,0.2-0.1,0.1-0.5c0-0.1,0-0.2,0-0.3c-0.6,0.8-1.1,1.7-1.6,2.6L-295.5,95.3z"/>
		<path class="st34" d="M-297.2,96.7l-1.6,2.8h0.1c0.5-0.9,1-1.7,1.6-2.6L-297.2,96.7z"/>
		<path class="st35" d="M-297.3,97.4c-0.2,0.4-0.4,0.7-0.6,1.1L-297.3,97.4z"/>
		<path class="st34" d="M-284,161.2l-1.5,1.1c0-0.1,0.1-2.1,0.1-2.1l1.5-1c0-0.3,0-0.5,0-0.8l-1.5,1v-1.2l1.4-1c0-0.1,0-0.2,0-0.4
			c-0.2-1.6-0.5-3.2-1-4.8c-2.1-5.9-5.6-11-8.6-16.2c-0.3-0.5-0.6-1-0.9-1.5l-0.5,0.7c0-0.1-0.5-1.5-0.5-1.5l0.3-0.4
			c-0.1-0.2-0.2-0.3-0.3-0.5l-0.2,0.3l-0.3-0.8l0.1-0.2c-0.7-1.3-1.4-2.6-2-4c-1.2-2.7-2.3-5.5-2.9-8.4c-0.5-2.3-0.7-4.7-0.6-7.1
			h-0.4l0,0l0,0v-4c-0.7,3.7-0.8,7.5-0.2,11.3l0.6,0.3l0.2,0.9l-0.6-0.3c0,0.2,0.1,0.4,0.1,0.6l0.6,0.3c0,0,0.3,1.5,0.3,1.6
			l-0.6-0.3c0.5,2,1.2,3.9,2,5.8c1.2,2.8,2.6,5.6,4,8.2c1.3,2.5,2.7,4.9,4,7.3l0.7,0.1l0.6,1l-0.8-0.1c0.1,0.2,0.2,0.5,0.3,0.7
			l0.9,0.1c0,0,1.1,1.7,1.1,1.8l-1.2-0.1c0.8,1.7,1.5,3.5,2,5.2c0.4,1.3,0.6,2.7,0.7,4.1c0,1.4,0,2.8-0.2,4.2
			c-0.1,0.5-0.2,1.1-0.3,1.6h3.3c0.1-0.4,0.1-0.8,0.2-1.2C-284,161.4-284,161.3-284,161.2z"/>
		<path class="st35" d="M-297.3,97.4c0.1-0.1,0.1-0.2,0.2-0.3l0,0v-0.2l0,0v0.2L-297.3,97.4z"/>
		<path class="st35" d="M-299.6,101.9L-299.6,101.9L-299.6,101.9z"/>
		<path class="st34" d="M-301.9,112.5h0.4c0-0.1,0-0.1,0-0.2L-301.9,112.5z"/>
		<path class="st34" d="M-299.6,101.9L-299.6,101.9L-299.6,101.9L-299.6,101.9c0.5-1.2,1.1-2.3,1.7-3.5l-0.6,1.1h-0.2
			c-0.4,0.7-0.9,1.5-1.2,2.2l0,0l0,0c0,0.1-0.1,0.2-0.1,0.3h0.4C-299.6,102-299.6,102-299.6,101.9z"/>
		<path class="st35" d="M-295.4,94.3l-0.1,0.1l0,0C-295.4,94.4-295.4,94.4-295.4,94.3z"/>
		<path class="st34" d="M-301.9,112.5c0-0.1,0.3-1.2,0.3-1.2l0.1-0.1c0-0.1,0-0.3,0-0.4h-0.1l0.1-0.5c0.3-2.8,0.9-5.6,1.8-8.3h-0.4
			c-0.1,0.2-0.1,0.4-0.2,0.5l0.1,0.1l-0.1,0.7l-0.1-0.2c0,0.1-0.1,0.3-0.1,0.4l0.2,0.2c0,0-0.1,1.1-0.2,1.2l-0.4-0.4
			c-0.4,1.3-0.7,2.5-1,3.8L-301.9,112.5L-301.9,112.5z"/>
		<path class="st34" d="M-285.4,159.3l1.5-1c0-0.4,0-0.8,0-1.1l-1.4,1L-285.4,159.3z"/>
		<path class="st34" d="M-283.9,159.1l-1.5,1c0,0-0.1,2-0.1,2.1l1.5-1.1C-284,160.5-283.9,159.8-283.9,159.1z"/>
		<path class="st34" d="M-289.8,145.9l-0.9-0.1c0.3,0.6,0.6,1.2,0.8,1.8l1.2,0.1L-289.8,145.9z"/>
		<path class="st34" d="M-290.2,145.2l-0.6-1l-0.7-0.1c0.2,0.3,0.4,0.7,0.5,1L-290.2,145.2z"/>
		<path class="st34" d="M-301.2,121.4l-0.6-0.3c0.1,0.5,0.2,1.1,0.4,1.6l0.6,0.3C-300.9,122.9-301.2,121.4-301.2,121.4z"/>
		<path class="st34" d="M-301.9,120.6l0.6,0.3l-0.2-0.9l-0.6-0.3v0.1C-302.1,120-302,120.3-301.9,120.6z"/>
		<path class="st34" d="M-295.6,133.5l0.5,1.5l0.4-0.7c-0.2-0.4-0.5-0.8-0.7-1.2L-295.6,133.5z"/>
		<path class="st34" d="M-295.8,132.9l0.2-0.3c-0.1-0.2-0.3-0.5-0.4-0.7l-0.1,0.2L-295.8,132.9z"/>
		<path class="st34" d="M-301.5,110.8L-301.5,110.8c0.1-0.2,0.1-0.3,0.1-0.5L-301.5,110.8z"/>
		<path class="st34" d="M-301.5,111.2l-0.1,0.1c0,0-0.3,1.1-0.3,1.2l0,0l0.4-0.2C-301.5,111.9-301.5,111.6-301.5,111.2z"/>
		<path class="st34" d="M-300.3,103.3l0.1-0.7l-0.1-0.1c-0.1,0.2-0.1,0.4-0.2,0.6L-300.3,103.3z"/>
		<path class="st34" d="M-300.6,105c0-0.1,0.2-1.2,0.2-1.2l-0.2-0.2c-0.1,0.3-0.2,0.7-0.3,1L-300.6,105z"/>
		<path class="st34" d="M-297.1,97.1c0.5-0.9,1-1.8,1.6-2.6l0,0c-0.6,0.8-1.2,1.6-1.7,2.5L-297.1,97.1L-297.1,97.1z"/>
		<path class="st34" d="M-297.9,98.4c0.2-0.4,0.4-0.7,0.6-1.1l0.1-0.2v-0.2c-0.6,0.8-1.1,1.7-1.6,2.6h0.2L-297.9,98.4z"/>
	</g>
	<g>
		<circle cx="-296.1" cy="200.7" r="4.8"/>
		<circle class="st21" cx="-293.7" cy="201" r="1.5"/>
		<circle cx="-278.6" cy="200.7" r="4.8"/>
		<circle class="st21" cx="-276.2" cy="200.7" r="1.5"/>
	</g>
</g>
</svg>
