<?xml version="1.0" encoding="utf-8"?>
<!-- Generator: Adobe Illustrator 22.1.0, SVG Export Plug-In . SVG Version: 6.00 Build 0)  -->
<svg version="1.1" id="Layer_1" xmlns="http://www.w3.org/2000/svg" xmlns:xlink="http://www.w3.org/1999/xlink" x="0px" y="0px"
	 viewBox="0 0 449 449" style="enable-background:new 0 0 449 449;" xml:space="preserve">
<style type="text/css">
	.st0{fill:#075173;}
	.st1{opacity:0.2;fill:#FFFFFF;enable-background:new    ;}
	.st2{fill:none;stroke:#075173;stroke-width:18;stroke-miterlimit:10;}
	.st3{opacity:0.32;enable-background:new    ;}
	.st4{fill:#B9161C;stroke:#B9161C;stroke-width:0.68;stroke-miterlimit:10;}
	.st5{opacity:0.48;}
	.st6{fill:none;}
	.st7{fill:#E9818C;}
	.st8{fill:#DD323E;stroke:#DD323E;stroke-width:0.68;stroke-miterlimit:10;}
	.st9{fill:#E9818C;stroke:#E9818C;stroke-width:0.68;stroke-miterlimit:10;}
	.st10{fill:#B9161C;stroke:#B9161C;stroke-width:0.6376;stroke-miterlimit:10;}
	.st11{fill:#B9161C;}
	.st12{fill:#F6D807;}
	.st13{fill:#3B2314;stroke:#3B2314;stroke-width:0.6099;stroke-miterlimit:10;}
	.st14{fill:#3B2314;}
	.st15{fill:none;stroke:#075173;stroke-width:6.7975;stroke-miterlimit:10;}
	.st16{fill:#C9B30C;}
	.st17{fill:#5A5054;}
	.st18{opacity:0.29;fill:#FFFFFF;enable-background:new    ;}
	.st19{fill:#5A5054;stroke:#5A5054;stroke-width:2.9887;stroke-linecap:round;stroke-miterlimit:10;}
	.st20{fill:#3F373B;}
	.st21{fill:none;stroke:#FFFFFF;stroke-width:3.4315;stroke-miterlimit:10;}
	.st22{fill:#FFFFFF;}
	.st23{fill:#B9161C;stroke:#B9161C;stroke-width:0.7525;stroke-miterlimit:10;}
	.st24{opacity:0.3;fill:#FFFFFF;enable-background:new    ;}
	.st25{fill:#7C6E73;}
	.st26{fill:#CAD053;stroke:#DDE35A;stroke-width:0.4788;stroke-miterlimit:10;}
	.st27{fill:#DDE35A;stroke:#DDE35A;stroke-width:0.4788;stroke-miterlimit:10;}
	.st28{fill:#D8E7A7;stroke:#D8E7A7;stroke-width:0.4788;stroke-miterlimit:10;}
	.st29{fill:#CAD053;stroke:#CAD053;stroke-width:0.4788;stroke-miterlimit:10;}
	.st30{opacity:0.5;}
	.st31{fill:#D8E7A7;}
	.st32{fill:#DDE35A;}
	.st33{fill:#3B2314;stroke:#3B2314;stroke-width:0.4294;stroke-miterlimit:10;}
	.st34{stroke:#000000;stroke-width:1.8794;stroke-miterlimit:10;}
	.st35{fill:#378DCC;}
</style>
<title>colour-2</title>
<rect class="st0" width="449" height="449"/>
<rect x="224.5" class="st1" width="224.5" height="449"/>
<circle class="st2" cx="-210" cy="131.8" r="168.5"/>
<g>
	<ellipse class="st3" cx="-178.4" cy="223.8" rx="41.5" ry="8.5"/>
	<path class="st4" d="M-135,145.7l-14.7,75.2c0,3.7-15.7,6.7-35.1,6.7s-35.1-3-35.1-6.7l-14.1-75.2L-135,145.7L-135,145.7z"/>
	<g class="st5">
		<line class="st6" x1="-221.7" y1="148.1" x2="-214.9" y2="214.6"/>
		<polygon class="st7" points="-219.3,147.9 -214.9,214.6 -224.1,148.4 		"/>
	</g>
	<path class="st8" d="M-241.1,147v-25.2h112.6c0,0,0.1,16.4,0,25.2C-152.8,157.6-219.7,157.6-241.1,147z"/>
	<ellipse class="st9" cx="-184.8" cy="121.8" rx="56.3" ry="10.8"/>
	<ellipse class="st10" cx="-184.8" cy="121.3" rx="51.6" ry="8.4"/>
	<path class="st11" d="M-164,83.3c-0.1,0-0.2,0-0.4,0.1c-2.2,0.4-3.9,1.1-4.3,3.7c-0.1,0.3-0.1,1-0.3,2.8c-0.1,0.6-0.3,2.5-0.5,3.8
		c-0.2,1.2-0.5,1.3-0.8,1.5l-6.4,3.9l0.1-1.4l1.7-1c0.6-0.4,1.9-1,2.2-3.4c0.1-1,0.8-6.9,0.9-7.5c0.5-4.8,6.1-7,12.1-5.9
		c0,0,8.8,17.8-8.9,18.5c-1.3,0.1-2.1,0.3-3.6,1.1l-4.9,3c0-0.1,0.3-2.4,0.3-2.4l6.2-3.7c0.6-0.4,1.1-0.6,1.2-0.6
		c5.1-0.6,9.8-2.4,7.9-10c0-0.1-0.1-0.2-0.1-0.3c-0.1-0.7-0.4-1.8-0.1-2.8C-161.5,82.5-162.7,83-164,83.3"/>
	<path class="st12" d="M-192.8,96.3c0.1,0,0.2,0,0.3,0c1.8,0,3.3,0.2,4,2.3c0.1,0.3,0.3,0.8,0.7,2.1c0.1,0.4,0.6,2,1,3
		c0.3,1,0.6,1,0.9,1.1l5.7,2.1l-0.3-1.1l-1.5-0.6c-0.6-0.2-1.7-0.5-2.3-2.4c-0.3-0.7-1.7-5.3-1.9-5.8c-1.2-3.8-6-4.6-10.6-2.8
		c0,0-4.2,15.6,10.1,13.3c1.1-0.2,1.7-0.1,3.1,0.3l4.4,1.6c0-0.1-0.6-1.9-0.6-1.9l-5.5-2c-0.6-0.3-1-0.3-1.1-0.3
		c-4.1,0.3-8.2-0.3-7.9-6.7c0-0.1,0-0.2,0-0.3c0-0.5,0-1.5-0.4-2.2C-194.9,96.1-193.9,96.3-192.8,96.3"/>
	<g>
		<path class="st13" d="M-133.3,122c0,4.3-23.1,7.7-51.6,7.7s-51.6-3.4-51.6-7.7S-133.3,117.8-133.3,122z"/>
		<g>
			<path class="st14" d="M-235,121.3c4.9,0.6,9.8-2.5,14.7-1.9c1.7,0.2,3.4,0.9,5.1,0.8c2-0.1,3.9-1.1,5.9-1.3
				c3.3-0.3,6.5,1.6,9.8,1.5c2.8-0.1,5.4-1.6,8.1-2.2c5.2-1.2,10.5,0.9,15.8,1c2.8,0.1,5.6-0.4,8.4-0.6c3.3-0.2,6.7,0,10,0.2
				c6.2,0.4,12.4,0.8,18.6,1.1c1.6,0.1,3.5,0.4,4.3,1.8"/>
			<g>
				<path class="st14" d="M-235,122.4c4.1,0.2,7.6-1.4,11.6-1.8c4-0.4,7.5,0.7,11.5,0.1c2.5-0.4,4.6-0.5,7.2,0
					c1.8,0.3,3.4,0.9,5.2,0.9c4-0.1,7.5-2.5,11.6-2.6c4.2-0.1,8.2,1.3,12.4,1.4c3.9,0.1,7.8-0.7,11.7-0.7c4.1,0,8.2,0.4,12.3,0.6
					c3.9,0.2,13.7-0.8,16.5,2.2c1,1.1,2.7-0.5,1.7-1.7c-1.9-2.1-4.3-2.1-7-2.2c-4.9-0.3-9.9-0.6-14.9-0.9c-4.5-0.3-9-0.5-13.6-0.2
					c-5.3,0.4-10,0-15.3-0.6c-4-0.5-7,0-10.8,1.1c-3.4,1-5.6,1-9.1,0.4c-1.8-0.3-3.4-0.8-5.2-0.7c-2,0.2-3.9,1.2-5.9,1.3
					c-2.2,0.1-4.5-0.9-6.7-0.9c-4.5,0-8.5,2.2-13.1,2C-236.6,120-236.6,122.4-235,122.4L-235,122.4z"/>
			</g>
		</g>
		<g>
			<path class="st14" d="M-235.4,121.8c-0.2,0.1-0.5,0.1-0.6-0.1s0.1-0.5,0.3-0.4"/>
			<g>
				<path class="st14" d="M-235.7,120.7C-235.6,120.7-235.6,120.7-235.7,120.7c0.1,0,0.3,0.1,0.5,0.2c0,0,0,0,0,0.1
					c0.1,0.2,0.2,0.3,0.3,0.5v0.1c-0.1,0.2-0.1,0.4-0.2,0.6c-0.1,0.1-0.2,0.1-0.2,0.2c-0.3,0-0.6,0.1-0.9,0.1h0.1
					c0.6,0.1,1.3-0.2,1.5-0.8s-0.2-1.4-0.8-1.5c-0.5-0.1-0.9,0-1.3,0.3c-0.3,0.3-0.5,0.8-0.4,1.3c0.1,1,1.2,1.5,2.1,1.2
					c0.6-0.2,1-0.8,0.8-1.5C-234.4,120.9-235.1,120.5-235.7,120.7L-235.7,120.7z"/>
			</g>
		</g>
	</g>
	<path class="st15" d="M-187.5,51.6c0,0,14.3,61,6.7,74.2"/>
	<path class="st16" d="M-186.2,40.2c0,0,9.6-16,37.4,6.2C-182.3,58.4-186.2,40.2-186.2,40.2z"/>
	<path class="st16" d="M-187,35.9c0,0-2.9-18.4,32.6-19.3C-172.3,47.3-187,35.9-187,35.9z"/>
	<path class="st16" d="M-190.4,33.1c0,0-14-12.2,12.6-35.8C-171.8,32.4-190.4,33.1-190.4,33.1z"/>
	<path class="st16" d="M-194.7,33.2c0,0-18.6-0.3-13.3-35.5C-180.9,20.6-194.7,33.2-194.7,33.2z"/>
	<path class="st16" d="M-198,36c0,0-14.5,11.7-33-18.6C-195.5,17.5-198,36-198,36z"/>
	<path class="st16" d="M-198.7,40.3c0,0-3.6,18.3-37.3,7C-208.7,24.5-198.7,40.3-198.7,40.3z"/>
	<path class="st16" d="M-196.5,44c0,0,9,16.3-24.1,29.3C-214.3,38.3-196.5,44-196.5,44z"/>
	<path class="st16" d="M-188.4,43.9c0,0,17.6-6.1,24.7,28.8C-197,60.4-188.4,43.9-188.4,43.9z"/>
	<path class="st16" d="M-192.4,45.5c0,0,17.4,6.7,0.4,37.9C-209.7,52.5-192.4,45.5-192.4,45.5z"/>
	<g>
		<path class="st12" d="M-187,42.2c0,0,14.5-11.7,33,18.6C-189.5,60.7-187,42.2-187,42.2z"/>
		<path class="st12" d="M-186.3,37.9c0,0,3.6-18.3,37.3-7C-176.3,53.7-186.3,37.9-186.3,37.9z"/>
		<path class="st12" d="M-188.5,34.2c0,0-9-16.3,24.1-29.3C-170.7,39.9-188.5,34.2-188.5,34.2z"/>
		<path class="st12" d="M-192.6,32.8c0,0-17.4-6.7-0.4-37.9C-175.3,25.7-192.6,32.8-192.6,32.8z"/>
		<path class="st12" d="M-196.6,34.3c0,0-17.6,6.1-24.7-28.8C-188,17.8-196.6,34.3-196.6,34.3z"/>
		<path class="st12" d="M-198.8,38.1c0,0-9.6,16-37.4-6.2C-202.7,19.9-198.8,38.1-198.8,38.1z"/>
		<path class="st12" d="M-198,42.3c0,0,2.9,18.4-32.6,19.3C-212.7,30.9-198,42.3-198,42.3z"/>
		<path class="st12" d="M-194.6,45.1c0,0,14,12.2-12.6,35.8C-213.2,45.8-194.6,45.1-194.6,45.1z"/>
		<path class="st12" d="M-190.3,45.1c0,0,18.6,0.3,13.3,35.5C-204,57.6-190.3,45.1-190.3,45.1z"/>
	</g>
	<path class="st17" d="M-233.5,67.6L-233.5,67.6L-233.5,67.6C-233.5,67.5-233.5,67.6-233.5,67.6z"/>
	<path class="st17" d="M-233.5,67.5L-233.5,67.5L-233.5,67.5L-233.5,67.5z"/>
	<g>
		<path class="st18" d="M-197.1,26.2c0,0-12.8,2.3-7.6-16.4C-187.1,17.9-197.1,26.2-197.1,26.2z"/>
		<path class="st18" d="M-204.3,32.1c0,0-8.3,10-16.4-7.6C-202,19.4-204.3,32.1-204.3,32.1z"/>
		<path class="st18" d="M-206.1,41.3c0,0,0.1,13-17.5,4.7C-212.5,30-206.1,41.3-206.1,41.3z"/>
		<path class="st18" d="M-201.5,49.5c0,0,8.4,9.9-10.4,14.8C-213.6,45-201.5,49.5-201.5,49.5z"/>
		<path class="st18" d="M-192.7,52.8c0,0,12.8,2.2,1.6,18C-204.9,57.2-192.7,52.8-192.7,52.8z"/>
		<path class="st18" d="M-183.9,49.7c0,0,11.2-6.6,12.8,12.8C-190.4,60.9-183.9,49.7-183.9,49.7z"/>
		<path class="st18" d="M-179.1,41.6c0,0,4.4-12.2,18,1.6C-176.9,54.4-179.1,41.6-179.1,41.6z"/>
		<path class="st18" d="M-180.6,32.4c0,0-4.5-12.2,14.8-10.4C-170.7,40.8-180.6,32.4-180.6,32.4z"/>
		<path class="st18" d="M-187.7,26.3c0,0-11.3-6.4,4.7-17.5C-174.8,26.4-187.7,26.3-187.7,26.3z"/>
	</g>
	<g>
		<circle class="st19" cx="-192.5" cy="39.1" r="16.8"/>
		<circle class="st20" cx="-192.5" cy="39.1" r="14.9"/>
		<circle class="st19" cx="-192.5" cy="39.1" r="8.3"/>
	</g>
	<g>
		<path class="st21" d="M-169.8,178.3c-0.1,4-3.3,7.1-7.3,7s-7.1-3.3-7-7.3"/>
		<g>
			<g>
				<circle class="st22" cx="-192.6" cy="166.7" r="8.7"/>
				<circle class="st23" cx="-195.5" cy="165.1" r="2.2"/>
			</g>
			
				<ellipse transform="matrix(2.049367e-02 -0.9998 0.9998 2.049367e-02 -364.026 -19.81)" class="st24" cx="-192.1" cy="175.9" rx="3.5" ry="5.8"/>
		</g>
		<g>
			<g>
				<circle class="st22" cx="-162.5" cy="166.9" r="8.7"/>
				<circle class="st23" cx="-165.4" cy="165.2" r="2.2"/>
			</g>
			
				<ellipse transform="matrix(2.049367e-02 -0.9998 0.9998 2.049367e-02 -334.7933 10.4216)" class="st24" cx="-162.1" cy="176.1" rx="3.5" ry="5.8"/>
		</g>
	</g>
	<path class="st25" d="M-189.8,31.1L-189.8,31.1c-0.2,0.1-0.4,0.2-0.3,0.5c0,0,0,0.1,0,0.3c0,0.1,0,0.2,0.1,0.4c0,0.1,0,0.1,0,0.2
		l-0.5,0.5v-0.1l0.1-0.1c0-0.1,0.2-0.1,0.1-0.4c0-0.1-0.1-0.7-0.1-0.7c-0.1-0.5,0.4-0.8,1-0.9c0,0,1.3,1.5-0.4,2
		c-0.1,0-0.2,0.1-0.3,0.2l-0.4,0.4v-0.2l0.5-0.5c0-0.1,0.1-0.1,0.1-0.1c0.5-0.2,0.9-0.5,0.5-1.1l0,0c0-0.1-0.1-0.2-0.1-0.3
		C-189.5,31-189.6,31.1-189.8,31.1"/>
	<path class="st25" d="M-195.4,31.2L-195.4,31.2c-0.1,0.2-0.1,0.4,0,0.6c0,0,0.1,0.1,0.2,0.2c0,0,0.2,0.2,0.3,0.2
		c0.1,0.1,0.1,0.1,0.1,0.1V33l-0.1-0.1v-0.2c0-0.1,0-0.2-0.1-0.4c-0.1-0.1-0.5-0.4-0.5-0.5c-0.4-0.3-0.2-0.9,0.2-1.3
		c0,0,1.9,0.3,1,1.7c-0.1,0.1-0.1,0.2-0.1,0.3v0.6l-0.2-0.2l0.1-0.7c0-0.1,0-0.1,0-0.1c0.2-0.4,0.4-0.9-0.4-1.2l0,0
		c-0.1,0-0.2-0.1-0.2-0.1C-195.3,30.9-195.3,31.1-195.4,31.2"/>
	<path class="st25" d="M-199.6,34.8C-199.6,34.8-199.6,34.9-199.6,34.8c0.1,0.2,0.1,0.4,0.4,0.4c0,0,0.1,0,0.3,0c0.1,0,0.2,0,0.4,0
		c0.1,0,0.1,0,0.2,0.1l0.4,0.6h-0.1l-0.1-0.2c0-0.1-0.1-0.2-0.3-0.2c-0.1,0-0.7,0-0.7,0c-0.5,0-0.7-0.5-0.7-1.1c0,0,1.7-1,1.9,0.7
		c0,0.1,0,0.2,0.1,0.3l0.3,0.4h-0.2l-0.4-0.6c0-0.1-0.1-0.1-0.1-0.1c-0.1-0.5-0.3-0.9-1-0.7l0,0c-0.1,0-0.2,0.1-0.3,0
		C-199.7,34.6-199.7,34.7-199.6,34.8"/>
	<path class="st25" d="M-200.6,40.4C-200.5,40.4-200.5,40.4-200.6,40.4c0.2,0.1,0.4,0.2,0.6,0.1c0,0,0.1-0.1,0.2-0.2
		c0,0,0.2-0.2,0.3-0.2c0.1-0.1,0.1-0.1,0.2,0l0.7,0.2l-0.1,0.1h-0.2c-0.1,0-0.2-0.1-0.4,0.1c-0.1,0.1-0.5,0.4-0.6,0.5
		c-0.4,0.3-0.9,0.1-1.2-0.4c0,0,0.6-1.8,1.9-0.7c0.1,0.1,0.2,0.1,0.3,0.2l0.5,0.1l-0.2,0.1l-0.7-0.2c-0.1,0-0.1,0-0.1,0
		c-0.4-0.3-0.8-0.5-1.2,0.1l0,0c0,0.1-0.1,0.2-0.2,0.2C-200.8,40.3-200.7,40.3-200.6,40.4"/>
	<path class="st25" d="M-197.7,45.2L-197.7,45.2c0.2,0,0.4-0.1,0.5-0.3c0,0,0-0.1,0.1-0.3c0-0.1,0-0.2,0.1-0.4
		c0-0.1,0.1-0.1,0.1-0.1l0.6-0.3v0.1l-0.2,0.1c-0.1,0-0.2,0.1-0.2,0.3c0,0.1-0.1,0.7-0.2,0.7c-0.1,0.5-0.6,0.6-1.2,0.5
		c0,0-0.7-1.8,1-1.7c0.1,0,0.2,0,0.4-0.1l0.5-0.2v0.2l-0.6,0.3c-0.1,0-0.1,0-0.1,0c-0.5,0-1,0.1-0.9,0.9l0,0
		C-197.8,45-197.8,45.1-197.7,45.2C-197.9,45.3-197.8,45.2-197.7,45.2"/>
	<path class="st25" d="M-192.4,47.1L-192.4,47.1c0.2-0.2,0.3-0.3,0.2-0.6c0,0,0-0.1-0.1-0.2c0,0-0.1-0.2-0.2-0.3
		c-0.1-0.1,0-0.1,0-0.2l0.3-0.7l0.1,0.1l-0.1,0.2c0,0.1-0.1,0.2,0,0.4c0,0.1,0.3,0.6,0.3,0.6c0.2,0.4-0.1,0.9-0.6,1.1
		c0,0-1.7-0.9-0.3-2c0.1-0.1,0.2-0.1,0.2-0.3l0.2-0.5l0.1,0.2l-0.3,0.6c0,0.1-0.1,0.1-0.1,0.1c-0.4,0.3-0.7,0.7-0.1,1.2l0,0
		c0,0,0.1,0.1,0.2,0.2C-192.5,47.3-192.5,47.2-192.4,47.1"/>
	<path class="st25" d="M-187.1,45.1L-187.1,45.1c0-0.2,0-0.4-0.2-0.5c0,0-0.1,0-0.2-0.1c-0.1,0-0.2-0.1-0.3-0.1s-0.1-0.1-0.1-0.1
		l-0.2-0.7h0.1l0.1,0.2c0,0.1,0,0.2,0.3,0.3c0.1,0,0.6,0.3,0.7,0.3c0.4,0.2,0.5,0.7,0.2,1.3c0,0-1.9,0.4-1.5-1.3c0-0.1,0-0.2,0-0.4
		l-0.2-0.5l0.2,0.1l0.2,0.7c0,0.1,0,0.1,0,0.1c-0.1,0.5,0,1,0.7,1l0,0c0.1,0,0.2,0,0.3,0.1C-187.1,45.4-187.1,45.2-187.1,45.1"/>
	<path class="st25" d="M-184.4,40.2L-184.4,40.2c-0.1-0.2-0.3-0.3-0.5-0.3c0,0-0.1,0-0.3,0.1c-0.1,0-0.2,0.1-0.4,0.1
		c-0.1,0-0.1,0-0.2,0l-0.6-0.4h0.1l0.2,0.1c0.1,0,0.2,0.1,0.4,0.1c0.1,0,0.6-0.2,0.7-0.2c0.4-0.2,0.9,0.2,1,0.8c0,0-1.2,1.5-2,0
		c-0.1-0.1-0.1-0.2-0.2-0.3l-0.5-0.3l0.2-0.1l0.6,0.4c0.1,0,0.1,0.1,0.1,0.1c0.3,0.4,0.6,0.8,1.2,0.3l0,0c0.1,0,0.1-0.1,0.2-0.1
		C-184.2,40.4-184.3,40.3-184.4,40.2"/>
	<path class="st25" d="M-185.4,34.7L-185.4,34.7c-0.2-0.1-0.4-0.1-0.6,0.1c0,0-0.1,0.1-0.1,0.2c0,0-0.1,0.2-0.2,0.3
		c-0.1,0.1-0.1,0.1-0.1,0.1l-0.7,0.1l0.1-0.1h0.2c0.1,0,0.2,0,0.3-0.2c0.1-0.1,0.4-0.6,0.4-0.6c0.2-0.4,0.8-0.4,1.3,0
		c0,0,0,1.9-1.5,1.3c-0.1-0.1-0.2-0.1-0.4-0.1l-0.6,0.1l0.1-0.2l0.7-0.1c0.1,0,0.1,0,0.1,0c0.5,0.2,1,0.2,1.1-0.6l0,0
		c0-0.1,0-0.2,0.1-0.2C-185.2,34.7-185.3,34.7-185.4,34.7"/>
</g>
<g>
	<ellipse class="st3" cx="-254.8" cy="225.5" rx="29.8" ry="6.9"/>
	<path class="st26" d="M-226,170.1l-10.4,52.9c0,2.6-11.1,4.7-24.7,4.7c-13.6,0-24.7-2.1-24.7-4.7l-10-52.9L-226,170.1L-226,170.1z"
		/>
	<path class="st27" d="M-300.7,171v-17.7h79.3c0,0,0.1,11.5,0,17.8C-238.5,178.5-285.6,178.5-300.7,171z"/>
	<ellipse class="st28" cx="-261" cy="153.3" rx="39.7" ry="7.6"/>
	<ellipse class="st29" cx="-261" cy="152.9" rx="36.3" ry="5.9"/>
	<g class="st30">
		<line class="st6" x1="-287" y1="173.7" x2="-282.2" y2="220.5"/>
		<polygon class="st31" points="-284.3,173.4 -282.2,220.5 -289.7,173.9 		"/>
	</g>
	<g>
		<path class="st32" d="M-221.4,171c-17.1,7.5-64.2,7.5-79.3,0"/>
		<path class="st32" d="M-221.4,171c-6.2,2.6-12.9,3.8-19.6,4.6c-6.7,0.8-13.4,1.2-20.1,1.2c-6.7,0-13.4-0.3-20.1-1.1
			c-6.6-0.8-13.4-1.9-19.5-4.7c1.6,0.6,3.1,1.3,4.7,1.7l2.4,0.7l2.5,0.5c1.6,0.4,3.3,0.6,4.9,0.9c1.7,0.3,3.3,0.5,5,0.6
			c6.7,0.7,13.4,1,20.1,0.9c6.7,0,13.4-0.3,20.1-1.1c1.7-0.2,3.3-0.4,5-0.7c0.8-0.1,1.7-0.2,2.5-0.4l2.5-0.5
			C-227.7,173.2-224.5,172.2-221.4,171z"/>
	</g>
	<path class="st33" d="M-224.7,153.4c0,3-16.3,5.4-36.3,5.4s-36.3-2.4-36.3-5.4S-224.7,150.4-224.7,153.4z"/>
	<g>
		<g>
			<path class="st14" d="M-271.4,153.1c3.8-0.2,7.4-1.3,11.2-1.2c3.6,0.1,7.2,0,10.8,0c3.4,0,6.3,1.7,9.7,1.6
				c3.6,0,10.8-2.5,13.7,0.3c0.8,0.7,2-0.4,1.2-1.2c-2-1.9-4.7-1.6-7.4-1.4c-2.5,0.2-5,0.7-7.5,0.7c-2.8,0-4.7-1.1-7.3-1.6
				c-3.6-0.6-7.6,0.2-11.3,0.1c-4.6-0.2-8.6,0.8-13.1,1.1C-272.5,151.5-272.5,153.2-271.4,153.1L-271.4,153.1z"/>
		</g>
	</g>
	<path class="st34" d="M-256,200.1c0,2.2-1.8,3.9-4,3.8c-2.2,0-3.9-1.8-3.8-4"/>
	<g>
		<path class="st6" d="M-264.9,120.1c2.8-1.8,5.1-4.2,1.8-8.2c0-0.1-0.1-0.1-0.1-0.2c-0.3-0.4-0.8-1-0.9-1.6c0,0-0.5,0.6-1.3,1.2
			c-0.1,0-0.1,0.1-0.2,0.1c-1.2,0.9-2,1.8-1.5,3.4c0.1,0.2,0.2,0.7,0.6,1.7c0.1,0.4,0.6,1.6,0.8,2.4c0.3,0.8,0.1,0.9,0,1.1l-2.4,3.8
			c0.1,0.2,0.2,0.3,0.3,0.5l2.3-3.6C-265.2,120.4-265,120.2-264.9,120.1z"/>
		<path class="st6" d="M-274.4,94.9v4.8c0.3-1.3,0.6-2.6,1-3.8L-274.4,94.9z"/>
		<path class="st6" d="M-270.2,101c2.5,0,5-0.5,4.5-4.4c0-0.1,0-0.1,0-0.2c0-0.3-0.1-0.9,0.1-1.4c0,0-0.6,0.2-1.3,0.2
			c-0.1,0-0.1,0-0.2,0c-1.1,0.1-2,0.3-2.3,1.5c0,0.2-0.1,0.5-0.3,1.3c-0.1,0.3-0.3,1.2-0.5,1.8c-0.2,0.6-0.3,0.6-0.5,0.7l-3.3,1.5
			c0,0.1,0,0.3,0,0.4l3.1-1.4C-270.5,101-270.3,101-270.2,101z"/>
		<path class="st6" d="M-278.8,109.1c-0.2-0.8-0.5-2.1-0.5-2.5c-0.2-1.1-0.3-1.6-0.4-1.8c-0.4-1.7-1.6-2-3.1-2.2c-0.1,0-0.2,0-0.3,0
			c-0.9-0.1-1.7-0.4-1.7-0.4c0.3,0.6,0.2,1.4,0.1,1.8c0,0.1,0,0.1,0,0.2c-0.8,5.2,2.5,6,5.8,6.1c0.1,0,0.4,0.1,0.8,0.3l3.7,1.7
			c0-0.2-0.1-0.4-0.1-0.6l-3.8-1.9C-278.4,109.9-278.7,109.9-278.8,109.1z"/>
		<path class="st6" d="M-273.9,101.5l0.9-0.4c0.3-0.2,1-0.4,1.3-1.5c0.1-0.5,0.8-3.3,0.9-3.6c0.5-2.3,3.4-3.1,6.3-2.1
			c0,0,3.2,9.3-5.5,8.5c-0.7-0.1-1,0-1.8,0.3l-2.2,1c0,0.1,0,0.1,0,0.2h10.2V93.5h-8.3c-0.9,2.7-1.5,5.5-1.8,8.3V101.5z"/>
		<path class="st6" d="M-251.7,147.2c4.4-0.8,8.5-2.6,6.4-9.2c0-0.1-0.1-0.2-0.1-0.3c-0.1-0.6-0.4-1.6-0.2-2.4c0,0-1,0.5-2.1,0.8
			c-0.1,0-0.2,0-0.3,0.1c-1.9,0.5-3.4,1.1-3.6,3.5c0,0.3-0.1,0.9-0.1,2.4c0,0.5-0.1,2.2-0.2,3.4c-0.1,1.1-0.4,1.2-0.6,1.4l-3.9,2.7
			c0,0.3,0,0.5,0,0.8l3.7-2.5C-252.2,147.4-251.8,147.3-251.7,147.2z"/>
		<path class="st6" d="M-272.6,93.4h-0.7l0.5,0.5C-272.7,93.7-272.7,93.6-272.6,93.4z"/>
		<path class="st6" d="M-274.1,93.4l-1.4-1.4c-0.1-0.1-0.3-0.2-0.2-0.8s0.2-1.6,0.2-1.9c0.1-0.8,0.2-1.2,0.2-1.4
			c0.1-1.3-0.6-1.8-1.6-2.3c-0.1,0-0.1-0.1-0.2-0.1c-0.6-0.3-1.1-0.7-1.1-0.7c0,0.5-0.2,1-0.4,1.3c0,0.1-0.1,0.1-0.1,0.1
			c-1.8,3.5,0.2,4.9,2.6,5.8c0.1,0,0.3,0.1,0.5,0.4l1,1v-0.2h0.5V93.4z"/>
		<path class="st6" d="M-274.4,93.4v0.2l1.3,1.3c0-0.1,0.1-0.3,0.1-0.4l-1.1-1.1H-274.4z"/>
		<path class="st6" d="M-270.4,135c-0.6-1-1.5-2.4-1.8-2.8c-0.8-1.3-1.1-1.8-1.3-2.1c-1.3-1.9-2.9-1.8-4.8-1.3
			c-0.1,0-0.2,0.1-0.3,0.1c-1.2,0.3-2.3,0.3-2.3,0.3c0.6,0.7,0.8,1.7,1,2.2c0,0.1,0,0.2,0.1,0.3c1.4,6.8,5.8,6.4,10.1,4.9
			c0.1,0,0.5-0.1,1.2,0l5.5,0.5c-0.1-0.2-0.2-0.5-0.3-0.7l-5.7-0.6C-269.5,135.8-269.8,135.9-270.4,135z"/>
		<path class="st6" d="M-270.9,167.4c0.4-1.5,1.1-3.7,1.3-4.3c0.6-1.9,0.8-2.7,0.9-3.1c0.8-3-0.8-4.5-2.9-6
			c-0.1-0.1-0.3-0.2-0.4-0.2c-1.3-0.9-2.3-2-2.3-2c-0.1,1.2-1,2.3-1.4,2.9c-0.1,0.1-0.2,0.2-0.2,0.3c-5.6,7.4-1.3,11.5,3.9,14.5
			c0.1,0.1,0.6,0.4,1,1.2l3.3,4.6c0.1-0.3,0.2-0.7,0.4-1l-3.4-4.9C-271,169-271.3,168.8-270.9,167.4z"/>
		<path class="st6" d="M-256.7,154.1c-0.4,2.7-1,5.4-1.8,8c-0.9,3-2,5.8-3,8.7c-1,2.8-2.1,5.6-2.6,8.3c-0.3,1.3-0.4,2.7-0.3,3.8
			c0.1,1.2,0.5,2,1.1,2.7l3,3.5l1.9,2.4l0.7-0.9c0.5-0.7,1.6-1.9,1-4.7c-0.2-1.1-2-7.9-2.2-8.6c-1.5-5.5,3.7-10.2,10.8-11.6
			c0,0,17,15.8-2,24c-1.4,0.6-2.2,1.1-3.5,2.7l-2.1,2.7c3,4.2,5.8,8.6,8.2,13.2c1.5,2.7,2.8,5.5,4,8.4c0.3,0.7,0.6,1.4,0.9,2.2
			c0.3,0.7,0.6,1.5,0.8,2.2c0.3,0.7,0.5,1.5,0.8,2.2c0.3,0.8,0.5,1.5,0.7,2.4l-6.7,1.6c-0.1-0.6-0.3-1.3-0.5-2s-0.4-1.4-0.6-2.1
			c-0.2-0.7-0.4-1.4-0.7-2.1c-0.2-0.7-0.5-1.4-0.7-2.1c-1-2.7-2.2-5.4-3.4-8.1c-2.5-5.3-5.4-10.4-8.8-15.3l-2.6-3.6l-2.8-3.5
			c-0.3-0.4-0.6-0.8-0.9-1.3c-0.2-0.5-0.5-0.9-0.6-1.4l-0.2-0.7c-0.1-0.2-0.1-0.5-0.1-0.7s-0.1-0.5-0.1-0.7V183
			c-0.1-1.9,0.2-3.6,0.6-5.1c0,0,0,0,0-0.1l-2.3-3.2c-1.3-1.6-2-2.2-3.4-2.9c-18.7-9-1-24.1-1-24.1c7.1,1.6,12,6.6,10.3,12
			c-0.2,0.7-2.2,7.4-2.5,8.5c-0.6,2.4,0.1,3.7,0.7,4.5c0.5-1.2,1-2.4,1.4-3.6c1.2-2.8,2.4-5.5,3.3-8.3c0.8-2.3,1.5-4.5,1.9-6.8h-3.6
			h3.6c0.1-0.5,0.2-1.1,0.3-1.6c0.2-1.4,0.3-2.8,0.2-4.2s-0.3-2.8-0.7-4.1c-0.5-1.8-1.3-3.5-2-5.2l-3.8-0.4
			c-1.5-0.1-2.2,0.1-3.3,0.5c-14.3,6.2-14.1-11.3-14.1-11.3c4.4-3.2,9.6-3.6,11.9,0.1c0.3,0.5,3.1,4.9,3.6,5.6
			c1.2,1.8,2.4,1.8,3.1,1.9l1,0.1c-1.3-2.4-2.6-4.9-4-7.3c-1.5-2.7-2.8-5.4-4-8.2c-0.8-1.9-1.4-3.9-2-5.8l-2.8-1.4
			c-1.1-0.5-1.6-0.5-2.5-0.5c-11.6,0.7-7-11.6-7-11.6c3.9-1.1,7.7,0,8.3,3.1c0.1,0.4,0.9,4.2,1.1,4.9c0.4,1.5,1.2,1.9,1.7,2.1
			l0.6,0.3c-0.6-3.7-0.5-7.6,0.2-11.3v-4.8l-0.6-0.7c-0.6-0.6-1-0.8-1.6-1c-8.4-2.5-2.1-9.9-2.1-9.9c3,0.2,5.5,1.9,5.1,4.3
			c0,0.3-0.4,3.2-0.5,3.7c-0.1,1.2,0.4,1.6,0.7,1.9l0.1,0.1h0.7c0-0.1,0.1-0.2,0.1-0.3l0,0l0,0c0.4-0.8,0.8-1.5,1.2-2.2h-0.1
			l1.6-2.8l0.1,0.3l0,0l-0.1-0.3l0.4-0.5c0.2-0.2,0.5-0.5,0.4-1.3c0-0.3-0.4-2.2-0.4-2.4c-0.3-1.6,1.2-2.8,3.2-3
			c0,0,4.4,4.7-1.1,6.6c-0.4,0.1-0.6,0.3-1,0.7l-1.2,1.4l-0.1-0.8l1.6-1.7c0.1-0.2,0.3-0.3,0.3-0.3c1.5-0.7,2.8-1.7,1.5-3.9
			c0,0,0-0.1-0.1-0.1c-0.1-0.2-0.3-0.5-0.3-0.9c0,0-0.3,0.3-0.7,0.5c0,0-0.1,0-0.1,0.1c-0.6,0.3-1.1,0.7-1,1.6
			c0,0.1,0.1,0.3,0.2,0.9c0,0.1,0.1,0.6,0.2,0.9l0.1-0.1c0,0.1-0.1,0.1-0.1,0.2c0,0.1,0,0.2,0,0.3c0.1,0.4,0,0.5-0.1,0.5l-1.6,1.8
			c-0.1,0.1-0.1,0.2-0.2,0.3l-0.6,1.1c-0.6,1.1-1.2,2.3-1.7,3.5c0,0.1,0,0.1-0.1,0.2h8.3v10.4H-274c-0.1,2.4,0.1,4.8,0.6,7.1
			c0.6,2.9,1.6,5.7,2.9,8.4c0.6,1.3,1.3,2.7,2,4l0.6-0.9c0.3-0.4,0.8-1.2,0.3-2.7c-0.2-0.6-1.5-4.3-1.6-4.7c-1.1-3,1.6-5.9,5.5-7
			c0,0,10.3,8,0.1,13.5c-0.8,0.4-1.2,0.7-1.8,1.7l-1.6,2.5c0.3,0.5,0.6,1,0.9,1.5c3.1,5.2,6.5,10.3,8.6,16.2c0.5,1.5,0.9,3.2,1,4.8
			c0,0.1,0,0.2,0,0.4l0.1-0.1c0.5-0.4,1.6-1,1.8-3.1c0.1-0.8,0.4-6.1,0.4-6.6c0.2-4.3,4.9-6.5,10.3-5.8c0,0,8.6,15.2-6.9,16.7
			c-1.2,0.1-1.8,0.3-3.1,1.1l-2.6,1.8c0,0.1,0,0.3,0,0.4C-256.6,153.3-256.7,153.7-256.7,154.1h16.5V80.8h-47v146.6h47v-73.3H-256.7
			z"/>
		<path class="st6" d="M-252.1,187.3c5.3-2.8,9.7-6.7,4.5-14.3c-0.1-0.1-0.2-0.2-0.2-0.3c-0.4-0.7-1.2-1.8-1.3-3c0,0-1,1-2.4,1.9
			c-0.1,0.1-0.3,0.1-0.4,0.2c-2.2,1.4-3.8,2.8-3.2,5.8c0.1,0.4,0.3,1.2,0.8,3.2c0.2,0.6,0.7,2.9,1.1,4.4c0.3,1.4,0,1.6-0.2,2
			l-4.2,5.4l0.1,0.2c0.1,0.2,0.3,0.4,0.4,0.6l3.8-4.9C-252.7,187.7-252.3,187.4-252.1,187.3z"/>
		<path class="st12" d="M-268.6,136.7c-0.6-0.1-1.1,0-1.2,0c-4.2,1.4-8.7,1.9-10.1-4.9c0-0.1,0-0.2-0.1-0.3c-0.2-0.6-0.4-1.6-1-2.2
			c0,0,1.1,0,2.3-0.3c0.1,0,0.2-0.1,0.3-0.1c1.9-0.5,3.5-0.6,4.8,1.3c0.2,0.2,0.5,0.8,1.3,2.1c0.3,0.4,1.2,1.9,1.8,2.8
			c0.6,0.9,0.9,0.8,1.2,0.9l5.7,0.6c-0.2-0.3-0.3-0.7-0.5-1l-1-0.1c-0.7-0.1-1.9-0.1-3.1-1.9c-0.5-0.7-3.3-5.1-3.6-5.6
			c-2.2-3.7-7.5-3.3-11.9-0.1c0,0-0.2,17.4,14.1,11.3c1.1-0.5,1.7-0.6,3.3-0.5l3.8,0.4c-0.3-0.6-0.5-1.2-0.8-1.8L-268.6,136.7z"/>
		<path class="st0" d="M-278,110.7c-0.4-0.2-0.7-0.3-0.8-0.3c-3.4-0.1-6.6-0.9-5.8-6.1c0-0.1,0-0.1,0-0.2c0-0.4,0.1-1.2-0.1-1.8
			c0,0,0.8,0.3,1.7,0.4c0.1,0,0.2,0,0.3,0c1.4,0.1,2.6,0.5,3.1,2.2c0.1,0.2,0.1,0.7,0.4,1.8c0.1,0.4,0.3,1.6,0.5,2.5
			c0.2,0.8,0.4,0.8,0.6,0.9l3.8,1.9c0-0.3-0.1-0.5-0.2-0.8v-0.1l-0.6-0.3c-0.4-0.2-1.3-0.6-1.7-2.1c-0.2-0.6-1-4.5-1.1-4.9
			c-0.6-3.1-4.4-4.2-8.3-3.1c0,0-4.6,12.2,7,11.6c0.9,0,1.4,0,2.5,0.5l2.8,1.4c-0.1-0.5-0.3-1.1-0.4-1.6L-278,110.7z"/>
		<path class="st11" d="M-265.7,120.1c0.1-0.2,0.3-0.3,0-1.1c-0.3-0.8-0.7-2-0.8-2.4c-0.4-1.1-0.5-1.5-0.6-1.7
			c-0.5-1.7,0.3-2.6,1.5-3.4c0.1-0.1,0.1-0.1,0.2-0.1c0.7-0.6,1.3-1.2,1.3-1.2c0.1,0.7,0.6,1.3,0.9,1.6c0,0.1,0.1,0.1,0.1,0.2
			c3.3,4,1,6.4-1.8,8.2c-0.1,0-0.3,0.3-0.6,0.7l-2.3,3.6c0.2,0.4,0.5,0.8,0.7,1.2l1.6-2.5c0.7-0.9,1.1-1.3,1.8-1.7
			c10.3-5.5-0.1-13.5-0.1-13.5c-3.9,1.1-6.6,4-5.5,7c0.1,0.4,1.5,4.1,1.6,4.7c0.5,1.5-0.1,2.2-0.3,2.7l-0.6,0.9
			c0.1,0.2,0.3,0.5,0.4,0.7L-265.7,120.1z"/>
		<path class="st12" d="M-271.8,102.6c0.8-0.3,1.2-0.4,1.8-0.3c8.7,0.8,5.5-8.5,5.5-8.5c-2.9-0.9-5.8-0.2-6.3,2.1
			c-0.1,0.3-0.8,3.2-0.9,3.6c-0.3,1.2-1,1.4-1.3,1.5l-0.9,0.4v0.2c0,0.2,0,0.3,0,0.5l3.3-1.5c0.2-0.1,0.3-0.1,0.5-0.7
			c0.2-0.6,0.4-1.6,0.5-1.8c0.2-0.8,0.3-1.2,0.3-1.3c0.4-1.3,1.3-1.5,2.3-1.5c0.1,0,0.1,0,0.2,0c0.7,0,1.3-0.2,1.3-0.2
			c-0.2,0.5-0.1,1-0.1,1.4c0,0.1,0,0.1,0,0.2c0.4,3.9-2,4.4-4.5,4.4c-0.1,0-0.3,0-0.6,0.2l-3.1,1.4c0,0.4,0,0.7-0.1,1.1
			L-271.8,102.6z"/>
		<path class="st11" d="M-275.4,92.6c-0.2-0.3-0.5-0.4-0.5-0.4c-2.4-0.9-4.4-2.3-2.6-5.8l0.1-0.1c0.1-0.3,0.4-0.8,0.4-1.3
			c0,0,0.5,0.4,1.1,0.7c0.1,0,0.1,0,0.2,0.1c1,0.5,1.7,1,1.6,2.3c0,0.2-0.1,0.5-0.2,1.4c0,0.3-0.2,1.2-0.2,1.9
			c-0.1,0.6,0.1,0.7,0.2,0.8l1.4,1.4h0.8l-0.1-0.1c-0.3-0.3-0.8-0.7-0.7-1.9c0-0.5,0.4-3.4,0.5-3.7c0.3-2.4-2.1-4.1-5.1-4.3
			c0,0-6.3,7.5,2.1,9.9c0.6,0.2,1,0.4,1.6,1l0.6,0.7v-1.3L-275.4,92.6z"/>
		<path class="st11" d="M-273,94.5c0.1-0.2,0.1-0.4,0.2-0.6l-0.5-0.5h-0.8L-273,94.5z"/>
		<path class="st11" d="M-273.1,94.9l-1.3-1.3v1.3l1,1C-273.3,95.6-273.2,95.2-273.1,94.9z"/>
		<path class="st0" d="M-268.1,84.8c-0.1-0.6-0.1-0.8-0.2-0.9c-0.1-0.9,0.4-1.2,1-1.6c0,0,0.1,0,0.1-0.1c0.4-0.2,0.7-0.5,0.7-0.5
			c0,0.3,0.2,0.7,0.3,0.9c0,0,0,0.1,0.1,0.1c1.3,2.2,0,3.2-1.5,3.9c0,0-0.2,0.1-0.3,0.3l-1.6,1.7c0,0,0.1,0.7,0.1,0.8l1.2-1.4
			c0.4-0.4,0.6-0.5,1-0.7c5.5-1.9,1.1-6.6,1.1-6.6c-2,0.2-3.5,1.4-3.2,3c0,0.2,0.4,2.1,0.4,2.4c0.1,0.8-0.2,1.1-0.4,1.3l-0.4,0.5
			l0.1,0.3c0.5-0.8,1.1-1.7,1.7-2.5C-268,85.4-268.1,85-268.1,84.8z"/>
		<path class="st0" d="M-268,86.6c0.1-0.1,0.2-0.1,0.1-0.5c0-0.1,0-0.2,0-0.3c-0.6,0.8-1.1,1.7-1.6,2.6L-268,86.6z"/>
		<path class="st0" d="M-269.7,88l-1.6,2.8h0.1c0.5-0.9,1-1.7,1.6-2.6L-269.7,88z"/>
		<path class="st35" d="M-269.8,88.7c-0.2,0.4-0.4,0.7-0.6,1.1L-269.8,88.7z"/>
		<path class="st0" d="M-256.5,152.5l-1.5,1.1c0-0.1,0.1-2.1,0.1-2.1l1.5-1c0-0.3,0-0.5,0-0.8l-1.5,1v-1.2l1.4-1c0-0.1,0-0.2,0-0.4
			c-0.2-1.6-0.5-3.2-1-4.8c-2.1-5.9-5.6-11-8.6-16.2c-0.3-0.5-0.6-1-0.9-1.5l-0.5,0.7c0-0.1-0.5-1.5-0.5-1.5l0.3-0.4
			c-0.1-0.2-0.2-0.3-0.3-0.5l-0.2,0.3l-0.3-0.8l0.1-0.2c-0.7-1.3-1.4-2.6-2-4c-1.2-2.7-2.3-5.5-2.9-8.4c-0.5-2.3-0.7-4.7-0.6-7.1
			h-0.4l0,0l0,0v-4c-0.7,3.7-0.8,7.5-0.2,11.3l0.6,0.3l0.2,0.9l-0.6-0.3c0,0.2,0.1,0.4,0.1,0.6l0.6,0.3c0,0,0.3,1.5,0.3,1.6
			l-0.6-0.3c0.5,2,1.2,3.9,2,5.8c1.2,2.8,2.6,5.6,4,8.2c1.3,2.5,2.7,4.9,4,7.3l0.7,0.1l0.6,1l-0.8-0.1c0.1,0.2,0.2,0.5,0.3,0.7
			l0.9,0.1c0,0,1.1,1.7,1.1,1.8l-1.2-0.1c0.8,1.7,1.5,3.5,2,5.2c0.4,1.3,0.6,2.7,0.7,4.1c0,1.4,0,2.8-0.2,4.2
			c-0.1,0.5-0.2,1.1-0.3,1.6h3.3c0.1-0.4,0.1-0.8,0.2-1.2C-256.5,152.7-256.5,152.6-256.5,152.5z"/>
		<path class="st35" d="M-269.8,88.7c0.1-0.1,0.1-0.2,0.2-0.3l0,0v-0.2l0,0v0.2L-269.8,88.7z"/>
		<path class="st35" d="M-272.1,93.2L-272.1,93.2L-272.1,93.2z"/>
		<path class="st0" d="M-274.4,103.8h0.4c0-0.1,0-0.1,0-0.2L-274.4,103.8z"/>
		<path class="st0" d="M-272.1,93.2L-272.1,93.2L-272.1,93.2L-272.1,93.2c0.5-1.2,1.1-2.3,1.7-3.5l-0.6,1.1h-0.2
			c-0.4,0.7-0.9,1.5-1.2,2.2l0,0l0,0c0,0.1-0.1,0.2-0.1,0.3h0.4C-272.1,93.3-272.1,93.3-272.1,93.2z"/>
		<path class="st35" d="M-267.9,85.6l-0.1,0.1l0,0C-267.9,85.7-267.9,85.7-267.9,85.6z"/>
		<path class="st0" d="M-274.4,103.8c0-0.1,0.3-1.2,0.3-1.2l0.1-0.1c0-0.1,0-0.3,0-0.4h-0.1l0.1-0.5c0.3-2.8,0.9-5.6,1.8-8.3h-0.4
			c-0.1,0.2-0.1,0.4-0.2,0.5l0.1,0.1l-0.1,0.7l-0.1-0.2c0,0.1-0.1,0.3-0.1,0.4l0.2,0.2c0,0-0.1,1.1-0.2,1.2l-0.4-0.4
			c-0.4,1.3-0.7,2.5-1,3.8L-274.4,103.8L-274.4,103.8z"/>
		<path class="st0" d="M-257.9,150.6l1.5-1c0-0.4,0-0.8,0-1.1l-1.4,1L-257.9,150.6z"/>
		<path class="st0" d="M-256.4,150.4l-1.5,1c0,0-0.1,2-0.1,2.1l1.5-1.1C-256.5,151.8-256.4,151.1-256.4,150.4z"/>
		<path class="st0" d="M-262.3,137.2l-0.9-0.1c0.3,0.6,0.6,1.2,0.8,1.8l1.2,0.1L-262.3,137.2z"/>
		<path class="st0" d="M-262.7,136.5l-0.6-1l-0.7-0.1c0.2,0.3,0.4,0.7,0.5,1L-262.7,136.5z"/>
		<path class="st0" d="M-273.7,112.7l-0.6-0.3c0.1,0.5,0.2,1.1,0.4,1.6l0.6,0.3C-273.4,114.2-273.7,112.7-273.7,112.7z"/>
		<path class="st0" d="M-274.4,111.9l0.6,0.3l-0.2-0.9l-0.6-0.3v0.1C-274.6,111.3-274.5,111.6-274.4,111.9z"/>
		<path class="st0" d="M-268.1,124.8l0.5,1.5l0.4-0.7c-0.2-0.4-0.5-0.8-0.7-1.2L-268.1,124.8z"/>
		<path class="st0" d="M-268.3,124.2l0.2-0.3c-0.1-0.2-0.3-0.5-0.4-0.7l-0.1,0.2L-268.3,124.2z"/>
		<path class="st0" d="M-274,102.1L-274,102.1c0.1-0.2,0.1-0.3,0.1-0.5L-274,102.1z"/>
		<path class="st0" d="M-274,102.5l-0.1,0.1c0,0-0.3,1.1-0.3,1.2l0,0l0.4-0.2C-274,103.2-274,102.9-274,102.5z"/>
		<path class="st0" d="M-272.8,94.6l0.1-0.7l-0.1-0.1c-0.1,0.2-0.1,0.4-0.2,0.6L-272.8,94.6z"/>
		<path class="st0" d="M-273.1,96.3c0-0.1,0.2-1.2,0.2-1.2l-0.2-0.2c-0.1,0.3-0.2,0.7-0.3,1L-273.1,96.3z"/>
		<path class="st0" d="M-269.6,88.4c0.5-0.9,1-1.8,1.6-2.6l0,0c-0.6,0.8-1.2,1.6-1.7,2.5L-269.6,88.4L-269.6,88.4z"/>
		<path class="st0" d="M-270.4,89.7c0.2-0.4,0.4-0.7,0.6-1.1l0.1-0.2v-0.2c-0.6,0.8-1.1,1.7-1.6,2.6h0.2L-270.4,89.7z"/>
	</g>
	<g>
		<circle cx="-268.6" cy="192" r="4.8"/>
		<circle class="st22" cx="-266.2" cy="192.3" r="1.5"/>
		<circle cx="-251.1" cy="192" r="4.8"/>
		<circle class="st22" cx="-248.7" cy="192" r="1.5"/>
	</g>
</g>
</svg>
