<?xml version="1.0" encoding="utf-8"?>
<!-- Generator: Adobe Illustrator 22.1.0, SVG Export Plug-In . SVG Version: 6.00 Build 0)  -->
<svg version="1.1" id="Layer_1" xmlns="http://www.w3.org/2000/svg" xmlns:xlink="http://www.w3.org/1999/xlink" x="0px" y="0px"
	 viewBox="0 0 851 315" style="enable-background:new 0 0 851 315;" xml:space="preserve">
<style type="text/css">
	.st0{fill:#328FCE;}
	.st1{clip-path:url(#SVGID_2_);}
	.st2{clip-path:url(#SVGID_4_);fill:#FFFFFF;}
	.st3{opacity:0.42;}
	.st4{clip-path:url(#SVGID_6_);}
	.st5{clip-path:url(#SVGID_8_);fill:#FFFFFF;}
	.st6{opacity:0.21;}
	.st7{fill:#FFFFFF;}
	.st8{clip-path:url(#SVGID_10_);}
	.st9{clip-path:url(#SVGID_12_);fill:#FFFFFF;}
	.st10{clip-path:url(#SVGID_14_);}
	.st11{clip-path:url(#SVGID_16_);fill:#FFFFFF;}
</style>
<rect x="-6.5" y="-0.2" class="st0" width="863.3" height="315.4"/>
<g>
	<g>
		<defs>
			<rect id="SVGID_1_" x="268.6" y="93.3" width="301.5" height="84.9"/>
		</defs>
		<clipPath id="SVGID_2_">
			<use xlink:href="#SVGID_1_"  style="overflow:visible;"/>
		</clipPath>
		<g class="st1">
			<defs>
				<rect id="SVGID_3_" x="268.6" y="93.3" width="301.5" height="84.9"/>
			</defs>
			<clipPath id="SVGID_4_">
				<use xlink:href="#SVGID_3_"  style="overflow:visible;"/>
			</clipPath>
			<path class="st2" d="M344.9,156.8h-9c0.3-1.5,0.6-3,0.8-4.5c-1.9,3.4-4.4,5.4-9.7,5.4c-6.7,0-10.3-3.7-8.7-12.3l5.7-31h10
				l-5.1,27.7c-0.5,2.9-0.4,5.6,3.1,5.6c2.6,0,4.7-1.3,5.4-4.9l5.3-28.4h10L344.9,156.8z"/>
			<path class="st2" d="M357.1,114.5h10l-7.9,42.4h-10L357.1,114.5z M359.5,101.6h10l-1.5,8.4h-10L359.5,101.6z"/>
			<path class="st2" d="M395.6,140.7c-1.6,8.7-7.5,17-16.8,17c-10.1,0-15-7.9-12.3-22.1c2.6-14.2,10.4-22.1,20.5-22.1
				c9.3,0,12.1,8.2,10.5,17H387c0.9-5.1,0.1-7.6-2.5-7.6c-1.6,0-3,0.7-4.2,2.7c-1.3,1.9-2.3,5.2-3.2,10c-1.8,9.7-0.5,12.7,2.7,12.7
				c3,0,4.6-3.4,5.4-7.6H395.6z"/>
			<polygon class="st2" points="406.1,101.6 416.2,101.6 410.5,131.9 422.1,114.5 433.3,114.5 418.9,133.6 425.8,156.9 415,156.9 
				409.5,137.8 405.9,156.9 395.9,156.9 			"/>
			<path class="st2" d="M440.9,139.5c-0.9,5.7,0.5,8.4,5.5,8.4c4.2,0,6.9-2.6,7.6-6.6c0.9-5-4.8-6.2-10.4-8.5
				c-5.5-2.4-10.9-5.8-9.1-15.2c1.9-10.5,9.6-17.2,20.1-17.2c10.2,0,15,4.9,14.6,15.8h-11c0.6-4-1.2-6.4-4.9-6.4
				c-3.6,0-6.2,2.7-6.9,6c-1,5.2,4.8,6.2,10.4,8.6c5.5,2.4,10.8,6.1,8.9,16.6c-1.9,10.4-10.9,16.7-21.4,16.7
				c-12.6,0-16.9-6.8-14.7-18.4H440.9z"/>
			<polygon class="st2" points="475.1,106.4 485.1,106.4 483.6,114.5 491.6,114.5 489.8,123.9 481.9,123.9 475.7,156.9 465.7,156.9 
							"/>
			<polygon class="st2" points="553.6,106.4 563.6,106.4 562.2,114.5 570.1,114.5 568.4,123.9 560.4,123.9 554.3,156.9 544.3,156.9 
							"/>
			<path class="st2" d="M515.6,156.9h-9.1c0.3-1.3,0.5-2.7,0.7-4c-2.5,3.4-5.2,4.9-9.1,4.9c-7.6,0-12.1-6.9-9.3-22.1
				c2.7-14.3,8.8-22.1,17.5-22.1c3.4,0,6.6,1.3,7.2,5.2c0.3-1.5,0.5-2.9,0.8-4.3h9.1L515.6,156.9z M498.8,135.7
				c-1.7,9.3-0.1,12,3.2,12c2,0,3-0.6,4.3-1.9c1.6-1.6,1.9-3.6,3.2-10.2c1.2-6.6,1.6-8.7,0.6-10.2c-0.8-1.3-1.6-1.9-3.6-1.9
				C503.2,123.6,500.6,126.3,498.8,135.7L498.8,135.7z"/>
			<path class="st2" d="M528.6,114.5h9.1c-0.3,1.8-0.7,3.7-1,5.5c2.5-5.3,6.4-6.4,11.9-6.4l-2.3,12.3c-1.2-1-2.7-1.3-4.2-1.3
				c-3.7,0-6,3.1-6.8,7.5l-4.6,24.8h-10L528.6,114.5z"/>
			<polygon class="st2" points="324.4,164.6 330.6,164.6 330.4,165.9 325.5,165.9 324.7,170.5 329.6,170.5 329.3,171.7 324.4,171.7 
				323.5,176.7 328.4,176.7 328.2,177.9 322,177.9 			"/>
			<path class="st2" d="M330.6,177.9h-1.4l6.2-13.3h1.3l1.4,13.3h-1.4l-0.4-3.9h-4L330.6,177.9z M335.8,166.4l-2.8,6.4h3.2
				L335.8,166.4z"/>
			<path class="st2" d="M341.8,164.6h2.5c2,0,2.7,0.3,3.1,0.8c0.7,0.7,1,1.8,0.8,3.2c-0.2,0.8-0.5,1.7-1,2.4
				c-0.7,0.8-1.5,1.4-2.6,1.5l1.7,5.3h-1.5l-1.8-6.2c0.2,0,0.3,0,0.5,0c0.9,0,1.6-0.2,2.2-0.7c0.7-0.5,1-1.3,1.2-2.2
				c0.2-0.9,0.1-1.8-0.6-2.4c-0.5-0.4-1.4-0.5-2.2-0.5h-1.1l-2.2,12h-1.3L341.8,164.6z"/>
			<polygon class="st2" points="350.8,164.6 352.1,164.6 349.9,176.7 354.2,176.7 353.9,177.9 348.3,177.9 			"/>
			<polygon class="st2" points="356.8,173.1 355,164.6 356.4,164.6 357.7,171.8 361.7,164.6 363.1,164.6 358.2,173.1 357.3,177.9 
				355.9,177.9 			"/>
			<polygon class="st2" points="368.6,164.6 370,164.6 367.5,177.9 366.2,177.9 			"/>
			<polygon class="st2" points="377.3,175.7 379.4,164.6 380.6,164.6 378.1,177.9 376.7,177.9 373.3,166.6 371.2,177.9 369.9,177.9 
				372.4,164.6 374,164.6 			"/>
			<polygon class="st2" points="384.6,165.9 382,165.9 382.2,164.6 388.9,164.6 388.7,165.9 386,165.9 383.8,177.9 382.4,177.9 			
				"/>
			<polygon class="st2" points="390.5,164.6 396.7,164.6 396.5,165.9 391.6,165.9 390.7,170.5 395.6,170.5 395.4,171.7 390.5,171.7 
				389.6,176.7 394.5,176.7 394.3,177.9 388,177.9 			"/>
			<path class="st2" d="M399,164.6h2.5c2,0,2.7,0.3,3.1,0.8c0.7,0.7,1,1.8,0.8,3.2c-0.2,0.8-0.5,1.7-1,2.4c-0.7,0.8-1.5,1.4-2.6,1.5
				l1.7,5.3h-1.5l-1.8-6.2c0.2,0,0.3,0,0.5,0c0.9,0,1.6-0.2,2.2-0.7c0.7-0.5,1-1.3,1.2-2.2c0.2-0.9,0.1-1.8-0.6-2.4
				c-0.5-0.4-1.4-0.5-2.2-0.5h-1.1l-2.2,12h-1.3L399,164.6z"/>
			<polygon class="st2" points="406.5,164.6 407.9,164.6 408.9,176 414.2,164.6 415.5,164.6 409.2,177.9 407.9,177.9 			"/>
			<polygon class="st2" points="416.8,164.6 423,164.6 422.8,165.9 417.9,165.9 417,170.5 421.9,170.5 421.7,171.7 416.8,171.7 
				415.9,176.7 420.8,176.7 420.6,177.9 414.3,177.9 			"/>
			<polygon class="st2" points="430.2,175.7 432.3,164.6 433.5,164.6 431,177.9 429.5,177.9 426.1,166.6 424,177.9 422.8,177.9 
				425.3,164.6 426.9,164.6 			"/>
			<polygon class="st2" points="437.5,165.9 434.8,165.9 435.1,164.6 441.8,164.6 441.6,165.9 438.9,165.9 436.6,177.9 435.3,177.9 
							"/>
			<polygon class="st2" points="443.3,164.6 444.7,164.6 442.2,177.9 440.9,177.9 			"/>
			<path class="st2" d="M445.3,171.2c0.7-3.9,2.9-6.9,6.1-6.9s4.3,3,3.5,6.9c-0.6,3.4-2.6,6.9-6.1,6.9
				C445.7,178.1,444.6,175.2,445.3,171.2L445.3,171.2z M446.7,171.3c-0.7,3.6,0.3,5.6,2.4,5.6c2.1,0,3.8-2,4.5-5.6
				c0.7-3.6-0.3-5.6-2.4-5.6C449.1,165.6,447.4,167.6,446.7,171.3L446.7,171.3z"/>
			<polygon class="st2" points="463,175.7 465.1,164.6 466.3,164.6 463.9,177.9 462.4,177.9 459,166.6 456.9,177.9 455.6,177.9 
				458.1,164.6 459.7,164.6 			"/>
			<polygon class="st2" points="473,164.6 478.8,164.6 478.6,165.9 474.2,165.9 473.3,170.5 477.7,170.5 477.5,171.7 473.1,171.7 
				471.9,177.9 470.6,177.9 			"/>
			<path class="st2" d="M478.9,171.2c0.7-3.9,2.9-6.9,6.1-6.9s4.3,3,3.5,6.9c-0.6,3.4-2.6,6.9-6.1,6.9
				C479.3,178.1,478.2,175.2,478.9,171.2L478.9,171.2z M480.3,171.3c-0.7,3.6,0.3,5.6,2.4,5.6c2.1,0,3.8-2,4.5-5.6
				c0.7-3.6-0.3-5.6-2.4-5.6C482.6,165.6,480.9,167.6,480.3,171.3L480.3,171.3z"/>
			<path class="st2" d="M491.6,164.6h2.5c2,0,2.7,0.3,3.1,0.8c0.7,0.7,1,1.8,0.8,3.2c-0.2,0.8-0.5,1.7-1,2.4
				c-0.7,0.8-1.5,1.4-2.6,1.5l1.7,5.3h-1.5l-1.8-6.2c0.2,0,0.3,0,0.5,0c0.9,0,1.6-0.2,2.2-0.7c0.7-0.5,1-1.3,1.2-2.2
				c0.2-0.9,0.1-1.8-0.6-2.4c-0.5-0.4-1.4-0.5-2.2-0.5h-1.1l-2.2,12h-1.3L491.6,164.6z"/>
			<path class="st2" d="M501.9,177.9h-1.4l6.2-13.3h1.3l1.4,13.3h-1.4l-0.4-3.9h-4L501.9,177.9z M507.1,166.4l-2.8,6.4h3.2
				L507.1,166.4z"/>
			<path class="st2" d="M513.7,164.6l-1.8,9.7c-0.1,0.8-0.2,1.5,0.3,2c0.4,0.4,1,0.6,1.7,0.6c0.7,0,1.4-0.1,1.9-0.6
				c0.7-0.5,0.9-1.2,1-2l1.8-9.7h1.3l-1.8,9.8c-0.2,1.3-0.7,2.1-1.4,2.7c-0.8,0.6-1.8,1-3.1,1c-1.3,0-2.2-0.4-2.7-1
				c-0.5-0.6-0.7-1.5-0.4-2.7l1.8-9.8H513.7z"/>
			<polygon class="st2" points="523.9,165.9 521.2,165.9 521.5,164.6 528.2,164.6 528,165.9 525.3,165.9 523,177.9 521.7,177.9 			
				"/>
			<polygon class="st2" points="529.7,164.6 531.1,164.6 528.6,177.9 527.3,177.9 			"/>
			<path class="st2" d="M532.5,174.2c-0.2,2.1,0.9,2.7,1.9,2.7c1.4,0,2.7-1,3-2.6c0.4-2-1.2-2.4-2.4-2.8c-1.1-0.4-2.8-1-2.4-3.4
				c0.4-2.3,2.1-3.7,4.2-3.7c2,0,3.1,1,2.9,3.4h-1.3c0.1-1-0.2-2.2-1.8-2.2c-1.3,0-2.3,1-2.6,2.3c-0.3,1.8,0.9,2.2,2.5,2.7
				c1,0.4,2.8,1.1,2.3,3.7c-0.4,2.4-2.4,3.8-4.6,3.8c-2.1,0-3.4-1.3-3-3.9H532.5z"/>
			<polygon class="st2" points="539.9,177.9 542.4,164.6 544.5,164.6 545.5,175.9 550.5,164.6 552.6,164.6 550.1,177.9 548.9,177.9 
				551.1,165.9 545.8,177.9 544.5,177.9 543.4,165.9 541.1,177.9 			"/>
			<path class="st2" d="M295.7,108.2c0.4,0.2,0.7,0.4,1.1,0.5c6.2,3.3,11,6.8,9.8,15.1c-0.2,1.1-0.6,3.3-1.5,8.7
				c-0.3,1.8-1.4,7.9-2.1,12c-0.7,3.9,0.3,4.4,1,5.2l15.9,17.7l0.9-4.2l-4.3-4.8c-1.6-1.9-4.9-4.9-3.7-12.4c0.5-3,3.9-21.6,4.3-23.6
				c3-15.1-12.1-26.9-31.7-29.1c0,0-43.4,46,10.2,64.4c4.1,1.4,6.2,2.7,10.1,6.6l12.2,13.5c0.1-0.3,1.4-7.6,1.4-7.6l-15.6-16.9
				c-1.5-1.9-2.8-2.7-3.2-2.9c-15-6.5-27.9-16.1-15-37.7c0.2-0.3,0.4-0.6,0.5-0.9c1-1.9,2.9-5.1,2.9-8.3
				C288.8,103.5,291.8,106.1,295.7,108.2"/>
		</g>
	</g>
</g>
<g class="st3">
	<g>
		<defs>
			<rect id="SVGID_5_" x="-125.2" y="91.8" width="272.3" height="273.2"/>
		</defs>
		<clipPath id="SVGID_6_">
			<use xlink:href="#SVGID_5_"  style="overflow:visible;"/>
		</clipPath>
		<g class="st4">
			<defs>
				<rect id="SVGID_7_" x="-125.2" y="91.8" width="272.3" height="273.2"/>
			</defs>
			<clipPath id="SVGID_8_">
				<use xlink:href="#SVGID_7_"  style="overflow:visible;"/>
			</clipPath>
			<path class="st5" d="M4.8,101.1c0.1,0.1,0.3,0.3,0.5,0.5c2.6,2.7,4.4,5.2,2.5,9.3c-0.2,0.5-0.8,1.6-2.2,4.2c-0.4,0.9-2,3.8-3,5.8
				c-1,1.9-0.6,2.3-0.3,2.8l5.2,11.5l1.2-2L7.1,130c-0.5-1.2-1.7-3.3,0.1-6.9c0.7-1.5,5.4-10.4,5.9-11.3c4-7.2-1.7-15.6-11.3-19.9
				c0,0-29.3,16.5-5.2,34.4c1.8,1.4,2.7,2.3,4,5l4,8.9c0.1-0.2,1.9-3.7,1.9-3.7l-5.1-11.1c-0.4-1.2-1-1.8-1.1-2
				c-6.5-5.7-11.5-12.7-1.5-21.6c0.1-0.1,0.3-0.2,0.4-0.4c0.8-0.8,2.3-2.2,2.8-3.8C2,97.6,3.1,99.5,4.8,101.1"/>
			<path class="st5" d="M-38.4,110.9c0.2,0.1,0.4,0.2,0.6,0.3c3.4,1.6,5.9,3.4,5.5,7.9c-0.1,0.6-0.2,1.8-0.6,4.7
				c-0.1,1-0.6,4.2-0.9,6.5c-0.3,2.1,0.2,2.3,0.6,2.8l8.8,9.1l0.4-2.3l-2.4-2.4c-0.9-1-2.7-2.5-2.3-6.6c0.2-1.6,1.5-11.6,1.7-12.7
				c1.2-8.2-7-14.1-17.4-14.8c0,0-21.9,25.6,6.9,34.2c2.2,0.7,3.3,1.3,5.5,3.3l6.8,7c0-0.2,0.6-4.1,0.6-4.1l-8.6-8.7
				c-0.8-1-1.5-1.4-1.8-1.5c-8.1-3.1-15.1-8-8.8-19.8c0.1-0.2,0.2-0.3,0.3-0.5c0.5-1,1.4-2.8,1.3-4.5
				C-42.2,108.6-40.5,109.9-38.4,110.9"/>
			<path class="st5" d="M-75.6,134.9c0.2,0,0.4,0,0.6,0c3.7,0.4,6.7,1.1,7.9,5.5c0.1,0.6,0.4,1.7,1,4.6c0.2,0.9,0.9,4.2,1.4,6.4
				c0.5,2,1,2.1,1.6,2.4l11.4,5.5l-0.4-2.3l-3.1-1.5c-1.1-0.6-3.4-1.4-4.4-5.4c-0.4-1.6-2.5-11.4-2.7-12.5
				c-1.6-8.1-11.4-10.9-21.5-8c0,0-11.8,31.5,18.1,29.7c2.3-0.1,3.6,0.1,6.3,1.2l8.7,4.2c0-0.2-0.9-4-0.9-4l-11-5.2
				c-1.1-0.6-1.9-0.8-2.1-0.8c-8.7-0.2-16.9-2.3-15-15.6c0-0.2,0.1-0.4,0.1-0.6c0.1-1.1,0.4-3.1-0.3-4.7
				C-80,134-78,134.7-75.6,134.9"/>
			<path class="st5" d="M-102.4,170.2c0.2-0.1,0.4-0.1,0.6-0.2c3.6-0.9,6.7-1.2,9.3,2.5c0.3,0.5,1,1.5,2.5,4
				c0.5,0.8,2.3,3.6,3.5,5.5c1.1,1.8,1.7,1.6,2.3,1.7l12.6,1.3l-1.2-2l-3.4-0.3c-1.3-0.2-3.7-0.2-6-3.6c-0.9-1.4-6.3-9.9-6.9-10.8
				c-4.3-7-14.4-6.3-22.9-0.2c0,0-0.3,33.6,27.2,21.8c2.1-0.9,3.4-1.1,6.3-1l9.7,1c-0.1-0.2-2.2-3.5-2.2-3.5l-12.2-1.1
				c-1.2-0.2-2.1-0.1-2.3,0c-8.2,2.8-16.7,3.6-19.4-9.5c0-0.2-0.1-0.4-0.1-0.6c-0.3-1.1-0.7-3-1.9-4.3
				C-106.8,170.8-104.7,170.8-102.4,170.2"/>
			<path class="st5" d="M-115.5,212.5c0.2-0.1,0.3-0.3,0.5-0.4c3.1-2.1,5.9-3.5,9.6-0.8c0.5,0.3,1.4,1.1,3.7,2.9
				c0.8,0.6,3.4,2.6,5.2,4c1.7,1.3,2.1,1,2.7,0.8l12.3-3.1l-1.8-1.5l-3.3,0.9c-1.3,0.3-3.5,1.1-6.8-1.3c-1.3-1-9.3-7.1-10.1-7.8
				c-6.4-5.2-15.7-1-21.6,7.7c0,0,11.2,31.7,33,11.1c1.7-1.6,2.8-2.2,5.6-3.1l9.4-2.4c-0.1-0.1-3.3-2.5-3.3-2.5l-11.8,3.1
				c-1.2,0.2-2,0.6-2.1,0.8c-6.8,5.4-14.5,9.1-21.5-2.3c-0.1-0.2-0.2-0.3-0.3-0.5c-0.7-0.9-1.7-2.6-3.3-3.4
				C-119.4,214.6-117.5,213.8-115.5,212.5"/>
			<path class="st5" d="M-113.4,256.7c0.1-0.2,0.2-0.4,0.4-0.5c2.2-3,4.4-5.3,8.7-4.1c0.5,0.2,1.7,0.5,4.5,1.4
				c0.9,0.3,4.1,1.3,6.2,2c2,0.6,2.3,0.2,2.8-0.2l10.5-7.1l-2.2-0.8l-2.8,1.9c-1.1,0.7-2.9,2.2-6.9,1.1c-1.6-0.5-11.2-3.5-12.2-3.9
				c-7.8-2.6-15.1,4.4-17.6,14.6c0,0,21.4,26,34.8-0.8c1-2,1.8-3,4.2-4.8l8-5.5c-0.2-0.1-3.9-1.3-3.9-1.3l-10,7
				c-1.1,0.6-1.6,1.3-1.7,1.5c-4.5,7.4-10.5,13.5-21,5.2c-0.1-0.1-0.3-0.2-0.5-0.4c-0.9-0.6-2.5-1.9-4.2-2.1
				C-116.3,260-114.7,258.6-113.4,256.7"/>
			<path class="st5" d="M-96.2,297.5c0.1-0.2,0.1-0.4,0.2-0.6c1-3.6,2.3-6.4,6.8-6.8c0.6,0,1.8-0.1,4.7-0.2c1,0,4.3-0.2,6.5-0.3
				c2.1-0.1,2.3-0.6,2.6-1.1l7.4-10.2l-2.3,0l-2,2.8c-0.8,1-2,3.1-6.1,3.4c-1.6,0.1-11.7,0.5-12.8,0.5c-8.3,0.2-12.7,9.3-11.6,19.7
				c0,0,29,17.1,32.4-12.7c0.3-2.3,0.7-3.5,2.3-6l5.7-7.9c-0.2,0-4.1,0.2-4.1,0.2l-7,10c-0.8,1-1.1,1.8-1.1,2
				c-1.7,8.5-5.2,16.3-18,12.1c-0.2-0.1-0.4-0.1-0.5-0.2c-1.1-0.3-3-0.9-4.7-0.5C-97.9,301.6-96.8,299.8-96.2,297.5"/>
			<path class="st5" d="M-66.1,330c0-0.2,0-0.4-0.1-0.6c-0.3-3.7,0-6.8,4.1-8.7c0.5-0.2,1.6-0.7,4.3-1.8c0.9-0.4,4-1.6,6-2.5
				c1.9-0.8,1.9-1.4,2.1-1.9l3.5-12.2l-2.2,0.8l-0.9,3.3c-0.4,1.2-0.8,3.6-4.6,5.2c-1.5,0.7-10.8,4.5-11.8,4.9
				c-7.7,3-8.7,13.1-4.1,22.5c0,0,33.1,6.2,26.1-23c-0.5-2.2-0.5-3.5,0.1-6.4l2.6-9.3c-0.2,0.1-3.8,1.6-3.8,1.6l-3.2,11.8
				c-0.4,1.2-0.4,2-0.4,2.2c1.3,8.6,0.6,17.1-12.8,17.5c-0.2,0-0.4,0-0.6,0c-1.1,0.1-3.1,0.2-4.6,1.1
				C-66.3,334.4-65.9,332.4-66.1,330"/>
			<path class="st5" d="M-26.8,350.3c-0.1-0.2-0.2-0.4-0.3-0.6c-1.5-3.4-2.4-6.4,0.8-9.6c0.4-0.4,1.3-1.2,3.5-3.2
				c0.7-0.7,3.2-2.9,4.8-4.4c1.5-1.4,1.3-2,1.3-2.5l-0.9-12.6l-1.8,1.5l0.3,3.4c0,1.3,0.5,3.6-2.5,6.5c-1.2,1.1-8.6,7.9-9.5,8.6
				c-6.2,5.5-3.7,15.3,3.8,22.6c0,0,33.2-5.5,16.7-30.6c-1.2-1.9-1.7-3.1-2.1-6.1l-0.7-9.7c-0.1,0.1-3.1,2.8-3.1,2.8l1,12.2
				c0,1.3,0.3,2,0.4,2.2c4.2,7.6,6.4,15.8-6,20.8c-0.2,0.1-0.4,0.1-0.5,0.2c-1,0.5-2.9,1.2-3.9,2.6
				C-25.4,354.5-25.8,352.4-26.8,350.3"/>
			<path class="st5" d="M17.2,355.8c-0.1-0.1-0.3-0.3-0.5-0.5c-2.6-2.7-4.4-5.2-2.5-9.3c0.2-0.5,0.8-1.6,2.2-4.2
				c0.4-0.9,2-3.8,3-5.8c1-1.9,0.6-2.3,0.3-2.8l-5.2-11.5l-1.2,2l1.4,3.1c0.5,1.2,1.7,3.3-0.1,6.9c-0.7,1.5-5.4,10.4-5.9,11.3
				c-4,7.2,1.7,15.6,11.3,19.9c0,0,29.3-16.5,5.2-34.4c-1.8-1.4-2.7-2.3-4-5l-4-8.9c-0.1,0.2-1.9,3.7-1.9,3.7l5.1,11.1
				c0.4,1.2,1,1.8,1.1,2c6.5,5.7,11.5,12.7,1.5,21.6c-0.1,0.1-0.3,0.2-0.4,0.4c-0.8,0.8-2.3,2.2-2.8,3.8
				C19.9,359.3,18.8,357.5,17.2,355.8"/>
			<path class="st5" d="M60.4,346c-0.2-0.1-0.4-0.2-0.6-0.3c-3.4-1.6-5.9-3.4-5.5-7.9c0.1-0.6,0.2-1.8,0.6-4.7
				c0.1-1,0.6-4.2,0.9-6.5c0.3-2.1-0.2-2.3-0.6-2.8l-8.8-9.1l-0.4,2.3l2.4,2.4c0.9,1,2.7,2.5,2.3,6.6c-0.2,1.6-1.5,11.6-1.7,12.7
				c-1.2,8.2,7,14.1,17.4,14.8c0,0,21.9-25.6-6.9-34.2c-2.2-0.7-3.3-1.3-5.5-3.3l-6.8-7c0,0.2-0.6,4.1-0.6,4.1l8.6,8.7
				c0.8,1,1.5,1.4,1.8,1.5c8.1,3.1,15.1,8,8.8,19.8c-0.1,0.2-0.2,0.3-0.3,0.5c-0.5,1-1.4,2.8-1.3,4.5C64.1,348.4,62.5,347,60.4,346"
				/>
			<path class="st5" d="M97.6,322c-0.2,0-0.4,0-0.6,0c-3.7-0.4-6.7-1.1-7.9-5.5c-0.1-0.6-0.4-1.7-1-4.6c-0.2-0.9-0.9-4.2-1.4-6.4
				c-0.5-2-1-2.1-1.6-2.4l-11.4-5.5l0.4,2.3l3.1,1.5c1.1,0.6,3.4,1.4,4.4,5.4c0.4,1.6,2.5,11.4,2.7,12.5c1.6,8.1,11.4,10.9,21.5,8
				c0,0,11.8-31.5-18.1-29.7c-2.3,0.1-3.6-0.1-6.3-1.2l-8.8-4.2c0,0.2,0.9,4,0.9,4l11.1,5.2c1.1,0.6,1.9,0.8,2.1,0.8
				c8.7,0.2,16.9,2.3,15,15.6c0,0.2-0.1,0.4-0.1,0.6c-0.1,1.1-0.4,3.1,0.3,4.7C101.9,322.9,99.9,322.3,97.6,322"/>
			<path class="st5" d="M124.4,286.8c-0.2,0.1-0.4,0.1-0.6,0.2c-3.6,0.9-6.7,1.2-9.3-2.5c-0.3-0.5-1-1.5-2.5-4
				c-0.5-0.8-2.3-3.6-3.5-5.5c-1.1-1.8-1.7-1.6-2.3-1.7L93.6,272l1.2,2l3.4,0.3c1.3,0.2,3.7,0.2,6,3.6c0.9,1.4,6.3,9.9,6.9,10.8
				c4.3,7,14.4,6.3,22.9,0.2c0,0,0.3-33.6-27.2-21.8c-2.1,0.9-3.4,1.1-6.3,1l-9.7-1c0.1,0.2,2.2,3.5,2.2,3.5l12.2,1.1
				c1.2,0.2,2.1,0.1,2.3,0c8.2-2.8,16.7-3.6,19.4,9.5c0,0.2,0.1,0.4,0.1,0.6c0.3,1.1,0.7,3,1.9,4.3
				C128.7,286.1,126.6,286.2,124.4,286.8"/>
			<path class="st5" d="M768.9,311.9c-0.2,0.1-0.4,0.1-0.6,0.2c-3.6,0.9-6.7,1.2-9.3-2.5c-0.3-0.5-1-1.5-2.5-4
				c-0.5-0.8-2.3-3.6-3.5-5.5c-1.1-1.8-1.7-1.6-2.3-1.7l-12.6-1.3l1.2,2l3.4,0.3c1.3,0.2,3.7,0.2,6,3.6c0.9,1.4,6.3,9.9,6.9,10.8
				c4.3,7,14.4,6.3,22.9,0.2c0,0,0.3-33.6-27.2-21.8c-2.1,0.9-3.4,1.1-6.3,1l-9.7-1c0.1,0.2,2.2,3.5,2.2,3.5l12.2,1.1
				c1.2,0.2,2.1,0.1,2.3,0c8.2-2.8,16.7-3.6,19.4,9.5c0,0.2,0.1,0.4,0.1,0.6c0.3,1.1,0.7,3,1.9,4.3
				C773.2,311.3,771.1,311.3,768.9,311.9"/>
			<path class="st5" d="M137.5,244.5c-0.2,0.1-0.3,0.3-0.5,0.4c-3.1,2.1-5.9,3.5-9.6,0.8c-0.5-0.3-1.4-1.1-3.7-2.9
				c-0.8-0.6-3.4-2.6-5.2-4c-1.7-1.3-2.1-1-2.7-0.8l-12.3,3.1l1.8,1.5l3.3-0.9c1.3-0.3,3.5-1.1,6.8,1.3c1.3,1,9.3,7.1,10.1,7.8
				c6.4,5.2,15.7,1,21.6-7.7c0,0-11.2-31.7-33-11.1c-1.7,1.6-2.8,2.2-5.6,3.1l-9.4,2.4c0.1,0.1,3.3,2.5,3.3,2.5l11.8-3.1
				c1.2-0.2,2-0.6,2.1-0.8c6.8-5.4,14.5-9.1,21.5,2.3c0.1,0.2,0.2,0.3,0.3,0.5c0.7,0.9,1.7,2.6,3.3,3.4
				C141.4,242.4,139.4,243.1,137.5,244.5"/>
			<path class="st5" d="M135.3,200.2c-0.1,0.2-0.2,0.4-0.4,0.5c-2.2,3-4.4,5.3-8.7,4.1c-0.5-0.2-1.7-0.5-4.5-1.4
				c-0.9-0.3-4.1-1.3-6.2-2c-2-0.6-2.3-0.2-2.8,0.2l-10.5,7.1l2.2,0.8l2.8-1.9c1.1-0.7,2.9-2.2,6.9-1.1c1.6,0.5,11.2,3.5,12.2,3.9
				c7.8,2.6,15.1-4.4,17.6-14.6c0,0-21.4-26-34.8,0.8c-1,2-1.8,3-4.2,4.8l-8,5.5c0.2,0.1,3.9,1.3,3.9,1.3l10-7
				c1.1-0.6,1.6-1.3,1.7-1.5c4.5-7.4,10.5-13.5,21-5.2c0.1,0.1,0.3,0.2,0.5,0.3c0.9,0.6,2.5,1.9,4.2,2.1
				C138.3,196.9,136.7,198.3,135.3,200.2"/>
			<path class="st5" d="M118.2,159.4c-0.1,0.2-0.1,0.4-0.2,0.6c-1,3.6-2.3,6.4-6.8,6.8c-0.6,0-1.8,0.1-4.7,0.2c-1,0-4.3,0.2-6.5,0.3
				c-2.1,0.1-2.3,0.6-2.6,1.1l-7.4,10.2l2.3,0l2-2.8c0.8-1,2-3.1,6.1-3.4c1.6-0.1,11.7-0.5,12.8-0.5c8.3-0.2,12.7-9.3,11.6-19.7
				c0,0-29-17.1-32.4,12.7c-0.3,2.3-0.7,3.5-2.3,6l-5.7,7.9c0.2,0,4.1-0.2,4.1-0.2l7-10c0.8-1,1.1-1.8,1.1-2
				c1.7-8.5,5.2-16.3,18-12.1c0.2,0.1,0.4,0.1,0.5,0.2c1.1,0.3,3,0.9,4.7,0.5C119.8,155.3,118.8,157.2,118.2,159.4"/>
			<path class="st5" d="M88.1,126.9c0,0.2,0,0.4,0.1,0.6c0.3,3.7,0,6.8-4.1,8.7c-0.5,0.2-1.6,0.7-4.3,1.8c-0.9,0.4-4,1.6-6,2.5
				c-1.9,0.8-1.9,1.4-2.1,1.9l-3.5,12.2l2.2-0.8l0.9-3.3c0.4-1.2,0.8-3.6,4.6-5.2c1.5-0.7,10.8-4.5,11.8-4.9
				c7.7-3,8.7-13.1,4.1-22.5c0,0-33.1-6.2-26.1,23c0.5,2.2,0.5,3.5-0.1,6.4l-2.6,9.3c0.2-0.1,3.8-1.6,3.8-1.6l3.2-11.8
				c0.4-1.2,0.4-2,0.4-2.2c-1.3-8.6-0.6-17.1,12.8-17.5c0.2,0,0.4,0,0.6,0c1.1-0.1,3.1-0.2,4.6-1.1
				C88.2,122.5,87.9,124.6,88.1,126.9"/>
			<path class="st5" d="M48.7,106.7c0.1,0.2,0.2,0.4,0.3,0.6c1.5,3.4,2.4,6.4-0.8,9.6c-0.4,0.4-1.3,1.2-3.5,3.2
				c-0.7,0.7-3.2,2.9-4.8,4.4c-1.5,1.4-1.3,1.9-1.3,2.5l0.9,12.6l1.8-1.5l-0.3-3.4c0-1.3-0.5-3.6,2.5-6.5c1.2-1.1,8.6-7.9,9.5-8.6
				c6.2-5.5,3.7-15.3-3.8-22.6c0,0-33.2,5.5-16.7,30.6c1.2,1.9,1.7,3.1,2.1,6.1l0.7,9.7c0.1-0.1,3.1-2.8,3.1-2.8l-1-12.2
				c0-1.3-0.3-2-0.4-2.2c-4.2-7.6-6.4-15.8,6-20.8c0.2-0.1,0.4-0.1,0.5-0.2c1-0.5,2.9-1.2,3.9-2.6C47.3,102.5,47.7,104.5,48.7,106.7
				"/>
		</g>
	</g>
</g>
<g class="st6">
	<path class="st7" d="M380.5,356.2c-0.1,0-0.3,0-0.4,0c-2.3-0.2-4.2-0.7-4.9-3.4c-0.1-0.3-0.2-1.1-0.6-2.8c-0.1-0.6-0.6-2.6-0.9-3.9
		c-0.3-1.3-0.6-1.3-1-1.5l-7-3.4l0.3,1.4l1.9,0.9c0.7,0.4,2.1,0.9,2.7,3.3c0.2,1,1.6,7.1,1.7,7.7c1,5,7,6.7,13.2,4.9
		c0,0,7.3-19.5-11.2-18.4c-1.4,0.1-2.2,0-3.9-0.8l-5.4-2.6c0,0.1,0.5,2.5,0.5,2.5l6.8,3.2c0.7,0.4,1.2,0.5,1.3,0.5
		c5.3,0.1,10.4,1.4,9.3,9.6c0,0.1,0,0.2,0,0.4c-0.1,0.7-0.2,1.9,0.2,2.9C383.2,356.8,382,356.4,380.5,356.2"/>
	<path class="st7" d="M401.4,293.9c-0.1,0.1-0.2,0.2-0.3,0.2c-1.9,1.3-3.6,2.1-5.9,0.5c-0.3-0.2-0.9-0.7-2.3-1.8
		c-0.5-0.4-2.1-1.6-3.2-2.5c-1-0.8-1.3-0.6-1.7-0.5l-7.6,1.9l1.1,0.9l2-0.5c0.8-0.2,2.2-0.7,4.2,0.8c0.8,0.6,5.7,4.4,6.3,4.8
		c4,3.2,9.7,0.6,13.3-4.7c0,0-6.9-19.6-20.4-6.9c-1,1-1.7,1.4-3.5,1.9l-5.8,1.5c0.1,0.1,2,1.6,2,1.6l7.3-1.9
		c0.8-0.1,1.2-0.4,1.3-0.5c4.2-3.3,8.9-5.6,13.3,1.4c0.1,0.1,0.1,0.2,0.2,0.3c0.4,0.6,1.1,1.6,2,2.1
		C403.9,292.6,402.6,293,401.4,293.9"/>
	<path class="st7" d="M377.3,232.6c0,0.1-0.1,0.3-0.1,0.4c-0.6,2.2-1.4,4-4.2,4.2c-0.4,0-1.1,0-2.9,0.1c-0.6,0-2.6,0.1-4,0.2
		c-1.3,0.1-1.4,0.4-1.6,0.7l-4.6,6.3l1.4,0l1.2-1.7c0.5-0.6,1.2-1.9,3.8-2.1c1-0.1,7.2-0.3,7.9-0.3c5.1-0.1,7.8-5.8,7.2-12.2
		c0,0-17.9-10.6-20,7.8c-0.2,1.4-0.4,2.2-1.4,3.7l-3.5,4.9c0.1,0,2.6-0.1,2.6-0.1l4.3-6.2c0.5-0.6,0.7-1.1,0.7-1.2
		c1-5.2,3.2-10,11.1-7.5c0.1,0,0.2,0.1,0.3,0.1c0.7,0.2,1.9,0.5,2.9,0.3C378.4,230.1,377.7,231.2,377.3,232.6"/>
	<path class="st7" d="M319.5,201.2c0.1,0.1,0.1,0.2,0.2,0.4c0.9,2.1,1.5,4-0.5,5.9c-0.3,0.2-0.8,0.7-2.1,2c-0.4,0.4-2,1.8-3,2.7
		c-0.9,0.9-0.8,1.2-0.8,1.6l0.6,7.8l1.1-0.9l-0.2-2.1c0-0.8-0.3-2.2,1.5-4c0.7-0.7,5.3-4.9,5.8-5.3c3.8-3.4,2.3-9.4-2.4-13.9
		c0,0-20.5,3.4-10.3,18.9c0.8,1.2,1.1,1.9,1.3,3.8l0.4,6c0.1-0.1,1.9-1.7,1.9-1.7l-0.6-7.5c0-0.8-0.2-1.3-0.3-1.4
		c-2.6-4.7-4-9.8,3.7-12.8c0.1,0,0.2-0.1,0.3-0.1c0.6-0.3,1.8-0.8,2.4-1.6C318.7,198.6,318.9,199.9,319.5,201.2"/>
	<path class="st7" d="M255.1,214.3c0.1,0.1,0.2,0.1,0.4,0.2c2.1,1,3.7,2.1,3.4,4.9c0,0.4-0.1,1.1-0.4,2.9c-0.1,0.6-0.4,2.6-0.5,4
		c-0.2,1.3,0.1,1.4,0.4,1.7l5.4,5.6l0.2-1.4l-1.5-1.5c-0.5-0.6-1.7-1.5-1.4-4.1c0.1-1,1-7.2,1.1-7.8c0.8-5-4.3-8.7-10.8-9.2
		c0,0-13.5,15.8,4.2,21.1c1.3,0.4,2,0.8,3.4,2l4.2,4.3c0-0.1,0.3-2.5,0.3-2.5l-5.3-5.3c-0.5-0.6-0.9-0.8-1.1-0.9
		c-5-1.9-9.3-4.9-5.4-12.2c0.1-0.1,0.1-0.2,0.2-0.3c0.3-0.6,0.9-1.7,0.8-2.8C252.7,212.9,253.8,213.7,255.1,214.3"/>
	<path class="st7" d="M214.1,265.8c0.1,0,0.3-0.1,0.4-0.1c2.2-0.6,4.2-0.8,5.7,1.5c0.2,0.3,0.6,0.9,1.6,2.5c0.3,0.5,1.4,2.2,2.2,3.4
		c0.7,1.1,1,1,1.4,1.1l7.8,0.8l-0.7-1.2l-2.1-0.2c-0.8-0.1-2.3-0.1-3.7-2.2c-0.6-0.8-3.9-6.1-4.2-6.7c-2.7-4.4-8.9-3.9-14.1-0.1
		c0,0-0.2,20.8,16.8,13.4c1.3-0.6,2.1-0.7,3.9-0.6l6,0.6c-0.1-0.1-1.4-2.2-1.4-2.2l-7.5-0.7c-0.8-0.1-1.3,0-1.4,0
		c-5.1,1.7-10.3,2.2-12-5.9c0-0.1,0-0.2-0.1-0.3c-0.2-0.7-0.5-1.9-1.2-2.7C211.4,266.2,212.7,266.2,214.1,265.8"/>
	<path class="st7" d="M215.8,331.6c0.1-0.1,0.1-0.2,0.2-0.3c1.3-1.9,2.7-3.3,5.4-2.5c0.3,0.1,1,0.3,2.8,0.9c0.6,0.2,2.5,0.8,3.8,1.2
		c1.2,0.4,1.5,0.1,1.8-0.1l6.5-4.4l-1.3-0.5l-1.7,1.2c-0.7,0.4-1.8,1.4-4.2,0.7c-1-0.3-6.9-2.2-7.5-2.4c-4.8-1.6-9.3,2.7-10.9,9
		c0,0,13.2,16,21.5-0.5c0.6-1.3,1.1-1.9,2.6-3l5-3.4c-0.1,0-2.4-0.8-2.4-0.8l-6.2,4.3c-0.7,0.4-1,0.8-1.1,0.9
		c-2.8,4.6-6.5,8.3-13,3.2c-0.1-0.1-0.2-0.1-0.3-0.2c-0.6-0.4-1.6-1.1-2.6-1.3C214,333.6,215,332.7,215.8,331.6"/>
	<path class="st7" d="M259.4,380.9c0-0.1,0-0.3,0-0.4c-0.2-2.3,0-4.2,2.5-5.4c0.3-0.1,1-0.4,2.7-1.1c0.5-0.2,2.4-1,3.7-1.5
		c1.2-0.5,1.2-0.9,1.3-1.2l2.1-7.5l-1.3,0.5l-0.6,2c-0.2,0.8-0.5,2.2-2.8,3.2c-0.9,0.4-6.7,2.8-7.3,3c-4.7,1.9-5.4,8.1-2.6,13.9
		c0,0,20.4,3.8,16.1-14.2c-0.3-1.4-0.3-2.2,0.1-4l1.6-5.8c-0.1,0-2.4,1-2.4,1l-2,7.3c-0.3,0.7-0.3,1.2-0.2,1.4
		c0.8,5.3,0.4,10.5-7.9,10.8c-0.1,0-0.2,0-0.4,0c-0.7,0.1-1.9,0.1-2.8,0.7C259.3,383.6,259.5,382.3,259.4,380.9"/>
	<path class="st7" d="M324.4,390.6c-0.1-0.1-0.2-0.2-0.3-0.3c-1.6-1.6-2.7-3.2-1.5-5.7c0.2-0.3,0.5-1,1.3-2.6
		c0.3-0.5,1.2-2.3,1.9-3.6c0.6-1.2,0.4-1.4,0.2-1.7l-3.2-7.1l-0.7,1.2l0.9,1.9c0.3,0.7,1,2-0.1,4.3c-0.4,0.9-3.3,6.4-3.7,7
		c-2.4,4.5,1.1,9.7,7,12.3c0,0,18.1-10.2,3.2-21.3c-1.1-0.8-1.7-1.4-2.5-3.1l-2.5-5.5c-0.1,0.1-1.2,2.3-1.2,2.3l3.2,6.8
		c0.3,0.7,0.6,1.1,0.7,1.2c4,3.5,7.1,7.8,0.9,13.3c-0.1,0.1-0.2,0.2-0.3,0.2c-0.5,0.5-1.4,1.3-1.7,2.3
		C326.1,392.7,325.5,391.6,324.4,390.6"/>
	<path class="st7" d="M357.3,376.4c-0.1-0.1-0.2-0.1-0.4-0.2c-2.1-0.9-3.7-2-3.5-4.8c0-0.4,0.1-1.1,0.3-2.9c0.1-0.6,0.3-2.6,0.4-4
		c0.1-1.3-0.2-1.4-0.4-1.7l-5.6-5.5l-0.2,1.4l1.5,1.5c0.5,0.6,1.7,1.5,1.5,4c-0.1,1-0.8,7.2-0.9,7.9c-0.7,5.1,4.5,8.6,11,8.9
		c0,0,13.2-16.1-4.7-21c-1.4-0.4-2.1-0.7-3.4-2l-4.3-4.2c0,0.1-0.3,2.5-0.3,2.5l5.4,5.2c0.5,0.6,1,0.8,1.1,0.9
		c5,1.8,9.4,4.7,5.7,12.1c-0.1,0.1-0.1,0.2-0.2,0.3c-0.3,0.6-0.8,1.7-0.8,2.8C359.7,377.8,358.6,377,357.3,376.4"/>
	<path class="st7" d="M397.1,324c-0.1,0-0.3,0.1-0.4,0.1c-2.2,0.6-4.1,0.9-5.8-1.4c-0.2-0.3-0.6-0.9-1.6-2.4
		c-0.3-0.5-1.5-2.2-2.2-3.3c-0.7-1.1-1.1-1-1.4-1l-7.8-0.6l0.7,1.2l2.1,0.2c0.8,0.1,2.3,0.1,3.7,2.1c0.6,0.8,4,6,4.4,6.6
		c2.8,4.3,9,3.7,14.1-0.2c0,0-0.3-20.8-17.1-13.1c-1.3,0.6-2.1,0.8-3.9,0.7l-6-0.5c0.1,0.1,1.4,2.1,1.4,2.1l7.5,0.5
		c0.8,0.1,1.3,0,1.4,0c5-1.8,10.3-2.4,12.1,5.6c0,0.1,0,0.2,0.1,0.3c0.2,0.7,0.5,1.9,1.2,2.6C399.8,323.5,398.5,323.6,397.1,324"/>
	<path class="st7" d="M393.9,258.3c-0.1,0.1-0.1,0.2-0.2,0.3c-1.3,1.9-2.6,3.3-5.3,2.6c-0.3-0.1-1.1-0.3-2.8-0.8
		c-0.6-0.2-2.5-0.8-3.9-1.1c-1.2-0.4-1.5-0.1-1.8,0.1l-6.4,4.5l1.4,0.5l1.7-1.2c0.7-0.4,1.8-1.4,4.2-0.8c1,0.3,6.9,2,7.6,2.2
		c4.9,1.5,9.3-2.9,10.7-9.3c0,0-13.6-15.7-21.5,1c-0.6,1.3-1.1,1.9-2.5,3l-4.9,3.5c0.1,0,2.5,0.7,2.5,0.7l6.1-4.4
		c0.7-0.4,1-0.8,1.1-0.9c2.7-4.6,6.3-8.5,12.9-3.5c0.1,0.1,0.2,0.1,0.3,0.2c0.6,0.4,1.6,1.1,2.6,1.2
		C395.7,256.2,394.7,257.1,393.9,258.3"/>
	<path class="st7" d="M349.3,210c0,0.1,0,0.3,0,0.4c0.2,2.3,0.1,4.2-2.4,5.4c-0.3,0.2-1,0.4-2.7,1.2c-0.5,0.2-2.4,1.1-3.7,1.6
		c-1.2,0.5-1.2,0.9-1.3,1.2l-2,7.6l1.3-0.5l0.5-2.1c0.2-0.8,0.5-2.2,2.7-3.3c0.9-0.4,6.6-2.9,7.2-3.2c4.7-2,5.2-8.2,2.2-14
		c0,0-20.5-3.3-15.8,14.6c0.4,1.4,0.4,2.2,0,4l-1.5,5.8c0.1,0,2.3-1,2.3-1l1.8-7.3c0.3-0.7,0.2-1.3,0.2-1.4
		c-0.9-5.3-0.6-10.5,7.6-11c0.1,0,0.2,0,0.4,0c0.7-0.1,1.9-0.2,2.8-0.8C349.3,207.3,349.1,208.6,349.3,210"/>
	<path class="st7" d="M284,201.7c0.1,0.1,0.2,0.2,0.3,0.3c1.6,1.6,2.8,3.2,1.7,5.7c-0.1,0.3-0.5,1-1.3,2.6c-0.3,0.5-1.2,2.4-1.8,3.6
		c-0.6,1.2-0.3,1.4-0.2,1.8l3.3,7.1l0.7-1.3l-0.9-1.9c-0.3-0.7-1.1-2,0-4.3c0.4-0.9,3.2-6.5,3.5-7.1c2.3-4.5-1.3-9.6-7.3-12.1
		c0,0-17.9,10.6-2.8,21.3c1.1,0.8,1.7,1.4,2.6,3l2.6,5.4c0.1-0.1,1.1-2.3,1.1-2.3l-3.3-6.8c-0.3-0.7-0.6-1.1-0.7-1.2
		c-4.1-3.4-7.3-7.7-1.2-13.3c0.1-0.1,0.2-0.2,0.3-0.2c0.5-0.5,1.4-1.4,1.7-2.4C282.3,199.6,283,200.7,284,201.7"/>
	<path class="st7" d="M228.7,237.3c0.1,0,0.3,0,0.4,0c2.3,0.2,4.2,0.6,4.9,3.3c0.1,0.3,0.3,1.1,0.7,2.8c0.1,0.6,0.6,2.6,1,3.9
		c0.3,1.3,0.7,1.3,1,1.5l7.1,3.3l-0.3-1.4l-1.9-0.9c-0.7-0.4-2.1-0.8-2.8-3.3c-0.3-1-1.7-7-1.9-7.7c-1.1-5-7.2-6.5-13.4-4.6
		c0,0-6.9,19.6,11.6,18.1c1.4-0.1,2.2,0,3.9,0.7l5.5,2.5c0-0.1-0.6-2.5-0.6-2.5l-6.9-3.1c-0.7-0.4-1.2-0.4-1.3-0.4
		c-5.3,0-10.5-1.2-9.5-9.4c0-0.1,0-0.2,0-0.4c0-0.7,0.2-1.9-0.3-2.9C226,236.8,227.2,237.2,228.7,237.3"/>
	<path class="st7" d="M209.2,300.2c0.1-0.1,0.2-0.2,0.3-0.2c1.9-1.3,3.6-2.2,5.9-0.6c0.3,0.2,0.9,0.7,2.3,1.7
		c0.5,0.4,2.1,1.6,3.2,2.4c1,0.8,1.3,0.6,1.7,0.5l7.5-2.1l-1.1-0.9l-2,0.6c-0.8,0.2-2.1,0.7-4.2-0.7c-0.8-0.6-5.8-4.3-6.4-4.7
		c-4.1-3.1-9.7-0.4-13.2,5c0,0,7.4,19.4,20.5,6.4c1-1,1.7-1.4,3.4-2l5.8-1.6c-0.1-0.1-2.1-1.5-2.1-1.5l-7.2,2.1
		c-0.8,0.2-1.2,0.4-1.3,0.5c-4.1,3.4-8.8,5.8-13.3-1.1c-0.1-0.1-0.1-0.2-0.2-0.3c-0.4-0.6-1.1-1.6-2.1-2.1
		C206.8,301.5,208,301,209.2,300.2"/>
	<path class="st7" d="M234.6,360.8c0-0.1,0.1-0.3,0.1-0.4c0.6-2.2,1.3-4,4.1-4.3c0.4,0,1.1-0.1,2.9-0.2c0.6,0,2.6-0.2,4-0.3
		c1.3-0.1,1.4-0.4,1.6-0.7l4.4-6.4l-1.4,0l-1.2,1.8c-0.5,0.6-1.2,1.9-3.7,2.2c-1,0.1-7.2,0.5-7.9,0.5c-5.1,0.2-7.7,5.9-6.9,12.3
		c0,0,18.1,10.2,19.9-8.3c0.1-1.4,0.4-2.2,1.3-3.7l3.4-4.9c-0.1,0-2.6,0.2-2.6,0.2l-4.2,6.3c-0.5,0.6-0.6,1.1-0.7,1.2
		c-0.9,5.3-3,10.1-10.9,7.7c-0.1,0-0.2-0.1-0.3-0.1c-0.7-0.2-1.9-0.5-2.9-0.3C233.7,363.4,234.3,362.2,234.6,360.8"/>
	<path class="st7" d="M293.1,390.9c-0.1-0.1-0.1-0.2-0.2-0.4c-1-2.1-1.6-3.9,0.4-5.9c0.2-0.3,0.8-0.8,2.1-2c0.4-0.4,1.9-1.8,2.9-2.8
		c0.9-0.9,0.8-1.2,0.8-1.6l-0.7-7.8l-1.1,0.9l0.2,2.1c0,0.8,0.3,2.2-1.4,4c-0.7,0.7-5.2,5-5.7,5.5c-3.7,3.5-2.1,9.5,2.7,13.9
		c0,0,20.4-3.9,9.9-19.1c-0.8-1.2-1.1-1.9-1.4-3.7l-0.6-6c-0.1,0.1-1.9,1.8-1.9,1.8l0.8,7.5c0,0.8,0.2,1.3,0.3,1.4
		c2.7,4.6,4.2,9.7-3.4,12.9c-0.1,0-0.2,0.1-0.3,0.1c-0.6,0.3-1.8,0.8-2.4,1.7C294.1,393.5,293.8,392.2,293.1,390.9"/>
</g>
<g class="st6">
	<path class="st7" d="M258,73.9c-0.1,0-0.3,0-0.4,0c-2.3-0.2-4.2-0.7-4.9-3.4c-0.1-0.3-0.2-1.1-0.6-2.8c-0.1-0.6-0.6-2.6-0.9-3.9
		c-0.3-1.3-0.6-1.3-1-1.5l-7-3.4l0.3,1.4l1.9,0.9c0.7,0.4,2.1,0.9,2.7,3.3c0.2,1,1.6,7.1,1.7,7.7c1,5,7,6.7,13.2,4.9
		c0,0,7.3-19.5-11.2-18.4c-1.4,0.1-2.2,0-3.9-0.8l-5.4-2.6c0,0.1,0.5,2.5,0.5,2.5l6.8,3.2c0.7,0.4,1.2,0.5,1.3,0.5
		c5.3,0.1,10.4,1.4,9.3,9.6c0,0.1,0,0.2,0,0.4c-0.1,0.7-0.2,1.9,0.2,2.9C260.6,74.5,259.4,74.1,258,73.9"/>
	<path class="st7" d="M278.9,11.6c-0.1,0.1-0.2,0.2-0.3,0.2c-1.9,1.3-3.6,2.1-5.9,0.5c-0.3-0.2-0.9-0.7-2.3-1.8
		c-0.5-0.4-2.1-1.6-3.2-2.5c-1-0.8-1.3-0.6-1.7-0.5l-7.6,1.9l1.1,0.9l2-0.5c0.8-0.2,2.2-0.7,4.2,0.8c0.8,0.6,5.7,4.4,6.3,4.8
		c4,3.2,9.7,0.6,13.3-4.7c0,0-6.9-19.6-20.4-6.9c-1,1-1.7,1.4-3.5,1.9l-5.8,1.5c0.1,0.1,2,1.6,2,1.6l7.3-1.9
		c0.8-0.1,1.2-0.4,1.3-0.5c4.2-3.3,8.9-5.6,13.3,1.4c0.1,0.1,0.1,0.2,0.2,0.3c0.4,0.6,1.1,1.6,2,2.1
		C281.3,10.3,280.1,10.7,278.9,11.6"/>
	<path class="st7" d="M254.8-49.7c0,0.1-0.1,0.3-0.1,0.4c-0.6,2.2-1.4,4-4.2,4.2c-0.4,0-1.1,0-2.9,0.1c-0.6,0-2.6,0.1-4,0.2
		c-1.3,0.1-1.4,0.4-1.6,0.7l-4.6,6.3l1.4,0l1.2-1.7c0.5-0.6,1.2-1.9,3.8-2.1c1-0.1,7.2-0.3,7.9-0.3c5.1-0.1,7.8-5.8,7.2-12.2
		c0,0-17.9-10.6-20,7.8c-0.2,1.4-0.4,2.2-1.4,3.7l-3.5,4.9c0.1,0,2.6-0.1,2.6-0.1l4.3-6.2c0.5-0.6,0.7-1.1,0.7-1.2
		c1-5.2,3.2-10,11.1-7.5c0.1,0,0.2,0.1,0.3,0.1c0.7,0.2,1.9,0.5,2.9,0.3C255.8-52.2,255.2-51.1,254.8-49.7"/>
	<path class="st7" d="M197-81.1c0.1,0.1,0.1,0.2,0.2,0.4c0.9,2.1,1.5,4-0.5,5.9c-0.3,0.2-0.8,0.7-2.1,2c-0.4,0.4-2,1.8-3,2.7
		c-0.9,0.9-0.8,1.2-0.8,1.6l0.6,7.8l1.1-0.9l-0.2-2.1c0-0.8-0.3-2.2,1.5-4c0.7-0.7,5.3-4.9,5.8-5.3c3.8-3.4,2.3-9.4-2.4-13.9
		c0,0-20.5,3.4-10.3,18.9c0.8,1.2,1.1,1.9,1.3,3.8l0.4,6c0.1-0.1,1.9-1.7,1.9-1.7l-0.6-7.5c0-0.8-0.2-1.3-0.3-1.4
		c-2.6-4.7-4-9.8,3.7-12.8c0.1,0,0.2-0.1,0.3-0.1c0.6-0.3,1.8-0.8,2.4-1.6C196.1-83.7,196.4-82.4,197-81.1"/>
	<path class="st7" d="M132.5-68c0.1,0.1,0.2,0.1,0.4,0.2c2.1,1,3.7,2.1,3.4,4.9c0,0.4-0.1,1.1-0.4,2.9c-0.1,0.6-0.4,2.6-0.5,4
		c-0.2,1.3,0.1,1.4,0.4,1.7l5.4,5.6l0.2-1.4l-1.5-1.5c-0.5-0.6-1.7-1.5-1.4-4.1c0.1-1,1-7.2,1.1-7.8c0.8-5-4.3-8.7-10.8-9.2
		c0,0-13.5,15.8,4.2,21.1c1.3,0.4,2,0.8,3.4,2l4.2,4.3c0-0.1,0.3-2.5,0.3-2.5l-5.3-5.3c-0.5-0.6-0.9-0.8-1.1-0.9
		c-5-1.9-9.3-4.9-5.4-12.2c0.1-0.1,0.1-0.2,0.2-0.3c0.3-0.6,0.9-1.7,0.8-2.8C130.2-69.4,131.2-68.6,132.5-68"/>
	<path class="st7" d="M91.5-16.5c0.1,0,0.3-0.1,0.4-0.1c2.2-0.6,4.2-0.8,5.7,1.5c0.2,0.3,0.6,0.9,1.6,2.5c0.3,0.5,1.4,2.2,2.2,3.4
		c0.7,1.1,1,1,1.4,1.1l7.8,0.8l-0.7-1.2l-2.1-0.2c-0.8-0.1-2.3-0.1-3.7-2.2c-0.6-0.8-3.9-6.1-4.2-6.7c-2.7-4.4-8.9-3.9-14.1-0.1
		c0,0-0.2,20.8,16.8,13.4c1.3-0.6,2.1-0.7,3.9-0.6l6,0.6c-0.1-0.1-1.4-2.2-1.4-2.2l-7.5-0.7c-0.8-0.1-1.3,0-1.4,0
		C97-5.5,91.8-5,90.1-13.1c0-0.1,0-0.2-0.1-0.3c-0.2-0.7-0.5-1.9-1.2-2.7C88.8-16.1,90.1-16.1,91.5-16.5"/>
	<path class="st7" d="M93.2,49.3c0.1-0.1,0.1-0.2,0.2-0.3c1.3-1.9,2.7-3.3,5.4-2.5c0.3,0.1,1,0.3,2.8,0.9c0.6,0.2,2.5,0.8,3.8,1.2
		c1.2,0.4,1.5,0.1,1.8-0.1l6.5-4.4l-1.3-0.5l-1.7,1.2c-0.7,0.4-1.8,1.4-4.2,0.7c-1-0.3-6.9-2.2-7.5-2.4c-4.8-1.6-9.3,2.7-10.9,9
		c0,0,13.2,16,21.5-0.5c0.6-1.3,1.1-1.9,2.6-3l5-3.4c-0.1,0-2.4-0.8-2.4-0.8l-6.2,4.3c-0.7,0.4-1,0.8-1.1,0.9
		c-2.8,4.6-6.5,8.3-13,3.2c-0.1-0.1-0.2-0.1-0.3-0.2c-0.6-0.4-1.6-1.1-2.6-1.3C91.4,51.3,92.4,50.5,93.2,49.3"/>
	<path class="st7" d="M136.8,98.6c0-0.1,0-0.3,0-0.4c-0.2-2.3,0-4.2,2.5-5.4c0.3-0.1,1-0.4,2.7-1.1c0.5-0.2,2.4-1,3.7-1.5
		c1.2-0.5,1.2-0.9,1.3-1.2l2.1-7.5l-1.3,0.5l-0.6,2c-0.2,0.8-0.5,2.2-2.8,3.2c-0.9,0.4-6.7,2.8-7.3,3c-4.7,1.9-5.4,8.1-2.6,13.9
		c0,0,20.4,3.8,16.1-14.2c-0.3-1.4-0.3-2.2,0.1-4l1.6-5.8c-0.1,0-2.4,1-2.4,1l-2,7.3c-0.3,0.7-0.3,1.2-0.2,1.4
		c0.8,5.3,0.4,10.5-7.9,10.8c-0.1,0-0.2,0-0.4,0c-0.7,0.1-1.9,0.1-2.8,0.7C136.7,101.3,136.9,100,136.8,98.6"/>
	<path class="st7" d="M201.9,108.3c-0.1-0.1-0.2-0.2-0.3-0.3c-1.6-1.6-2.7-3.2-1.5-5.7c0.2-0.3,0.5-1,1.3-2.6
		c0.3-0.5,1.2-2.3,1.9-3.6c0.6-1.2,0.4-1.4,0.2-1.7l-3.2-7.1l-0.7,1.2l0.9,1.9c0.3,0.7,1,2-0.1,4.3c-0.4,0.9-3.3,6.4-3.7,7
		c-2.4,4.5,1.1,9.7,7,12.3c0,0,18.1-10.2,3.2-21.3c-1.1-0.8-1.7-1.4-2.5-3.1l-2.5-5.5c-0.1,0.1-1.2,2.3-1.2,2.3l3.2,6.8
		c0.3,0.7,0.6,1.1,0.7,1.2c4,3.5,7.1,7.8,0.9,13.3c-0.1,0.1-0.2,0.2-0.3,0.2c-0.5,0.5-1.4,1.3-1.7,2.3
		C203.6,110.4,202.9,109.3,201.9,108.3"/>
	<path class="st7" d="M234.7,94.1c-0.1-0.1-0.2-0.1-0.4-0.2c-2.1-0.9-3.7-2-3.5-4.8c0-0.4,0.1-1.1,0.3-2.9c0.1-0.6,0.3-2.6,0.4-4
		c0.1-1.3-0.2-1.4-0.4-1.7l-5.6-5.5l-0.2,1.4l1.5,1.5c0.5,0.6,1.7,1.5,1.5,4c-0.1,1-0.8,7.2-0.9,7.9c-0.7,5.1,4.5,8.6,11,8.9
		c0,0,13.2-16.1-4.7-21c-1.4-0.4-2.1-0.7-3.4-2l-4.3-4.2c0,0.1-0.3,2.5-0.3,2.5l5.4,5.2c0.5,0.6,1,0.8,1.1,0.9
		c5,1.8,9.4,4.7,5.7,12.1c-0.1,0.1-0.1,0.2-0.2,0.3c-0.3,0.6-0.8,1.7-0.8,2.8C237.1,95.5,236,94.7,234.7,94.1"/>
	<path class="st7" d="M274.5,41.7c-0.1,0-0.3,0.1-0.4,0.1c-2.2,0.6-4.1,0.9-5.8-1.4c-0.2-0.3-0.6-0.9-1.6-2.4
		c-0.3-0.5-1.5-2.2-2.2-3.3c-0.7-1.1-1.1-1-1.4-1l-7.8-0.6l0.7,1.2l2.1,0.2c0.8,0.1,2.3,0.1,3.7,2.1c0.6,0.8,4,6,4.4,6.6
		c2.8,4.3,9,3.7,14.1-0.2c0,0-0.3-20.8-17.1-13.1c-1.3,0.6-2.1,0.8-3.9,0.7l-6-0.5c0.1,0.1,1.4,2.1,1.4,2.1l7.5,0.5
		c0.8,0.1,1.3,0,1.4,0c5-1.8,10.3-2.4,12.1,5.6c0,0.1,0,0.2,0.1,0.3c0.2,0.7,0.5,1.9,1.2,2.6C277.2,41.2,275.9,41.3,274.5,41.7"/>
	<path class="st7" d="M271.3-24c-0.1,0.1-0.1,0.2-0.2,0.3c-1.3,1.9-2.6,3.3-5.3,2.6c-0.3-0.1-1.1-0.3-2.8-0.8
		c-0.6-0.2-2.5-0.8-3.9-1.1c-1.2-0.4-1.5-0.1-1.8,0.1l-6.4,4.5l1.4,0.5l1.7-1.2c0.7-0.4,1.8-1.4,4.2-0.8c1,0.3,6.9,2,7.6,2.2
		c4.9,1.5,9.3-2.9,10.7-9.3c0,0-13.6-15.7-21.5,1c-0.6,1.3-1.1,1.9-2.5,3l-4.9,3.5c0.1,0,2.5,0.7,2.5,0.7l6.1-4.4
		c0.7-0.4,1-0.8,1.1-0.9c2.7-4.6,6.3-8.5,12.9-3.5c0.1,0.1,0.2,0.1,0.3,0.2c0.6,0.4,1.6,1.1,2.6,1.2C273.1-26.1,272.2-25.2,271.3-24
		"/>
	<path class="st7" d="M226.7-72.3c0,0.1,0,0.3,0,0.4c0.2,2.3,0.1,4.2-2.4,5.4c-0.3,0.2-1,0.4-2.7,1.2c-0.5,0.2-2.4,1.1-3.7,1.6
		c-1.2,0.5-1.2,0.9-1.3,1.2l-2,7.6l1.3-0.5l0.5-2.1c0.2-0.8,0.5-2.2,2.7-3.3c0.9-0.4,6.6-2.9,7.2-3.2c4.7-2,5.2-8.2,2.2-14
		c0,0-20.5-3.3-15.8,14.6c0.4,1.4,0.4,2.2,0,4l-1.5,5.8c0.1,0,2.3-1,2.3-1l1.8-7.3c0.3-0.7,0.2-1.3,0.2-1.4
		c-0.9-5.3-0.6-10.5,7.6-11c0.1,0,0.2,0,0.4,0c0.7-0.1,1.9-0.2,2.8-0.8C226.7-75,226.5-73.7,226.7-72.3"/>
	<path class="st7" d="M161.4-80.6c0.1,0.1,0.2,0.2,0.3,0.3c1.6,1.6,2.8,3.2,1.7,5.7c-0.1,0.3-0.5,1-1.3,2.6
		c-0.3,0.5-1.2,2.4-1.8,3.6c-0.6,1.2-0.3,1.4-0.2,1.8l3.3,7.1l0.7-1.3l-0.9-1.9c-0.3-0.7-1.1-2,0-4.3c0.4-0.9,3.2-6.5,3.5-7.1
		c2.3-4.5-1.3-9.6-7.3-12.1c0,0-17.9,10.6-2.8,21.3c1.1,0.8,1.7,1.4,2.6,3l2.6,5.4c0.1-0.1,1.1-2.3,1.1-2.3l-3.3-6.8
		c-0.3-0.7-0.6-1.1-0.7-1.2c-4.1-3.4-7.3-7.7-1.2-13.3c0.1-0.1,0.2-0.2,0.3-0.2c0.5-0.5,1.4-1.4,1.7-2.4
		C159.7-82.7,160.4-81.6,161.4-80.6"/>
	<path class="st7" d="M106.1-45c0.1,0,0.3,0,0.4,0c2.3,0.2,4.2,0.6,4.9,3.3c0.1,0.3,0.3,1.1,0.7,2.8c0.1,0.6,0.6,2.6,1,3.9
		c0.3,1.3,0.7,1.3,1,1.5l7.1,3.3l-0.3-1.4l-1.9-0.9c-0.7-0.4-2.1-0.8-2.8-3.3c-0.3-1-1.7-7-1.9-7.7c-1.1-5-7.2-6.5-13.4-4.6
		c0,0-6.9,19.6,11.6,18.1c1.4-0.1,2.2,0,3.9,0.7l5.5,2.5c0-0.1-0.6-2.5-0.6-2.5l-6.9-3.1c-0.7-0.4-1.2-0.4-1.3-0.4
		c-5.3,0-10.5-1.2-9.5-9.4c0-0.1,0-0.2,0-0.4c0-0.7,0.2-1.9-0.3-2.9C103.4-45.5,104.7-45.1,106.1-45"/>
	<path class="st7" d="M86.6,17.9c0.1-0.1,0.2-0.2,0.3-0.2c1.9-1.3,3.6-2.2,5.9-0.6c0.3,0.2,0.9,0.7,2.3,1.7c0.5,0.4,2.1,1.6,3.2,2.4
		c1,0.8,1.3,0.6,1.7,0.5l7.5-2.1l-1.1-0.9l-2,0.6c-0.8,0.2-2.1,0.7-4.2-0.7c-0.8-0.6-5.8-4.3-6.4-4.7c-4.1-3.1-9.7-0.4-13.2,5
		c0,0,7.4,19.4,20.5,6.4c1-1,1.7-1.4,3.4-2l5.8-1.6c-0.1-0.1-2.1-1.5-2.1-1.5l-7.2,2.1c-0.8,0.2-1.2,0.4-1.3,0.5
		c-4.1,3.4-8.8,5.8-13.3-1.1c-0.1-0.1-0.1-0.2-0.2-0.3c-0.4-0.6-1.1-1.6-2.1-2.1C84.2,19.2,85.4,18.7,86.6,17.9"/>
	<path class="st7" d="M112.1,78.5c0-0.1,0.1-0.3,0.1-0.4c0.6-2.2,1.3-4,4.1-4.3c0.4,0,1.1-0.1,2.9-0.2c0.6,0,2.6-0.2,4-0.3
		c1.3-0.1,1.4-0.4,1.6-0.7l4.4-6.4l-1.4,0l-1.2,1.8c-0.5,0.6-1.2,1.9-3.7,2.2c-1,0.1-7.2,0.5-7.9,0.5c-5.1,0.2-7.7,5.9-6.9,12.3
		c0,0,18.1,10.2,19.9-8.3c0.1-1.4,0.4-2.2,1.3-3.7l3.4-4.9c-0.1,0-2.6,0.2-2.6,0.2l-4.2,6.3c-0.5,0.6-0.6,1.1-0.7,1.2
		c-0.9,5.3-3,10.1-10.9,7.7c-0.1,0-0.2-0.1-0.3-0.1c-0.7-0.2-1.9-0.5-2.9-0.3C111.1,81.1,111.7,79.9,112.1,78.5"/>
	<path class="st7" d="M170.6,108.6c-0.1-0.1-0.1-0.2-0.2-0.4c-1-2.1-1.6-3.9,0.4-5.9c0.2-0.3,0.8-0.8,2.1-2c0.4-0.4,1.9-1.8,2.9-2.8
		c0.9-0.9,0.8-1.2,0.8-1.6l-0.7-7.8l-1.1,0.9l0.2,2.1c0,0.8,0.3,2.2-1.4,4c-0.7,0.7-5.2,5-5.7,5.5c-3.7,3.5-2.1,9.5,2.7,13.9
		c0,0,20.4-3.9,9.9-19.1c-0.8-1.2-1.1-1.9-1.4-3.7l-0.6-6c-0.1,0.1-1.9,1.8-1.9,1.8l0.8,7.5c0,0.8,0.2,1.3,0.3,1.4
		c2.7,4.6,4.2,9.7-3.4,12.9c-0.1,0-0.2,0.1-0.3,0.1c-0.6,0.3-1.8,0.8-2.4,1.7C171.5,111.2,171.2,109.9,170.6,108.6"/>
</g>
<g class="st3">
	<g>
		<defs>
			<rect id="SVGID_9_" x="584.4" y="99.8" width="296.8" height="297.8"/>
		</defs>
		<clipPath id="SVGID_10_">
			<use xlink:href="#SVGID_9_"  style="overflow:visible;"/>
		</clipPath>
		<g class="st8">
			<defs>
				<rect id="SVGID_11_" x="584.4" y="99.8" width="296.8" height="297.8"/>
			</defs>
			<clipPath id="SVGID_12_">
				<use xlink:href="#SVGID_11_"  style="overflow:visible;"/>
			</clipPath>
			<path class="st9" d="M726,109.9c0.2,0.2,0.3,0.3,0.5,0.5c2.8,2.9,4.8,5.7,2.7,10.1c-0.3,0.6-0.9,1.7-2.4,4.6
				c-0.5,0.9-2.2,4.1-3.3,6.3c-1,2-0.6,2.5-0.4,3.1l5.6,12.6l1.3-2.2l-1.6-3.4c-0.5-1.3-1.8-3.5,0.1-7.6c0.8-1.6,5.9-11.3,6.5-12.4
				c4.3-7.9-1.9-17-12.3-21.7c0,0-31.9,18-5.7,37.5c2,1.5,2.9,2.6,4.4,5.5l4.4,9.7c0.1-0.2,2.1-4,2.1-4l-5.6-12.1
				c-0.5-1.3-1.1-2-1.3-2.1c-7.1-6.2-12.5-13.8-1.6-23.5c0.2-0.1,0.3-0.3,0.5-0.4c0.9-0.9,2.5-2.3,3-4.1
				C723,106.1,724.2,108,726,109.9"/>
			<path class="st9" d="M678.9,120.6c0.2,0.1,0.4,0.2,0.6,0.3c3.7,1.8,6.5,3.7,6,8.6c-0.1,0.6-0.3,1.9-0.7,5.1c-0.1,1-0.6,4.6-0.9,7
				c-0.3,2.3,0.3,2.6,0.7,3l9.6,9.9l0.4-2.5l-2.6-2.7c-0.9-1.1-2.9-2.7-2.5-7.2c0.2-1.8,1.7-12.7,1.9-13.8c1.4-8.9-7.6-15.4-19-16.2
				c0,0-23.8,27.9,7.5,37.2c2.4,0.7,3.6,1.4,6,3.6l7.4,7.6c0-0.2,0.6-4.5,0.6-4.5l-9.4-9.4c-0.9-1.1-1.7-1.5-1.9-1.6
				c-8.8-3.4-16.5-8.7-9.6-21.6c0.1-0.2,0.2-0.4,0.3-0.6c0.5-1.1,1.5-3.1,1.4-4.9C674.8,118,676.6,119.5,678.9,120.6"/>
			<path class="st9" d="M638.3,146.7c0.2,0,0.5,0,0.7,0.1c4,0.4,7.4,1.3,8.6,6c0.2,0.6,0.4,1.9,1.1,5c0.2,1,1,4.6,1.5,6.9
				c0.5,2.2,1.1,2.3,1.7,2.6l12.4,6l-0.4-2.5l-3.4-1.6c-1.2-0.7-3.7-1.5-4.8-5.9c-0.4-1.7-2.7-12.5-3-13.6
				c-1.8-8.8-12.4-11.8-23.4-8.7c0,0-12.9,34.3,19.8,32.4c2.5-0.1,3.9,0.1,6.9,1.3l9.5,4.6c0-0.2-1-4.4-1-4.4l-12-5.7
				c-1.2-0.7-2.1-0.8-2.3-0.8c-9.4-0.2-18.4-2.5-16.4-17c0-0.2,0.1-0.4,0.1-0.6c0.1-1.2,0.4-3.4-0.3-5.1
				C633.6,145.7,635.8,146.5,638.3,146.7"/>
			<path class="st9" d="M609.2,185.1c0.2-0.1,0.4-0.1,0.7-0.2c3.9-1,7.3-1.3,10.1,2.7c0.4,0.5,1,1.6,2.8,4.3c0.6,0.9,2.5,4,3.8,6
				c1.2,1.9,1.8,1.8,2.5,1.9l13.7,1.4l-1.3-2.2l-3.7-0.4c-1.4-0.2-4-0.2-6.5-3.9c-1-1.5-6.9-10.8-7.5-11.8c-4.7-7.7-15.7-6.9-25-0.2
				c0,0-0.4,36.7,29.7,23.7c2.3-1,3.7-1.2,6.9-1.1l10.5,1.1c-0.1-0.2-2.4-3.8-2.4-3.8l-13.3-1.2c-1.4-0.2-2.2-0.1-2.5,0
				c-8.9,3-18.2,3.9-21.2-10.4c0-0.2-0.1-0.4-0.1-0.6c-0.3-1.2-0.8-3.3-2.1-4.7C604.4,185.8,606.7,185.8,609.2,185.1"/>
			<path class="st9" d="M594.9,231.2c0.2-0.1,0.4-0.3,0.6-0.4c3.4-2.3,6.4-3.8,10.4-0.9c0.5,0.4,1.5,1.2,4.1,3.1
				c0.8,0.6,3.7,2.9,5.6,4.3c1.8,1.4,2.3,1,3,0.9l13.4-3.3l-1.9-1.6l-3.6,0.9c-1.4,0.3-3.8,1.2-7.4-1.4c-1.5-1.1-10.1-7.8-11.1-8.5
				c-7-5.6-17.1-1.1-23.5,8.4c0,0,12.2,34.6,36,12.1c1.8-1.7,3-2.4,6.1-3.4l10.3-2.6c-0.2-0.1-3.6-2.8-3.6-2.8l-12.9,3.4
				c-1.4,0.2-2.1,0.7-2.3,0.9c-7.4,5.9-15.8,9.9-23.5-2.5c-0.1-0.2-0.2-0.4-0.3-0.5c-0.7-1-1.9-2.8-3.5-3.7
				C590.6,233.5,592.8,232.7,594.9,231.2"/>
			<path class="st9" d="M597.2,279.5c0.1-0.2,0.3-0.4,0.4-0.6c2.4-3.3,4.8-5.7,9.5-4.4c0.6,0.2,1.8,0.6,4.9,1.5
				c1,0.3,4.4,1.4,6.8,2.1c2.2,0.7,2.6,0.2,3.1-0.2l11.4-7.7l-2.4-0.9l-3.1,2.1c-1.2,0.7-3.2,2.4-7.5,1.2
				c-1.7-0.5-12.2-3.9-13.3-4.2c-8.5-2.9-16.5,4.8-19.2,15.9c0,0,23.3,28.3,38-0.9c1.1-2.2,2-3.3,4.6-5.3l8.7-6
				c-0.2-0.1-4.3-1.4-4.3-1.4l-10.9,7.6c-1.2,0.7-1.8,1.4-1.9,1.6c-4.9,8.1-11.4,14.7-22.9,5.7c-0.2-0.1-0.3-0.3-0.5-0.4
				c-1-0.7-2.7-2-4.6-2.3C594,283.1,595.7,281.5,597.2,279.5"/>
			<path class="st9" d="M615.9,324c0.1-0.2,0.1-0.5,0.2-0.7c1.1-3.9,2.5-7,7.4-7.4c0.6,0,1.9-0.1,5.1-0.2c1,0,4.7-0.2,7.1-0.3
				c2.3-0.1,2.5-0.7,2.9-1.2l8.1-11.2l-2.5,0l-2.2,3c-0.9,1.1-2.2,3.3-6.6,3.7c-1.8,0.1-12.8,0.5-13.9,0.6
				c-9,0.2-13.8,10.2-12.6,21.5c0,0,31.6,18.6,35.4-13.8c0.3-2.5,0.8-3.8,2.5-6.5l6.2-8.6c-0.2,0-4.5,0.2-4.5,0.2l-7.7,10.9
				c-0.9,1.1-1.2,1.9-1.2,2.2c-1.8,9.3-5.7,17.7-19.6,13.2c-0.2-0.1-0.4-0.1-0.6-0.2c-1.2-0.3-3.3-1-5.1-0.6
				C614.1,328.4,615.2,326.4,615.9,324"/>
			<path class="st9" d="M648.7,359.4c0-0.2-0.1-0.5-0.1-0.7c-0.3-4,0-7.5,4.4-9.5c0.6-0.3,1.8-0.7,4.7-2c1-0.4,4.3-1.8,6.6-2.7
				c2.1-0.9,2.1-1.5,2.3-2.1l3.8-13.2L668,330l-1,3.6c-0.4,1.3-0.9,3.9-5,5.7c-1.6,0.7-11.8,4.9-12.9,5.3
				c-8.4,3.3-9.5,14.3-4.5,24.5c0,0,36,6.7,28.5-25.1c-0.6-2.4-0.6-3.8,0.1-7l2.9-10.2c-0.2,0.1-4.2,1.7-4.2,1.7l-3.5,12.8
				c-0.5,1.3-0.5,2.2-0.4,2.4c1.4,9.3,0.7,18.6-13.9,19.1c-0.2,0-0.4,0-0.6,0c-1.2,0.1-3.4,0.2-5,1.2
				C648.6,364.2,648.9,361.9,648.7,359.4"/>
			<path class="st9" d="M691.6,381.4c-0.1-0.2-0.2-0.4-0.3-0.6c-1.7-3.7-2.6-7,0.9-10.4c0.4-0.4,1.4-1.3,3.8-3.5
				c0.8-0.7,3.5-3.1,5.2-4.8c1.7-1.6,1.4-2.1,1.4-2.8l-1-13.7l-1.9,1.6l0.3,3.7c0,1.4,0.5,4-2.7,7.1c-1.3,1.2-9.4,8.6-10.3,9.4
				c-6.8,5.9-4,16.7,4.2,24.6c0,0,36.2-6,18.2-33.3c-1.4-2.1-1.9-3.4-2.3-6.6l-0.8-10.6c-0.2,0.1-3.3,3-3.3,3l1.1,13.3
				c0,1.4,0.3,2.2,0.4,2.4c4.5,8.3,7,17.2-6.6,22.7c-0.2,0.1-0.4,0.1-0.6,0.2c-1.1,0.5-3.1,1.4-4.3,2.8
				C693.1,386,692.7,383.8,691.6,381.4"/>
			<path class="st9" d="M739.5,387.5c-0.2-0.2-0.3-0.3-0.5-0.5c-2.8-2.9-4.8-5.7-2.7-10.1c0.3-0.6,0.9-1.7,2.4-4.6
				c0.5-0.9,2.2-4.1,3.3-6.3c1-2,0.6-2.5,0.4-3.1l-5.6-12.6l-1.3,2.2l1.6,3.4c0.5,1.3,1.8,3.5-0.1,7.6c-0.8,1.6-5.9,11.3-6.5,12.4
				c-4.3,7.9,1.9,17,12.3,21.7c0,0,31.9-18,5.7-37.5c-2-1.5-2.9-2.6-4.4-5.5l-4.4-9.7c-0.1,0.2-2.1,4-2.1,4l5.6,12.1
				c0.5,1.3,1.1,2,1.3,2.1c7.1,6.2,12.5,13.8,1.6,23.5c-0.2,0.1-0.3,0.3-0.5,0.4c-0.9,0.9-2.5,2.3-3,4.1
				C742.5,391.3,741.3,389.3,739.5,387.5"/>
			<path class="st9" d="M786.6,376.8c-0.2-0.1-0.4-0.2-0.6-0.3c-3.7-1.8-6.5-3.7-6-8.6c0.1-0.6,0.3-1.9,0.7-5.1c0.1-1,0.6-4.6,0.9-7
				c0.3-2.3-0.3-2.6-0.7-3l-9.6-9.9l-0.4,2.5l2.6,2.7c0.9,1.1,2.9,2.7,2.5,7.2c-0.2,1.8-1.7,12.7-1.9,13.8
				c-1.4,8.9,7.6,15.4,19,16.2c0,0,23.8-27.9-7.5-37.2c-2.4-0.7-3.6-1.4-6-3.6l-7.4-7.6c0,0.2-0.6,4.5-0.6,4.5l9.4,9.4
				c0.9,1.1,1.7,1.5,1.9,1.6c8.8,3.4,16.5,8.7,9.6,21.6c-0.1,0.2-0.2,0.4-0.3,0.6c-0.5,1.1-1.5,3.1-1.4,4.9
				C790.7,379.4,788.9,377.9,786.6,376.8"/>
			<path class="st9" d="M827.2,350.7c-0.2,0-0.5,0-0.7-0.1c-4-0.4-7.4-1.3-8.6-6c-0.2-0.6-0.4-1.9-1.1-5c-0.2-1-1-4.6-1.5-6.9
				c-0.5-2.2-1.1-2.3-1.7-2.6l-12.4-6l0.4,2.5l3.4,1.6c1.2,0.7,3.7,1.5,4.8,5.9c0.4,1.7,2.8,12.5,3,13.6c1.8,8.8,12.4,11.8,23.4,8.7
				c0,0,12.9-34.3-19.8-32.4c-2.5,0.1-3.9-0.1-6.9-1.3l-9.5-4.6c0,0.2,1,4.4,1,4.4l12,5.7c1.2,0.7,2.1,0.8,2.3,0.8
				c9.4,0.2,18.4,2.5,16.4,17c0,0.2-0.1,0.4-0.1,0.6c-0.1,1.2-0.4,3.4,0.3,5.1C831.9,351.7,829.7,350.9,827.2,350.7"/>
			<path class="st9" d="M856.4,312.2c-0.2,0.1-0.4,0.1-0.7,0.2c-3.9,1-7.3,1.3-10.1-2.7c-0.4-0.5-1-1.6-2.8-4.3
				c-0.6-0.9-2.5-4-3.8-6c-1.2-1.9-1.8-1.8-2.5-1.9l-13.7-1.4l1.3,2.2l3.7,0.4c1.4,0.2,4,0.2,6.5,3.9c1,1.5,6.9,10.8,7.5,11.8
				c4.7,7.7,15.7,6.9,25,0.2c0,0,0.4-36.7-29.7-23.7c-2.3,1-3.7,1.2-6.9,1.1l-10.5-1.1c0.1,0.2,2.4,3.8,2.4,3.8l13.3,1.2
				c1.4,0.2,2.2,0.1,2.5,0c8.9-3,18.2-3.9,21.2,10.4c0,0.2,0.1,0.4,0.1,0.6c0.3,1.2,0.8,3.3,2.1,4.7
				C861.1,311.5,858.8,311.6,856.4,312.2"/>
			<path class="st9" d="M1558.9,339.6c-0.2,0.1-0.4,0.1-0.7,0.2c-3.9,1-7.3,1.3-10.1-2.7c-0.4-0.5-1-1.6-2.8-4.3
				c-0.6-0.9-2.5-4-3.8-6c-1.2-1.9-1.8-1.8-2.5-1.9l-13.7-1.4l1.3,2.2l3.7,0.4c1.4,0.2,4,0.2,6.5,3.9c1,1.5,6.9,10.8,7.5,11.8
				c4.7,7.7,15.7,6.9,25,0.2c0,0,0.4-36.7-29.7-23.7c-2.3,1-3.7,1.2-6.9,1.1l-10.5-1.1c0.1,0.2,2.4,3.8,2.4,3.8l13.3,1.2
				c1.4,0.2,2.2,0.1,2.5,0c8.9-3,18.2-3.9,21.2,10.4c0,0.2,0.1,0.4,0.1,0.6c0.3,1.2,0.8,3.3,2.1,4.7
				C1563.7,338.9,1561.4,339,1558.9,339.6"/>
			<path class="st9" d="M870.6,266.1c-0.2,0.1-0.4,0.3-0.6,0.4c-3.4,2.3-6.4,3.8-10.4,0.9c-0.5-0.4-1.5-1.2-4.1-3.1
				c-0.8-0.6-3.7-2.9-5.6-4.3c-1.8-1.4-2.3-1-3-0.9l-13.4,3.3l1.9,1.6l3.6-0.9c1.4-0.3,3.8-1.2,7.4,1.4c1.5,1.1,10.1,7.8,11.1,8.5
				c7,5.6,17.1,1.1,23.5-8.4c0,0-12.2-34.6-36-12.1c-1.8,1.7-3,2.4-6.1,3.4l-10.3,2.6c0.2,0.1,3.6,2.8,3.6,2.8l12.9-3.4
				c1.4-0.2,2.1-0.7,2.3-0.9c7.4-5.9,15.8-9.9,23.5,2.5c0.1,0.2,0.2,0.4,0.3,0.5c0.7,1,1.9,2.8,3.5,3.7
				C874.9,263.8,872.7,264.7,870.6,266.1"/>
			<path class="st9" d="M868.3,217.9c-0.1,0.2-0.3,0.4-0.4,0.6c-2.4,3.3-4.8,5.7-9.5,4.4c-0.6-0.2-1.8-0.6-4.9-1.5
				c-1-0.3-4.4-1.4-6.8-2.1c-2.2-0.7-2.6-0.2-3.1,0.2l-11.4,7.7l2.4,0.9l3.1-2.1c1.2-0.7,3.2-2.4,7.5-1.2c1.7,0.5,12.2,3.9,13.3,4.2
				c8.5,2.9,16.5-4.8,19.2-15.9c0,0-23.3-28.3-38,0.9c-1.1,2.2-2,3.3-4.6,5.3l-8.7,6c0.2,0.1,4.3,1.4,4.3,1.4l10.9-7.6
				c1.2-0.7,1.8-1.4,1.9-1.6c4.9-8.1,11.4-14.7,22.9-5.7c0.2,0.1,0.3,0.3,0.5,0.4c1,0.7,2.7,2,4.6,2.3
				C871.5,214.3,869.8,215.8,868.3,217.9"/>
			<path class="st9" d="M849.6,173.4c-0.1,0.2-0.1,0.5-0.2,0.7c-1.1,3.9-2.5,7-7.4,7.4c-0.6,0-1.9,0.1-5.1,0.2c-1,0-4.7,0.2-7.1,0.3
				c-2.3,0.1-2.5,0.7-2.9,1.2l-8.1,11.2l2.5,0l2.2-3c0.9-1.1,2.2-3.3,6.6-3.7c1.8-0.1,12.8-0.5,13.9-0.6c9-0.2,13.8-10.2,12.6-21.5
				c0,0-31.6-18.6-35.4,13.8c-0.3,2.5-0.8,3.8-2.5,6.5l-6.2,8.6c0.2,0,4.5-0.2,4.5-0.2l7.7-10.9c0.9-1.1,1.2-1.9,1.2-2.2
				c1.8-9.3,5.7-17.7,19.6-13.2c0.2,0.1,0.4,0.1,0.6,0.2c1.2,0.3,3.3,1,5.1,0.6C851.4,168.9,850.3,170.9,849.6,173.4"/>
			<path class="st9" d="M816.8,138c0,0.2,0.1,0.5,0.1,0.7c0.3,4,0,7.5-4.4,9.5c-0.6,0.3-1.8,0.7-4.7,2c-1,0.4-4.3,1.8-6.6,2.7
				c-2.1,0.9-2.1,1.5-2.3,2.1l-3.8,13.2l2.4-0.9l1-3.6c0.4-1.3,0.9-3.9,5-5.7c1.6-0.7,11.8-4.9,12.9-5.3c8.4-3.3,9.5-14.3,4.5-24.5
				c0,0-36-6.7-28.5,25.1c0.6,2.4,0.6,3.8-0.1,7l-2.9,10.2c0.2-0.1,4.2-1.7,4.2-1.7l3.5-12.8c0.5-1.3,0.5-2.2,0.4-2.4
				c-1.4-9.3-0.7-18.6,13.9-19.1c0.2,0,0.4,0,0.6,0c1.2-0.1,3.4-0.2,5-1.2C816.9,133.2,816.6,135.4,816.8,138"/>
			<path class="st9" d="M773.9,115.9c0.1,0.2,0.2,0.4,0.3,0.6c1.7,3.7,2.6,7-0.9,10.4c-0.4,0.4-1.4,1.3-3.8,3.5
				c-0.8,0.7-3.5,3.1-5.2,4.8c-1.7,1.6-1.4,2.1-1.4,2.8l1,13.7l1.9-1.6l-0.3-3.7c0-1.4-0.5-4,2.7-7.1c1.3-1.2,9.4-8.6,10.3-9.4
				c6.8-5.9,4-16.7-4.2-24.6c0,0-36.2,6-18.2,33.3c1.4,2.1,1.9,3.4,2.3,6.6l0.8,10.6c0.2-0.1,3.3-3,3.3-3l-1.1-13.3
				c0-1.4-0.3-2.2-0.4-2.4c-4.5-8.3-7-17.2,6.6-22.7c0.2-0.1,0.4-0.1,0.6-0.2c1.1-0.5,3.1-1.4,4.3-2.8
				C772.4,111.3,772.8,113.6,773.9,115.9"/>
		</g>
	</g>
</g>
<g class="st6">
	<path class="st7" d="M934.9,18.2c-0.1,0-0.3,0.1-0.4,0.1c-2.3,0.5-4.2,0.6-5.6-1.8c-0.2-0.3-0.5-1-1.4-2.5c-0.3-0.5-1.3-2.3-2-3.5
		c-0.6-1.1-1-1.1-1.4-1.1l-7.7-1.2l0.7,1.3l2.1,0.3c0.8,0.2,2.2,0.2,3.6,2.4c0.5,0.9,3.6,6.3,3.9,6.9c2.4,4.5,8.7,4.3,14.1,0.8
		c0,0,1.2-20.7-16.1-14.2c-1.3,0.5-2.1,0.6-3.9,0.4l-5.9-0.9c0.1,0.1,1.3,2.2,1.3,2.2l7.5,1c0.8,0.2,1.3,0.1,1.4,0.1
		c5.1-1.5,10.4-1.7,11.7,6.5c0,0.1,0,0.2,0.1,0.3c0.2,0.7,0.4,1.9,1,2.7C937.6,18,936.3,17.9,934.9,18.2"/>
	<path class="st7" d="M936.4-47.5c-0.1,0.1-0.2,0.2-0.2,0.3c-1.4,1.8-2.9,3.1-5.5,2.2c-0.3-0.1-1-0.4-2.7-1
		c-0.6-0.2-2.5-0.9-3.8-1.4c-1.2-0.4-1.4-0.2-1.8,0l-6.7,4l1.3,0.5l1.8-1.1c0.7-0.4,1.9-1.3,4.3-0.5c1,0.3,6.8,2.5,7.4,2.8
		c4.7,1.9,9.4-2.3,11.3-8.5c0,0-12.4-16.7-21.5-0.5c-0.7,1.2-1.2,1.8-2.8,2.9l-5.1,3.1c0.1,0,2.4,0.9,2.4,0.9l6.4-4
		c0.7-0.4,1-0.7,1.1-0.9c3-4.4,6.9-8,13.1-2.6c0.1,0.1,0.2,0.2,0.3,0.2c0.6,0.4,1.5,1.2,2.5,1.4C938.4-49.5,937.3-48.7,936.4-47.5"
		/>
	<path class="st7" d="M895.3-98.9c0,0.1,0,0.3,0,0.4c0.1,2.3-0.2,4.2-2.8,5.2c-0.3,0.1-1,0.4-2.7,1c-0.6,0.2-2.5,0.9-3.8,1.3
		c-1.2,0.4-1.2,0.8-1.3,1.1l-2.5,7.4l1.4-0.4l0.7-2c0.3-0.7,0.6-2.2,3-3.1c0.9-0.4,6.8-2.4,7.5-2.6c4.8-1.6,5.8-7.8,3.2-13.8
		c0,0-20.2-4.8-16.8,13.4c0.3,1.4,0.2,2.2-0.3,4l-1.9,5.7c0.1,0,2.4-0.9,2.4-0.9l2.3-7.2c0.3-0.7,0.3-1.2,0.3-1.4
		c-0.6-5.3,0.1-10.5,8.4-10.4c0.1,0,0.2,0,0.4,0c0.7,0,1.9,0,2.9-0.6C895.5-101.6,895.3-100.4,895.3-98.9"/>
	<path class="st7" d="M830.8-111.8c0.1,0.1,0.2,0.2,0.3,0.3c1.5,1.7,2.6,3.4,1.3,5.8c-0.2,0.3-0.6,0.9-1.5,2.5
		c-0.3,0.5-1.3,2.3-2,3.5c-0.6,1.1-0.4,1.4-0.3,1.7l2.8,7.3l0.8-1.2l-0.8-2c-0.3-0.8-0.9-2.1,0.3-4.3c0.5-0.9,3.7-6.2,4-6.8
		c2.7-4.3-0.6-9.7-6.4-12.6c0,0-18.6,9.3-4.3,21.1c1.1,0.9,1.6,1.5,2.3,3.2l2.2,5.6c0.1-0.1,1.3-2.2,1.3-2.2l-2.8-7
		c-0.2-0.7-0.5-1.1-0.6-1.2c-3.8-3.7-6.7-8.2-0.3-13.4c0.1-0.1,0.2-0.1,0.3-0.2c0.5-0.5,1.5-1.3,1.8-2.3
		C829.2-114.1,829.9-112.9,830.8-111.8"/>
	<path class="st7" d="M773.1-80.3c0.1,0,0.3,0,0.4,0c2.3,0.3,4.1,0.9,4.7,3.6c0.1,0.3,0.2,1.1,0.5,2.9c0.1,0.6,0.4,2.6,0.7,4
		c0.2,1.3,0.6,1.3,0.9,1.5l6.8,3.8l-0.2-1.4l-1.9-1c-0.7-0.4-2-1-2.5-3.5c-0.2-1-1.2-7.1-1.3-7.8c-0.8-5-6.7-7-13-5.6
		c0,0-8.2,19.1,10.3,18.9c1.4,0,2.2,0.2,3.9,1l5.3,2.9c0-0.1-0.4-2.5-0.4-2.5l-6.7-3.5c-0.7-0.4-1.2-0.5-1.3-0.5
		c-5.3-0.4-10.4-2-8.8-10.1c0-0.1,0-0.2,0.1-0.3c0.1-0.7,0.3-1.9,0-2.9C770.5-81,771.7-80.5,773.1-80.3"/>
	<path class="st7" d="M749.2-19c0.1-0.1,0.2-0.1,0.3-0.2c2-1.2,3.7-2,5.9-0.2c0.3,0.2,0.8,0.7,2.2,1.9c0.5,0.4,2,1.7,3.1,2.6
		c1,0.8,1.3,0.7,1.7,0.6l7.7-1.5l-1.1-1l-2.1,0.4c-0.8,0.1-2.2,0.6-4.2-1c-0.8-0.6-5.5-4.7-6-5.1c-3.8-3.4-9.7-1.1-13.5,4.1
		c0,0,5.9,19.9,20,7.9c1.1-0.9,1.8-1.3,3.6-1.7l5.9-1.2c-0.1-0.1-1.9-1.7-1.9-1.7l-7.4,1.6c-0.8,0.1-1.2,0.3-1.3,0.4
		c-4.3,3.1-9.2,5.2-13.2-2.1c-0.1-0.1-0.1-0.2-0.2-0.3c-0.4-0.6-1-1.7-1.9-2.2C746.7-17.8,747.9-18.2,749.2-19"/>
	<path class="st7" d="M770.2,43.3c0-0.1,0.1-0.3,0.1-0.4c0.7-2.2,1.6-3.9,4.4-4c0.4,0,1.1,0,2.9,0c0.6,0,2.6,0,4,0
		c1.3,0,1.4-0.3,1.7-0.6l4.9-6.1l-1.4-0.1l-1.3,1.7c-0.5,0.6-1.3,1.8-3.8,1.9c-1,0-7.2,0-7.9-0.1c-5.1-0.1-8.1,5.4-7.7,11.8
		c0,0,17.3,11.4,20.4-6.8c0.2-1.4,0.5-2.1,1.6-3.6l3.7-4.7c-0.1,0-2.6,0-2.6,0l-4.6,5.9c-0.5,0.6-0.7,1-0.8,1.2
		c-1.3,5.2-3.7,9.9-11.5,6.9c-0.1,0-0.2-0.1-0.3-0.1c-0.7-0.2-1.8-0.6-2.9-0.5C769.1,45.8,769.8,44.7,770.2,43.3"/>
	<path class="st7" d="M826.4,77.5c0-0.1-0.1-0.2-0.2-0.4c-0.8-2.1-1.3-4,0.8-5.9c0.3-0.2,0.8-0.7,2.2-1.9c0.5-0.4,2-1.7,3.1-2.6
		c1-0.8,0.9-1.2,0.9-1.5l-0.2-7.8l-1.1,0.9l0.1,2.1c0,0.8,0.2,2.3-1.7,3.9c-0.8,0.7-5.6,4.6-6.1,5c-4,3.2-2.8,9.3,1.7,14
		c0,0,20.6-2.4,11.2-18.4c-0.7-1.2-1-2-1.1-3.8l-0.2-6c-0.1,0.1-2,1.6-2,1.6l0.3,7.5c0,0.8,0.1,1.3,0.2,1.4c2.3,4.8,3.5,10-4.3,12.6
		c-0.1,0-0.2,0.1-0.3,0.1c-0.7,0.3-1.8,0.7-2.5,1.5C827.2,80.2,827,78.9,826.4,77.5"/>
	<path class="st7" d="M891.5,67.6c-0.1-0.1-0.2-0.1-0.4-0.2c-2-1.1-3.6-2.3-3.2-5c0.1-0.3,0.2-1.1,0.5-2.9c0.1-0.6,0.5-2.6,0.7-4
		c0.2-1.3-0.1-1.5-0.3-1.7l-5.1-5.9l-0.3,1.4l1.4,1.6c0.5,0.6,1.6,1.6,1.2,4.1c-0.2,1-1.3,7.1-1.4,7.8c-1,5,3.9,8.9,10.3,9.7
		c0,0,14.3-15.1-3.2-21.3c-1.3-0.5-2-0.9-3.3-2.2l-4-4.5c0,0.1-0.5,2.5-0.5,2.5l5,5.6c0.5,0.6,0.9,0.9,1,1c4.9,2.2,9.1,5.4,4.8,12.5
		c-0.1,0.1-0.1,0.2-0.2,0.3c-0.3,0.6-0.9,1.7-1,2.7C893.7,69.2,892.7,68.3,891.5,67.6"/>
	<path class="st7" d="M918.7,44.3c-0.1,0-0.3,0-0.4,0c-2.3-0.3-4.1-0.8-4.8-3.5c-0.1-0.3-0.2-1.1-0.6-2.9c-0.1-0.6-0.5-2.6-0.8-3.9
		c-0.3-1.3-0.6-1.3-0.9-1.5l-6.9-3.6l0.2,1.4l1.9,1c0.7,0.4,2.1,0.9,2.6,3.4c0.2,1,1.4,7.1,1.5,7.8c0.9,5,6.9,6.9,13.1,5.3
		c0,0,7.8-19.2-10.7-18.7c-1.4,0-2.2-0.1-3.9-0.9l-5.3-2.7c0,0.1,0.5,2.5,0.5,2.5l6.7,3.4c0.7,0.4,1.2,0.5,1.3,0.5
		c5.3,0.3,10.4,1.7,9,9.9c0,0.1,0,0.2-0.1,0.3c-0.1,0.7-0.3,1.9,0.1,2.9C921.3,45,920.1,44.5,918.7,44.3"/>
	<path class="st7" d="M941.2-17.5c-0.1,0.1-0.2,0.2-0.3,0.2c-1.9,1.2-3.7,2-5.9,0.4c-0.3-0.2-0.9-0.7-2.3-1.8
		c-0.5-0.4-2-1.7-3.1-2.5c-1-0.8-1.3-0.6-1.7-0.6l-7.6,1.7l1.1,0.9l2.1-0.5c0.8-0.1,2.2-0.6,4.2,0.9c0.8,0.6,5.6,4.6,6.1,5
		c3.9,3.3,9.7,0.9,13.4-4.4c0,0-6.4-19.8-20.2-7.4c-1,0.9-1.7,1.3-3.5,1.8l-5.9,1.3c0.1,0.1,2,1.6,2,1.6l7.3-1.7
		c0.8-0.1,1.2-0.4,1.3-0.5c4.3-3.2,9.1-5.4,13.3,1.8c0.1,0.1,0.1,0.2,0.2,0.3c0.4,0.6,1,1.6,2,2.2C943.6-18.7,942.4-18.3,941.2-17.5
		"/>
	<path class="st7" d="M918.7-79.3c0,0.1-0.1,0.3-0.1,0.4c-0.7,2.2-1.5,3.9-4.3,4.1c-0.4,0-1.1,0-2.9,0.1c-0.6,0-2.6,0-4,0.1
		c-1.3,0-1.4,0.4-1.6,0.6l-4.7,6.2l1.4,0l1.3-1.7c0.5-0.6,1.3-1.9,3.8-2c1,0,7.2-0.1,7.9-0.1c5.1,0,8-5.5,7.5-12
		c0,0-17.6-11-20.2,7.3c-0.2,1.4-0.5,2.1-1.5,3.7l-3.6,4.8c0.1,0,2.6,0,2.6,0l4.5-6c0.5-0.6,0.7-1.1,0.7-1.2
		c1.2-5.2,3.5-10,11.3-7.2c0.1,0,0.2,0.1,0.3,0.1c0.7,0.2,1.8,0.6,2.9,0.4C919.8-81.8,919.2-80.7,918.7-79.3"/>
	<path class="st7" d="M861.8-112.2c0.1,0.1,0.1,0.2,0.2,0.4c0.9,2.1,1.4,4-0.7,5.9c-0.3,0.2-0.8,0.7-2.2,1.9c-0.4,0.4-2,1.7-3,2.6
		c-1,0.9-0.8,1.2-0.8,1.5l0.3,7.8l1.1-0.9l-0.1-2.1c0-0.8-0.2-2.2,1.6-4c0.7-0.7,5.5-4.7,6-5.2c3.9-3.3,2.5-9.4-2-14
		c0,0-20.6,2.9-10.8,18.6c0.7,1.2,1,2,1.2,3.8l0.3,6c0.1-0.1,1.9-1.7,1.9-1.7l-0.4-7.5c0-0.8-0.1-1.3-0.2-1.4
		c-2.4-4.8-3.7-9.9,4.1-12.7c0.1,0,0.2-0.1,0.3-0.1c0.6-0.3,1.8-0.7,2.5-1.6C861-114.9,861.2-113.6,861.8-112.2"/>
	<path class="st7" d="M797-100.9c0.1,0.1,0.2,0.1,0.4,0.2c2,1.1,3.6,2.2,3.3,4.9c0,0.3-0.2,1.1-0.5,2.9c-0.1,0.6-0.4,2.6-0.6,4
		c-0.2,1.3,0.1,1.4,0.4,1.7l5.3,5.7l0.3-1.4l-1.4-1.5c-0.5-0.6-1.6-1.6-1.3-4.1c0.1-1,1.1-7.1,1.3-7.8c0.9-5-4.1-8.8-10.5-9.4
		c0,0-13.9,15.4,3.7,21.2c1.3,0.4,2,0.8,3.3,2.1l4.1,4.4c0-0.1,0.4-2.5,0.4-2.5l-5.2-5.5c-0.5-0.6-0.9-0.9-1.1-0.9
		c-4.9-2.1-9.2-5.2-5.1-12.4c0.1-0.1,0.1-0.2,0.2-0.3c0.3-0.6,0.9-1.7,0.9-2.8C794.7-102.4,795.7-101.5,797-100.9"/>
	<path class="st7" d="M754.7-50.5c0.1,0,0.3-0.1,0.4-0.1c2.2-0.5,4.2-0.6,5.7,1.7c0.2,0.3,0.6,0.9,1.5,2.5c0.3,0.5,1.4,2.3,2.1,3.4
		c0.7,1.1,1,1,1.4,1.1l7.7,1l-0.7-1.3l-2.1-0.3c-0.8-0.1-2.3-0.2-3.6-2.3c-0.5-0.9-3.7-6.2-4.1-6.8c-2.5-4.4-8.8-4.1-14.1-0.5
		c0,0-0.8,20.8,16.4,13.9c1.3-0.5,2.1-0.7,3.9-0.5l6,0.8c-0.1-0.1-1.3-2.2-1.3-2.2l-7.5-0.9c-0.8-0.2-1.3-0.1-1.4,0
		c-5.1,1.6-10.4,1.9-11.8-6.2c0-0.1,0-0.2-0.1-0.3c-0.2-0.7-0.4-1.9-1.1-2.7C752-50.2,753.3-50.2,754.7-50.5"/>
	<path class="st7" d="M754.6,15.3c0.1-0.1,0.2-0.2,0.2-0.3c1.4-1.8,2.8-3.2,5.4-2.4c0.3,0.1,1,0.4,2.7,0.9c0.6,0.2,2.5,0.9,3.8,1.3
		c1.2,0.4,1.4,0.1,1.8,0l6.6-4.2l-1.3-0.5l-1.8,1.2c-0.7,0.4-1.8,1.3-4.3,0.6c-1-0.3-6.8-2.4-7.5-2.6c-4.8-1.8-9.4,2.5-11.1,8.7
		c0,0,12.8,16.4,21.5,0.1c0.7-1.2,1.2-1.8,2.7-2.9l5-3.2c-0.1,0-2.4-0.8-2.4-0.8l-6.3,4.1c-0.7,0.4-1,0.8-1.1,0.9
		c-2.9,4.5-6.7,8.2-13.1,2.9c-0.1-0.1-0.2-0.2-0.3-0.2c-0.6-0.4-1.5-1.2-2.6-1.4C752.8,17.3,753.8,16.4,754.6,15.3"/>
	<path class="st7" d="M796.9,65.7c0-0.1,0-0.3,0-0.4c-0.1-2.3,0.1-4.2,2.7-5.3c0.3-0.1,1-0.4,2.7-1c0.6-0.2,2.5-0.9,3.8-1.4
		c1.2-0.5,1.2-0.8,1.3-1.2l2.3-7.4l-1.4,0.5l-0.6,2c-0.3,0.8-0.6,2.2-2.9,3.2c-0.9,0.4-6.8,2.6-7.4,2.8c-4.8,1.7-5.6,7.9-2.9,13.8
		c0,0,20.3,4.4,16.5-13.8c-0.3-1.4-0.3-2.2,0.2-4l1.8-5.7c-0.1,0-2.4,0.9-2.4,0.9l-2.2,7.2c-0.3,0.7-0.3,1.2-0.3,1.4
		c0.7,5.3,0.1,10.5-8.2,10.6c-0.1,0-0.2,0-0.4,0c-0.7,0-1.9,0.1-2.8,0.6C796.7,68.4,797,67.2,796.9,65.7"/>
	<path class="st7" d="M861.7,77.2c-0.1-0.1-0.2-0.2-0.3-0.3c-1.6-1.7-2.7-3.3-1.4-5.8c0.2-0.3,0.5-1,1.4-2.5c0.3-0.5,1.3-2.3,2-3.5
		c0.6-1.1,0.4-1.4,0.3-1.7l-3-7.2l-0.7,1.2l0.8,1.9c0.3,0.8,1,2-0.2,4.3c-0.5,0.9-3.5,6.3-3.9,6.9c-2.6,4.4,0.8,9.7,6.7,12.5
		c0,0,18.4-9.7,3.8-21.2c-1.1-0.9-1.6-1.5-2.4-3.2l-2.3-5.5c-0.1,0.1-1.2,2.2-1.2,2.2l3,6.9c0.2,0.7,0.6,1.1,0.7,1.2
		c3.9,3.6,6.9,8,0.6,13.4c-0.1,0.1-0.2,0.1-0.3,0.2c-0.5,0.5-1.4,1.3-1.8,2.3C863.3,79.4,862.6,78.2,861.7,77.2"/>
</g>
<g class="st3">
	<g>
		<defs>
			<rect id="SVGID_13_" x="481.8" y="-89.7" width="176.6" height="177.2"/>
		</defs>
		<clipPath id="SVGID_14_">
			<use xlink:href="#SVGID_13_"  style="overflow:visible;"/>
		</clipPath>
		<g class="st10">
			<defs>
				<rect id="SVGID_15_" x="481.8" y="-89.7" width="176.6" height="177.2"/>
			</defs>
			<clipPath id="SVGID_16_">
				<use xlink:href="#SVGID_15_"  style="overflow:visible;"/>
			</clipPath>
			<path class="st11" d="M566.1-83.6c0.1,0.1,0.2,0.2,0.3,0.3c1.7,1.7,2.9,3.4,1.6,6c-0.2,0.3-0.5,1-1.4,2.7c-0.3,0.6-1.3,2.5-2,3.7
				c-0.6,1.2-0.4,1.5-0.2,1.8l3.3,7.5l0.7-1.3l-0.9-2c-0.3-0.8-1.1-2.1,0.1-4.5c0.5-1,3.5-6.7,3.9-7.4c2.6-4.7-1.1-10.1-7.3-12.9
				c0,0-19,10.7-3.4,22.3c1.2,0.9,1.7,1.5,2.6,3.2l2.6,5.7c0.1-0.1,1.2-2.4,1.2-2.4l-3.3-7.2c-0.3-0.8-0.6-1.2-0.7-1.3
				c-4.2-3.7-7.4-8.2-1-14c0.1-0.1,0.2-0.2,0.3-0.3c0.5-0.5,1.5-1.4,1.8-2.5C564.3-85.9,565-84.7,566.1-83.6"/>
			<path class="st11" d="M538.1-77.3c0.1,0.1,0.3,0.1,0.4,0.2c2.2,1,3.9,2.2,3.6,5.1c0,0.4-0.2,1.1-0.4,3c-0.1,0.6-0.4,2.8-0.6,4.2
				c-0.2,1.3,0.2,1.5,0.4,1.8l5.7,5.9l0.3-1.5l-1.6-1.6c-0.6-0.6-1.7-1.6-1.5-4.3c0.1-1.1,1-7.5,1.1-8.2c0.8-5.3-4.5-9.1-11.3-9.6
				c0,0-14.2,16.6,4.5,22.2c1.4,0.4,2.1,0.8,3.6,2.2l4.4,4.5c0-0.1,0.4-2.7,0.4-2.7l-5.6-5.6c-0.5-0.6-1-0.9-1.1-0.9
				c-5.2-2-9.8-5.2-5.7-12.8c0.1-0.1,0.1-0.2,0.2-0.3c0.3-0.7,0.9-1.8,0.9-2.9C535.6-78.8,536.7-77.9,538.1-77.3"/>
			<path class="st11" d="M513.9-61.7c0.1,0,0.3,0,0.4,0c2.4,0.2,4.4,0.7,5.1,3.6c0.1,0.4,0.2,1.1,0.7,3c0.1,0.6,0.6,2.7,0.9,4.1
				c0.3,1.3,0.7,1.4,1,1.5l7.4,3.6l-0.3-1.5l-2-1c-0.7-0.4-2.2-0.9-2.8-3.5c-0.3-1-1.6-7.4-1.8-8.1c-1.1-5.2-7.4-7-13.9-5.2
				c0,0-7.7,20.4,11.8,19.3c1.5-0.1,2.3,0,4.1,0.8l5.7,2.7c0-0.1-0.6-2.6-0.6-2.6l-7.2-3.4c-0.7-0.4-1.2-0.5-1.4-0.5
				c-5.6-0.1-11-1.5-9.7-10.1c0-0.1,0-0.2,0-0.4c0.1-0.7,0.2-2-0.2-3C511.1-62.3,512.4-61.9,513.9-61.7"/>
			<path class="st11" d="M496.6-38.9c0.1,0,0.3-0.1,0.4-0.1c2.3-0.6,4.4-0.8,6,1.6c0.2,0.3,0.6,1,1.6,2.6c0.3,0.5,1.5,2.4,2.3,3.6
				c0.7,1.1,1.1,1.1,1.5,1.1l8.2,0.8l-0.8-1.3l-2.2-0.2c-0.8-0.1-2.4-0.1-3.9-2.3c-0.6-0.9-4.1-6.4-4.4-7c-2.8-4.6-9.3-4.1-14.8-0.1
				c0,0-0.2,21.8,17.6,14.1c1.4-0.6,2.2-0.7,4.1-0.6l6.3,0.6c-0.1-0.1-1.4-2.3-1.4-2.3l-7.9-0.7c-0.8-0.1-1.3,0-1.5,0
				c-5.3,1.8-10.8,2.3-12.6-6.2c0-0.1,0-0.2-0.1-0.4c-0.2-0.7-0.5-2-1.2-2.8C493.7-38.5,495.1-38.5,496.6-38.9"/>
			<path class="st11" d="M488.1-11.4c0.1-0.1,0.2-0.2,0.3-0.2c2-1.4,3.8-2.2,6.2-0.5c0.3,0.2,0.9,0.7,2.4,1.9
				c0.5,0.4,2.2,1.7,3.3,2.6c1.1,0.8,1.4,0.6,1.8,0.5l7.9-2l-1.2-1l-2.2,0.6c-0.8,0.2-2.3,0.7-4.4-0.9c-0.9-0.6-6-4.6-6.6-5.1
				c-4.2-3.3-10.2-0.6-14,5c0,0,7.3,20.6,21.4,7.2c1.1-1,1.8-1.4,3.6-2L513-7c-0.1-0.1-2.1-1.6-2.1-1.6l-7.7,2
				c-0.8,0.1-1.3,0.4-1.4,0.5c-4.4,3.5-9.4,5.9-14-1.5c-0.1-0.1-0.1-0.2-0.2-0.3c-0.4-0.6-1.1-1.7-2.1-2.2
				C485.5-10.1,486.8-10.6,488.1-11.4"/>
			<path class="st11" d="M489.5,17.2c0.1-0.1,0.2-0.2,0.2-0.3c1.4-2,2.8-3.4,5.6-2.6c0.4,0.1,1.1,0.3,2.9,0.9c0.6,0.2,2.6,0.8,4,1.3
				c1.3,0.4,1.5,0.1,1.8-0.1l6.8-4.6l-1.4-0.5l-1.8,1.3c-0.7,0.4-1.9,1.4-4.4,0.7c-1-0.3-7.2-2.3-7.9-2.5c-5.1-1.7-9.8,2.9-11.4,9.5
				c0,0,13.9,16.8,22.6-0.5c0.7-1.3,1.2-2,2.7-3.1l5.2-3.5c-0.1,0-2.6-0.8-2.6-0.8l-6.5,4.5c-0.7,0.4-1,0.8-1.1,1
				c-2.9,4.8-6.8,8.7-13.6,3.4c-0.1-0.1-0.2-0.2-0.3-0.2c-0.6-0.4-1.6-1.2-2.7-1.4C487.6,19.4,488.6,18.5,489.5,17.2"/>
			<path class="st11" d="M500.6,43.7c0-0.1,0.1-0.3,0.1-0.4c0.7-2.3,1.5-4.2,4.4-4.4c0.4,0,1.2,0,3-0.1c0.6,0,2.8-0.1,4.2-0.2
				c1.4-0.1,1.5-0.4,1.7-0.7l4.8-6.6l-1.5,0l-1.3,1.8c-0.5,0.7-1.3,2-3.9,2.2c-1.1,0.1-7.6,0.3-8.3,0.3c-5.4,0.1-8.2,6-7.5,12.8
				c0,0,18.8,11.1,21-8.2c0.2-1.5,0.4-2.3,1.5-3.9l3.7-5.1c-0.1,0-2.7,0.1-2.7,0.1l-4.6,6.5c-0.5,0.6-0.7,1.1-0.7,1.3
				c-1.1,5.5-3.4,10.5-11.7,7.8c-0.1,0-0.2-0.1-0.4-0.1c-0.7-0.2-1.9-0.6-3-0.3C499.5,46.4,500.2,45.2,500.6,43.7"/>
			<path class="st11" d="M520.1,64.8c0-0.1,0-0.3,0-0.4c-0.2-2.4,0-4.4,2.6-5.6c0.3-0.2,1.1-0.4,2.8-1.2c0.6-0.2,2.6-1.1,3.9-1.6
				c1.3-0.5,1.2-0.9,1.4-1.3l2.2-7.9l-1.4,0.5l-0.6,2.1c-0.3,0.8-0.5,2.3-3,3.4c-1,0.4-7,2.9-7.7,3.2c-5,2-5.7,8.5-2.7,14.6
				c0,0,21.4,4,17-14.9c-0.3-1.4-0.4-2.3,0.1-4.2l1.7-6.1c-0.1,0-2.5,1-2.5,1l-2.1,7.6c-0.3,0.8-0.3,1.3-0.2,1.5
				c0.9,5.5,0.4,11.1-8.3,11.3c-0.1,0-0.2,0-0.4,0c-0.7,0.1-2,0.1-3,0.7C520,67.7,520.2,66.3,520.1,64.8"/>
			<path class="st11" d="M545.7,77.9c-0.1-0.1-0.1-0.2-0.2-0.4c-1-2.2-1.5-4.2,0.5-6.2c0.3-0.3,0.9-0.8,2.2-2.1
				c0.5-0.4,2.1-1.9,3.1-2.8c1-0.9,0.9-1.3,0.8-1.6l-0.6-8.2l-1.1,1l0.2,2.2c0,0.8,0.3,2.4-1.6,4.2c-0.8,0.7-5.6,5.1-6.1,5.6
				c-4,3.5-2.4,9.9,2.5,14.6c0,0,21.5-3.6,10.8-19.8c-0.8-1.2-1.1-2-1.4-3.9l-0.5-6.3c-0.1,0.1-2,1.8-2,1.8l0.7,7.9
				c0,0.8,0.2,1.3,0.3,1.5c2.7,4.9,4.2,10.3-3.9,13.5c-0.1,0-0.2,0.1-0.3,0.1c-0.7,0.3-1.9,0.8-2.5,1.7
				C546.5,80.7,546.3,79.3,545.7,77.9"/>
			<path class="st11" d="M574.1,81.5c-0.1-0.1-0.2-0.2-0.3-0.3c-1.7-1.7-2.9-3.4-1.6-6c0.2-0.3,0.5-1,1.4-2.7c0.3-0.6,1.3-2.5,2-3.7
				c0.6-1.2,0.4-1.5,0.2-1.8l-3.3-7.5l-0.7,1.3l0.9,2c0.3,0.8,1.1,2.1-0.1,4.5c-0.5,1-3.5,6.7-3.9,7.4c-2.6,4.7,1.1,10.1,7.3,12.9
				c0,0,19-10.7,3.4-22.3c-1.2-0.9-1.7-1.5-2.6-3.2l-2.6-5.7c-0.1,0.1-1.2,2.4-1.2,2.4l3.3,7.2c0.3,0.8,0.6,1.2,0.7,1.3
				c4.2,3.7,7.4,8.2,1,14c-0.1,0.1-0.2,0.2-0.3,0.3c-0.5,0.5-1.5,1.4-1.8,2.5C575.9,83.8,575.2,82.6,574.1,81.5"/>
			<path class="st11" d="M602.1,75.2c-0.1-0.1-0.3-0.1-0.4-0.2c-2.2-1-3.9-2.2-3.6-5.1c0-0.4,0.2-1.1,0.4-3c0.1-0.6,0.4-2.8,0.6-4.2
				c0.2-1.3-0.2-1.5-0.4-1.8L593,55l-0.3,1.5l1.6,1.6c0.6,0.6,1.7,1.6,1.5,4.3c-0.1,1.1-1,7.5-1.1,8.2c-0.8,5.3,4.5,9.1,11.3,9.6
				c0,0,14.2-16.6-4.5-22.1c-1.4-0.4-2.1-0.8-3.6-2.2l-4.4-4.5c0,0.1-0.4,2.7-0.4,2.7l5.6,5.6c0.5,0.6,1,0.9,1.1,0.9
				c5.2,2,9.8,5.2,5.7,12.8c-0.1,0.1-0.1,0.2-0.2,0.3c-0.3,0.7-0.9,1.8-0.9,2.9C604.6,76.7,603.5,75.8,602.1,75.2"/>
			<path class="st11" d="M626.3,59.6c-0.1,0-0.3,0-0.4,0c-2.4-0.2-4.4-0.7-5.1-3.6c-0.1-0.4-0.2-1.1-0.7-3c-0.1-0.6-0.6-2.7-0.9-4.1
				c-0.3-1.3-0.7-1.4-1-1.6l-7.4-3.6l0.3,1.5l2,1c0.7,0.4,2.2,0.9,2.8,3.5c0.3,1,1.6,7.4,1.8,8.1c1.1,5.2,7.4,7,13.9,5.2
				c0,0,7.7-20.4-11.8-19.3c-1.5,0.1-2.3,0-4.1-0.8l-5.7-2.7c0,0.1,0.6,2.6,0.6,2.6l7.2,3.4c0.7,0.4,1.2,0.5,1.4,0.5
				c5.6,0.1,11,1.5,9.7,10.1c0,0.1,0,0.2,0,0.4c-0.1,0.7-0.2,2,0.2,3C629.1,60.2,627.8,59.8,626.3,59.6"/>
			<path class="st11" d="M643.6,36.7c-0.1,0-0.3,0.1-0.4,0.1c-2.3,0.6-4.4,0.8-6-1.6c-0.2-0.3-0.6-1-1.6-2.6
				c-0.3-0.5-1.5-2.4-2.3-3.6c-0.7-1.1-1.1-1.1-1.5-1.1l-8.2-0.8l0.8,1.3l2.2,0.2c0.8,0.1,2.4,0.1,3.9,2.3c0.6,0.9,4.1,6.4,4.4,7
				c2.8,4.6,9.3,4.1,14.8,0.1c0,0,0.2-21.8-17.6-14.1c-1.4,0.6-2.2,0.7-4.1,0.6l-6.3-0.6c0.1,0.1,1.4,2.3,1.4,2.3l7.9,0.7
				c0.8,0.1,1.3,0,1.5,0c5.3-1.8,10.8-2.3,12.6,6.2c0,0.1,0,0.2,0.1,0.4c0.2,0.7,0.5,2,1.2,2.8C646.5,36.3,645.1,36.4,643.6,36.7"/>
			<path class="st11" d="M1061.6,53.1c-0.1,0-0.3,0.1-0.4,0.1c-2.3,0.6-4.4,0.8-6-1.6c-0.2-0.3-0.6-1-1.6-2.6
				c-0.3-0.5-1.5-2.4-2.3-3.6c-0.7-1.1-1.1-1.1-1.5-1.1l-8.2-0.8l0.8,1.3l2.2,0.2c0.8,0.1,2.4,0.1,3.9,2.3c0.6,0.9,4.1,6.4,4.4,7
				c2.8,4.6,9.3,4.1,14.8,0.1c0,0,0.2-21.8-17.6-14.1c-1.4,0.6-2.2,0.7-4.1,0.6l-6.3-0.6c0.1,0.1,1.4,2.3,1.4,2.3l7.9,0.7
				c0.8,0.1,1.3,0,1.5,0c5.3-1.8,10.8-2.3,12.6,6.2c0,0.1,0,0.2,0.1,0.4c0.2,0.7,0.5,2,1.2,2.8C1064.5,52.6,1063.1,52.7,1061.6,53.1
				"/>
			<path class="st11" d="M652.1,9.3c-0.1,0.1-0.2,0.2-0.3,0.2c-2,1.4-3.8,2.2-6.2,0.5c-0.3-0.2-0.9-0.7-2.4-1.9
				c-0.5-0.4-2.2-1.7-3.3-2.6c-1.1-0.8-1.4-0.6-1.8-0.5l-7.9,2l1.2,1l2.2-0.6c0.8-0.2,2.3-0.7,4.4,0.9c0.9,0.6,6,4.6,6.6,5.1
				c4.2,3.3,10.2,0.6,14-5c0,0-7.3-20.6-21.4-7.2c-1.1,1-1.8,1.4-3.6,2l-6.1,1.6c0.1,0.1,2.1,1.6,2.1,1.6l7.7-2
				c0.8-0.1,1.3-0.4,1.4-0.5c4.4-3.5,9.4-5.9,14,1.5c0.1,0.1,0.1,0.2,0.2,0.3c0.4,0.6,1.1,1.7,2.1,2.2C654.7,8,653.4,8.5,652.1,9.3"
				/>
			<path class="st11" d="M650.7-19.4c-0.1,0.1-0.2,0.2-0.2,0.3c-1.4,2-2.8,3.4-5.6,2.6c-0.4-0.1-1.1-0.3-2.9-0.9
				c-0.6-0.2-2.6-0.8-4-1.3c-1.3-0.4-1.5-0.1-1.8,0.1l-6.8,4.6l1.4,0.5l1.8-1.3c0.7-0.4,1.9-1.4,4.4-0.7c1,0.3,7.2,2.3,7.9,2.5
				c5.1,1.7,9.8-2.9,11.4-9.5c0,0-13.9-16.8-22.6,0.5c-0.7,1.3-1.2,2-2.7,3.1l-5.2,3.5c0.1,0,2.6,0.8,2.6,0.8l6.5-4.5
				c0.7-0.4,1-0.8,1.1-1c2.9-4.8,6.8-8.7,13.6-3.4c0.1,0.1,0.2,0.2,0.3,0.2c0.6,0.4,1.6,1.2,2.7,1.4
				C652.7-21.5,651.6-20.6,650.7-19.4"/>
			<path class="st11" d="M639.6-45.8c0,0.1-0.1,0.3-0.1,0.4c-0.7,2.3-1.5,4.2-4.4,4.4c-0.4,0-1.2,0-3,0.1c-0.6,0-2.8,0.1-4.2,0.2
				c-1.4,0.1-1.5,0.4-1.7,0.7l-4.8,6.6l1.5,0l1.3-1.8c0.5-0.7,1.3-2,3.9-2.2c1.1-0.1,7.6-0.3,8.3-0.3c5.4-0.1,8.2-6,7.5-12.8
				c0,0-18.8-11.1-21,8.2c-0.2,1.5-0.4,2.3-1.5,3.9l-3.7,5.1c0.1,0,2.7-0.1,2.7-0.1l4.6-6.5c0.5-0.6,0.7-1.1,0.7-1.3
				c1.1-5.5,3.4-10.5,11.7-7.8c0.1,0,0.2,0.1,0.4,0.1c0.7,0.2,1.9,0.6,3,0.3C640.7-48.5,640-47.3,639.6-45.8"/>
			<path class="st11" d="M620.1-66.9c0,0.1,0,0.3,0,0.4c0.2,2.4,0,4.4-2.6,5.6c-0.3,0.2-1.1,0.4-2.8,1.2c-0.6,0.2-2.6,1.1-3.9,1.6
				c-1.3,0.5-1.2,0.9-1.4,1.3l-2.2,7.9l1.4-0.5l0.6-2.1c0.3-0.8,0.5-2.3,3-3.4c1-0.4,7-2.9,7.7-3.2c5-2,5.7-8.5,2.7-14.6
				c0,0-21.4-4-17,14.9c0.3,1.4,0.4,2.3-0.1,4.2l-1.7,6.1c0.1,0,2.5-1,2.5-1l2.1-7.6c0.3-0.8,0.3-1.3,0.2-1.5
				c-0.9-5.5-0.4-11.1,8.3-11.3c0.1,0,0.2,0,0.4,0c0.7-0.1,2-0.1,3-0.7C620.2-69.8,620-68.4,620.1-66.9"/>
			<path class="st11" d="M594.6-80c0.1,0.1,0.1,0.2,0.2,0.4c1,2.2,1.5,4.2-0.5,6.2c-0.3,0.3-0.9,0.8-2.3,2.1
				c-0.5,0.4-2.1,1.9-3.1,2.8c-1,0.9-0.9,1.3-0.8,1.6l0.6,8.2l1.1-1l-0.2-2.2c0-0.8-0.3-2.4,1.6-4.2c0.8-0.7,5.6-5.1,6.1-5.6
				c4-3.5,2.4-9.9-2.5-14.6c0,0-21.5,3.6-10.8,19.8c0.8,1.2,1.1,2,1.4,3.9l0.5,6.3c0.1-0.1,2-1.8,2-1.8l-0.7-7.9
				c0-0.8-0.2-1.3-0.3-1.5c-2.7-4.9-4.2-10.3,3.9-13.5c0.1,0,0.2-0.1,0.3-0.1c0.7-0.3,1.9-0.8,2.5-1.7
				C593.7-82.8,593.9-81.4,594.6-80"/>
		</g>
	</g>
</g>
</svg>
