<svg enable-background="new 0 0 851 315" viewBox="0 0 851 315" xmlns="http://www.w3.org/2000/svg" xmlns:xlink="http://www.w3.org/1999/xlink"><clipPath id="a"><path d="m268.6 93.3h301.5v84.9h-301.5z"/></clipPath><clipPath id="b"><path d="m268.6 93.3h301.5v84.9h-301.5z"/></clipPath><clipPath id="c"><path d="m-125.2 91.8h272.3v273.2h-272.3z"/></clipPath><clipPath id="d"><path d="m-125.2 91.8h272.3v273.2h-272.3z"/></clipPath><clipPath id="e"><path d="m584.4 99.8h296.8v297.8h-296.8z"/></clipPath><clipPath id="f"><path d="m584.4 99.8h296.8v297.8h-296.8z"/></clipPath><clipPath id="g"><path d="m481.8-89.7h176.6v177.2h-176.6z"/></clipPath><clipPath id="h"><path d="m481.8-89.7h176.6v177.2h-176.6z"/></clipPath><path d="m-6.5-.2h863.3v315.4h-863.3z" fill="#328fce"/><g fill="#fff"><g clip-path="url(#a)"><path clip-path="url(#b)" d="m344.9 156.8h-9c.3-1.5.6-3 .8-4.5-1.9 3.4-4.4 5.4-9.7 5.4-6.7 0-10.3-3.7-8.7-12.3l5.7-31h10l-5.1 27.7c-.5 2.9-.4 5.6 3.1 5.6 2.6 0 4.7-1.3 5.4-4.9l5.3-28.4h10z"/><path clip-path="url(#b)" d="m357.1 114.5h10l-7.9 42.4h-10zm2.4-12.9h10l-1.5 8.4h-10z"/><path clip-path="url(#b)" d="m395.6 140.7c-1.6 8.7-7.5 17-16.8 17-10.1 0-15-7.9-12.3-22.1 2.6-14.2 10.4-22.1 20.5-22.1 9.3 0 12.1 8.2 10.5 17h-10.5c.9-5.1.1-7.6-2.5-7.6-1.6 0-3 .7-4.2 2.7-1.3 1.9-2.3 5.2-3.2 10-1.8 9.7-.5 12.7 2.7 12.7 3 0 4.6-3.4 5.4-7.6z"/><path clip-path="url(#b)" d="m406.1 101.6h10.1l-5.7 30.3 11.6-17.4h11.2l-14.4 19.1 6.9 23.3h-10.8l-5.5-19.1-3.6 19.1h-10z"/><path clip-path="url(#b)" d="m440.9 139.5c-.9 5.7.5 8.4 5.5 8.4 4.2 0 6.9-2.6 7.6-6.6.9-5-4.8-6.2-10.4-8.5-5.5-2.4-10.9-5.8-9.1-15.2 1.9-10.5 9.6-17.2 20.1-17.2 10.2 0 15 4.9 14.6 15.8h-11c.6-4-1.2-6.4-4.9-6.4-3.6 0-6.2 2.7-6.9 6-1 5.2 4.8 6.2 10.4 8.6 5.5 2.4 10.8 6.1 8.9 16.6-1.9 10.4-10.9 16.7-21.4 16.7-12.6 0-16.9-6.8-14.7-18.4h11.3z"/><path clip-path="url(#b)" d="m475.1 106.4h10l-1.5 8.1h8l-1.8 9.4h-7.9l-6.2 33h-10z"/><path clip-path="url(#b)" d="m553.6 106.4h10l-1.4 8.1h7.9l-1.7 9.4h-8l-6.1 33h-10z"/><path clip-path="url(#b)" d="m515.6 156.9h-9.1c.3-1.3.5-2.7.7-4-2.5 3.4-5.2 4.9-9.1 4.9-7.6 0-12.1-6.9-9.3-22.1 2.7-14.3 8.8-22.1 17.5-22.1 3.4 0 6.6 1.3 7.2 5.2.3-1.5.5-2.9.8-4.3h9.1zm-16.8-21.2c-1.7 9.3-.1 12 3.2 12 2 0 3-.6 4.3-1.9 1.6-1.6 1.9-3.6 3.2-10.2 1.2-6.6 1.6-8.7.6-10.2-.8-1.3-1.6-1.9-3.6-1.9-3.3.1-5.9 2.8-7.7 12.2z"/><path clip-path="url(#b)" d="m528.6 114.5h9.1c-.3 1.8-.7 3.7-1 5.5 2.5-5.3 6.4-6.4 11.9-6.4l-2.3 12.3c-1.2-1-2.7-1.3-4.2-1.3-3.7 0-6 3.1-6.8 7.5l-4.6 24.8h-10z"/><path clip-path="url(#b)" d="m324.4 164.6h6.2l-.2 1.3h-4.9l-.8 4.6h4.9l-.3 1.2h-4.9l-.9 5h4.9l-.2 1.2h-6.2z"/><path clip-path="url(#b)" d="m330.6 177.9h-1.4l6.2-13.3h1.3l1.4 13.3h-1.4l-.4-3.9h-4zm5.2-11.5-2.8 6.4h3.2z"/><path clip-path="url(#b)" d="m341.8 164.6h2.5c2 0 2.7.3 3.1.8.7.7 1 1.8.8 3.2-.2.8-.5 1.7-1 2.4-.7.8-1.5 1.4-2.6 1.5l1.7 5.3h-1.5l-1.8-6.2h.5c.9 0 1.6-.2 2.2-.7.7-.5 1-1.3 1.2-2.2s.1-1.8-.6-2.4c-.5-.4-1.4-.5-2.2-.5h-1.1l-2.2 12h-1.3z"/><path clip-path="url(#b)" d="m350.8 164.6h1.3l-2.2 12.1h4.3l-.3 1.2h-5.6z"/><path clip-path="url(#b)" d="m356.8 173.1-1.8-8.5h1.4l1.3 7.2 4-7.2h1.4l-4.9 8.5-.9 4.8h-1.4z"/><path clip-path="url(#b)" d="m368.6 164.6h1.4l-2.5 13.3h-1.3z"/><path clip-path="url(#b)" d="m377.3 175.7 2.1-11.1h1.2l-2.5 13.3h-1.4l-3.4-11.3-2.1 11.3h-1.3l2.5-13.3h1.6z"/><path clip-path="url(#b)" d="m384.6 165.9h-2.6l.2-1.3h6.7l-.2 1.3h-2.7l-2.2 12h-1.4z"/><path clip-path="url(#b)" d="m390.5 164.6h6.2l-.2 1.3h-4.9l-.9 4.6h4.9l-.2 1.2h-4.9l-.9 5h4.9l-.2 1.2h-6.3z"/><path clip-path="url(#b)" d="m399 164.6h2.5c2 0 2.7.3 3.1.8.7.7 1 1.8.8 3.2-.2.8-.5 1.7-1 2.4-.7.8-1.5 1.4-2.6 1.5l1.7 5.3h-1.5l-1.8-6.2h.5c.9 0 1.6-.2 2.2-.7.7-.5 1-1.3 1.2-2.2s.1-1.8-.6-2.4c-.5-.4-1.4-.5-2.2-.5h-1.1l-2.2 12h-1.3z"/><path clip-path="url(#b)" d="m406.5 164.6h1.4l1 11.4 5.3-11.4h1.3l-6.3 13.3h-1.3z"/><path clip-path="url(#b)" d="m416.8 164.6h6.2l-.2 1.3h-4.9l-.9 4.6h4.9l-.2 1.2h-4.9l-.9 5h4.9l-.2 1.2h-6.3z"/><path clip-path="url(#b)" d="m430.2 175.7 2.1-11.1h1.2l-2.5 13.3h-1.5l-3.4-11.3-2.1 11.3h-1.2l2.5-13.3h1.6z"/><path clip-path="url(#b)" d="m437.5 165.9h-2.7l.3-1.3h6.7l-.2 1.3h-2.7l-2.3 12h-1.3z"/><path clip-path="url(#b)" d="m443.3 164.6h1.4l-2.5 13.3h-1.3z"/><path clip-path="url(#b)" d="m445.3 171.2c.7-3.9 2.9-6.9 6.1-6.9s4.3 3 3.5 6.9c-.6 3.4-2.6 6.9-6.1 6.9-3.1 0-4.2-2.9-3.5-6.9zm1.4.1c-.7 3.6.3 5.6 2.4 5.6s3.8-2 4.5-5.6-.3-5.6-2.4-5.6c-2.1-.1-3.8 1.9-4.5 5.6z"/><path clip-path="url(#b)" d="m463 175.7 2.1-11.1h1.2l-2.4 13.3h-1.5l-3.4-11.3-2.1 11.3h-1.3l2.5-13.3h1.6z"/><path clip-path="url(#b)" d="m473 164.6h5.8l-.2 1.3h-4.4l-.9 4.6h4.4l-.2 1.2h-4.4l-1.2 6.2h-1.3z"/><path clip-path="url(#b)" d="m478.9 171.2c.7-3.9 2.9-6.9 6.1-6.9s4.3 3 3.5 6.9c-.6 3.4-2.6 6.9-6.1 6.9-3.1 0-4.2-2.9-3.5-6.9zm1.4.1c-.7 3.6.3 5.6 2.4 5.6s3.8-2 4.5-5.6-.3-5.6-2.4-5.6c-2.2-.1-3.9 1.9-4.5 5.6z"/><path clip-path="url(#b)" d="m491.6 164.6h2.5c2 0 2.7.3 3.1.8.7.7 1 1.8.8 3.2-.2.8-.5 1.7-1 2.4-.7.8-1.5 1.4-2.6 1.5l1.7 5.3h-1.5l-1.8-6.2h.5c.9 0 1.6-.2 2.2-.7.7-.5 1-1.3 1.2-2.2s.1-1.8-.6-2.4c-.5-.4-1.4-.5-2.2-.5h-1.1l-2.2 12h-1.3z"/><path clip-path="url(#b)" d="m501.9 177.9h-1.4l6.2-13.3h1.3l1.4 13.3h-1.4l-.4-3.9h-4zm5.2-11.5-2.8 6.4h3.2z"/><path clip-path="url(#b)" d="m513.7 164.6-1.8 9.7c-.1.8-.2 1.5.3 2 .4.4 1 .6 1.7.6s1.4-.1 1.9-.6c.7-.5.9-1.2 1-2l1.8-9.7h1.3l-1.8 9.8c-.2 1.3-.7 2.1-1.4 2.7-.8.6-1.8 1-3.1 1s-2.2-.4-2.7-1-.7-1.5-.4-2.7l1.8-9.8z"/><path clip-path="url(#b)" d="m523.9 165.9h-2.7l.3-1.3h6.7l-.2 1.3h-2.7l-2.3 12h-1.3z"/><path clip-path="url(#b)" d="m529.7 164.6h1.4l-2.5 13.3h-1.3z"/><path clip-path="url(#b)" d="m532.5 174.2c-.2 2.1.9 2.7 1.9 2.7 1.4 0 2.7-1 3-2.6.4-2-1.2-2.4-2.4-2.8-1.1-.4-2.8-1-2.4-3.4.4-2.3 2.1-3.7 4.2-3.7 2 0 3.1 1 2.9 3.4h-1.3c.1-1-.2-2.2-1.8-2.2-1.3 0-2.3 1-2.6 2.3-.3 1.8.9 2.2 2.5 2.7 1 .4 2.8 1.1 2.3 3.7-.4 2.4-2.4 3.8-4.6 3.8-2.1 0-3.4-1.3-3-3.9z"/><path clip-path="url(#b)" d="m539.9 177.9 2.5-13.3h2.1l1 11.3 5-11.3h2.1l-2.5 13.3h-1.2l2.2-12-5.3 12h-1.3l-1.1-12-2.3 12z"/><path clip-path="url(#b)" d="m295.7 108.2c.4.2.7.4 1.1.5 6.2 3.3 11 6.8 9.8 15.1-.2 1.1-.6 3.3-1.5 8.7-.3 1.8-1.4 7.9-2.1 12-.7 3.9.3 4.4 1 5.2l15.9 17.7.9-4.2-4.3-4.8c-1.6-1.9-4.9-4.9-3.7-12.4.5-3 3.9-21.6 4.3-23.6 3-15.1-12.1-26.9-31.7-29.1 0 0-43.4 46 10.2 64.4 4.1 1.4 6.2 2.7 10.1 6.6l12.2 13.5c.1-.3 1.4-7.6 1.4-7.6l-15.6-16.9c-1.5-1.9-2.8-2.7-3.2-2.9-15-6.5-27.9-16.1-15-37.7.2-.3.4-.6.5-.9 1-1.9 2.9-5.1 2.9-8.3-.1 0 2.9 2.6 6.8 4.7"/></g><g clip-path="url(#c)" opacity=".42"><path clip-path="url(#d)" d="m4.8 101.1c.1.1.3.3.5.5 2.6 2.7 4.4 5.2 2.5 9.3-.2.5-.8 1.6-2.2 4.2-.4.9-2 3.8-3 5.8-1 1.9-.6 2.3-.3 2.8l5.2 11.5 1.2-2-1.6-3.2c-.5-1.2-1.7-3.3.1-6.9.7-1.5 5.4-10.4 5.9-11.3 4-7.2-1.7-15.6-11.3-19.9 0 0-29.3 16.5-5.2 34.4 1.8 1.4 2.7 2.3 4 5l4 8.9c.1-.2 1.9-3.7 1.9-3.7l-5.1-11.1c-.4-1.2-1-1.8-1.1-2-6.5-5.7-11.5-12.7-1.5-21.6.1-.1.3-.2.4-.4.8-.8 2.3-2.2 2.8-3.8 0 0 1.1 1.9 2.8 3.5"/><path clip-path="url(#d)" d="m-38.4 110.9c.2.1.4.2.6.3 3.4 1.6 5.9 3.4 5.5 7.9-.1.6-.2 1.8-.6 4.7-.1 1-.6 4.2-.9 6.5-.3 2.1.2 2.3.6 2.8l8.8 9.1.4-2.3-2.4-2.4c-.9-1-2.7-2.5-2.3-6.6.2-1.6 1.5-11.6 1.7-12.7 1.2-8.2-7-14.1-17.4-14.8 0 0-21.9 25.6 6.9 34.2 2.2.7 3.3 1.3 5.5 3.3l6.8 7c0-.2.6-4.1.6-4.1l-8.6-8.7c-.8-1-1.5-1.4-1.8-1.5-8.1-3.1-15.1-8-8.8-19.8.1-.2.2-.3.3-.5.5-1 1.4-2.8 1.3-4.5 0-.2 1.7 1.1 3.8 2.1"/><path clip-path="url(#d)" d="m-75.6 134.9h.6c3.7.4 6.7 1.1 7.9 5.5.1.6.4 1.7 1 4.6.2.9.9 4.2 1.4 6.4.5 2 1 2.1 1.6 2.4l11.4 5.5-.4-2.3-3.1-1.5c-1.1-.6-3.4-1.4-4.4-5.4-.4-1.6-2.5-11.4-2.7-12.5-1.6-8.1-11.4-10.9-21.5-8 0 0-11.8 31.5 18.1 29.7 2.3-.1 3.6.1 6.3 1.2l8.7 4.2c0-.2-.9-4-.9-4l-11-5.2c-1.1-.6-1.9-.8-2.1-.8-8.7-.2-16.9-2.3-15-15.6 0-.2.1-.4.1-.6.1-1.1.4-3.1-.3-4.7-.1.2 1.9.9 4.3 1.1"/><path clip-path="url(#d)" d="m-102.4 170.2c.2-.1.4-.1.6-.2 3.6-.9 6.7-1.2 9.3 2.5.3.5 1 1.5 2.5 4 .5.8 2.3 3.6 3.5 5.5 1.1 1.8 1.7 1.6 2.3 1.7l12.6 1.3-1.2-2-3.4-.3c-1.3-.2-3.7-.2-6-3.6-.9-1.4-6.3-9.9-6.9-10.8-4.3-7-14.4-6.3-22.9-.2 0 0-.3 33.6 27.2 21.8 2.1-.9 3.4-1.1 6.3-1l9.7 1c-.1-.2-2.2-3.5-2.2-3.5l-12.2-1.1c-1.2-.2-2.1-.1-2.3 0-8.2 2.8-16.7 3.6-19.4-9.5 0-.2-.1-.4-.1-.6-.3-1.1-.7-3-1.9-4.3.1-.1 2.2-.1 4.5-.7"/><path clip-path="url(#d)" d="m-115.5 212.5c.2-.1.3-.3.5-.4 3.1-2.1 5.9-3.5 9.6-.8.5.3 1.4 1.1 3.7 2.9.8.6 3.4 2.6 5.2 4 1.7 1.3 2.1 1 2.7.8l12.3-3.1-1.8-1.5-3.3.9c-1.3.3-3.5 1.1-6.8-1.3-1.3-1-9.3-7.1-10.1-7.8-6.4-5.2-15.7-1-21.6 7.7 0 0 11.2 31.7 33 11.1 1.7-1.6 2.8-2.2 5.6-3.1l9.4-2.4c-.1-.1-3.3-2.5-3.3-2.5l-11.8 3.1c-1.2.2-2 .6-2.1.8-6.8 5.4-14.5 9.1-21.5-2.3-.1-.2-.2-.3-.3-.5-.7-.9-1.7-2.6-3.3-3.4 0-.1 1.9-.9 3.9-2.2"/><path clip-path="url(#d)" d="m-113.4 256.7c.1-.2.2-.4.4-.5 2.2-3 4.4-5.3 8.7-4.1.5.2 1.7.5 4.5 1.4.9.3 4.1 1.3 6.2 2 2 .6 2.3.2 2.8-.2l10.5-7.1-2.2-.8-2.8 1.9c-1.1.7-2.9 2.2-6.9 1.1-1.6-.5-11.2-3.5-12.2-3.9-7.8-2.6-15.1 4.4-17.6 14.6 0 0 21.4 26 34.8-.8 1-2 1.8-3 4.2-4.8l8-5.5c-.2-.1-3.9-1.3-3.9-1.3l-10 7c-1.1.6-1.6 1.3-1.7 1.5-4.5 7.4-10.5 13.5-21 5.2-.1-.1-.3-.2-.5-.4-.9-.6-2.5-1.9-4.2-2.1 0 .1 1.6-1.3 2.9-3.2"/><path clip-path="url(#d)" d="m-96.2 297.5c.1-.2.1-.4.2-.6 1-3.6 2.3-6.4 6.8-6.8.6 0 1.8-.1 4.7-.2 1 0 4.3-.2 6.5-.3 2.1-.1 2.3-.6 2.6-1.1l7.4-10.2h-2.3l-2 2.8c-.8 1-2 3.1-6.1 3.4-1.6.1-11.7.5-12.8.5-8.3.2-12.7 9.3-11.6 19.7 0 0 29 17.1 32.4-12.7.3-2.3.7-3.5 2.3-6l5.7-7.9c-.2 0-4.1.2-4.1.2l-7 10c-.8 1-1.1 1.8-1.1 2-1.7 8.5-5.2 16.3-18 12.1-.2-.1-.4-.1-.5-.2-1.1-.3-3-.9-4.7-.5-.1-.1 1-1.9 1.6-4.2"/><path clip-path="url(#d)" d="m-66.1 330c0-.2 0-.4-.1-.6-.3-3.7 0-6.8 4.1-8.7.5-.2 1.6-.7 4.3-1.8.9-.4 4-1.6 6-2.5 1.9-.8 1.9-1.4 2.1-1.9l3.5-12.2-2.2.8-.9 3.3c-.4 1.2-.8 3.6-4.6 5.2-1.5.7-10.8 4.5-11.8 4.9-7.7 3-8.7 13.1-4.1 22.5 0 0 33.1 6.2 26.1-23-.5-2.2-.5-3.5.1-6.4l2.6-9.3c-.2.1-3.8 1.6-3.8 1.6l-3.2 11.8c-.4 1.2-.4 2-.4 2.2 1.3 8.6.6 17.1-12.8 17.5-.2 0-.4 0-.6 0-1.1.1-3.1.2-4.6 1.1.1-.1.5-2.1.3-4.5"/><path clip-path="url(#d)" d="m-26.8 350.3c-.1-.2-.2-.4-.3-.6-1.5-3.4-2.4-6.4.8-9.6.4-.4 1.3-1.2 3.5-3.2.7-.7 3.2-2.9 4.8-4.4 1.5-1.4 1.3-2 1.3-2.5l-.9-12.6-1.8 1.5.3 3.4c0 1.3.5 3.6-2.5 6.5-1.2 1.1-8.6 7.9-9.5 8.6-6.2 5.5-3.7 15.3 3.8 22.6 0 0 33.2-5.5 16.7-30.6-1.2-1.9-1.7-3.1-2.1-6.1l-.7-9.7c-.1.1-3.1 2.8-3.1 2.8l1 12.2c0 1.3.3 2 .4 2.2 4.2 7.6 6.4 15.8-6 20.8-.2.1-.4.1-.5.2-1 .5-2.9 1.2-3.9 2.6.1.1-.3-2-1.3-4.1"/><path clip-path="url(#d)" d="m17.2 355.8c-.1-.1-.3-.3-.5-.5-2.6-2.7-4.4-5.2-2.5-9.3.2-.5.8-1.6 2.2-4.2.4-.9 2-3.8 3-5.8 1-1.9.6-2.3.3-2.8l-5.2-11.5-1.2 2 1.4 3.1c.5 1.2 1.7 3.3-.1 6.9-.7 1.5-5.4 10.4-5.9 11.3-4 7.2 1.7 15.6 11.3 19.9 0 0 29.3-16.5 5.2-34.4-1.8-1.4-2.7-2.3-4-5l-4-8.9c-.1.2-1.9 3.7-1.9 3.7l5.1 11.1c.4 1.2 1 1.8 1.1 2 6.5 5.7 11.5 12.7 1.5 21.6-.1.1-.3.2-.4.4-.8.8-2.3 2.2-2.8 3.8.1.1-1-1.7-2.6-3.4"/><path clip-path="url(#d)" d="m60.4 346c-.2-.1-.4-.2-.6-.3-3.4-1.6-5.9-3.4-5.5-7.9.1-.6.2-1.8.6-4.7.1-1 .6-4.2.9-6.5.3-2.1-.2-2.3-.6-2.8l-8.8-9.1-.4 2.3 2.4 2.4c.9 1 2.7 2.5 2.3 6.6-.2 1.6-1.5 11.6-1.7 12.7-1.2 8.2 7 14.1 17.4 14.8 0 0 21.9-25.6-6.9-34.2-2.2-.7-3.3-1.3-5.5-3.3l-6.8-7c0 .2-.6 4.1-.6 4.1l8.6 8.7c.8 1 1.5 1.4 1.8 1.5 8.1 3.1 15.1 8 8.8 19.8-.1.2-.2.3-.3.5-.5 1-1.4 2.8-1.3 4.5-.1.3-1.7-1.1-3.8-2.1"/><path clip-path="url(#d)" d="m97.6 322c-.2 0-.4 0-.6 0-3.7-.4-6.7-1.1-7.9-5.5-.1-.6-.4-1.7-1-4.6-.2-.9-.9-4.2-1.4-6.4-.5-2-1-2.1-1.6-2.4l-11.4-5.5.4 2.3 3.1 1.5c1.1.6 3.4 1.4 4.4 5.4.4 1.6 2.5 11.4 2.7 12.5 1.6 8.1 11.4 10.9 21.5 8 0 0 11.8-31.5-18.1-29.7-2.3.1-3.6-.1-6.3-1.2l-8.8-4.2c0 .2.9 4 .9 4l11.1 5.2c1.1.6 1.9.8 2.1.8 8.7.2 16.9 2.3 15 15.6 0 .2-.1.4-.1.6-.1 1.1-.4 3.1.3 4.7 0-.2-2-.8-4.3-1.1"/><path clip-path="url(#d)" d="m124.4 286.8c-.2.1-.4.1-.6.2-3.6.9-6.7 1.2-9.3-2.5-.3-.5-1-1.5-2.5-4-.5-.8-2.3-3.6-3.5-5.5-1.1-1.8-1.7-1.6-2.3-1.7l-12.6-1.3 1.2 2 3.4.3c1.3.2 3.7.2 6 3.6.9 1.4 6.3 9.9 6.9 10.8 4.3 7 14.4 6.3 22.9.2 0 0 .3-33.6-27.2-21.8-2.1.9-3.4 1.1-6.3 1l-9.7-1c.1.2 2.2 3.5 2.2 3.5l12.2 1.1c1.2.2 2.1.1 2.3 0 8.2-2.8 16.7-3.6 19.4 9.5 0 .2.1.4.1.6.3 1.1.7 3 1.9 4.3-.2 0-2.3.1-4.5.7"/><path clip-path="url(#d)" d="m768.9 311.9c-.2.1-.4.1-.6.2-3.6.9-6.7 1.2-9.3-2.5-.3-.5-1-1.5-2.5-4-.5-.8-2.3-3.6-3.5-5.5-1.1-1.8-1.7-1.6-2.3-1.7l-12.6-1.3 1.2 2 3.4.3c1.3.2 3.7.2 6 3.6.9 1.4 6.3 9.9 6.9 10.8 4.3 7 14.4 6.3 22.9.2 0 0 .3-33.6-27.2-21.8-2.1.9-3.4 1.1-6.3 1l-9.7-1c.1.2 2.2 3.5 2.2 3.5l12.2 1.1c1.2.2 2.1.1 2.3 0 8.2-2.8 16.7-3.6 19.4 9.5 0 .2.1.4.1.6.3 1.1.7 3 1.9 4.3-.2.1-2.3.1-4.5.7"/><path clip-path="url(#d)" d="m137.5 244.5c-.2.1-.3.3-.5.4-3.1 2.1-5.9 3.5-9.6.8-.5-.3-1.4-1.1-3.7-2.9-.8-.6-3.4-2.6-5.2-4-1.7-1.3-2.1-1-2.7-.8l-12.3 3.1 1.8 1.5 3.3-.9c1.3-.3 3.5-1.1 6.8 1.3 1.3 1 9.3 7.1 10.1 7.8 6.4 5.2 15.7 1 21.6-7.7 0 0-11.2-31.7-33-11.1-1.7 1.6-2.8 2.2-5.6 3.1l-9.4 2.4c.1.1 3.3 2.5 3.3 2.5l11.8-3.1c1.2-.2 2-.6 2.1-.8 6.8-5.4 14.5-9.1 21.5 2.3.1.2.2.3.3.5.7.9 1.7 2.6 3.3 3.4 0 .1-2 .8-3.9 2.2"/><path clip-path="url(#d)" d="m135.3 200.2c-.1.2-.2.4-.4.5-2.2 3-4.4 5.3-8.7 4.1-.5-.2-1.7-.5-4.5-1.4-.9-.3-4.1-1.3-6.2-2-2-.6-2.3-.2-2.8.2l-10.5 7.1 2.2.8 2.8-1.9c1.1-.7 2.9-2.2 6.9-1.1 1.6.5 11.2 3.5 12.2 3.9 7.8 2.6 15.1-4.4 17.6-14.6 0 0-21.4-26-34.8.8-1 2-1.8 3-4.2 4.8l-8 5.5c.2.1 3.9 1.3 3.9 1.3l10-7c1.1-.6 1.6-1.3 1.7-1.5 4.5-7.4 10.5-13.5 21-5.2.1.1.3.2.5.3.9.6 2.5 1.9 4.2 2.1.1 0-1.5 1.4-2.9 3.3"/><path clip-path="url(#d)" d="m118.2 159.4c-.1.2-.1.4-.2.6-1 3.6-2.3 6.4-6.8 6.8-.6 0-1.8.1-4.7.2-1 0-4.3.2-6.5.3-2.1.1-2.3.6-2.6 1.1l-7.4 10.2h2.3l2-2.8c.8-1 2-3.1 6.1-3.4 1.6-.1 11.7-.5 12.8-.5 8.3-.2 12.7-9.3 11.6-19.7 0 0-29-17.1-32.4 12.7-.3 2.3-.7 3.5-2.3 6l-5.7 7.9c.2 0 4.1-.2 4.1-.2l7-10c.8-1 1.1-1.8 1.1-2 1.7-8.5 5.2-16.3 18-12.1.2.1.4.1.5.2 1.1.3 3 .9 4.7.5 0 .1-1 2-1.6 4.2"/><path clip-path="url(#d)" d="m88.1 126.9c0 .2 0 .4.1.6.3 3.7 0 6.8-4.1 8.7-.5.2-1.6.7-4.3 1.8-.9.4-4 1.6-6 2.5-1.9.8-1.9 1.4-2.1 1.9l-3.5 12.2 2.2-.8.9-3.3c.4-1.2.8-3.6 4.6-5.2 1.5-.7 10.8-4.5 11.8-4.9 7.7-3 8.7-13.1 4.1-22.5 0 0-33.1-6.2-26.1 23 .5 2.2.5 3.5-.1 6.4l-2.6 9.3c.2-.1 3.8-1.6 3.8-1.6l3.2-11.8c.4-1.2.4-2 .4-2.2-1.3-8.6-.6-17.1 12.8-17.5h.6c1.1-.1 3.1-.2 4.6-1.1-.2.1-.5 2.2-.3 4.5"/><path clip-path="url(#d)" d="m48.7 106.7.3.6c1.5 3.4 2.4 6.4-.8 9.6-.4.4-1.3 1.2-3.5 3.2-.7.7-3.2 2.9-4.8 4.4-1.5 1.4-1.3 1.9-1.3 2.5l.9 12.6 1.8-1.5-.3-3.4c0-1.3-.5-3.6 2.5-6.5 1.2-1.1 8.6-7.9 9.5-8.6 6.2-5.5 3.7-15.3-3.8-22.6 0 0-33.2 5.5-16.7 30.6 1.2 1.9 1.7 3.1 2.1 6.1l.7 9.7c.1-.1 3.1-2.8 3.1-2.8l-1-12.2c0-1.3-.3-2-.4-2.2-4.2-7.6-6.4-15.8 6-20.8.2-.1.4-.1.5-.2 1-.5 2.9-1.2 3.9-2.6-.1-.1.3 1.9 1.3 4.1"/></g><g opacity=".21"><path d="m380.5 356.2c-.1 0-.3 0-.4 0-2.3-.2-4.2-.7-4.9-3.4-.1-.3-.2-1.1-.6-2.8-.1-.6-.6-2.6-.9-3.9s-.6-1.3-1-1.5l-7-3.4.3 1.4 1.9.9c.7.4 2.1.9 2.7 3.3.2 1 1.6 7.1 1.7 7.7 1 5 7 6.7 13.2 4.9 0 0 7.3-19.5-11.2-18.4-1.4.1-2.2 0-3.9-.8l-5.4-2.6c0 .1.5 2.5.5 2.5l6.8 3.2c.7.4 1.2.5 1.3.5 5.3.1 10.4 1.4 9.3 9.6v.4c-.1.7-.2 1.9.2 2.9.1.1-1.1-.3-2.6-.5"/><path d="m401.4 293.9c-.1.1-.2.2-.3.2-1.9 1.3-3.6 2.1-5.9.5-.3-.2-.9-.7-2.3-1.8-.5-.4-2.1-1.6-3.2-2.5-1-.8-1.3-.6-1.7-.5l-7.6 1.9 1.1.9 2-.5c.8-.2 2.2-.7 4.2.8.8.6 5.7 4.4 6.3 4.8 4 3.2 9.7.6 13.3-4.7 0 0-6.9-19.6-20.4-6.9-1 1-1.7 1.4-3.5 1.9l-5.8 1.5c.1.1 2 1.6 2 1.6l7.3-1.9c.8-.1 1.2-.4 1.3-.5 4.2-3.3 8.9-5.6 13.3 1.4.1.1.1.2.2.3.4.6 1.1 1.6 2 2.1.2.1-1.1.5-2.3 1.4"/><path d="m377.3 232.6c0 .1-.1.3-.1.4-.6 2.2-1.4 4-4.2 4.2-.4 0-1.1 0-2.9.1-.6 0-2.6.1-4 .2-1.3.1-1.4.4-1.6.7l-4.6 6.3h1.4l1.2-1.7c.5-.6 1.2-1.9 3.8-2.1 1-.1 7.2-.3 7.9-.3 5.1-.1 7.8-5.8 7.2-12.2 0 0-17.9-10.6-20 7.8-.2 1.4-.4 2.2-1.4 3.7l-3.5 4.9c.1 0 2.6-.1 2.6-.1l4.3-6.2c.5-.6.7-1.1.7-1.2 1-5.2 3.2-10 11.1-7.5.1 0 .2.1.3.1.7.2 1.9.5 2.9.3 0 .1-.7 1.2-1.1 2.6"/><path d="m319.5 201.2c.1.1.1.2.2.4.9 2.1 1.5 4-.5 5.9-.3.2-.8.7-2.1 2-.4.4-2 1.8-3 2.7-.9.9-.8 1.2-.8 1.6l.6 7.8 1.1-.9-.2-2.1c0-.8-.3-2.2 1.5-4 .7-.7 5.3-4.9 5.8-5.3 3.8-3.4 2.3-9.4-2.4-13.9 0 0-20.5 3.4-10.3 18.9.8 1.2 1.1 1.9 1.3 3.8l.4 6c.1-.1 1.9-1.7 1.9-1.7l-.6-7.5c0-.8-.2-1.3-.3-1.4-2.6-4.7-4-9.8 3.7-12.8.1 0 .2-.1.3-.1.6-.3 1.8-.8 2.4-1.6.2-.4.4.9 1 2.2"/><path d="m255.1 214.3c.1.1.2.1.4.2 2.1 1 3.7 2.1 3.4 4.9 0 .4-.1 1.1-.4 2.9-.1.6-.4 2.6-.5 4-.2 1.3.1 1.4.4 1.7l5.4 5.6.2-1.4-1.5-1.5c-.5-.6-1.7-1.5-1.4-4.1.1-1 1-7.2 1.1-7.8.8-5-4.3-8.7-10.8-9.2 0 0-13.5 15.8 4.2 21.1 1.3.4 2 .8 3.4 2l4.2 4.3c0-.1.3-2.5.3-2.5l-5.3-5.3c-.5-.6-.9-.8-1.1-.9-5-1.9-9.3-4.9-5.4-12.2.1-.1.1-.2.2-.3.3-.6.9-1.7.8-2.8 0-.1 1.1.7 2.4 1.3"/><path d="m214.1 265.8c.1 0 .3-.1.4-.1 2.2-.6 4.2-.8 5.7 1.5.2.3.6.9 1.6 2.5.3.5 1.4 2.2 2.2 3.4.7 1.1 1 1 1.4 1.1l7.8.8-.7-1.2-2.1-.2c-.8-.1-2.3-.1-3.7-2.2-.6-.8-3.9-6.1-4.2-6.7-2.7-4.4-8.9-3.9-14.1-.1 0 0-.2 20.8 16.8 13.4 1.3-.6 2.1-.7 3.9-.6l6 .6c-.1-.1-1.4-2.2-1.4-2.2l-7.5-.7c-.8-.1-1.3 0-1.4 0-5.1 1.7-10.3 2.2-12-5.9 0-.1 0-.2-.1-.3-.2-.7-.5-1.9-1.2-2.7-.1 0 1.2 0 2.6-.4"/><path d="m215.8 331.6c.1-.1.1-.2.2-.3 1.3-1.9 2.7-3.3 5.4-2.5.3.1 1 .3 2.8.9.6.2 2.5.8 3.8 1.2 1.2.4 1.5.1 1.8-.1l6.5-4.4-1.3-.5-1.7 1.2c-.7.4-1.8 1.4-4.2.7-1-.3-6.9-2.2-7.5-2.4-4.8-1.6-9.3 2.7-10.9 9 0 0 13.2 16 21.5-.5.6-1.3 1.1-1.9 2.6-3l5-3.4c-.1 0-2.4-.8-2.4-.8l-6.2 4.3c-.7.4-1 .8-1.1.9-2.8 4.6-6.5 8.3-13 3.2-.1-.1-.2-.1-.3-.2-.6-.4-1.6-1.1-2.6-1.3-.2 0 .8-.9 1.6-2"/><path d="m259.4 380.9c0-.1 0-.3 0-.4-.2-2.3 0-4.2 2.5-5.4.3-.1 1-.4 2.7-1.1.5-.2 2.4-1 3.7-1.5 1.2-.5 1.2-.9 1.3-1.2l2.1-7.5-1.3.5-.6 2c-.2.8-.5 2.2-2.8 3.2-.9.4-6.7 2.8-7.3 3-4.7 1.9-5.4 8.1-2.6 13.9 0 0 20.4 3.8 16.1-14.2-.3-1.4-.3-2.2.1-4l1.6-5.8c-.1 0-2.4 1-2.4 1l-2 7.3c-.3.7-.3 1.2-.2 1.4.8 5.3.4 10.5-7.9 10.8-.1 0-.2 0-.4 0-.7.1-1.9.1-2.8.7.1 0 .3-1.3.2-2.7"/><path d="m324.4 390.6c-.1-.1-.2-.2-.3-.3-1.6-1.6-2.7-3.2-1.5-5.7.2-.3.5-1 1.3-2.6.3-.5 1.2-2.3 1.9-3.6.6-1.2.4-1.4.2-1.7l-3.2-7.1-.7 1.2.9 1.9c.3.7 1 2-.1 4.3-.4.9-3.3 6.4-3.7 7-2.4 4.5 1.1 9.7 7 12.3 0 0 18.1-10.2 3.2-21.3-1.1-.8-1.7-1.4-2.5-3.1l-2.5-5.5c-.1.1-1.2 2.3-1.2 2.3l3.2 6.8c.3.7.6 1.1.7 1.2 4 3.5 7.1 7.8.9 13.3-.1.1-.2.2-.3.2-.5.5-1.4 1.3-1.7 2.3.1.2-.5-.9-1.6-1.9"/><path d="m357.3 376.4c-.1-.1-.2-.1-.4-.2-2.1-.9-3.7-2-3.5-4.8 0-.4.1-1.1.3-2.9.1-.6.3-2.6.4-4 .1-1.3-.2-1.4-.4-1.7l-5.6-5.5-.2 1.4 1.5 1.5c.5.6 1.7 1.5 1.5 4-.1 1-.8 7.2-.9 7.9-.7 5.1 4.5 8.6 11 8.9 0 0 13.2-16.1-4.7-21-1.4-.4-2.1-.7-3.4-2l-4.3-4.2c0 .1-.3 2.5-.3 2.5l5.4 5.2c.5.6 1 .8 1.1.9 5 1.8 9.4 4.7 5.7 12.1-.1.1-.1.2-.2.3-.3.6-.8 1.7-.8 2.8.2.2-.9-.6-2.2-1.2"/><path d="m397.1 324c-.1 0-.3.1-.4.1-2.2.6-4.1.9-5.8-1.4-.2-.3-.6-.9-1.6-2.4-.3-.5-1.5-2.2-2.2-3.3s-1.1-1-1.4-1l-7.8-.6.7 1.2 2.1.2c.8.1 2.3.1 3.7 2.1.6.8 4 6 4.4 6.6 2.8 4.3 9 3.7 14.1-.2 0 0-.3-20.8-17.1-13.1-1.3.6-2.1.8-3.9.7l-6-.5c.1.1 1.4 2.1 1.4 2.1l7.5.5c.8.1 1.3 0 1.4 0 5-1.8 10.3-2.4 12.1 5.6 0 .1 0 .2.1.3.2.7.5 1.9 1.2 2.6.2 0-1.1.1-2.5.5"/><path d="m393.9 258.3c-.1.1-.1.2-.2.3-1.3 1.9-2.6 3.3-5.3 2.6-.3-.1-1.1-.3-2.8-.8-.6-.2-2.5-.8-3.9-1.1-1.2-.4-1.5-.1-1.8.1l-6.4 4.5 1.4.5 1.7-1.2c.7-.4 1.8-1.4 4.2-.8 1 .3 6.9 2 7.6 2.2 4.9 1.5 9.3-2.9 10.7-9.3 0 0-13.6-15.7-21.5 1-.6 1.3-1.1 1.9-2.5 3l-4.9 3.5c.1 0 2.5.7 2.5.7l6.1-4.4c.7-.4 1-.8 1.1-.9 2.7-4.6 6.3-8.5 12.9-3.5.1.1.2.1.3.2.6.4 1.6 1.1 2.6 1.2 0 .1-1 1-1.8 2.2"/><path d="m349.3 210v.4c.2 2.3.1 4.2-2.4 5.4-.3.2-1 .4-2.7 1.2-.5.2-2.4 1.1-3.7 1.6-1.2.5-1.2.9-1.3 1.2l-2 7.6 1.3-.5.5-2.1c.2-.8.5-2.2 2.7-3.3.9-.4 6.6-2.9 7.2-3.2 4.7-2 5.2-8.2 2.2-14 0 0-20.5-3.3-15.8 14.6.4 1.4.4 2.2 0 4l-1.5 5.8c.1 0 2.3-1 2.3-1l1.8-7.3c.3-.7.2-1.3.2-1.4-.9-5.3-.6-10.5 7.6-11h.4c.7-.1 1.9-.2 2.8-.8.4.1.2 1.4.4 2.8"/><path d="m284 201.7c.1.1.2.2.3.3 1.6 1.6 2.8 3.2 1.7 5.7-.1.3-.5 1-1.3 2.6-.3.5-1.2 2.4-1.8 3.6s-.3 1.4-.2 1.8l3.3 7.1.7-1.3-.9-1.9c-.3-.7-1.1-2 0-4.3.4-.9 3.2-6.5 3.5-7.1 2.3-4.5-1.3-9.6-7.3-12.1 0 0-17.9 10.6-2.8 21.3 1.1.8 1.7 1.4 2.6 3l2.6 5.4c.1-.1 1.1-2.3 1.1-2.3l-3.3-6.8c-.3-.7-.6-1.1-.7-1.2-4.1-3.4-7.3-7.7-1.2-13.3.1-.1.2-.2.3-.2.5-.5 1.4-1.4 1.7-2.4 0 0 .7 1.1 1.7 2.1"/><path d="m228.7 237.3h.4c2.3.2 4.2.6 4.9 3.3.1.3.3 1.1.7 2.8.1.6.6 2.6 1 3.9.3 1.3.7 1.3 1 1.5l7.1 3.3-.3-1.4-1.9-.9c-.7-.4-2.1-.8-2.8-3.3-.3-1-1.7-7-1.9-7.7-1.1-5-7.2-6.5-13.4-4.6 0 0-6.9 19.6 11.6 18.1 1.4-.1 2.2 0 3.9.7l5.5 2.5c0-.1-.6-2.5-.6-2.5l-6.9-3.1c-.7-.4-1.2-.4-1.3-.4-5.3 0-10.5-1.2-9.5-9.4 0-.1 0-.2 0-.4 0-.7.2-1.9-.3-2.9.1 0 1.3.4 2.8.5"/><path d="m209.2 300.2c.1-.1.2-.2.3-.2 1.9-1.3 3.6-2.2 5.9-.6.3.2.9.7 2.3 1.7.5.4 2.1 1.6 3.2 2.4 1 .8 1.3.6 1.7.5l7.5-2.1-1.1-.9-2 .6c-.8.2-2.1.7-4.2-.7-.8-.6-5.8-4.3-6.4-4.7-4.1-3.1-9.7-.4-13.2 5 0 0 7.4 19.4 20.5 6.4 1-1 1.7-1.4 3.4-2l5.8-1.6c-.1-.1-2.1-1.5-2.1-1.5l-7.2 2.1c-.8.2-1.2.4-1.3.5-4.1 3.4-8.8 5.8-13.3-1.1-.1-.1-.1-.2-.2-.3-.4-.6-1.1-1.6-2.1-2.1.1-.1 1.3-.6 2.5-1.4"/><path d="m234.6 360.8c0-.1.1-.3.1-.4.6-2.2 1.3-4 4.1-4.3.4 0 1.1-.1 2.9-.2.6 0 2.6-.2 4-.3 1.3-.1 1.4-.4 1.6-.7l4.4-6.4h-1.4l-1.2 1.8c-.5.6-1.2 1.9-3.7 2.2-1 .1-7.2.5-7.9.5-5.1.2-7.7 5.9-6.9 12.3 0 0 18.1 10.2 19.9-8.3.1-1.4.4-2.2 1.3-3.7l3.4-4.9c-.1 0-2.6.2-2.6.2l-4.2 6.3c-.5.6-.6 1.1-.7 1.2-.9 5.3-3 10.1-10.9 7.7-.1 0-.2-.1-.3-.1-.7-.2-1.9-.5-2.9-.3.1 0 .7-1.2 1-2.6"/><path d="m293.1 390.9c-.1-.1-.1-.2-.2-.4-1-2.1-1.6-3.9.4-5.9.2-.3.8-.8 2.1-2 .4-.4 1.9-1.8 2.9-2.8.9-.9.8-1.2.8-1.6l-.7-7.8-1.1.9.2 2.1c0 .8.3 2.2-1.4 4-.7.7-5.2 5-5.7 5.5-3.7 3.5-2.1 9.5 2.7 13.9 0 0 20.4-3.9 9.9-19.1-.8-1.2-1.1-1.9-1.4-3.7l-.6-6c-.1.1-1.9 1.8-1.9 1.8l.8 7.5c0 .8.2 1.3.3 1.4 2.7 4.6 4.2 9.7-3.4 12.9-.1 0-.2.1-.3.1-.6.3-1.8.8-2.4 1.7 0 .1-.3-1.2-1-2.5"/></g><g opacity=".21"><path d="m258 73.9c-.1 0-.3 0-.4 0-2.3-.2-4.2-.7-4.9-3.4-.1-.3-.2-1.1-.6-2.8-.1-.6-.6-2.6-.9-3.9s-.6-1.3-1-1.5l-7-3.4.3 1.4 1.9.9c.7.4 2.1.9 2.7 3.3.2 1 1.6 7.1 1.7 7.7 1 5 7 6.7 13.2 4.9 0 0 7.3-19.5-11.2-18.4-1.4.1-2.2 0-3.9-.8l-5.4-2.6c0 .1.5 2.5.5 2.5l6.8 3.2c.7.4 1.2.5 1.3.5 5.3.1 10.4 1.4 9.3 9.6v.4c-.1.7-.2 1.9.2 2.9 0 .1-1.2-.3-2.6-.5"/><path d="m278.9 11.6c-.1.1-.2.2-.3.2-1.9 1.3-3.6 2.1-5.9.5-.3-.2-.9-.7-2.3-1.8-.5-.4-2.1-1.6-3.2-2.5-1-.8-1.3-.6-1.7-.5l-7.6 1.9 1.1.9 2-.5c.8-.2 2.2-.7 4.2.8.8.6 5.7 4.4 6.3 4.8 4 3.2 9.7.6 13.3-4.7 0 0-6.9-19.6-20.4-6.9-1 1-1.7 1.4-3.5 1.9l-5.8 1.5c.1.1 2 1.6 2 1.6l7.3-1.9c.8-.1 1.2-.4 1.3-.5 4.2-3.3 8.9-5.6 13.3 1.4.1.1.1.2.2.3.4.6 1.1 1.6 2 2.1.1.1-1.1.5-2.3 1.4"/><path d="m254.8-49.7c0 .1-.1.3-.1.4-.6 2.2-1.4 4-4.2 4.2-.4 0-1.1 0-2.9.1-.6 0-2.6.1-4 .2-1.3.1-1.4.4-1.6.7l-4.6 6.3h1.4l1.2-1.7c.5-.6 1.2-1.9 3.8-2.1 1-.1 7.2-.3 7.9-.3 5.1-.1 7.8-5.8 7.2-12.2 0 0-17.9-10.6-20 7.8-.2 1.4-.4 2.2-1.4 3.7l-3.5 4.9c.1 0 2.6-.1 2.6-.1l4.3-6.2c.5-.6.7-1.1.7-1.2 1-5.2 3.2-10 11.1-7.5.1 0 .2.1.3.1.7.2 1.9.5 2.9.3-.1.1-.7 1.2-1.1 2.6"/><path d="m197-81.1c.1.1.1.2.2.4.9 2.1 1.5 4-.5 5.9-.3.2-.8.7-2.1 2-.4.4-2 1.8-3 2.7-.9.9-.8 1.2-.8 1.6l.6 7.8 1.1-.9-.2-2.1c0-.8-.3-2.2 1.5-4 .7-.7 5.3-4.9 5.8-5.3 3.8-3.4 2.3-9.4-2.4-13.9 0 0-20.5 3.4-10.3 18.9.8 1.2 1.1 1.9 1.3 3.8l.4 6c.1-.1 1.9-1.7 1.9-1.7l-.6-7.5c0-.8-.2-1.3-.3-1.4-2.6-4.7-4-9.8 3.7-12.8.1 0 .2-.1.3-.1.6-.3 1.8-.8 2.4-1.6.1-.4.4.9 1 2.2"/><path d="m132.5-68c.1.1.2.1.4.2 2.1 1 3.7 2.1 3.4 4.9 0 .4-.1 1.1-.4 2.9-.1.6-.4 2.6-.5 4-.2 1.3.1 1.4.4 1.7l5.4 5.6.2-1.4-1.5-1.5c-.5-.6-1.7-1.5-1.4-4.1.1-1 1-7.2 1.1-7.8.8-5-4.3-8.7-10.8-9.2 0 0-13.5 15.8 4.2 21.1 1.3.4 2 .8 3.4 2l4.2 4.3c0-.1.3-2.5.3-2.5l-5.3-5.3c-.5-.6-.9-.8-1.1-.9-5-1.9-9.3-4.9-5.4-12.2.1-.1.1-.2.2-.3.3-.6.9-1.7.8-2.8.1-.1 1.1.7 2.4 1.3"/><path d="m91.5-16.5c.1 0 .3-.1.4-.1 2.2-.6 4.2-.8 5.7 1.5.2.3.6.9 1.6 2.5.3.5 1.4 2.2 2.2 3.4.7 1.1 1 1 1.4 1.1l7.8.8-.7-1.2-2.1-.2c-.8-.1-2.3-.1-3.7-2.2-.6-.8-3.9-6.1-4.2-6.7-2.7-4.4-8.9-3.9-14.1-.1 0 0-.2 20.8 16.8 13.4 1.3-.6 2.1-.7 3.9-.6l6 .6c-.1-.1-1.4-2.2-1.4-2.2l-7.5-.7c-.8-.1-1.3 0-1.4 0-5.2 1.7-10.4 2.2-12.1-5.9 0-.1 0-.2-.1-.3-.2-.7-.5-1.9-1.2-2.7 0 0 1.3 0 2.7-.4"/><path d="m93.2 49.3c.1-.1.1-.2.2-.3 1.3-1.9 2.7-3.3 5.4-2.5.3.1 1 .3 2.8.9.6.2 2.5.8 3.8 1.2 1.2.4 1.5.1 1.8-.1l6.5-4.4-1.3-.5-1.7 1.2c-.7.4-1.8 1.4-4.2.7-1-.3-6.9-2.2-7.5-2.4-4.8-1.6-9.3 2.7-10.9 9 0 0 13.2 16 21.5-.5.6-1.3 1.1-1.9 2.6-3l5-3.4c-.1 0-2.4-.8-2.4-.8l-6.2 4.3c-.7.4-1 .8-1.1.9-2.8 4.6-6.5 8.3-13 3.2-.1-.1-.2-.1-.3-.2-.6-.4-1.6-1.1-2.6-1.3-.2 0 .8-.8 1.6-2"/><path d="m136.8 98.6c0-.1 0-.3 0-.4-.2-2.3 0-4.2 2.5-5.4.3-.1 1-.4 2.7-1.1.5-.2 2.4-1 3.7-1.5 1.2-.5 1.2-.9 1.3-1.2l2.1-7.5-1.3.5-.6 2c-.2.8-.5 2.2-2.8 3.2-.9.4-6.7 2.8-7.3 3-4.7 1.9-5.4 8.1-2.6 13.9 0 0 20.4 3.8 16.1-14.2-.3-1.4-.3-2.2.1-4l1.6-5.8c-.1 0-2.4 1-2.4 1l-2 7.3c-.3.7-.3 1.2-.2 1.4.8 5.3.4 10.5-7.9 10.8-.1 0-.2 0-.4 0-.7.1-1.9.1-2.8.7.1 0 .3-1.3.2-2.7"/><path d="m201.9 108.3c-.1-.1-.2-.2-.3-.3-1.6-1.6-2.7-3.2-1.5-5.7.2-.3.5-1 1.3-2.6.3-.5 1.2-2.3 1.9-3.6.6-1.2.4-1.4.2-1.7l-3.2-7.1-.7 1.2.9 1.9c.3.7 1 2-.1 4.3-.4.9-3.3 6.4-3.7 7-2.4 4.5 1.1 9.7 7 12.3 0 0 18.1-10.2 3.2-21.3-1.1-.8-1.7-1.4-2.5-3.1l-2.5-5.5c-.1.1-1.2 2.3-1.2 2.3l3.2 6.8c.3.7.6 1.1.7 1.2 4 3.5 7.1 7.8.9 13.3-.1.1-.2.2-.3.2-.5.5-1.4 1.3-1.7 2.3.1.2-.6-.9-1.6-1.9"/><path d="m234.7 94.1c-.1-.1-.2-.1-.4-.2-2.1-.9-3.7-2-3.5-4.8 0-.4.1-1.1.3-2.9.1-.6.3-2.6.4-4 .1-1.3-.2-1.4-.4-1.7l-5.6-5.5-.2 1.4 1.5 1.5c.5.6 1.7 1.5 1.5 4-.1 1-.8 7.2-.9 7.9-.7 5.1 4.5 8.6 11 8.9 0 0 13.2-16.1-4.7-21-1.4-.4-2.1-.7-3.4-2l-4.3-4.2c0 .1-.3 2.5-.3 2.5l5.4 5.2c.5.6 1 .8 1.1.9 5 1.8 9.4 4.7 5.7 12.1-.1.1-.1.2-.2.3-.3.6-.8 1.7-.8 2.8.2.2-.9-.6-2.2-1.2"/><path d="m274.5 41.7c-.1 0-.3.1-.4.1-2.2.6-4.1.9-5.8-1.4-.2-.3-.6-.9-1.6-2.4-.3-.5-1.5-2.2-2.2-3.3s-1.1-1-1.4-1l-7.8-.6.7 1.2 2.1.2c.8.1 2.3.1 3.7 2.1.6.8 4 6 4.4 6.6 2.8 4.3 9 3.7 14.1-.2 0 0-.3-20.8-17.1-13.1-1.3.6-2.1.8-3.9.7l-6-.5c.1.1 1.4 2.1 1.4 2.1l7.5.5c.8.1 1.3 0 1.4 0 5-1.8 10.3-2.4 12.1 5.6 0 .1 0 .2.1.3.2.7.5 1.9 1.2 2.6.2 0-1.1.1-2.5.5"/><path d="m271.3-24c-.1.1-.1.2-.2.3-1.3 1.9-2.6 3.3-5.3 2.6-.3-.1-1.1-.3-2.8-.8-.6-.2-2.5-.8-3.9-1.1-1.2-.4-1.5-.1-1.8.1l-6.4 4.5 1.4.5 1.7-1.2c.7-.4 1.8-1.4 4.2-.8 1 .3 6.9 2 7.6 2.2 4.9 1.5 9.3-2.9 10.7-9.3 0 0-13.6-15.7-21.5 1-.6 1.3-1.1 1.9-2.5 3l-4.9 3.5c.1 0 2.5.7 2.5.7l6.1-4.4c.7-.4 1-.8 1.1-.9 2.7-4.6 6.3-8.5 12.9-3.5.1.1.2.1.3.2.6.4 1.6 1.1 2.6 1.2 0 .1-.9 1-1.8 2.2"/><path d="m226.7-72.3v.4c.2 2.3.1 4.2-2.4 5.4-.3.2-1 .4-2.7 1.2-.5.2-2.4 1.1-3.7 1.6-1.2.5-1.2.9-1.3 1.2l-2 7.6 1.3-.5.5-2.1c.2-.8.5-2.2 2.7-3.3.9-.4 6.6-2.9 7.2-3.2 4.7-2 5.2-8.2 2.2-14 0 0-20.5-3.3-15.8 14.6.4 1.4.4 2.2 0 4l-1.5 5.8c.1 0 2.3-1 2.3-1l1.8-7.3c.3-.7.2-1.3.2-1.4-.9-5.3-.6-10.5 7.6-11h.4c.7-.1 1.9-.2 2.8-.8.4.1.2 1.4.4 2.8"/><path d="m161.4-80.6c.1.1.2.2.3.3 1.6 1.6 2.8 3.2 1.7 5.7-.1.3-.5 1-1.3 2.6-.3.5-1.2 2.4-1.8 3.6s-.3 1.4-.2 1.8l3.3 7.1.7-1.3-.9-1.9c-.3-.7-1.1-2 0-4.3.4-.9 3.2-6.5 3.5-7.1 2.3-4.5-1.3-9.6-7.3-12.1 0 0-17.9 10.6-2.8 21.3 1.1.8 1.7 1.4 2.6 3l2.6 5.4c.1-.1 1.1-2.3 1.1-2.3l-3.3-6.8c-.3-.7-.6-1.1-.7-1.2-4.1-3.4-7.3-7.7-1.2-13.3.1-.1.2-.2.3-.2.5-.5 1.4-1.4 1.7-2.4 0 0 .7 1.1 1.7 2.1"/><path d="m106.1-45h.4c2.3.2 4.2.6 4.9 3.3.1.3.3 1.1.7 2.8.1.6.6 2.6 1 3.9.3 1.3.7 1.3 1 1.5l7.1 3.3-.3-1.4-1.9-.9c-.7-.4-2.1-.8-2.8-3.3-.3-1-1.7-7-1.9-7.7-1.1-5-7.2-6.5-13.4-4.6 0 0-6.9 19.6 11.6 18.1 1.4-.1 2.2 0 3.9.7l5.5 2.5c0-.1-.6-2.5-.6-2.5l-6.9-3.1c-.7-.4-1.2-.4-1.3-.4-5.3 0-10.5-1.2-9.5-9.4 0-.1 0-.2 0-.4 0-.7.2-1.9-.3-2.9.1 0 1.4.4 2.8.5"/><path d="m86.6 17.9c.1-.1.2-.2.3-.2 1.9-1.3 3.6-2.2 5.9-.6.3.2.9.7 2.3 1.7.5.4 2.1 1.6 3.2 2.4 1 .8 1.3.6 1.7.5l7.5-2.1-1.1-.9-2 .6c-.8.2-2.1.7-4.2-.7-.8-.6-5.8-4.3-6.4-4.7-4.1-3.1-9.7-.4-13.2 5 0 0 7.4 19.4 20.5 6.4 1-1 1.7-1.4 3.4-2l5.8-1.6c-.1-.1-2.1-1.5-2.1-1.5l-7.2 2.1c-.8.2-1.2.4-1.3.5-4.1 3.4-8.8 5.8-13.3-1.1-.1-.1-.1-.2-.2-.3-.4-.6-1.1-1.6-2.1-2.1.1-.1 1.3-.6 2.5-1.4"/><path d="m112.1 78.5c0-.1.1-.3.1-.4.6-2.2 1.3-4 4.1-4.3.4 0 1.1-.1 2.9-.2.6 0 2.6-.2 4-.3 1.3-.1 1.4-.4 1.6-.7l4.4-6.4h-1.4l-1.2 1.8c-.5.6-1.2 1.9-3.7 2.2-1 .1-7.2.5-7.9.5-5.1.2-7.7 5.9-6.9 12.3 0 0 18.1 10.2 19.9-8.3.1-1.4.4-2.2 1.3-3.7l3.4-4.9c-.1 0-2.6.2-2.6.2l-4.2 6.3c-.5.6-.6 1.1-.7 1.2-.9 5.3-3 10.1-10.9 7.7-.1 0-.2-.1-.3-.1-.7-.2-1.9-.5-2.9-.3 0 0 .6-1.2 1-2.6"/><path d="m170.6 108.6c-.1-.1-.1-.2-.2-.4-1-2.1-1.6-3.9.4-5.9.2-.3.8-.8 2.1-2 .4-.4 1.9-1.8 2.9-2.8.9-.9.8-1.2.8-1.6l-.7-7.8-1.1.9.2 2.1c0 .8.3 2.2-1.4 4-.7.7-5.2 5-5.7 5.5-3.7 3.5-2.1 9.5 2.7 13.9 0 0 20.4-3.9 9.9-19.1-.8-1.2-1.1-1.9-1.4-3.7l-.6-6c-.1.1-1.9 1.8-1.9 1.8l.8 7.5c0 .8.2 1.3.3 1.4 2.7 4.6 4.2 9.7-3.4 12.9-.1 0-.2.1-.3.1-.6.3-1.8.8-2.4 1.7-.1.1-.4-1.2-1-2.5"/></g><g clip-path="url(#e)" opacity=".42"><path clip-path="url(#f)" d="m726 109.9c.2.2.3.3.5.5 2.8 2.9 4.8 5.7 2.7 10.1-.3.6-.9 1.7-2.4 4.6-.5.9-2.2 4.1-3.3 6.3-1 2-.6 2.5-.4 3.1l5.6 12.6 1.3-2.2-1.6-3.4c-.5-1.3-1.8-3.5.1-7.6.8-1.6 5.9-11.3 6.5-12.4 4.3-7.9-1.9-17-12.3-21.7 0 0-31.9 18-5.7 37.5 2 1.5 2.9 2.6 4.4 5.5l4.4 9.7c.1-.2 2.1-4 2.1-4l-5.6-12.1c-.5-1.3-1.1-2-1.3-2.1-7.1-6.2-12.5-13.8-1.6-23.5.2-.1.3-.3.5-.4.9-.9 2.5-2.3 3-4.1.1-.2 1.3 1.7 3.1 3.6"/><path clip-path="url(#f)" d="m678.9 120.6c.2.1.4.2.6.3 3.7 1.8 6.5 3.7 6 8.6-.1.6-.3 1.9-.7 5.1-.1 1-.6 4.6-.9 7-.3 2.3.3 2.6.7 3l9.6 9.9.4-2.5-2.6-2.7c-.9-1.1-2.9-2.7-2.5-7.2.2-1.8 1.7-12.7 1.9-13.8 1.4-8.9-7.6-15.4-19-16.2 0 0-23.8 27.9 7.5 37.2 2.4.7 3.6 1.4 6 3.6l7.4 7.6c0-.2.6-4.5.6-4.5l-9.4-9.4c-.9-1.1-1.7-1.5-1.9-1.6-8.8-3.4-16.5-8.7-9.6-21.6.1-.2.2-.4.3-.6.5-1.1 1.5-3.1 1.4-4.9.1.1 1.9 1.6 4.2 2.7"/><path clip-path="url(#f)" d="m638.3 146.7c.2 0 .5 0 .7.1 4 .4 7.4 1.3 8.6 6 .2.6.4 1.9 1.1 5 .2 1 1 4.6 1.5 6.9.5 2.2 1.1 2.3 1.7 2.6l12.4 6-.4-2.5-3.4-1.6c-1.2-.7-3.7-1.5-4.8-5.9-.4-1.7-2.7-12.5-3-13.6-1.8-8.8-12.4-11.8-23.4-8.7 0 0-12.9 34.3 19.8 32.4 2.5-.1 3.9.1 6.9 1.3l9.5 4.6c0-.2-1-4.4-1-4.4l-12-5.7c-1.2-.7-2.1-.8-2.3-.8-9.4-.2-18.4-2.5-16.4-17 0-.2.1-.4.1-.6.1-1.2.4-3.4-.3-5.1 0 0 2.2.8 4.7 1"/><path clip-path="url(#f)" d="m609.2 185.1c.2-.1.4-.1.7-.2 3.9-1 7.3-1.3 10.1 2.7.4.5 1 1.6 2.8 4.3.6.9 2.5 4 3.8 6 1.2 1.9 1.8 1.8 2.5 1.9l13.7 1.4-1.3-2.2-3.7-.4c-1.4-.2-4-.2-6.5-3.9-1-1.5-6.9-10.8-7.5-11.8-4.7-7.7-15.7-6.9-25-.2 0 0-.4 36.7 29.7 23.7 2.3-1 3.7-1.2 6.9-1.1l10.5 1.1c-.1-.2-2.4-3.8-2.4-3.8l-13.3-1.2c-1.4-.2-2.2-.1-2.5 0-8.9 3-18.2 3.9-21.2-10.4 0-.2-.1-.4-.1-.6-.3-1.2-.8-3.3-2.1-4.7.1.1 2.4.1 4.9-.6"/><path clip-path="url(#f)" d="m594.9 231.2c.2-.1.4-.3.6-.4 3.4-2.3 6.4-3.8 10.4-.9.5.4 1.5 1.2 4.1 3.1.8.6 3.7 2.9 5.6 4.3 1.8 1.4 2.3 1 3 .9l13.4-3.3-1.9-1.6-3.6.9c-1.4.3-3.8 1.2-7.4-1.4-1.5-1.1-10.1-7.8-11.1-8.5-7-5.6-17.1-1.1-23.5 8.4 0 0 12.2 34.6 36 12.1 1.8-1.7 3-2.4 6.1-3.4l10.3-2.6c-.2-.1-3.6-2.8-3.6-2.8l-12.9 3.4c-1.4.2-2.1.7-2.3.9-7.4 5.9-15.8 9.9-23.5-2.5-.1-.2-.2-.4-.3-.5-.7-1-1.9-2.8-3.5-3.7-.2-.1 2-.9 4.1-2.4"/><path clip-path="url(#f)" d="m597.2 279.5c.1-.2.3-.4.4-.6 2.4-3.3 4.8-5.7 9.5-4.4.6.2 1.8.6 4.9 1.5 1 .3 4.4 1.4 6.8 2.1 2.2.7 2.6.2 3.1-.2l11.4-7.7-2.4-.9-3.1 2.1c-1.2.7-3.2 2.4-7.5 1.2-1.7-.5-12.2-3.9-13.3-4.2-8.5-2.9-16.5 4.8-19.2 15.9 0 0 23.3 28.3 38-.9 1.1-2.2 2-3.3 4.6-5.3l8.7-6c-.2-.1-4.3-1.4-4.3-1.4l-10.9 7.6c-1.2.7-1.8 1.4-1.9 1.6-4.9 8.1-11.4 14.7-22.9 5.7-.2-.1-.3-.3-.5-.4-1-.7-2.7-2-4.6-2.3 0 .2 1.7-1.4 3.2-3.4"/><path clip-path="url(#f)" d="m615.9 324c.1-.2.1-.5.2-.7 1.1-3.9 2.5-7 7.4-7.4.6 0 1.9-.1 5.1-.2 1 0 4.7-.2 7.1-.3 2.3-.1 2.5-.7 2.9-1.2l8.1-11.2h-2.5l-2.2 3c-.9 1.1-2.2 3.3-6.6 3.7-1.8.1-12.8.5-13.9.6-9 .2-13.8 10.2-12.6 21.5 0 0 31.6 18.6 35.4-13.8.3-2.5.8-3.8 2.5-6.5l6.2-8.6c-.2 0-4.5.2-4.5.2l-7.7 10.9c-.9 1.1-1.2 1.9-1.2 2.2-1.8 9.3-5.7 17.7-19.6 13.2-.2-.1-.4-.1-.6-.2-1.2-.3-3.3-1-5.1-.6-.2-.2.9-2.2 1.6-4.6"/><path clip-path="url(#f)" d="m648.7 359.4c0-.2-.1-.5-.1-.7-.3-4 0-7.5 4.4-9.5.6-.3 1.8-.7 4.7-2 1-.4 4.3-1.8 6.6-2.7 2.1-.9 2.1-1.5 2.3-2.1l3.8-13.2-2.4.8-1 3.6c-.4 1.3-.9 3.9-5 5.7-1.6.7-11.8 4.9-12.9 5.3-8.4 3.3-9.5 14.3-4.5 24.5 0 0 36 6.7 28.5-25.1-.6-2.4-.6-3.8.1-7l2.9-10.2c-.2.1-4.2 1.7-4.2 1.7l-3.5 12.8c-.5 1.3-.5 2.2-.4 2.4 1.4 9.3.7 18.6-13.9 19.1-.2 0-.4 0-.6 0-1.2.1-3.4.2-5 1.2.1.2.4-2.1.2-4.6"/><path clip-path="url(#f)" d="m691.6 381.4c-.1-.2-.2-.4-.3-.6-1.7-3.7-2.6-7 .9-10.4.4-.4 1.4-1.3 3.8-3.5.8-.7 3.5-3.1 5.2-4.8 1.7-1.6 1.4-2.1 1.4-2.8l-1-13.7-1.9 1.6.3 3.7c0 1.4.5 4-2.7 7.1-1.3 1.2-9.4 8.6-10.3 9.4-6.8 5.9-4 16.7 4.2 24.6 0 0 36.2-6 18.2-33.3-1.4-2.1-1.9-3.4-2.3-6.6l-.8-10.6c-.2.1-3.3 3-3.3 3l1.1 13.3c0 1.4.3 2.2.4 2.4 4.5 8.3 7 17.2-6.6 22.7-.2.1-.4.1-.6.2-1.1.5-3.1 1.4-4.3 2.8.1.1-.3-2.1-1.4-4.5"/><path clip-path="url(#f)" d="m739.5 387.5c-.2-.2-.3-.3-.5-.5-2.8-2.9-4.8-5.7-2.7-10.1.3-.6.9-1.7 2.4-4.6.5-.9 2.2-4.1 3.3-6.3 1-2 .6-2.5.4-3.1l-5.6-12.6-1.3 2.2 1.6 3.4c.5 1.3 1.8 3.5-.1 7.6-.8 1.6-5.9 11.3-6.5 12.4-4.3 7.9 1.9 17 12.3 21.7 0 0 31.9-18 5.7-37.5-2-1.5-2.9-2.6-4.4-5.5l-4.4-9.7c-.1.2-2.1 4-2.1 4l5.6 12.1c.5 1.3 1.1 2 1.3 2.1 7.1 6.2 12.5 13.8 1.6 23.5-.2.1-.3.3-.5.4-.9.9-2.5 2.3-3 4.1-.1.2-1.3-1.8-3.1-3.6"/><path clip-path="url(#f)" d="m786.6 376.8c-.2-.1-.4-.2-.6-.3-3.7-1.8-6.5-3.7-6-8.6.1-.6.3-1.9.7-5.1.1-1 .6-4.6.9-7 .3-2.3-.3-2.6-.7-3l-9.6-9.9-.4 2.5 2.6 2.7c.9 1.1 2.9 2.7 2.5 7.2-.2 1.8-1.7 12.7-1.9 13.8-1.4 8.9 7.6 15.4 19 16.2 0 0 23.8-27.9-7.5-37.2-2.4-.7-3.6-1.4-6-3.6l-7.4-7.6c0 .2-.6 4.5-.6 4.5l9.4 9.4c.9 1.1 1.7 1.5 1.9 1.6 8.8 3.4 16.5 8.7 9.6 21.6-.1.2-.2.4-.3.6-.5 1.1-1.5 3.1-1.4 4.9-.1-.1-1.9-1.6-4.2-2.7"/><path clip-path="url(#f)" d="m827.2 350.7c-.2 0-.5 0-.7-.1-4-.4-7.4-1.3-8.6-6-.2-.6-.4-1.9-1.1-5-.2-1-1-4.6-1.5-6.9-.5-2.2-1.1-2.3-1.7-2.6l-12.4-6 .4 2.5 3.4 1.6c1.2.7 3.7 1.5 4.8 5.9.4 1.7 2.8 12.5 3 13.6 1.8 8.8 12.4 11.8 23.4 8.7 0 0 12.9-34.3-19.8-32.4-2.5.1-3.9-.1-6.9-1.3l-9.5-4.6c0 .2 1 4.4 1 4.4l12 5.7c1.2.7 2.1.8 2.3.8 9.4.2 18.4 2.5 16.4 17 0 .2-.1.4-.1.6-.1 1.2-.4 3.4.3 5.1 0 0-2.2-.8-4.7-1"/><path clip-path="url(#f)" d="m856.4 312.2c-.2.1-.4.1-.7.2-3.9 1-7.3 1.3-10.1-2.7-.4-.5-1-1.6-2.8-4.3-.6-.9-2.5-4-3.8-6-1.2-1.9-1.8-1.8-2.5-1.9l-13.7-1.4 1.3 2.2 3.7.4c1.4.2 4 .2 6.5 3.9 1 1.5 6.9 10.8 7.5 11.8 4.7 7.7 15.7 6.9 25 .2 0 0 .4-36.7-29.7-23.7-2.3 1-3.7 1.2-6.9 1.1l-10.5-1.1c.1.2 2.4 3.8 2.4 3.8l13.3 1.2c1.4.2 2.2.1 2.5 0 8.9-3 18.2-3.9 21.2 10.4 0 .2.1.4.1.6.3 1.2.8 3.3 2.1 4.7-.2-.1-2.5 0-4.9.6"/><path clip-path="url(#f)" d="m1558.9 339.6c-.2.1-.4.1-.7.2-3.9 1-7.3 1.3-10.1-2.7-.4-.5-1-1.6-2.8-4.3-.6-.9-2.5-4-3.8-6-1.2-1.9-1.8-1.8-2.5-1.9l-13.7-1.4 1.3 2.2 3.7.4c1.4.2 4 .2 6.5 3.9 1 1.5 6.9 10.8 7.5 11.8 4.7 7.7 15.7 6.9 25 .2 0 0 .4-36.7-29.7-23.7-2.3 1-3.7 1.2-6.9 1.1l-10.5-1.1c.1.2 2.4 3.8 2.4 3.8l13.3 1.2c1.4.2 2.2.1 2.5 0 8.9-3 18.2-3.9 21.2 10.4 0 .2.1.4.1.6.3 1.2.8 3.3 2.1 4.7-.1-.1-2.4 0-4.9.6"/><path clip-path="url(#f)" d="m870.6 266.1c-.2.1-.4.3-.6.4-3.4 2.3-6.4 3.8-10.4.9-.5-.4-1.5-1.2-4.1-3.1-.8-.6-3.7-2.9-5.6-4.3-1.8-1.4-2.3-1-3-.9l-13.4 3.3 1.9 1.6 3.6-.9c1.4-.3 3.8-1.2 7.4 1.4 1.5 1.1 10.1 7.8 11.1 8.5 7 5.6 17.1 1.1 23.5-8.4 0 0-12.2-34.6-36-12.1-1.8 1.7-3 2.4-6.1 3.4l-10.3 2.6c.2.1 3.6 2.8 3.6 2.8l12.9-3.4c1.4-.2 2.1-.7 2.3-.9 7.4-5.9 15.8-9.9 23.5 2.5.1.2.2.4.3.5.7 1 1.9 2.8 3.5 3.7.2.1-2 1-4.1 2.4"/><path clip-path="url(#f)" d="m868.3 217.9c-.1.2-.3.4-.4.6-2.4 3.3-4.8 5.7-9.5 4.4-.6-.2-1.8-.6-4.9-1.5-1-.3-4.4-1.4-6.8-2.1-2.2-.7-2.6-.2-3.1.2l-11.4 7.7 2.4.9 3.1-2.1c1.2-.7 3.2-2.4 7.5-1.2 1.7.5 12.2 3.9 13.3 4.2 8.5 2.9 16.5-4.8 19.2-15.9 0 0-23.3-28.3-38 .9-1.1 2.2-2 3.3-4.6 5.3l-8.7 6c.2.1 4.3 1.4 4.3 1.4l10.9-7.6c1.2-.7 1.8-1.4 1.9-1.6 4.9-8.1 11.4-14.7 22.9-5.7.2.1.3.3.5.4 1 .7 2.7 2 4.6 2.3 0-.2-1.7 1.3-3.2 3.4"/><path clip-path="url(#f)" d="m849.6 173.4c-.1.2-.1.5-.2.7-1.1 3.9-2.5 7-7.4 7.4-.6 0-1.9.1-5.1.2-1 0-4.7.2-7.1.3-2.3.1-2.5.7-2.9 1.2l-8.1 11.2h2.5l2.2-3c.9-1.1 2.2-3.3 6.6-3.7 1.8-.1 12.8-.5 13.9-.6 9-.2 13.8-10.2 12.6-21.5 0 0-31.6-18.6-35.4 13.8-.3 2.5-.8 3.8-2.5 6.5l-6.2 8.6c.2 0 4.5-.2 4.5-.2l7.7-10.9c.9-1.1 1.2-1.9 1.2-2.2 1.8-9.3 5.7-17.7 19.6-13.2.2.1.4.1.6.2 1.2.3 3.3 1 5.1.6.2.1-.9 2.1-1.6 4.6"/><path clip-path="url(#f)" d="m816.8 138c0 .2.1.5.1.7.3 4 0 7.5-4.4 9.5-.6.3-1.8.7-4.7 2-1 .4-4.3 1.8-6.6 2.7-2.1.9-2.1 1.5-2.3 2.1l-3.8 13.2 2.4-.9 1-3.6c.4-1.3.9-3.9 5-5.7 1.6-.7 11.8-4.9 12.9-5.3 8.4-3.3 9.5-14.3 4.5-24.5 0 0-36-6.7-28.5 25.1.6 2.4.6 3.8-.1 7l-2.9 10.2c.2-.1 4.2-1.7 4.2-1.7l3.5-12.8c.5-1.3.5-2.2.4-2.4-1.4-9.3-.7-18.6 13.9-19.1h.6c1.2-.1 3.4-.2 5-1.2-.1-.1-.4 2.1-.2 4.7"/><path clip-path="url(#f)" d="m773.9 115.9c.1.2.2.4.3.6 1.7 3.7 2.6 7-.9 10.4-.4.4-1.4 1.3-3.8 3.5-.8.7-3.5 3.1-5.2 4.8-1.7 1.6-1.4 2.1-1.4 2.8l1 13.7 1.9-1.6-.3-3.7c0-1.4-.5-4 2.7-7.1 1.3-1.2 9.4-8.6 10.3-9.4 6.8-5.9 4-16.7-4.2-24.6 0 0-36.2 6-18.2 33.3 1.4 2.1 1.9 3.4 2.3 6.6l.8 10.6c.2-.1 3.3-3 3.3-3l-1.1-13.3c0-1.4-.3-2.2-.4-2.4-4.5-8.3-7-17.2 6.6-22.7.2-.1.4-.1.6-.2 1.1-.5 3.1-1.4 4.3-2.8-.1-.1.3 2.2 1.4 4.5"/></g><g opacity=".21"><path d="m934.9 18.2c-.1 0-.3.1-.4.1-2.3.5-4.2.6-5.6-1.8-.2-.3-.5-1-1.4-2.5-.3-.5-1.3-2.3-2-3.5-.6-1.1-1-1.1-1.4-1.1l-7.7-1.2.7 1.3 2.1.3c.8.2 2.2.2 3.6 2.4.5.9 3.6 6.3 3.9 6.9 2.4 4.5 8.7 4.3 14.1.8 0 0 1.2-20.7-16.1-14.2-1.3.5-2.1.6-3.9.4l-5.9-.9c.1.1 1.3 2.2 1.3 2.2l7.5 1c.8.2 1.3.1 1.4.1 5.1-1.5 10.4-1.7 11.7 6.5 0 .1 0 .2.1.3.2.7.4 1.9 1 2.7-.3 0-1.6-.1-3 .2"/><path d="m936.4-47.5c-.1.1-.2.2-.2.3-1.4 1.8-2.9 3.1-5.5 2.2-.3-.1-1-.4-2.7-1-.6-.2-2.5-.9-3.8-1.4-1.2-.4-1.4-.2-1.8 0l-6.7 4 1.3.5 1.8-1.1c.7-.4 1.9-1.3 4.3-.5 1 .3 6.8 2.5 7.4 2.8 4.7 1.9 9.4-2.3 11.3-8.5 0 0-12.4-16.7-21.5-.5-.7 1.2-1.2 1.8-2.8 2.9l-5.1 3.1c.1 0 2.4.9 2.4.9l6.4-4c.7-.4 1-.7 1.1-.9 3-4.4 6.9-8 13.1-2.6.1.1.2.2.3.2.6.4 1.5 1.2 2.5 1.4.2.2-.9 1-1.8 2.2"/><path d="m895.3-98.9v.4c.1 2.3-.2 4.2-2.8 5.2-.3.1-1 .4-2.7 1-.6.2-2.5.9-3.8 1.3-1.2.4-1.2.8-1.3 1.1l-2.5 7.4 1.4-.4.7-2c.3-.7.6-2.2 3-3.1.9-.4 6.8-2.4 7.5-2.6 4.8-1.6 5.8-7.8 3.2-13.8 0 0-20.2-4.8-16.8 13.4.3 1.4.2 2.2-.3 4l-1.9 5.7c.1 0 2.4-.9 2.4-.9l2.3-7.2c.3-.7.3-1.2.3-1.4-.6-5.3.1-10.5 8.4-10.4h.4c.7 0 1.9 0 2.9-.6-.2.2-.4 1.4-.4 2.9"/><path d="m830.8-111.8c.1.1.2.2.3.3 1.5 1.7 2.6 3.4 1.3 5.8-.2.3-.6.9-1.5 2.5-.3.5-1.3 2.3-2 3.5-.6 1.1-.4 1.4-.3 1.7l2.8 7.3.8-1.2-.8-2c-.3-.8-.9-2.1.3-4.3.5-.9 3.7-6.2 4-6.8 2.7-4.3-.6-9.7-6.4-12.6 0 0-18.6 9.3-4.3 21.1 1.1.9 1.6 1.5 2.3 3.2l2.2 5.6c.1-.1 1.3-2.2 1.3-2.2l-2.8-7c-.2-.7-.5-1.1-.6-1.2-3.8-3.7-6.7-8.2-.3-13.4.1-.1.2-.1.3-.2.5-.5 1.5-1.3 1.8-2.3 0-.1.7 1.1 1.6 2.2"/><path d="m773.1-80.3h.4c2.3.3 4.1.9 4.7 3.6.1.3.2 1.1.5 2.9.1.6.4 2.6.7 4 .2 1.3.6 1.3.9 1.5l6.8 3.8-.2-1.4-1.9-1c-.7-.4-2-1-2.5-3.5-.2-1-1.2-7.1-1.3-7.8-.8-5-6.7-7-13-5.6 0 0-8.2 19.1 10.3 18.9 1.4 0 2.2.2 3.9 1l5.3 2.9c0-.1-.4-2.5-.4-2.5l-6.7-3.5c-.7-.4-1.2-.5-1.3-.5-5.3-.4-10.4-2-8.8-10.1 0-.1 0-.2.1-.3.1-.7.3-1.9 0-2.9-.1-.2 1.1.3 2.5.5"/><path d="m749.2-19c.1-.1.2-.1.3-.2 2-1.2 3.7-2 5.9-.2.3.2.8.7 2.2 1.9.5.4 2 1.7 3.1 2.6 1 .8 1.3.7 1.7.6l7.7-1.5-1.1-1-2.1.4c-.8.1-2.2.6-4.2-1-.8-.6-5.5-4.7-6-5.1-3.8-3.4-9.7-1.1-13.5 4.1 0 0 5.9 19.9 20 7.9 1.1-.9 1.8-1.3 3.6-1.7l5.9-1.2c-.1-.1-1.9-1.7-1.9-1.7l-7.4 1.6c-.8.1-1.2.3-1.3.4-4.3 3.1-9.2 5.2-13.2-2.1-.1-.1-.1-.2-.2-.3-.4-.6-1-1.7-1.9-2.2-.1-.1 1.1-.5 2.4-1.3"/><path d="m770.2 43.3c0-.1.1-.3.1-.4.7-2.2 1.6-3.9 4.4-4h2.9 4c1.3 0 1.4-.3 1.7-.6l4.9-6.1-1.4-.1-1.3 1.7c-.5.6-1.3 1.8-3.8 1.9-1 0-7.2 0-7.9-.1-5.1-.1-8.1 5.4-7.7 11.8 0 0 17.3 11.4 20.4-6.8.2-1.4.5-2.1 1.6-3.6l3.7-4.7c-.1 0-2.6 0-2.6 0l-4.6 5.9c-.5.6-.7 1-.8 1.2-1.3 5.2-3.7 9.9-11.5 6.9-.1 0-.2-.1-.3-.1-.7-.2-1.8-.6-2.9-.5 0 .1.7-1 1.1-2.4"/><path d="m826.4 77.5c0-.1-.1-.2-.2-.4-.8-2.1-1.3-4 .8-5.9.3-.2.8-.7 2.2-1.9.5-.4 2-1.7 3.1-2.6 1-.8.9-1.2.9-1.5l-.2-7.8-1.1.9.1 2.1c0 .8.2 2.3-1.7 3.9-.8.7-5.6 4.6-6.1 5-4 3.2-2.8 9.3 1.7 14 0 0 20.6-2.4 11.2-18.4-.7-1.2-1-2-1.1-3.8l-.2-6c-.1.1-2 1.6-2 1.6l.3 7.5c0 .8.1 1.3.2 1.4 2.3 4.8 3.5 10-4.3 12.6-.1 0-.2.1-.3.1-.7.3-1.8.7-2.5 1.5 0 .4-.2-.9-.8-2.3"/><path d="m891.5 67.6c-.1-.1-.2-.1-.4-.2-2-1.1-3.6-2.3-3.2-5 .1-.3.2-1.1.5-2.9.1-.6.5-2.6.7-4 .2-1.3-.1-1.5-.3-1.7l-5.1-5.9-.3 1.4 1.4 1.6c.5.6 1.6 1.6 1.2 4.1-.2 1-1.3 7.1-1.4 7.8-1 5 3.9 8.9 10.3 9.7 0 0 14.3-15.1-3.2-21.3-1.3-.5-2-.9-3.3-2.2l-4-4.5c0 .1-.5 2.5-.5 2.5l5 5.6c.5.6.9.9 1 1 4.9 2.2 9.1 5.4 4.8 12.5-.1.1-.1.2-.2.3-.3.6-.9 1.7-1 2.7.2.1-.8-.8-2-1.5"/><path d="m918.7 44.3c-.1 0-.3 0-.4 0-2.3-.3-4.1-.8-4.8-3.5-.1-.3-.2-1.1-.6-2.9-.1-.6-.5-2.6-.8-3.9s-.6-1.3-.9-1.5l-6.9-3.6.2 1.4 1.9 1c.7.4 2.1.9 2.6 3.4.2 1 1.4 7.1 1.5 7.8.9 5 6.9 6.9 13.1 5.3 0 0 7.8-19.2-10.7-18.7-1.4 0-2.2-.1-3.9-.9l-5.3-2.7c0 .1.5 2.5.5 2.5l6.7 3.4c.7.4 1.2.5 1.3.5 5.3.3 10.4 1.7 9 9.9 0 .1 0 .2-.1.3-.1.7-.3 1.9.1 2.9.1 0-1.1-.5-2.5-.7"/><path d="m941.2-17.5c-.1.1-.2.2-.3.2-1.9 1.2-3.7 2-5.9.4-.3-.2-.9-.7-2.3-1.8-.5-.4-2-1.7-3.1-2.5-1-.8-1.3-.6-1.7-.6l-7.6 1.7 1.1.9 2.1-.5c.8-.1 2.2-.6 4.2.9.8.6 5.6 4.6 6.1 5 3.9 3.3 9.7.9 13.4-4.4 0 0-6.4-19.8-20.2-7.4-1 .9-1.7 1.3-3.5 1.8l-5.9 1.3c.1.1 2 1.6 2 1.6l7.3-1.7c.8-.1 1.2-.4 1.3-.5 4.3-3.2 9.1-5.4 13.3 1.8.1.1.1.2.2.3.4.6 1 1.6 2 2.2-.1.1-1.3.5-2.5 1.3"/><path d="m918.7-79.3c0 .1-.1.3-.1.4-.7 2.2-1.5 3.9-4.3 4.1-.4 0-1.1 0-2.9.1-.6 0-2.6 0-4 .1-1.3 0-1.4.4-1.6.6l-4.7 6.2h1.4l1.3-1.7c.5-.6 1.3-1.9 3.8-2 1 0 7.2-.1 7.9-.1 5.1 0 8-5.5 7.5-12 0 0-17.6-11-20.2 7.3-.2 1.4-.5 2.1-1.5 3.7l-3.6 4.8h2.6l4.5-6c.5-.6.7-1.1.7-1.2 1.2-5.2 3.5-10 11.3-7.2.1 0 .2.1.3.1.7.2 1.8.6 2.9.4-.2-.1-.8 1-1.3 2.4"/><path d="m861.8-112.2c.1.1.1.2.2.4.9 2.1 1.4 4-.7 5.9-.3.2-.8.7-2.2 1.9-.4.4-2 1.7-3 2.6s-.8 1.2-.8 1.5l.3 7.8 1.1-.9-.1-2.1c0-.8-.2-2.2 1.6-4 .7-.7 5.5-4.7 6-5.2 3.9-3.3 2.5-9.4-2-14 0 0-20.6 2.9-10.8 18.6.7 1.2 1 2 1.2 3.8l.3 6c.1-.1 1.9-1.7 1.9-1.7l-.4-7.5c0-.8-.1-1.3-.2-1.4-2.4-4.8-3.7-9.9 4.1-12.7.1 0 .2-.1.3-.1.6-.3 1.8-.7 2.5-1.6-.1 0 .1 1.3.7 2.7"/><path d="m797-100.9c.1.1.2.1.4.2 2 1.1 3.6 2.2 3.3 4.9 0 .3-.2 1.1-.5 2.9-.1.6-.4 2.6-.6 4-.2 1.3.1 1.4.4 1.7l5.3 5.7.3-1.4-1.4-1.5c-.5-.6-1.6-1.6-1.3-4.1.1-1 1.1-7.1 1.3-7.8.9-5-4.1-8.8-10.5-9.4 0 0-13.9 15.4 3.7 21.2 1.3.4 2 .8 3.3 2.1l4.1 4.4c0-.1.4-2.5.4-2.5l-5.2-5.5c-.5-.6-.9-.9-1.1-.9-4.9-2.1-9.2-5.2-5.1-12.4.1-.1.1-.2.2-.3.3-.6.9-1.7.9-2.8-.2 0 .8.9 2.1 1.5"/><path d="m754.7-50.5c.1 0 .3-.1.4-.1 2.2-.5 4.2-.6 5.7 1.7.2.3.6.9 1.5 2.5.3.5 1.4 2.3 2.1 3.4s1 1 1.4 1.1l7.7 1-.7-1.3-2.1-.3c-.8-.1-2.3-.2-3.6-2.3-.5-.9-3.7-6.2-4.1-6.8-2.5-4.4-8.8-4.1-14.1-.5 0 0-.8 20.8 16.4 13.9 1.3-.5 2.1-.7 3.9-.5l6 .8c-.1-.1-1.3-2.2-1.3-2.2l-7.5-.9c-.8-.2-1.3-.1-1.4 0-5.1 1.6-10.4 1.9-11.8-6.2 0-.1 0-.2-.1-.3-.2-.7-.4-1.9-1.1-2.7 0 0 1.3 0 2.7-.3"/><path d="m754.6 15.3c.1-.1.2-.2.2-.3 1.4-1.8 2.8-3.2 5.4-2.4.3.1 1 .4 2.7.9.6.2 2.5.9 3.8 1.3 1.2.4 1.4.1 1.8 0l6.6-4.2-1.3-.5-1.8 1.2c-.7.4-1.8 1.3-4.3.6-1-.3-6.8-2.4-7.5-2.6-4.8-1.8-9.4 2.5-11.1 8.7 0 0 12.8 16.4 21.5.1.7-1.2 1.2-1.8 2.7-2.9l5-3.2c-.1 0-2.4-.8-2.4-.8l-6.3 4.1c-.7.4-1 .8-1.1.9-2.9 4.5-6.7 8.2-13.1 2.9-.1-.1-.2-.2-.3-.2-.6-.4-1.5-1.2-2.6-1.4.3-.2 1.3-1.1 2.1-2.2"/><path d="m796.9 65.7c0-.1 0-.3 0-.4-.1-2.3.1-4.2 2.7-5.3.3-.1 1-.4 2.7-1 .6-.2 2.5-.9 3.8-1.4 1.2-.5 1.2-.8 1.3-1.2l2.3-7.4-1.4.5-.6 2c-.3.8-.6 2.2-2.9 3.2-.9.4-6.8 2.6-7.4 2.8-4.8 1.7-5.6 7.9-2.9 13.8 0 0 20.3 4.4 16.5-13.8-.3-1.4-.3-2.2.2-4l1.8-5.7c-.1 0-2.4.9-2.4.9l-2.2 7.2c-.3.7-.3 1.2-.3 1.4.7 5.3.1 10.5-8.2 10.6-.1 0-.2 0-.4 0-.7 0-1.9.1-2.8.6 0-.1.3-1.3.2-2.8"/><path d="m861.7 77.2c-.1-.1-.2-.2-.3-.3-1.6-1.7-2.7-3.3-1.4-5.8.2-.3.5-1 1.4-2.5.3-.5 1.3-2.3 2-3.5.6-1.1.4-1.4.3-1.7l-3-7.2-.7 1.2.8 1.9c.3.8 1 2-.2 4.3-.5.9-3.5 6.3-3.9 6.9-2.6 4.4.8 9.7 6.7 12.5 0 0 18.4-9.7 3.8-21.2-1.1-.9-1.6-1.5-2.4-3.2l-2.3-5.5c-.1.1-1.2 2.2-1.2 2.2l3 6.9c.2.7.6 1.1.7 1.2 3.9 3.6 6.9 8 .6 13.4-.1.1-.2.1-.3.2-.5.5-1.4 1.3-1.8 2.3-.2.1-.9-1.1-1.8-2.1"/></g><g clip-path="url(#g)" opacity=".42"><path clip-path="url(#h)" d="m566.1-83.6c.1.1.2.2.3.3 1.7 1.7 2.9 3.4 1.6 6-.2.3-.5 1-1.4 2.7-.3.6-1.3 2.5-2 3.7-.6 1.2-.4 1.5-.2 1.8l3.3 7.5.7-1.3-.9-2c-.3-.8-1.1-2.1.1-4.5.5-1 3.5-6.7 3.9-7.4 2.6-4.7-1.1-10.1-7.3-12.9 0 0-19 10.7-3.4 22.3 1.2.9 1.7 1.5 2.6 3.2l2.6 5.7c.1-.1 1.2-2.4 1.2-2.4l-3.3-7.2c-.3-.8-.6-1.2-.7-1.3-4.2-3.7-7.4-8.2-1-14 .1-.1.2-.2.3-.3.5-.5 1.5-1.4 1.8-2.5 0 .3.7 1.5 1.8 2.6"/><path clip-path="url(#h)" d="m538.1-77.3c.1.1.3.1.4.2 2.2 1 3.9 2.2 3.6 5.1 0 .4-.2 1.1-.4 3-.1.6-.4 2.8-.6 4.2-.2 1.3.2 1.5.4 1.8l5.7 5.9.3-1.5-1.6-1.6c-.6-.6-1.7-1.6-1.5-4.3.1-1.1 1-7.5 1.1-8.2.8-5.3-4.5-9.1-11.3-9.6 0 0-14.2 16.6 4.5 22.2 1.4.4 2.1.8 3.6 2.2l4.4 4.5c0-.1.4-2.7.4-2.7l-5.6-5.6c-.5-.6-1-.9-1.1-.9-5.2-2-9.8-5.2-5.7-12.8.1-.1.1-.2.2-.3.3-.7.9-1.8.9-2.9-.2-.2.9.7 2.3 1.3"/><path clip-path="url(#h)" d="m513.9-61.7h.4c2.4.2 4.4.7 5.1 3.6.1.4.2 1.1.7 3 .1.6.6 2.7.9 4.1.3 1.3.7 1.4 1 1.5l7.4 3.6-.3-1.5-2-1c-.7-.4-2.2-.9-2.8-3.5-.3-1-1.6-7.4-1.8-8.1-1.1-5.2-7.4-7-13.9-5.2 0 0-7.7 20.4 11.8 19.3 1.5-.1 2.3 0 4.1.8l5.7 2.7c0-.1-.6-2.6-.6-2.6l-7.2-3.4c-.7-.4-1.2-.5-1.4-.5-5.6-.1-11-1.5-9.7-10.1 0-.1 0-.2 0-.4.1-.7.2-2-.2-3 0 .1 1.3.5 2.8.7"/><path clip-path="url(#h)" d="m496.6-38.9c.1 0 .3-.1.4-.1 2.3-.6 4.4-.8 6 1.6.2.3.6 1 1.6 2.6.3.5 1.5 2.4 2.3 3.6.7 1.1 1.1 1.1 1.5 1.1l8.2.8-.8-1.3-2.2-.2c-.8-.1-2.4-.1-3.9-2.3-.6-.9-4.1-6.4-4.4-7-2.8-4.6-9.3-4.1-14.8-.1 0 0-.2 21.8 17.6 14.1 1.4-.6 2.2-.7 4.1-.6l6.3.6c-.1-.1-1.4-2.3-1.4-2.3l-7.9-.7c-.8-.1-1.3 0-1.5 0-5.3 1.8-10.8 2.3-12.6-6.2 0-.1 0-.2-.1-.4-.2-.7-.5-2-1.2-2.8-.1 0 1.3 0 2.8-.4"/><path clip-path="url(#h)" d="m488.1-11.4c.1-.1.2-.2.3-.2 2-1.4 3.8-2.2 6.2-.5.3.2.9.7 2.4 1.9.5.4 2.2 1.7 3.3 2.6 1.1.8 1.4.6 1.8.5l7.9-2-1.2-1-2.2.6c-.8.2-2.3.7-4.4-.9-.9-.6-6-4.6-6.6-5.1-4.2-3.3-10.2-.6-14 5 0 0 7.3 20.6 21.4 7.2 1.1-1 1.8-1.4 3.6-2l6.4-1.7c-.1-.1-2.1-1.6-2.1-1.6l-7.7 2c-.8.1-1.3.4-1.4.5-4.4 3.5-9.4 5.9-14-1.5-.1-.1-.1-.2-.2-.3-.4-.6-1.1-1.7-2.1-2.2 0 0 1.3-.5 2.6-1.3"/><path clip-path="url(#h)" d="m489.5 17.2c.1-.1.2-.2.2-.3 1.4-2 2.8-3.4 5.6-2.6.4.1 1.1.3 2.9.9.6.2 2.6.8 4 1.3 1.3.4 1.5.1 1.8-.1l6.8-4.6-1.4-.5-1.8 1.3c-.7.4-1.9 1.4-4.4.7-1-.3-7.2-2.3-7.9-2.5-5.1-1.7-9.8 2.9-11.4 9.5 0 0 13.9 16.8 22.6-.5.7-1.3 1.2-2 2.7-3.1l5.2-3.5c-.1 0-2.6-.8-2.6-.8l-6.5 4.5c-.7.4-1 .8-1.1 1-2.9 4.8-6.8 8.7-13.6 3.4-.1-.1-.2-.2-.3-.2-.6-.4-1.6-1.2-2.7-1.4 0-.3 1-1.2 1.9-2.5"/><path clip-path="url(#h)" d="m500.6 43.7c0-.1.1-.3.1-.4.7-2.3 1.5-4.2 4.4-4.4.4 0 1.2 0 3-.1.6 0 2.8-.1 4.2-.2s1.5-.4 1.7-.7l4.8-6.6h-1.5l-1.3 1.8c-.5.7-1.3 2-3.9 2.2-1.1.1-7.6.3-8.3.3-5.4.1-8.2 6-7.5 12.8 0 0 18.8 11.1 21-8.2.2-1.5.4-2.3 1.5-3.9l3.7-5.1c-.1 0-2.7.1-2.7.1l-4.6 6.5c-.5.6-.7 1.1-.7 1.3-1.1 5.5-3.4 10.5-11.7 7.8-.1 0-.2-.1-.4-.1-.7-.2-1.9-.6-3-.3.1-.1.8-1.3 1.2-2.8"/><path clip-path="url(#h)" d="m520.1 64.8c0-.1 0-.3 0-.4-.2-2.4 0-4.4 2.6-5.6.3-.2 1.1-.4 2.8-1.2.6-.2 2.6-1.1 3.9-1.6s1.2-.9 1.4-1.3l2.2-7.9-1.4.5-.6 2.1c-.3.8-.5 2.3-3 3.4-1 .4-7 2.9-7.7 3.2-5 2-5.7 8.5-2.7 14.6 0 0 21.4 4 17-14.9-.3-1.4-.4-2.3.1-4.2l1.7-6.1c-.1 0-2.5 1-2.5 1l-2.1 7.6c-.3.8-.3 1.3-.2 1.5.9 5.5.4 11.1-8.3 11.3-.1 0-.2 0-.4 0-.7.1-2 .1-3 .7.1.2.3-1.2.2-2.7"/><path clip-path="url(#h)" d="m545.7 77.9c-.1-.1-.1-.2-.2-.4-1-2.2-1.5-4.2.5-6.2.3-.3.9-.8 2.2-2.1.5-.4 2.1-1.9 3.1-2.8s.9-1.3.8-1.6l-.6-8.2-1.1 1 .2 2.2c0 .8.3 2.4-1.6 4.2-.8.7-5.6 5.1-6.1 5.6-4 3.5-2.4 9.9 2.5 14.6 0 0 21.5-3.6 10.8-19.8-.8-1.2-1.1-2-1.4-3.9l-.5-6.3c-.1.1-2 1.8-2 1.8l.7 7.9c0 .8.2 1.3.3 1.5 2.7 4.9 4.2 10.3-3.9 13.5-.1 0-.2.1-.3.1-.7.3-1.9.8-2.5 1.7-.1 0-.3-1.4-.9-2.8"/><path clip-path="url(#h)" d="m574.1 81.5c-.1-.1-.2-.2-.3-.3-1.7-1.7-2.9-3.4-1.6-6 .2-.3.5-1 1.4-2.7.3-.6 1.3-2.5 2-3.7.6-1.2.4-1.5.2-1.8l-3.3-7.5-.7 1.3.9 2c.3.8 1.1 2.1-.1 4.5-.5 1-3.5 6.7-3.9 7.4-2.6 4.7 1.1 10.1 7.3 12.9 0 0 19-10.7 3.4-22.3-1.2-.9-1.7-1.5-2.6-3.2l-2.6-5.7c-.1.1-1.2 2.4-1.2 2.4l3.3 7.2c.3.8.6 1.2.7 1.3 4.2 3.7 7.4 8.2 1 14-.1.1-.2.2-.3.3-.5.5-1.5 1.4-1.8 2.5 0-.3-.7-1.5-1.8-2.6"/><path clip-path="url(#h)" d="m602.1 75.2c-.1-.1-.3-.1-.4-.2-2.2-1-3.9-2.2-3.6-5.1 0-.4.2-1.1.4-3 .1-.6.4-2.8.6-4.2.2-1.3-.2-1.5-.4-1.8l-5.7-5.9-.3 1.5 1.6 1.6c.6.6 1.7 1.6 1.5 4.3-.1 1.1-1 7.5-1.1 8.2-.8 5.3 4.5 9.1 11.3 9.6 0 0 14.2-16.6-4.5-22.1-1.4-.4-2.1-.8-3.6-2.2l-4.4-4.5c0 .1-.4 2.7-.4 2.7l5.6 5.6c.5.6 1 .9 1.1.9 5.2 2 9.8 5.2 5.7 12.8-.1.1-.1.2-.2.3-.3.7-.9 1.8-.9 2.9.2.1-.9-.8-2.3-1.4"/><path clip-path="url(#h)" d="m626.3 59.6c-.1 0-.3 0-.4 0-2.4-.2-4.4-.7-5.1-3.6-.1-.4-.2-1.1-.7-3-.1-.6-.6-2.7-.9-4.1-.3-1.3-.7-1.4-1-1.6l-7.4-3.6.3 1.5 2 1c.7.4 2.2.9 2.8 3.5.3 1 1.6 7.4 1.8 8.1 1.1 5.2 7.4 7 13.9 5.2 0 0 7.7-20.4-11.8-19.3-1.5.1-2.3 0-4.1-.8l-5.7-2.7c0 .1.6 2.6.6 2.6l7.2 3.4c.7.4 1.2.5 1.4.5 5.6.1 11 1.5 9.7 10.1v.4c-.1.7-.2 2 .2 3 0 0-1.3-.4-2.8-.6"/><path clip-path="url(#h)" d="m643.6 36.7c-.1 0-.3.1-.4.1-2.3.6-4.4.8-6-1.6-.2-.3-.6-1-1.6-2.6-.3-.5-1.5-2.4-2.3-3.6-.7-1.1-1.1-1.1-1.5-1.1l-8.2-.8.8 1.3 2.2.2c.8.1 2.4.1 3.9 2.3.6.9 4.1 6.4 4.4 7 2.8 4.6 9.3 4.1 14.8.1 0 0 .2-21.8-17.6-14.1-1.4.6-2.2.7-4.1.6l-6.3-.6c.1.1 1.4 2.3 1.4 2.3l7.9.7c.8.1 1.3 0 1.5 0 5.3-1.8 10.8-2.3 12.6 6.2 0 .1 0 .2.1.4.2.7.5 2 1.2 2.8.1 0-1.3.1-2.8.4"/><path clip-path="url(#h)" d="m1061.6 53.1c-.1 0-.3.1-.4.1-2.3.6-4.4.8-6-1.6-.2-.3-.6-1-1.6-2.6-.3-.5-1.5-2.4-2.3-3.6-.7-1.1-1.1-1.1-1.5-1.1l-8.2-.8.8 1.3 2.2.2c.8.1 2.4.1 3.9 2.3.6.9 4.1 6.4 4.4 7 2.8 4.6 9.3 4.1 14.8.1 0 0 .2-21.8-17.6-14.1-1.4.6-2.2.7-4.1.6l-6.3-.6c.1.1 1.4 2.3 1.4 2.3l7.9.7c.8.1 1.3 0 1.5 0 5.3-1.8 10.8-2.3 12.6 6.2 0 .1 0 .2.1.4.2.7.5 2 1.2 2.8.1-.1-1.3 0-2.8.4"/><path clip-path="url(#h)" d="m652.1 9.3c-.1.1-.2.2-.3.2-2 1.4-3.8 2.2-6.2.5-.3-.2-.9-.7-2.4-1.9-.5-.4-2.2-1.7-3.3-2.6-1.1-.8-1.4-.6-1.8-.5l-7.9 2 1.2 1 2.2-.6c.8-.2 2.3-.7 4.4.9.9.6 6 4.6 6.6 5.1 4.2 3.3 10.2.6 14-5 0 0-7.3-20.6-21.4-7.2-1.1 1-1.8 1.4-3.6 2l-6.1 1.6c.1.1 2.1 1.6 2.1 1.6l7.7-2c.8-.1 1.3-.4 1.4-.5 4.4-3.5 9.4-5.9 14 1.5.1.1.1.2.2.3.4.6 1.1 1.7 2.1 2.2-.3.1-1.6.6-2.9 1.4"/><path clip-path="url(#h)" d="m650.7-19.4c-.1.1-.2.2-.2.3-1.4 2-2.8 3.4-5.6 2.6-.4-.1-1.1-.3-2.9-.9-.6-.2-2.6-.8-4-1.3-1.3-.4-1.5-.1-1.8.1l-6.8 4.6 1.4.5 1.8-1.3c.7-.4 1.9-1.4 4.4-.7 1 .3 7.2 2.3 7.9 2.5 5.1 1.7 9.8-2.9 11.4-9.5 0 0-13.9-16.8-22.6.5-.7 1.3-1.2 2-2.7 3.1l-5.2 3.5c.1 0 2.6.8 2.6.8l6.5-4.5c.7-.4 1-.8 1.1-1 2.9-4.8 6.8-8.7 13.6-3.4.1.1.2.2.3.2.6.4 1.6 1.2 2.7 1.4.1.4-1 1.3-1.9 2.5"/><path clip-path="url(#h)" d="m639.6-45.8c0 .1-.1.3-.1.4-.7 2.3-1.5 4.2-4.4 4.4-.4 0-1.2 0-3 .1-.6 0-2.8.1-4.2.2s-1.5.4-1.7.7l-4.8 6.6h1.5l1.3-1.8c.5-.7 1.3-2 3.9-2.2 1.1-.1 7.6-.3 8.3-.3 5.4-.1 8.2-6 7.5-12.8 0 0-18.8-11.1-21 8.2-.2 1.5-.4 2.3-1.5 3.9l-3.7 5.1c.1 0 2.7-.1 2.7-.1l4.6-6.5c.5-.6.7-1.1.7-1.3 1.1-5.5 3.4-10.5 11.7-7.8.1 0 .2.1.4.1.7.2 1.9.6 3 .3-.1.1-.8 1.3-1.2 2.8"/><path clip-path="url(#h)" d="m620.1-66.9v.4c.2 2.4 0 4.4-2.6 5.6-.3.2-1.1.4-2.8 1.2-.6.2-2.6 1.1-3.9 1.6s-1.2.9-1.4 1.3l-2.2 7.9 1.4-.5.6-2.1c.3-.8.5-2.3 3-3.4 1-.4 7-2.9 7.7-3.2 5-2 5.7-8.5 2.7-14.6 0 0-21.4-4-17 14.9.3 1.4.4 2.3-.1 4.2l-1.7 6.1c.1 0 2.5-1 2.5-1l2.1-7.6c.3-.8.3-1.3.2-1.5-.9-5.5-.4-11.1 8.3-11.3h.4c.7-.1 2-.1 3-.7-.1-.2-.3 1.2-.2 2.7"/><path clip-path="url(#h)" d="m594.6-80c.1.1.1.2.2.4 1 2.2 1.5 4.2-.5 6.2-.3.3-.9.8-2.3 2.1-.5.4-2.1 1.9-3.1 2.8s-.9 1.3-.8 1.6l.6 8.2 1.1-1-.2-2.2c0-.8-.3-2.4 1.6-4.2.8-.7 5.6-5.1 6.1-5.6 4-3.5 2.4-9.9-2.5-14.6 0 0-21.5 3.6-10.8 19.8.8 1.2 1.1 2 1.4 3.9l.5 6.3c.1-.1 2-1.8 2-1.8l-.7-7.9c0-.8-.2-1.3-.3-1.5-2.7-4.9-4.2-10.3 3.9-13.5.1 0 .2-.1.3-.1.7-.3 1.9-.8 2.5-1.7.1 0 .3 1.4 1 2.8"/></g></g></svg>