<svg xmlns="http://www.w3.org/2000/svg" id="Instagram" viewBox="0 0 136.9 136.5" width="136.9" height="136.5"><style>.st0{fill:none;stroke:#fff;stroke-miterlimit:10}.st1{fill:#fff}</style><circle id="instagram-back" cx="68.4" cy="68.3" r="64" class="st0"/><path id="instagram-instagram" d="M96 62.8h-6.2c.5 1.8.7 3.6.7 5.5 0 12.2-9.9 22.1-22.1 22.1s-22.1-9.9-22.1-22.1c0-1.9.3-3.8.7-5.5h-6.2v30.3c0 1.5 1.2 2.8 2.8 2.8h49.6c1.5 0 2.8-1.2 2.8-2.8V62.8zm0-19.3c0-1.5-1.2-2.8-2.8-2.8h-8.3c-1.5 0-2.8 1.2-2.8 2.8v8.3c0 1.5 1.2 2.8 2.8 2.8h8.3c1.5 0 2.8-1.2 2.8-2.8v-8.3zm-27.6 11c-7.6 0-13.8 6.2-13.8 13.8s6.2 13.8 13.8 13.8 13.8-6.2 13.8-13.8c0-7.6-6.2-13.8-13.8-13.8M96 104.1H40.8c-4.6 0-8.3-3.7-8.3-8.3V40.7c0-4.6 3.7-8.3 8.3-8.3h55.1c4.6 0 8.3 3.7 8.3 8.3v55.1c0 4.6-3.7 8.3-8.2 8.3" class="st1"/></svg>