<?xml version="1.0" encoding="utf-8"?>
<!-- Generator: Adobe Illustrator 23.0.2, SVG Export Plug-In . SVG Version: 6.00 Build 0)  -->
<svg version="1.1" id="Layer_1" xmlns="http://www.w3.org/2000/svg" xmlns:xlink="http://www.w3.org/1999/xlink" x="0px" y="0px"
	 viewBox="0 0 136.9 136.5" style="enable-background:new 0 0 136.9 136.5;" xml:space="preserve">
<style type="text/css">
	.st0{fill:none;stroke:#FFFFFF;stroke-width:5;stroke-miterlimit:10;}
	.st1{fill:#FFFFFF;}
</style>
<circle class="st0" cx="68.4" cy="68.3" r="64"/>
<path class="st1" d="M96,62.8h-6.2c0.5,1.8,0.7,3.6,0.7,5.5c0,12.2-9.9,22.1-22.1,22.1s-22.1-9.9-22.1-22.1c0-1.9,0.3-3.8,0.7-5.5
	h-6.2v30.3c0,1.5,1.2,2.8,2.8,2.8h49.6c1.5,0,2.8-1.2,2.8-2.8V62.8z M96,43.5c0-1.5-1.2-2.8-2.8-2.8h-8.3c-1.5,0-2.8,1.2-2.8,2.8
	v8.3c0,1.5,1.2,2.8,2.8,2.8h8.3c1.5,0,2.8-1.2,2.8-2.8V43.5z M68.4,54.5c-7.6,0-13.8,6.2-13.8,13.8s6.2,13.8,13.8,13.8
	s13.8-6.2,13.8-13.8S76,54.5,68.4,54.5 M96,104.1H40.8c-4.6,0-8.3-3.7-8.3-8.3V40.7c0-4.6,3.7-8.3,8.3-8.3h55.1
	c4.6,0,8.3,3.7,8.3,8.3v55.1C104.2,100.4,100.5,104.1,96,104.1"/>
</svg>
