<?xml version="1.0" encoding="utf-8"?>
<!-- Generator: Adobe Illustrator 22.1.0, SVG Export Plug-In . SVG Version: 6.00 Build 0)  -->
<svg version="1.1" id="Layer_1" xmlns="http://www.w3.org/2000/svg" xmlns:xlink="http://www.w3.org/1999/xlink" x="0px" y="0px"
	 viewBox="0 0 250 250" style="enable-background:new 0 0 250 250;" xml:space="preserve">
<style type="text/css">
	.st0{opacity:0.54;fill:#FFFFFF;enable-background:new    ;}
	.st1{fill:#CB707E;}
	.st2{font-family:'Oswald-Regular';}
	.st3{font-size:102.302px;}
	.st4{enable-background:new    ;}
	.st5{fill:#F5969D;}
</style>
<path class="st0" d="M0,0h250v250H0V0z"/>
<text transform="matrix(0.9737 0 0 1 18.8071 123.2261)" class="st1 st2 st3">HOLLI</text>
<g class="st4">
	<path class="st1" d="M25.8,144.8H30v27.4h21.4v-27.4h4.1v60.9h-4.1v-30.3H30v30.3h-4.1V144.8z"/>
	<path class="st1" d="M68.7,201.7c-2.2-3.2-3.3-7.6-3.3-13.3v-26.6c0-5.6,1.1-10,3.4-13c2.3-3.1,6.2-4.6,11.6-4.6
		c5.4,0,9.3,1.6,11.6,4.7c2.3,3.1,3.5,7.4,3.5,13v26.7c0,5.7-1.1,10.2-3.3,13.3c-2.2,3.2-6.1,4.7-11.7,4.7S71,204.9,68.7,201.7z
		 M89,199.6c1.6-2.4,2.4-5.8,2.4-10.3v-28.1c0-4.5-0.8-7.9-2.4-10.2c-1.6-2.3-4.4-3.5-8.5-3.5c-4.1,0-7,1.2-8.5,3.5
		c-1.6,2.3-2.4,5.7-2.4,10.2v28.1c0,4.6,0.8,8,2.4,10.3c1.6,2.3,4.4,3.5,8.5,3.5C84.5,203.1,87.4,201.9,89,199.6z"/>
	<path class="st1" d="M105.5,144.8h4.1v57.7h18.4v3.2h-22.5V144.8z"/>
	<path class="st1" d="M135.2,148.1H123v-3.3h28.1v3.3h-11.9v57.6h-4.1V148.1z"/>
	<path class="st1" d="M160.4,201.7c-2.2-3.2-3.3-7.6-3.3-13.3v-26.6c0-5.6,1.1-10,3.4-13c2.3-3.1,6.2-4.6,11.6-4.6
		c5.4,0,9.3,1.6,11.6,4.7c2.3,3.1,3.5,7.4,3.5,13v26.7c0,5.7-1.1,10.2-3.3,13.3c-2.2,3.2-6.1,4.7-11.7,4.7
		C166.5,206.5,162.6,204.9,160.4,201.7z M180.6,199.6c1.6-2.4,2.4-5.8,2.4-10.3v-28.1c0-4.5-0.8-7.9-2.4-10.2
		c-1.6-2.3-4.4-3.5-8.5-3.5c-4.1,0-7,1.2-8.5,3.5c-1.6,2.3-2.4,5.7-2.4,10.2v28.1c0,4.6,0.8,8,2.4,10.3s4.4,3.5,8.5,3.5
		C176.2,203.1,179,201.9,180.6,199.6z"/>
	<path class="st1" d="M197.1,144.8h3.2l20.7,51.4v-51.4h3.6v60.9h-3.2l-20.7-51.5v51.5h-3.6V144.8z"/>
</g>
<g class="st4">
	<path class="st5" d="M25.1,40.4h11.3v35.8h20.7V40.4h11.3v82.9H57.1V84.5H36.4v38.8H25.1V40.4z"/>
	<path class="st5" d="M84.6,117.2c-3.4-4.6-5.1-11.3-5.1-20V65.8c0-8.6,1.7-15.1,5.2-19.5c3.5-4.4,9.1-6.6,16.9-6.6
		c7.8,0,13.5,2.2,16.9,6.7c3.4,4.5,5.1,11,5.1,19.5v31.5c0,8.6-1.7,15.2-5.2,19.8c-3.5,4.6-9.1,7-16.8,7
		C93.7,124.1,88.1,121.8,84.6,117.2z M110.1,111.3c1.5-2.5,2.2-6.3,2.2-11.5V63.5c0-5-0.7-8.8-2.2-11.2c-1.5-2.4-4.3-3.6-8.5-3.6
		c-4.3,0-7.1,1.2-8.6,3.6c-1.5,2.4-2.2,6.2-2.2,11.2v36.3c0,5.1,0.7,8.9,2.2,11.5c1.5,2.5,4.3,3.8,8.6,3.8
		C105.8,115,108.6,113.8,110.1,111.3z"/>
	<path class="st5" d="M134.7,40.4h11.3v74.6h20.6v8.3h-31.9V40.4z"/>
	<path class="st5" d="M174.2,40.4h11.3v74.6h20.6v8.3h-31.9V40.4z"/>
	<path class="st5" d="M214.4,40.4h11.1v82.9h-11.1V40.4z"/>
</g>
</svg>
