<?xml version="1.0" encoding="utf-8"?>
<!-- Generator: Adobe Illustrator 23.0.2, SVG Export Plug-In . SVG Version: 6.00 Build 0)  -->
<svg version="1.1" id="Layer_1" xmlns="http://www.w3.org/2000/svg" xmlns:xlink="http://www.w3.org/1999/xlink" x="0px" y="0px"
	 viewBox="0 0 250 250" style="enable-background:new 0 0 250 250;" xml:space="preserve">
<style type="text/css">
	.st0{fill:#FFFFFF;}
	.st1{fill:#FF5622;}
	.st2{enable-background:new    ;}
</style>
<g>
	<path class="st0" d="M118.9,64.4c-0.6-0.3-0.9-0.9-1.1-1.6c-0.3-1.5-0.2-3.1,0-4.6c0.1-1,0.2-1.9,0.5-3c0.1-0.5,0.2-0.9,0.5-1.3
		c0.6-1.4,1.7-2.1,3.1-2.7c0.2-0.6,0.6-1.4,0.9-2c0.5-1.1,1.1-2,2.1-2.5c0.2-0.1,0.2-0.2,0.2-0.4c0.1-0.2,0-0.4,0-0.6
		c0-1.8,0-3.6,0.1-5.3c0-2.6,0.1-5.2,0.2-7.7c0-2.3,0.1-4.6,0.2-6.9c0.1-2.6,0.1-5.1,0.2-7.7c0-2.3,0.1-4.5,0.1-6.8
		c0.1-3.3,0.2-6.6,0.2-9.9c0-0.8,0-1.7,0-2.5c0-0.3,0.1-0.6,0.2-0.9s0.4-0.4,0.7-0.4s0.5,0.2,0.6,0.5c0.1,0.2,0.1,0.4,0.1,0.6
		c-0.1,3.5-0.2,7-0.2,10.4v3.5c-0.1,2.8-0.1,5.7-0.2,8.6S127.1,27,127,30c0,2.3-0.1,4.5-0.1,6.8c-0.1,2.6-0.1,5.2-0.2,7.8
		c0,0.6-0.1,1.1-0.1,1.6h3.5c0-0.3,0.1-0.6,0.1-0.9c0-6,0-12,0-18.1c0-9.4,0-18.9,0-28.3c0-0.3,0-0.6,0.1-1c0.1-0.5,0.4-0.7,0.8-0.7
		s0.6,0.3,0.7,0.8v0.7v46.6v0.8c0.1,0.1,0.1,0.1,0.2,0.1c1.1,0.2,1.9,1.1,2.4,2c0.4,0.9,0.8,1.9,1.2,2.8c2.2,0.7,3.2,2.3,3.6,4.6
		c0.3,1.8,0.5,3.5,0.4,5.3c0,0.6-0.1,1.2-0.2,1.8s-0.4,1.2-1.1,1.5c0,0.6,0,1.3,0.2,1.9c0.4,1.5,0.9,2.8,1.4,4.3
		c1.1,2.9,2,5.8,3.3,8.6c0.7,1.5,1.5,2.9,2.3,4.4c1.5,2.8,3.2,5.5,4.9,8.3c1.6,2.9,2.9,5.9,4,9.1c0.7,2.2,1.2,4.5,1.5,6.7
		c0.2,2,0.2,4.1,0,6.2c-0.2,1.5-0.4,3.1-0.7,4.6s-1,3-1.7,4.4c-0.4,0.7-0.8,1.5-1.2,2.3c-0.2,0.3-0.4,0.7-0.6,1.1
		c-1.6,1.9-3.3,3.9-5.5,5.2c-1.1,0.6-2.2,1.4-3.4,1.9c-2.2,1.1-4.5,1.8-6.9,2.3c-1.5,0.4-3.2,0.7-4.8,0.8c-1.5,0.1-3.1,0.1-4.6-0.1
		c-3.5-0.3-6.9-1.3-10.2-2.6c-0.6-0.2-1.1-0.4-1.5-0.7c-1.5-0.9-3-1.9-4.5-2.8c-0.1-0.1-0.2-0.2-0.2-0.2c-1.9-1.8-3.8-3.6-5-5.9
		c-1.1-2-2.1-4-2.6-6.4c-0.2-1.2-0.4-2.4-0.5-3.6c-0.2-1.5-0.2-3.2-0.2-4.7c0.1-3.1,0.7-6,1.7-8.9c1-2.8,2.1-5.6,3.6-8.3
		c1-1.8,2.1-3.4,3.1-5.2c0.8-1.3,1.5-2.7,2.3-4c1.7-2.9,3-5.9,4.1-9.1c0.8-2.2,1.5-4.3,2.3-6.5C118.7,66.6,119.1,65.6,118.9,64.4
		L118.9,64.4z M123.9,63.2c-0.2,0-0.2,0-0.2,0c-0.8,0.3-1.5,0.6-2.3,0.9c-0.2,0.1-0.2,0.2-0.3,0.3c-0.2,0.8-0.5,1.6-0.6,2.4
		c-0.2,1.7-0.6,3.3-1.1,4.9c-1.1,3.2-2.3,6.2-3.8,9.2c-1.2,2.4-2.6,4.8-4,7.1c-1.1,1.9-2.2,3.6-3,5.7c-1.6,4-3,8-3.7,12.2
		c-0.2,1-0.2,2-0.2,3c0.1,2,0.2,4,0.3,6.2c0.1,0.9,0.2,1.7,0.4,2.6c0.6,2,1.5,3.9,2.5,5.8s2.4,3.5,4,4.9c1.5,1.4,3.4,2.4,5.3,3.2
		s3.8,1.2,5.7,1.8s3.7,0.4,5.6,0.6h0.4c0.6,0,1.4-0.1,2-0.1c0.3,0,0.7,0,1.1-0.1c1.1-0.2,2-0.5,3.1-0.6c3.2-0.7,6.1-1.9,8.7-3.8
		c1.7-1.1,2.9-2.6,4.2-4.1c0.1-0.2,0.2-0.2,0.2-0.4c0.8-1.5,1.5-2.9,2.3-4.5c1-1.9,1.5-4.1,1.5-6.3c0-0.9,0.1-1.7,0.2-2.5
		c0.2-2.3,0.2-4.5-0.3-6.7c-0.7-3.6-1.9-7-3.2-10.3c-1.1-2.8-2.8-5.4-4.2-8.1c-1.1-2-2.3-4-3.2-6.1c-1.1-2.3-1.9-4.6-2.9-7
		c-0.7-1.7-1.1-3.5-1.5-5.3c-0.2-1.1-0.5-2.3-0.7-3.5c-0.1-0.2-0.2-0.4-0.4-0.4c-0.6-0.2-1.1-0.4-1.7-0.6c-0.2-0.1-0.5-0.2-0.9-0.2
		c0,0.3,0,0.6,0.1,0.8c0.2,1.5,0.4,3.1,0.6,4.6c0.2,2.1,0.6,4.3,0.8,6.4c0.2,2.2,0.6,4.4,0.8,6.6s0.6,4.3,0.8,6.5s0.6,4.4,0.8,6.6
		c0.2,1.9,0.5,3.7,0.7,5.6s0.3,3.7,0.4,5.5c0.1,0.9-0.2,1.1-1.1,1.1c0,0-0.1,0.1-0.2,0.2c0,0.8,0.1,1.7,0.1,2.6c0,0.6,0,0.8-0.3,0.9
		s-0.5-0.1-0.7-0.6s-0.3-0.9-0.5-1.4s-0.5-0.8-1-1c-0.3,0.2-0.4,0.5-0.5,0.7c-0.1,0.3-0.2,0.6-0.3,1c-0.2,0.5-0.4,1.1-0.8,1.5
		c-0.6,0.5-1.3,0.6-1.9,0.3s-1.1-1.1-1.1-1.8c0-0.1,0-0.2,0-0.2c0.2-0.1,0.2-0.3,0.4-0.3c0.1,0,0.2,0.2,0.3,0.3
		c0.1,0.2,0.1,0.4,0.2,0.6c0.2,0.3,0.4,0.6,0.8,0.7s0.7-0.2,0.9-0.5c0.2-0.4,0.4-0.9,0.6-1.3c0.2-0.3,0.2-0.6,0.3-1
		c0.5-1,1.3-1.1,2.1-0.5c0.2,0.2,0.3,0.2,0.5,0.4c0.1-0.6,0-1.2-0.5-1.6c-0.6-0.6-1-1.3-1.1-2.1c-0.1-0.5,0.2-1,0.6-1.1
		c0.4-0.2,0.8,0,1.1,0.4s0.5,0.9,0.6,1.4c0.1,0.4,0.1,0.8,0.2,1.2c0,0.3,0.2,0.5,0.6,0.4c-0.2-1.5,0-2.8-0.5-4.2
		c-1.4-0.2-2.8-0.5-4-0.6c-1-0.1-1.8-0.4-2.4-1.2c-0.6-0.7-1.2-1.4-1.9-2c-0.3,0.3-0.6,0.6-0.9,0.9c-0.6,0.6-1.1,1.2-1.7,1.8
		c-0.2,0.2-0.5,0.4-0.7,0.4c-0.6,0.2-1.2,0.2-1.8,0.2c-1.1,0.2-2.2,0.3-3.3,0.6c-0.3,0.7-0.6,3.6-0.3,4.2c0.2,0,0.4-0.2,0.4-0.4
		s0-0.4,0.1-0.6c0.1-0.6,0.2-1.3,0.5-1.9s0.9-0.7,1.3-0.6c0.4,0.2,0.6,0.7,0.4,1.3c-0.2,0.8-0.6,1.5-1.1,2c-0.5,0.4-0.4,1-0.3,1.5
		c0.2-0.2,0.4-0.4,0.6-0.6c0.8-0.6,1.5-0.4,1.9,0.5c0.2,0.3,0.2,0.7,0.4,1.1s0.3,0.8,0.6,1.2c0.2,0.3,0.5,0.6,0.9,0.5
		s0.6-0.4,0.8-0.7c0.1-0.2,0.1-0.3,0.1-0.4c0.1-0.2,0.2-0.5,0.5-0.4c0.2,0.1,0.4,0.2,0.4,0.5c0.1,0.6-0.5,1.5-1.1,1.8
		s-1.4,0.2-1.9-0.3c-0.3-0.3-0.6-0.6-0.7-1.1c-0.2-0.4-0.2-0.8-0.4-1.3c-0.1-0.3-0.2-0.6-0.6-0.8c-0.4,0.1-0.7,0.4-0.9,0.8
		c-0.2,0.2-0.2,0.6-0.3,0.8c-0.1,0.3-0.2,0.6-0.4,1c-0.1,0.2-0.2,0.5-0.6,0.4c-0.3-0.1-0.4-0.3-0.3-0.6c0-0.2,0.1-0.6,0.1-0.8
		c0-0.7,0-1.5,0-2.1c-1.1,0-1.3-0.3-1.3-1.3c0.2-3.3,0.6-6.6,1.1-9.8c0.2-2.2,0.6-4.3,0.8-6.5c0.2-2.1,0.6-4.3,0.8-6.4
		c0.2-2.2,0.6-4.4,0.8-6.6s0.6-4.4,0.8-6.6c0.2-2.1,0.6-4.2,0.8-6.2C124,63.5,124,63.4,123.9,63.2L123.9,63.2z M136.7,101.1
		c-1.6-12.5-3.2-24.8-4.7-37.1c-0.2,0.2-0.4,0.3-0.5,0.5c-0.8,1.5-1.5,3-2.3,4.5c-0.2,0.4-0.2,0.6,0,1.1c0.4,0.9,0.7,1.8,1.1,2.7
		c0.1,0.2,0.2,0.6-0.2,0.7c-0.3,0.2-0.5,0.6-0.6,0.9c-0.2,0.4-0.2,0.7-0.4,1.1c-0.1,0.2-0.2,0.5-0.6,0.5c-0.3,0-0.5-0.2-0.6-0.5
		c-0.2-0.4-0.2-0.9-0.4-1.3c-0.1-0.2-0.2-0.5-0.4-0.6c-0.4-0.4-0.5-0.4-0.2-0.9c0.3-0.9,0.7-1.8,1.1-2.8c0.1-0.2,0.2-0.5,0-0.8
		c-0.9-1.6-1.7-3.2-2.6-4.9c-0.1-0.1-0.2-0.2-0.3-0.3c-0.1,0.5-0.2,0.9-0.2,1.4c-0.5,3.8-1,7.7-1.5,11.5c-0.6,4.2-1.1,8.3-1.6,12.5
		c-0.5,3.6-1,7.3-1.4,10.9v0.8c0.3,0,0.6,0,0.8-0.1l3.6-0.6c0.2,0,0.5-0.1,0.6-0.2c0.9-0.9,1.7-1.8,2.6-2.7
		c-0.4-0.4-0.8-0.7-1.1-1.1c-0.4-0.4-0.4-0.6,0.2-0.9c0.3-0.2,0.6-0.2,0.7-0.6c0.2-0.6,1-0.7,1.4-0.2c0.1,0.1,0.2,0.2,0.2,0.4
		c0.1,0.2,0.2,0.3,0.4,0.4s0.3,0.1,0.4,0.2c0.2,0.2,0.3,0.3,0.2,0.6c-0.1,0.2-0.2,0.2-0.4,0.4c-0.3,0.3-0.6,0.6-0.9,0.9
		c0.9,0.9,1.6,1.8,2.5,2.6c0.2,0.2,0.5,0.3,0.7,0.3c1,0.2,1.9,0.3,2.9,0.5C135.6,101,136.1,101,136.7,101.1L136.7,101.1z
		 M137.3,62.3c0.1-0.2,0.1-0.4,0.2-0.6c0.2-1.5,0.2-3-0.1-4.5c-0.2-0.9-0.4-1.7-0.6-2.6c-0.1-0.4-0.4-0.7-0.7-0.9
		c-1.7-0.8-3.5-1.4-5.3-1.5c-1.2-0.1-2.3-0.2-3.6-0.1c-2,0.2-4,0.6-5.8,1.5c-0.5,0.2-0.8,0.5-0.9,1c-0.2,0.8-0.4,1.5-0.6,2.3
		c-0.3,1.6-0.4,3.3-0.1,4.9c0,0.2,0.1,0.2,0.2,0.5c0.6-0.2,1.3-0.5,1.9-0.6c1.1-0.4,2.1-0.7,3.2-1.1c1.6-0.5,3.3-0.6,5-0.4
		c1.9,0.2,3.7,0.7,5.4,1.5C136,62,136.6,62.3,137.3,62.3L137.3,62.3z M128.5,68.7c1.1-1.9,2.1-3.8,3.2-5.7c-1.6-0.6-5.5-0.6-6.3,0
		C126.4,64.9,127.5,66.8,128.5,68.7z M134.1,51c-0.2-0.8-0.6-1.5-1.1-1.9c-0.1-0.1-0.2-0.2-0.2-0.2c-0.6-0.2-1.1-0.4-1.7-0.4
		c-1.3-0.1-2.5-0.1-3.8-0.1c-0.8,0-1.6,0.2-2.3,0.3c-1.1,0.3-1.4,1.3-1.9,2.3C126.7,49.6,130.4,49.6,134.1,51z M129.5,72.9
		c-0.2-0.6-0.6-1.5-0.9-2.3c-0.1,0-0.1,0-0.2,0c-0.3,0.8-0.6,1.6-1,2.3c0.4,0.7,0.7,1.4,1,1.9C128.9,74.2,129.2,73.7,129.5,72.9
		L129.5,72.9z M128.1,96.4v0.2c0.2,0.2,0.3,0.3,0.5,0.4c0.2-0.2,0.4-0.3,0.6-0.5c0-0.1,0-0.1-0.1-0.2
		C128.7,96.4,128.4,96.4,128.1,96.4z M135.7,104.7c0-0.4,0-0.7-0.4-0.9C135.5,104,135.6,104.4,135.7,104.7z M121.7,103.8
		c-0.1,0-0.1-0.1-0.2-0.1c-0.2,0.2-0.3,0.6-0.2,1C121.5,104.4,121.6,104,121.7,103.8z"/>
	<path class="st0" d="M128.9,154c-0.6,0-1.1-0.5-1.1-1.1V143c0-0.6,0.5-1.1,1.1-1.1s1.1,0.5,1.1,1.1v9.9
		C130.2,153.5,129.6,154,128.9,154z"/>
	<path class="st0" d="M143.8,151.4c-0.5,0-0.9-0.3-1.1-0.8l-3.4-9.3c-0.2-0.6,0.1-1.3,0.7-1.5s1.3,0.1,1.5,0.7l3.4,9.3
		c0.2,0.6-0.1,1.3-0.7,1.5C144.2,151.4,144,151.4,143.8,151.4z"/>
	<path class="st0" d="M157,143.8c-0.3,0-0.6-0.2-0.9-0.4l-6.4-7.6c-0.4-0.5-0.3-1.2,0.2-1.6s1.2-0.3,1.6,0.2l6.4,7.6
		c0.4,0.5,0.3,1.2-0.2,1.6C157.5,143.7,157.3,143.8,157,143.8L157,143.8z"/>
	<path class="st0" d="M166.7,132.2c-0.2,0-0.4-0.1-0.6-0.2l-8.6-4.9c-0.6-0.3-0.7-1.1-0.4-1.6s1.1-0.7,1.6-0.4l8.6,4.9
		c0.6,0.3,0.7,1.1,0.4,1.6C167.5,132.1,167.1,132.2,166.7,132.2L166.7,132.2z"/>
	<path class="st0" d="M171.9,118c-0.1,0-0.2,0-0.2,0l-9.8-1.7c-0.6-0.1-1.1-0.7-1-1.4c0.1-0.6,0.7-1.1,1.4-1l9.8,1.7
		c0.6,0.1,1.1,0.7,1,1.4C172.9,117.6,172.4,118,171.9,118z"/>
	<path class="st0" d="M162.1,104.6c-0.6,0-1.1-0.4-1.1-1c-0.1-0.6,0.3-1.2,1-1.4l9.8-1.7c0.6-0.1,1.2,0.3,1.4,1
		c0.1,0.6-0.3,1.2-1,1.4l-9.8,1.7C162.3,104.6,162.2,104.6,162.1,104.6L162.1,104.6z"/>
	<path class="st0" d="M158.1,93.6c-0.4,0-0.8-0.2-1.1-0.6c-0.3-0.6-0.2-1.3,0.4-1.6l8.6-4.9c0.6-0.3,1.3-0.2,1.6,0.4
		s0.2,1.3-0.4,1.6l-8.6,4.9C158.5,93.5,158.3,93.6,158.1,93.6z"/>
	<path class="st0" d="M150.6,84.6c-0.2,0-0.6-0.1-0.7-0.2c-0.5-0.4-0.6-1.1-0.2-1.6l6.4-7.6c0.4-0.5,1.1-0.6,1.6-0.2
		s0.6,1.1,0.2,1.6l-6.4,7.6C151.3,84.4,151,84.6,150.6,84.6L150.6,84.6z"/>
	<path class="st0" d="M107.3,84.6c-0.3,0-0.6-0.2-0.9-0.4l-6.4-7.6c-0.4-0.5-0.3-1.2,0.2-1.6s1.2-0.3,1.6,0.2l6.4,7.6
		c0.4,0.5,0.3,1.2-0.2,1.6C107.8,84.5,107.6,84.6,107.3,84.6z"/>
	<path class="st0" d="M99.8,93.6c-0.2,0-0.4-0.1-0.6-0.2l-8.6-4.9c-0.6-0.3-0.7-1.1-0.4-1.6c0.3-0.6,1.1-0.7,1.6-0.4l8.6,4.9
		c0.6,0.3,0.7,1.1,0.4,1.6C100.6,93.4,100.2,93.6,99.8,93.6z"/>
	<path class="st0" d="M95.7,104.6c-0.1,0-0.2,0-0.2,0l-9.7-1.8c-0.6-0.1-1.1-0.7-1-1.4s0.7-1.1,1.4-1l9.8,1.7c0.6,0.1,1.1,0.7,1,1.4
		C96.8,104.2,96.3,104.6,95.7,104.6z"/>
	<path class="st0" d="M86,118c-0.6,0-1.1-0.4-1.1-1c-0.1-0.6,0.3-1.2,1-1.4l9.8-1.7c0.6-0.1,1.2,0.3,1.4,1c0.1,0.6-0.3,1.2-1,1.4
		l-9.8,1.7C86.2,118,86.1,118,86,118z"/>
	<path class="st0" d="M91.2,132.2c-0.4,0-0.8-0.2-1.1-0.6c-0.3-0.6-0.2-1.3,0.4-1.6l8.6-4.9c0.6-0.3,1.3-0.2,1.6,0.4
		s0.2,1.3-0.4,1.6l-8.6,4.9C91.6,132.1,91.4,132.2,91.2,132.2L91.2,132.2z"/>
	<path class="st0" d="M100.9,143.8c-0.2,0-0.6-0.1-0.7-0.2c-0.5-0.4-0.6-1.1-0.2-1.6l6.4-7.6c0.4-0.5,1.1-0.6,1.6-0.2
		s0.6,1.1,0.2,1.6l-6.4,7.6C101.6,143.7,101.3,143.8,100.9,143.8z"/>
	<path class="st0" d="M114,151.4c-0.2,0-0.2,0-0.4-0.1c-0.6-0.2-0.9-0.9-0.7-1.5l3.4-9.3c0.2-0.6,0.9-0.9,1.5-0.7s0.9,0.9,0.7,1.5
		l-3.4,9.3C114.9,151.1,114.5,151.4,114,151.4z"/>
</g>
<path class="st1" d="M3.6,171.6h153.7v32.1H3.6L3.6,171.6z"/>
<g class="st2">
	<path class="st0" d="M20.2,194.6H18v-6.2h-4.7v6.2h-2.2v-13.9h2.2v5.8H18v-5.8h2.2V194.6z"/>
	<path class="st0" d="M32.4,188.5c0,0.8-0.1,1.6-0.3,2.4c-0.2,0.8-0.5,1.4-0.9,2s-0.9,1-1.6,1.4c-0.6,0.3-1.4,0.5-2.2,0.5
		c-0.8,0-1.6-0.2-2.2-0.5c-0.6-0.3-1.1-0.8-1.5-1.4s-0.7-1.2-0.9-2c-0.2-0.7-0.3-1.5-0.3-2.4v-1.8c0-0.5,0-1.1,0.1-1.6
		c0.1-0.5,0.2-1,0.4-1.5c0.2-0.5,0.4-0.9,0.7-1.3c0.3-0.4,0.6-0.7,1-1c0.4-0.3,0.8-0.5,1.2-0.7c0.5-0.2,1-0.2,1.5-0.2
		c0.8,0,1.6,0.2,2.2,0.5s1.1,0.8,1.6,1.4c0.4,0.6,0.7,1.2,0.9,2c0.2,0.8,0.3,1.5,0.3,2.4V188.5z M30.1,186.7c0-0.5-0.1-1-0.1-1.6
		c-0.1-0.5-0.2-1-0.4-1.4c-0.2-0.4-0.5-0.7-0.8-1c-0.3-0.3-0.8-0.4-1.3-0.4c-0.5,0-0.9,0.1-1.3,0.4c-0.3,0.2-0.6,0.6-0.8,1
		c-0.2,0.4-0.3,0.9-0.4,1.4c-0.1,0.5-0.1,1-0.1,1.5v1.8c0,0.5,0.1,1,0.1,1.5s0.2,1,0.4,1.4s0.5,0.7,0.8,1c0.3,0.3,0.8,0.4,1.3,0.4
		c0.5,0,1-0.1,1.3-0.4c0.3-0.3,0.6-0.6,0.8-1s0.4-0.9,0.4-1.4c0.1-0.5,0.1-1,0.1-1.6V186.7z"/>
	<path class="st0" d="M37.2,192.7h6.6v1.9h-8.9v-13.9h2.3V192.7z"/>
	<path class="st0" d="M48.9,192.7h6.6v1.9h-8.9v-13.9h2.3V192.7z"/>
	<path class="st0" d="M58.4,180.7h8.2v1.9h-3v10.1h3v1.9h-8.2v-1.9h2.9v-10.1h-2.9V180.7z"/>
	<path class="st0" d="M90.4,194.6h-2.2v-6.2h-4.7v6.2h-2.2v-13.9h2.2v5.8h4.7v-5.8h2.2V194.6z"/>
	<path class="st0" d="M102.5,188.5c0,0.8-0.1,1.6-0.3,2.4c-0.2,0.8-0.5,1.4-0.9,2s-0.9,1-1.6,1.4c-0.6,0.3-1.4,0.5-2.2,0.5
		c-0.8,0-1.6-0.2-2.2-0.5c-0.6-0.3-1.1-0.8-1.5-1.4s-0.7-1.2-0.9-2c-0.2-0.7-0.3-1.5-0.3-2.4v-1.8c0-0.5,0-1.1,0.1-1.6
		c0.1-0.5,0.2-1,0.4-1.5c0.2-0.5,0.4-0.9,0.7-1.3c0.3-0.4,0.6-0.7,1-1c0.4-0.3,0.8-0.5,1.2-0.7c0.5-0.2,1-0.2,1.5-0.2
		c0.8,0,1.6,0.2,2.2,0.5s1.1,0.8,1.6,1.4c0.4,0.6,0.7,1.2,0.9,2c0.2,0.8,0.3,1.5,0.3,2.4V188.5z M100.3,186.7c0-0.5-0.1-1-0.1-1.6
		c-0.1-0.5-0.2-1-0.4-1.4c-0.2-0.4-0.5-0.7-0.8-1c-0.3-0.3-0.8-0.4-1.3-0.4c-0.5,0-0.9,0.1-1.3,0.4c-0.3,0.2-0.6,0.6-0.8,1
		c-0.2,0.4-0.3,0.9-0.4,1.4c-0.1,0.5-0.1,1-0.1,1.5v1.8c0,0.5,0.1,1,0.1,1.5s0.2,1,0.4,1.4s0.5,0.7,0.8,1c0.3,0.3,0.8,0.4,1.3,0.4
		c0.5,0,1-0.1,1.3-0.4c0.3-0.3,0.6-0.6,0.8-1s0.4-0.9,0.4-1.4c0.1-0.5,0.1-1,0.1-1.6V186.7z"/>
	<path class="st0" d="M107.4,192.7h6.6v1.9h-8.9v-13.9h2.3V192.7z"/>
	<path class="st0" d="M126.4,182.6h-4.3v12h-2.3v-12h-4.2v-1.9h10.8V182.6z"/>
	<path class="st0" d="M137.6,188.5c0,0.8-0.1,1.6-0.3,2.4s-0.5,1.4-0.9,2c-0.4,0.6-0.9,1-1.6,1.4c-0.6,0.3-1.4,0.5-2.2,0.5
		c-0.8,0-1.6-0.2-2.2-0.5c-0.6-0.3-1.1-0.8-1.5-1.4s-0.7-1.2-0.9-2c-0.2-0.7-0.3-1.5-0.3-2.4v-1.8c0-0.5,0-1.1,0.1-1.6
		c0.1-0.5,0.2-1,0.4-1.5s0.4-0.9,0.7-1.3c0.3-0.4,0.6-0.7,1-1c0.4-0.3,0.8-0.5,1.2-0.7c0.5-0.2,1-0.2,1.5-0.2c0.8,0,1.6,0.2,2.2,0.5
		s1.1,0.8,1.6,1.4s0.7,1.2,0.9,2s0.3,1.5,0.3,2.4V188.5z M135.3,186.7c0-0.5-0.1-1-0.1-1.6c-0.1-0.5-0.2-1-0.4-1.4
		c-0.2-0.4-0.5-0.7-0.8-1c-0.3-0.3-0.8-0.4-1.3-0.4c-0.5,0-0.9,0.1-1.3,0.4c-0.3,0.2-0.6,0.6-0.8,1c-0.2,0.4-0.3,0.9-0.4,1.4
		s-0.1,1-0.1,1.5v1.8c0,0.5,0,1,0.1,1.5c0.1,0.5,0.2,1,0.4,1.4c0.2,0.4,0.5,0.7,0.8,1c0.3,0.3,0.8,0.4,1.3,0.4c0.5,0,1-0.1,1.3-0.4
		c0.3-0.3,0.6-0.6,0.8-1c0.2-0.4,0.4-0.9,0.4-1.4c0.1-0.5,0.1-1,0.1-1.6V186.7z"/>
	<path class="st0" d="M148.9,194.6h-2.3l-4.5-9.5l0,9.5h-2.3v-13.9h2.3l4.5,9.5l0-9.5h2.3V194.6z"/>
</g>
<g class="st2">
	<path class="st0" d="M180.3,194.6v-13.9h3.4c1,0,1.8,0.2,2.6,0.5c0.8,0.3,1.4,0.7,1.9,1.3c0.5,0.6,0.9,1.2,1.2,2
		c0.3,0.8,0.4,1.7,0.4,2.6v1c0,1-0.2,1.8-0.4,2.6c-0.3,0.8-0.7,1.5-1.2,2s-1.2,1-1.9,1.3c-0.7,0.3-1.6,0.5-2.5,0.5H180.3z
		 M182.6,182.5v10.2h1.1c0.6,0,1.2-0.1,1.6-0.3c0.5-0.2,0.9-0.5,1.2-0.9s0.5-0.9,0.7-1.4c0.2-0.6,0.2-1.2,0.2-1.9v-1.1
		c0-0.7-0.1-1.3-0.2-1.8c-0.2-0.6-0.4-1-0.7-1.4c-0.3-0.4-0.7-0.7-1.2-0.9s-1-0.3-1.7-0.3H182.6z"/>
	<path class="st0" d="M200.2,188.3h-5.7v4.3h6.7v1.9h-9v-13.9h8.9v1.9h-6.6v3.9h5.7V188.3z"/>
	<path class="st0" d="M211,191c0-0.3-0.1-0.6-0.2-0.9c-0.1-0.2-0.3-0.5-0.6-0.7s-0.5-0.4-0.9-0.5c-0.3-0.1-0.7-0.3-1.1-0.4
		c-0.5-0.2-1.1-0.4-1.6-0.6c-0.5-0.2-1-0.5-1.4-0.9c-0.4-0.3-0.8-0.7-1-1.2c-0.3-0.5-0.4-1-0.4-1.6s0.1-1.1,0.4-1.6
		c0.3-0.5,0.6-0.9,1-1.2s0.9-0.6,1.5-0.8c0.6-0.2,1.2-0.3,1.8-0.3c0.7,0,1.3,0.1,1.9,0.3c0.6,0.2,1.1,0.5,1.5,0.9
		c0.4,0.4,0.8,0.8,1,1.3c0.3,0.5,0.4,1.1,0.4,1.7H211c0-0.3-0.1-0.7-0.2-1c-0.1-0.3-0.3-0.5-0.5-0.7c-0.2-0.2-0.5-0.4-0.8-0.5
		s-0.7-0.2-1.1-0.2c-0.3,0-0.7,0-1,0.1s-0.5,0.2-0.8,0.4c-0.2,0.2-0.4,0.4-0.5,0.6c-0.1,0.2-0.2,0.5-0.2,0.8c0,0.3,0.1,0.6,0.2,0.8
		c0.2,0.2,0.4,0.4,0.6,0.6c0.3,0.2,0.6,0.3,0.9,0.5s0.7,0.2,1.1,0.4c0.6,0.2,1.1,0.4,1.7,0.6c0.5,0.2,1,0.6,1.4,0.9
		c0.4,0.4,0.7,0.8,1,1.2c0.2,0.5,0.4,1,0.4,1.6c0,0.6-0.1,1.2-0.4,1.6c-0.3,0.5-0.6,0.9-1,1.2s-0.9,0.6-1.5,0.7
		c-0.6,0.2-1.2,0.2-1.8,0.2c-0.4,0-0.8,0-1.3-0.1c-0.4-0.1-0.8-0.2-1.2-0.4s-0.7-0.4-1.1-0.6c-0.3-0.2-0.6-0.5-0.9-0.8
		c-0.2-0.3-0.4-0.7-0.6-1.1s-0.2-0.8-0.2-1.3h2.3c0,0.4,0.1,0.8,0.3,1.1c0.2,0.3,0.4,0.6,0.6,0.8s0.6,0.4,0.9,0.5
		c0.3,0.1,0.7,0.2,1.1,0.2c0.3,0,0.7,0,1-0.1c0.3-0.1,0.6-0.2,0.8-0.4c0.2-0.2,0.4-0.4,0.5-0.6C210.9,191.6,211,191.3,211,191z"/>
	<path class="st0" d="M215.8,180.7h8.2v1.9h-3v10.1h3v1.9h-8.2v-1.9h2.9v-10.1h-2.9V180.7z"/>
	<path class="st0" d="M236.5,192.8c-0.2,0.3-0.5,0.5-0.8,0.8c-0.3,0.2-0.7,0.4-1.1,0.6c-0.4,0.2-0.8,0.3-1.3,0.4
		c-0.5,0.1-1,0.1-1.5,0.1c-0.8,0-1.6-0.2-2.2-0.5c-0.6-0.3-1.2-0.8-1.6-1.3s-0.8-1.2-1-2s-0.4-1.6-0.4-2.5v-1.7
		c0-0.9,0.1-1.7,0.3-2.5c0.2-0.8,0.6-1.4,1-2c0.4-0.6,1-1,1.6-1.3c0.6-0.3,1.3-0.5,2.1-0.5c0.7,0,1.4,0.1,1.9,0.3
		c0.6,0.2,1.1,0.5,1.5,0.9c0.4,0.4,0.7,0.8,1,1.4c0.2,0.5,0.4,1.1,0.5,1.8h-2.2c-0.1-0.4-0.1-0.7-0.3-1c-0.1-0.3-0.3-0.6-0.5-0.8
		c-0.2-0.2-0.4-0.4-0.7-0.5s-0.6-0.2-1-0.2c-0.5,0-0.9,0.1-1.2,0.4s-0.6,0.6-0.9,1c-0.2,0.4-0.4,0.9-0.5,1.4
		c-0.1,0.5-0.2,1.1-0.2,1.7v1.7c0,0.6,0.1,1.1,0.2,1.7c0.1,0.5,0.3,1,0.5,1.4c0.2,0.4,0.5,0.7,0.9,1c0.4,0.2,0.8,0.4,1.4,0.4
		c0.2,0,0.4,0,0.7,0s0.4-0.1,0.7-0.1c0.2-0.1,0.4-0.1,0.6-0.2s0.3-0.2,0.4-0.4l0-2.8h-2.5v-1.8h4.7L236.5,192.8z"/>
	<path class="st0" d="M247.8,194.6h-2.3L241,185l0,9.5h-2.3v-13.9h2.3l4.5,9.5l0-9.5h2.3V194.6z"/>
</g>
</svg>
