<svg enable-background="new 0 0 250 250" viewBox="0 0 250 250" xml:space="preserve" xmlns="http://www.w3.org/2000/svg"><g fill="#fff"><path d="m118.9 64.4c-.6-.3-.9-.9-1.1-1.6-.3-1.5-.2-3.1 0-4.6.1-1 .2-1.9.5-3 .1-.5.2-.9.5-1.3.6-1.4 1.7-2.1 3.1-2.7.2-.6.6-1.4.9-2 .5-1.1 1.1-2 2.1-2.5.2-.1.2-.2.2-.4.1-.2 0-.4 0-.6 0-1.8 0-3.6.1-5.3 0-2.6.1-5.2.2-7.7 0-2.3.1-4.6.2-6.9.1-2.6.1-5.1.2-7.7 0-2.3.1-4.5.1-6.8.1-3.3.2-6.6.2-9.9 0-.8 0-1.7 0-2.5 0-.3.1-.6.2-.9s.4-.4.7-.4.5.2.6.5c.1.2.1.4.1.6-.1 3.5-.2 7-.2 10.4v3.5c-.1 2.8-.1 5.7-.2 8.6s-.2 5.8-.3 8.8c0 2.3-.1 4.5-.1 6.8-.1 2.6-.1 5.2-.2 7.8 0 .6-.1 1.1-.1 1.6h3.5c0-.3.1-.6.1-.9 0-6 0-12 0-18.1 0-9.4 0-18.9 0-28.3 0-.3 0-.6.1-1 .1-.5.4-.7.8-.7s.6.3.7.8v.7 46.6.8c.1.1.1.1.2.1 1.1.2 1.9 1.1 2.4 2 .4.9.8 1.9 1.2 2.8 2.2.7 3.2 2.3 3.6 4.6.3 1.8.5 3.5.4 5.3 0 .6-.1 1.2-.2 1.8s-.4 1.2-1.1 1.5c0 .6 0 1.3.2 1.9.4 1.5.9 2.8 1.4 4.3 1.1 2.9 2 5.8 3.3 8.6.7 1.5 1.5 2.9 2.3 4.4 1.5 2.8 3.2 5.5 4.9 8.3 1.6 2.9 2.9 5.9 4 9.1.7 2.2 1.2 4.5 1.5 6.7.2 2 .2 4.1 0 6.2-.2 1.5-.4 3.1-.7 4.6s-1 3-1.7 4.4c-.4.7-.8 1.5-1.2 2.3-.2.3-.4.7-.6 1.1-1.6 1.9-3.3 3.9-5.5 5.2-1.1.6-2.2 1.4-3.4 1.9-2.2 1.1-4.5 1.8-6.9 2.3-1.5.4-3.2.7-4.8.8-1.5.1-3.1.1-4.6-.1-3.5-.3-6.9-1.3-10.2-2.6-.6-.2-1.1-.4-1.5-.7-1.5-.9-3-1.9-4.5-2.8-.1-.1-.2-.2-.2-.2-1.9-1.8-3.8-3.6-5-5.9-1.1-2-2.1-4-2.6-6.4-.2-1.2-.4-2.4-.5-3.6-.2-1.5-.2-3.2-.2-4.7.1-3.1.7-6 1.7-8.9 1-2.8 2.1-5.6 3.6-8.3 1-1.8 2.1-3.4 3.1-5.2.8-1.3 1.5-2.7 2.3-4 1.7-2.9 3-5.9 4.1-9.1.8-2.2 1.5-4.3 2.3-6.5-.2-.7.2-1.7 0-2.9zm5-1.2c-.2 0-.2 0-.2 0-.8.3-1.5.6-2.3.9-.2.1-.2.2-.3.3-.2.8-.5 1.6-.6 2.4-.2 1.7-.6 3.3-1.1 4.9-1.1 3.2-2.3 6.2-3.8 9.2-1.2 2.4-2.6 4.8-4 7.1-1.1 1.9-2.2 3.6-3 5.7-1.6 4-3 8-3.7 12.2-.2 1-.2 2-.2 3 .1 2 .2 4 .3 6.2.1.9.2 1.7.4 2.6.6 2 1.5 3.9 2.5 5.8s2.4 3.5 4 4.9c1.5 1.4 3.4 2.4 5.3 3.2s3.8 1.2 5.7 1.8 3.7.4 5.6.6h.4c.6 0 1.4-.1 2-.1.3 0 .7 0 1.1-.1 1.1-.2 2-.5 3.1-.6 3.2-.7 6.1-1.9 8.7-3.8 1.7-1.1 2.9-2.6 4.2-4.1.1-.2.2-.2.2-.4.8-1.5 1.5-2.9 2.3-4.5 1-1.9 1.5-4.1 1.5-6.3 0-.9.1-1.7.2-2.5.2-2.3.2-4.5-.3-6.7-.7-3.6-1.9-7-3.2-10.3-1.1-2.8-2.8-5.4-4.2-8.1-1.1-2-2.3-4-3.2-6.1-1.1-2.3-1.9-4.6-2.9-7-.7-1.7-1.1-3.5-1.5-5.3-.2-1.1-.5-2.3-.7-3.5-.1-.2-.2-.4-.4-.4-.6-.2-1.1-.4-1.7-.6-.2-.1-.5-.2-.9-.2 0 .3 0 .6.1.8.2 1.5.4 3.1.6 4.6.2 2.1.6 4.3.8 6.4.2 2.2.6 4.4.8 6.6s.6 4.3.8 6.5.6 4.4.8 6.6c.2 1.9.5 3.7.7 5.6s.3 3.7.4 5.5c.1.9-.2 1.1-1.1 1.1 0 0-.1.1-.2.2 0 .8.1 1.7.1 2.6 0 .6 0 .8-.3.9s-.5-.1-.7-.6-.3-.9-.5-1.4-.5-.8-1-1c-.3.2-.4.5-.5.7-.1.3-.2.6-.3 1-.2.5-.4 1.1-.8 1.5-.6.5-1.3.6-1.9.3s-1.1-1.1-1.1-1.8c0-.1 0-.2 0-.2.2-.1.2-.3.4-.3.1 0 .2.2.3.3.1.2.1.4.2.6.2.3.4.6.8.7s.7-.2.9-.5c.2-.4.4-.9.6-1.3.2-.3.2-.6.3-1 .5-1 1.3-1.1 2.1-.5.2.2.3.2.5.4.1-.6 0-1.2-.5-1.6-.6-.6-1-1.3-1.1-2.1-.1-.5.2-1 .6-1.1.4-.2.8 0 1.1.4s.5.9.6 1.4c.1.4.1.8.2 1.2 0 .3.2.5.6.4-.2-1.5 0-2.8-.5-4.2-1.4-.2-2.8-.5-4-.6-1-.1-1.8-.4-2.4-1.2-.6-.7-1.2-1.4-1.9-2-.3.3-.6.6-.9.9-.6.6-1.1 1.2-1.7 1.8-.2.2-.5.4-.7.4-.6.2-1.2.2-1.8.2-1.1.2-2.2.3-3.3.6-.3.7-.6 3.6-.3 4.2.2 0 .4-.2.4-.4s0-.4.1-.6c.1-.6.2-1.3.5-1.9s.9-.7 1.3-.6c.4.2.6.7.4 1.3-.2.8-.6 1.5-1.1 2-.5.4-.4 1-.3 1.5.2-.2.4-.4.6-.6.8-.6 1.5-.4 1.9.5.2.3.2.7.4 1.1s.3.8.6 1.2c.2.3.5.6.9.5s.6-.4.8-.7c.1-.2.1-.3.1-.4.1-.2.2-.5.5-.4.2.1.4.2.4.5.1.6-.5 1.5-1.1 1.8s-1.4.2-1.9-.3c-.3-.3-.6-.6-.7-1.1-.2-.4-.2-.8-.4-1.3-.1-.3-.2-.6-.6-.8-.4.1-.7.4-.9.8-.2.2-.2.6-.3.8-.1.3-.2.6-.4 1-.1.2-.2.5-.6.4-.3-.1-.4-.3-.3-.6 0-.2.1-.6.1-.8 0-.7 0-1.5 0-2.1-1.1 0-1.3-.3-1.3-1.3.2-3.3.6-6.6 1.1-9.8.2-2.2.6-4.3.8-6.5.2-2.1.6-4.3.8-6.4.2-2.2.6-4.4.8-6.6s.6-4.4.8-6.6c.2-2.1.6-4.2.8-6.2-.2-.3-.2-.4-.3-.6zm12.8 37.9c-1.6-12.5-3.2-24.8-4.7-37.1-.2.2-.4.3-.5.5-.8 1.5-1.5 3-2.3 4.5-.2.4-.2.6 0 1.1.4.9.7 1.8 1.1 2.7.1.2.2.6-.2.7-.3.2-.5.6-.6.9-.2.4-.2.7-.4 1.1-.1.2-.2.5-.6.5-.3 0-.5-.2-.6-.5-.2-.4-.2-.9-.4-1.3-.1-.2-.2-.5-.4-.6-.4-.4-.5-.4-.2-.9.3-.9.7-1.8 1.1-2.8.1-.2.2-.5 0-.8-.9-1.6-1.7-3.2-2.6-4.9-.1-.1-.2-.2-.3-.3-.1.5-.2.9-.2 1.4-.5 3.8-1 7.7-1.5 11.5-.6 4.2-1.1 8.3-1.6 12.5-.5 3.6-1 7.3-1.4 10.9v.8c.3 0 .6 0 .8-.1l3.6-.6c.2 0 .5-.1.6-.2.9-.9 1.7-1.8 2.6-2.7-.4-.4-.8-.7-1.1-1.1-.4-.4-.4-.6.2-.9.3-.2.6-.2.7-.6.2-.6 1-.7 1.4-.2.1.1.2.2.2.4.1.2.2.3.4.4s.3.1.4.2c.2.2.3.3.2.6-.1.2-.2.2-.4.4-.3.3-.6.6-.9.9.9.9 1.6 1.8 2.5 2.6.2.2.5.3.7.3 1 .2 1.9.3 2.9.5.4.1.9.1 1.5.2zm.6-38.8c.1-.2.1-.4.2-.6.2-1.5.2-3-.1-4.5-.2-.9-.4-1.7-.6-2.6-.1-.4-.4-.7-.7-.9-1.7-.8-3.5-1.4-5.3-1.5-1.2-.1-2.3-.2-3.6-.1-2 .2-4 .6-5.8 1.5-.5.2-.8.5-.9 1-.2.8-.4 1.5-.6 2.3-.3 1.6-.4 3.3-.1 4.9 0 .2.1.2.2.5.6-.2 1.3-.5 1.9-.6 1.1-.4 2.1-.7 3.2-1.1 1.6-.5 3.3-.6 5-.4 1.9.2 3.7.7 5.4 1.5.5.3 1.1.6 1.8.6zm-8.8 6.4c1.1-1.9 2.1-3.8 3.2-5.7-1.6-.6-5.5-.6-6.3 0 1 1.9 2.1 3.8 3.1 5.7zm5.6-17.7c-.2-.8-.6-1.5-1.1-1.9-.1-.1-.2-.2-.2-.2-.6-.2-1.1-.4-1.7-.4-1.3-.1-2.5-.1-3.8-.1-.8 0-1.6.2-2.3.3-1.1.3-1.4 1.3-1.9 2.3 3.6-1.4 7.3-1.4 11 0zm-4.6 21.9c-.2-.6-.6-1.5-.9-2.3-.1 0-.1 0-.2 0-.3.8-.6 1.6-1 2.3.4.7.7 1.4 1 1.9.5-.6.8-1.1 1.1-1.9zm-1.4 23.5v.2c.2.2.3.3.5.4.2-.2.4-.3.6-.5 0-.1 0-.1-.1-.2-.4.1-.7.1-1 .1zm7.6 8.3c0-.4 0-.7-.4-.9.2.2.3.6.4.9zm-14-.9c-.1 0-.1-.1-.2-.1-.2.2-.3.6-.2 1 .2-.3.3-.7.4-.9z"/><path d="m128.9 154c-.6 0-1.1-.5-1.1-1.1v-9.9c0-.6.5-1.1 1.1-1.1s1.1.5 1.1 1.1v9.9c.2.6-.4 1.1-1.1 1.1z"/><path d="m143.8 151.4c-.5 0-.9-.3-1.1-.8l-3.4-9.3c-.2-.6.1-1.3.7-1.5s1.3.1 1.5.7l3.4 9.3c.2.6-.1 1.3-.7 1.5 0 .1-.2.1-.4.1z"/><path d="m157 143.8c-.3 0-.6-.2-.9-.4l-6.4-7.6c-.4-.5-.3-1.2.2-1.6s1.2-.3 1.6.2l6.4 7.6c.4.5.3 1.2-.2 1.6-.2.1-.4.2-.7.2z"/><path d="m166.7 132.2c-.2 0-.4-.1-.6-.2l-8.6-4.9c-.6-.3-.7-1.1-.4-1.6s1.1-.7 1.6-.4l8.6 4.9c.6.3.7 1.1.4 1.6-.2.5-.6.6-1 .6z"/><path d="m171.9 118c-.1 0-.2 0-.2 0l-9.8-1.7c-.6-.1-1.1-.7-1-1.4.1-.6.7-1.1 1.4-1l9.8 1.7c.6.1 1.1.7 1 1.4-.2.6-.7 1-1.2 1z"/><path d="m162.1 104.6c-.6 0-1.1-.4-1.1-1-.1-.6.3-1.2 1-1.4l9.8-1.7c.6-.1 1.2.3 1.4 1 .1.6-.3 1.2-1 1.4l-9.8 1.7c-.1 0-.2 0-.3 0z"/><path d="m158.1 93.6c-.4 0-.8-.2-1.1-.6-.3-.6-.2-1.3.4-1.6l8.6-4.9c.6-.3 1.3-.2 1.6.4s.2 1.3-.4 1.6l-8.6 4.9c-.1.1-.3.2-.5.2z"/><path d="m150.6 84.6c-.2 0-.6-.1-.7-.2-.5-.4-.6-1.1-.2-1.6l6.4-7.6c.4-.5 1.1-.6 1.6-.2s.6 1.1.2 1.6l-6.4 7.6c-.2.2-.5.4-.9.4z"/><path d="m107.3 84.6c-.3 0-.6-.2-.9-.4l-6.4-7.6c-.4-.5-.3-1.2.2-1.6s1.2-.3 1.6.2l6.4 7.6c.4.5.3 1.2-.2 1.6-.2.1-.4.2-.7.2z"/><path d="m99.8 93.6c-.2 0-.4-.1-.6-.2l-8.6-4.9c-.6-.3-.7-1.1-.4-1.6.3-.6 1.1-.7 1.6-.4l8.6 4.9c.6.3.7 1.1.4 1.6-.2.4-.6.6-1 .6z"/><path d="m95.7 104.6c-.1 0-.2 0-.2 0l-9.7-1.8c-.6-.1-1.1-.7-1-1.4s.7-1.1 1.4-1l9.8 1.7c.6.1 1.1.7 1 1.4-.2.7-.7 1.1-1.3 1.1z"/><path d="m86 118c-.6 0-1.1-.4-1.1-1-.1-.6.3-1.2 1-1.4l9.8-1.7c.6-.1 1.2.3 1.4 1 .1.6-.3 1.2-1 1.4l-9.8 1.7c-.1 0-.2 0-.3 0z"/><path d="m91.2 132.2c-.4 0-.8-.2-1.1-.6-.3-.6-.2-1.3.4-1.6l8.6-4.9c.6-.3 1.3-.2 1.6.4s.2 1.3-.4 1.6l-8.6 4.9c-.1.1-.3.2-.5.2z"/><path d="m100.9 143.8c-.2 0-.6-.1-.7-.2-.5-.4-.6-1.1-.2-1.6l6.4-7.6c.4-.5 1.1-.6 1.6-.2s.6 1.1.2 1.6l-6.4 7.6c-.2.3-.5.4-.9.4z"/><path d="m114 151.4c-.2 0-.2 0-.4-.1-.6-.2-.9-.9-.7-1.5l3.4-9.3c.2-.6.9-.9 1.5-.7s.9.9.7 1.5l-3.4 9.3c-.2.5-.6.8-1.1.8z"/></g><path d="m3.6 171.6h153.7v32.1h-153.7z" fill="#ff5622"/><text fill="#fff" font-family="'RobotoMono-Medium'" font-size="19.4927" transform="translate(9.8497 194.5558)">HOLLI HOLTON</text><text fill="#fff" font-family="'RobotoMono-Medium'" font-size="19.4927" transform="translate(167.2632 194.5558)"> DESIGN</text></svg>