<?xml version="1.0" encoding="utf-8"?>
<!-- Generator: Adobe Illustrator 23.0.2, SVG Export Plug-In . SVG Version: 6.00 Build 0)  -->
<svg version="1.1" id="Layer_1" xmlns="http://www.w3.org/2000/svg" xmlns:xlink="http://www.w3.org/1999/xlink" x="0px" y="0px"
	 viewBox="0 0 250 250" style="enable-background:new 0 0 250 250;" xml:space="preserve">
<style type="text/css">
	.st0{fill:#FFFFFF;}
	.st1{fill:#FF5622;}
</style>
<g>
	<g>
		<path class="st0" d="M118.9,64.4c-0.6-0.3-0.9-0.9-1.1-1.6c-0.3-1.5-0.2-3.1,0-4.6c0.1-1,0.2-1.9,0.5-3c0.1-0.5,0.2-0.9,0.5-1.3
			c0.6-1.4,1.7-2.1,3.1-2.7c0.2-0.6,0.6-1.4,0.9-2c0.5-1.1,1.1-2,2.1-2.5c0.2-0.1,0.2-0.2,0.2-0.4c0.1-0.2,0-0.4,0-0.6
			c0-1.8,0-3.6,0.1-5.3c0-2.6,0.1-5.2,0.2-7.7c0-2.3,0.1-4.6,0.2-6.9c0.1-2.6,0.1-5.1,0.2-7.7c0-2.3,0.1-4.5,0.1-6.8
			c0.1-3.3,0.2-6.6,0.2-9.9c0-0.8,0-1.7,0-2.5c0-0.3,0.1-0.6,0.2-0.9c0.1-0.3,0.4-0.4,0.7-0.4c0.3,0,0.5,0.2,0.6,0.5
			c0.1,0.2,0.1,0.4,0.1,0.6c-0.1,3.5-0.2,7-0.2,10.4c0,1.1,0,2.3,0,3.5c-0.1,2.8-0.1,5.7-0.2,8.6S127.1,27,127,30
			c0,2.3-0.1,4.5-0.1,6.8c-0.1,2.6-0.1,5.2-0.2,7.8c0,0.6-0.1,1.1-0.1,1.6c1.2,0,2.3,0,3.5,0c0-0.3,0.1-0.6,0.1-0.9c0-6,0-12,0-18.1
			c0-9.4,0-18.9,0-28.3c0-0.3,0-0.6,0.1-1c0.1-0.5,0.4-0.7,0.8-0.7c0.4,0,0.6,0.3,0.7,0.8c0,0.2,0,0.5,0,0.7c0,15.5,0,31.1,0,46.6
			c0,0.3,0,0.6,0,0.8c0.1,0.1,0.1,0.1,0.2,0.1c1.1,0.2,1.9,1.1,2.4,2c0.4,0.9,0.8,1.9,1.2,2.8c2.2,0.7,3.2,2.3,3.6,4.6
			c0.3,1.8,0.5,3.5,0.4,5.3c0,0.6-0.1,1.2-0.2,1.8c-0.1,0.6-0.4,1.2-1.1,1.5c0,0.6,0,1.3,0.2,1.9c0.4,1.5,0.9,2.8,1.4,4.3
			c1.1,2.9,2,5.8,3.3,8.6c0.7,1.5,1.5,2.9,2.3,4.4c1.5,2.8,3.2,5.5,4.9,8.3c1.6,2.9,2.9,5.9,4,9.1c0.7,2.2,1.2,4.5,1.5,6.7
			c0.2,2,0.2,4.1,0,6.2c-0.2,1.5-0.4,3.1-0.7,4.6c-0.3,1.5-1,3-1.7,4.4c-0.4,0.7-0.8,1.5-1.2,2.3c-0.2,0.3-0.4,0.7-0.6,1.1
			c-1.6,1.9-3.3,3.9-5.5,5.2c-1.1,0.6-2.2,1.4-3.4,1.9c-2.2,1.1-4.5,1.8-6.9,2.3c-1.5,0.4-3.2,0.7-4.8,0.8c-1.5,0.1-3.1,0.1-4.6-0.1
			c-3.5-0.3-6.9-1.3-10.2-2.6c-0.6-0.2-1.1-0.4-1.5-0.7c-1.5-0.9-3-1.9-4.5-2.8c-0.1-0.1-0.2-0.2-0.2-0.2c-1.9-1.8-3.8-3.6-5-5.9
			c-1.1-2-2.1-4-2.6-6.4c-0.2-1.2-0.4-2.4-0.5-3.6c-0.2-1.5-0.2-3.2-0.2-4.7c0.1-3.1,0.7-6,1.7-8.9c1-2.8,2.1-5.6,3.6-8.3
			c1-1.8,2.1-3.4,3.1-5.2c0.8-1.3,1.5-2.7,2.3-4c1.7-2.9,3-5.9,4.1-9.1c0.8-2.2,1.5-4.3,2.3-6.5C118.7,66.6,119.1,65.6,118.9,64.4z
			 M123.9,63.2c-0.2,0-0.2,0-0.2,0c-0.8,0.3-1.5,0.6-2.3,0.9c-0.2,0.1-0.2,0.2-0.3,0.3c-0.2,0.8-0.5,1.6-0.6,2.4
			c-0.2,1.7-0.6,3.3-1.1,4.9c-1.1,3.2-2.3,6.2-3.8,9.2c-1.2,2.4-2.6,4.8-4,7.1c-1.1,1.9-2.2,3.6-3,5.7c-1.6,4-3,8-3.7,12.2
			c-0.2,1-0.2,2-0.2,3c0.1,2,0.2,4,0.3,6.2c0.1,0.9,0.2,1.7,0.4,2.6c0.6,2,1.5,3.9,2.5,5.8c1,1.9,2.4,3.5,4,4.9
			c1.5,1.4,3.4,2.4,5.3,3.2c1.9,0.8,3.8,1.2,5.7,1.8c1.9,0.6,3.7,0.4,5.6,0.6c0.2,0,0.2,0,0.4,0c0.6,0,1.4-0.1,2-0.1
			c0.3,0,0.7,0,1.1-0.1c1.1-0.2,2-0.5,3.1-0.6c3.2-0.7,6.1-1.9,8.7-3.8c1.7-1.1,2.9-2.6,4.2-4.1c0.1-0.2,0.2-0.2,0.2-0.4
			c0.8-1.5,1.5-2.9,2.3-4.5c1-1.9,1.5-4.1,1.5-6.3c0-0.9,0.1-1.7,0.2-2.5c0.2-2.3,0.2-4.5-0.3-6.7c-0.7-3.6-1.9-7-3.2-10.3
			c-1.1-2.8-2.8-5.4-4.2-8.1c-1.1-2-2.3-4-3.2-6.1c-1.1-2.3-1.9-4.6-2.9-7c-0.7-1.7-1.1-3.5-1.5-5.3c-0.2-1.1-0.5-2.3-0.7-3.5
			c-0.1-0.2-0.2-0.4-0.4-0.4c-0.6-0.2-1.1-0.4-1.7-0.6c-0.2-0.1-0.5-0.2-0.9-0.2c0,0.3,0,0.6,0.1,0.8c0.2,1.5,0.4,3.1,0.6,4.6
			c0.2,2.1,0.6,4.3,0.8,6.4c0.2,2.2,0.6,4.4,0.8,6.6s0.6,4.3,0.8,6.5c0.2,2.2,0.6,4.4,0.8,6.6c0.2,1.9,0.5,3.7,0.7,5.6
			c0.2,1.9,0.3,3.7,0.4,5.5c0.1,0.9-0.2,1.1-1.1,1.1c0,0-0.1,0.1-0.2,0.2c0,0.8,0.1,1.7,0.1,2.6c0,0.6,0,0.8-0.3,0.9
			c-0.3,0.1-0.5-0.1-0.7-0.6c-0.2-0.5-0.3-0.9-0.5-1.4c-0.2-0.5-0.5-0.8-1-1c-0.3,0.2-0.4,0.5-0.5,0.7c-0.1,0.3-0.2,0.6-0.3,1
			c-0.2,0.5-0.4,1.1-0.8,1.5c-0.6,0.5-1.3,0.6-1.9,0.3c-0.6-0.3-1.1-1.1-1.1-1.8c0-0.1,0-0.2,0-0.2c0.2-0.1,0.2-0.3,0.4-0.3
			c0.1,0,0.2,0.2,0.3,0.3c0.1,0.2,0.1,0.4,0.2,0.6c0.2,0.3,0.4,0.6,0.8,0.7c0.4,0.1,0.7-0.2,0.9-0.5c0.2-0.4,0.4-0.9,0.6-1.3
			c0.2-0.3,0.2-0.6,0.3-1c0.5-1,1.3-1.1,2.1-0.5c0.2,0.2,0.3,0.2,0.5,0.4c0.1-0.6,0-1.2-0.5-1.6c-0.6-0.6-1-1.3-1.1-2.1
			c-0.1-0.5,0.2-1,0.6-1.1c0.4-0.2,0.8,0,1.1,0.4c0.3,0.4,0.5,0.9,0.6,1.4c0.1,0.4,0.1,0.8,0.2,1.2c0,0.3,0.2,0.5,0.6,0.4
			c-0.2-1.5,0-2.8-0.5-4.2c-1.4-0.2-2.8-0.5-4-0.6c-1-0.1-1.8-0.4-2.4-1.2c-0.6-0.7-1.2-1.4-1.9-2c-0.3,0.3-0.6,0.6-0.9,0.9
			c-0.6,0.6-1.1,1.2-1.7,1.8c-0.2,0.2-0.5,0.4-0.7,0.4c-0.6,0.2-1.2,0.2-1.8,0.2c-1.1,0.2-2.2,0.3-3.3,0.6c-0.3,0.7-0.6,3.6-0.3,4.2
			c0.2,0,0.4-0.2,0.4-0.4c0-0.2,0-0.4,0.1-0.6c0.1-0.6,0.2-1.3,0.5-1.9c0.3-0.6,0.9-0.7,1.3-0.6c0.4,0.2,0.6,0.7,0.4,1.3
			c-0.2,0.8-0.6,1.5-1.1,2c-0.5,0.4-0.4,1-0.3,1.5c0.2-0.2,0.4-0.4,0.6-0.6c0.8-0.6,1.5-0.4,1.9,0.5c0.2,0.3,0.2,0.7,0.4,1.1
			s0.3,0.8,0.6,1.2c0.2,0.3,0.5,0.6,0.9,0.5c0.4-0.1,0.6-0.4,0.8-0.7c0.1-0.2,0.1-0.3,0.1-0.4c0.1-0.2,0.2-0.5,0.5-0.4
			c0.2,0.1,0.4,0.2,0.4,0.5c0.1,0.6-0.5,1.5-1.1,1.8c-0.6,0.3-1.4,0.2-1.9-0.3c-0.3-0.3-0.6-0.6-0.7-1.1c-0.2-0.4-0.2-0.8-0.4-1.3
			c-0.1-0.3-0.2-0.6-0.6-0.8c-0.4,0.1-0.7,0.4-0.9,0.8c-0.2,0.2-0.2,0.6-0.3,0.8c-0.1,0.3-0.2,0.6-0.4,1c-0.1,0.2-0.2,0.5-0.6,0.4
			c-0.3-0.1-0.4-0.3-0.3-0.6c0-0.2,0.1-0.6,0.1-0.8c0-0.7,0-1.5,0-2.1c-1.1,0-1.3-0.3-1.3-1.3c0.2-3.3,0.6-6.6,1.1-9.8
			c0.2-2.2,0.6-4.3,0.8-6.5c0.2-2.1,0.6-4.3,0.8-6.4c0.2-2.2,0.6-4.4,0.8-6.6c0.2-2.2,0.6-4.4,0.8-6.6c0.2-2.1,0.6-4.2,0.8-6.2
			C124,63.5,124,63.4,123.9,63.2z M136.7,101.1c-1.6-12.5-3.2-24.8-4.7-37.1c-0.2,0.2-0.4,0.3-0.5,0.5c-0.8,1.5-1.5,3-2.3,4.5
			c-0.2,0.4-0.2,0.6,0,1.1c0.4,0.9,0.7,1.8,1.1,2.7c0.1,0.2,0.2,0.6-0.2,0.7c-0.3,0.2-0.5,0.6-0.6,0.9c-0.2,0.4-0.2,0.7-0.4,1.1
			c-0.1,0.2-0.2,0.5-0.6,0.5c-0.3,0-0.5-0.2-0.6-0.5c-0.2-0.4-0.2-0.9-0.4-1.3c-0.1-0.2-0.2-0.5-0.4-0.6c-0.4-0.4-0.5-0.4-0.2-0.9
			c0.3-0.9,0.7-1.8,1.1-2.8c0.1-0.2,0.2-0.5,0-0.8c-0.9-1.6-1.7-3.2-2.6-4.9c-0.1-0.1-0.2-0.2-0.3-0.3c-0.1,0.5-0.2,0.9-0.2,1.4
			c-0.5,3.8-1,7.7-1.5,11.5c-0.6,4.2-1.1,8.3-1.6,12.5c-0.5,3.6-1,7.3-1.4,10.9c0,0.2,0,0.5,0,0.8c0.3,0,0.6,0,0.8-0.1
			c1.2-0.2,2.4-0.4,3.6-0.6c0.2,0,0.5-0.1,0.6-0.2c0.9-0.9,1.7-1.8,2.6-2.7c-0.4-0.4-0.8-0.7-1.1-1.1c-0.4-0.4-0.4-0.6,0.2-0.9
			c0.3-0.2,0.6-0.2,0.7-0.6c0.2-0.6,1-0.7,1.4-0.2c0.1,0.1,0.2,0.2,0.2,0.4c0.1,0.2,0.2,0.3,0.4,0.4s0.3,0.1,0.4,0.2
			c0.2,0.2,0.3,0.3,0.2,0.6c-0.1,0.2-0.2,0.2-0.4,0.4c-0.3,0.3-0.6,0.6-0.9,0.9c0.9,0.9,1.6,1.8,2.5,2.6c0.2,0.2,0.5,0.3,0.7,0.3
			c1,0.2,1.9,0.3,2.9,0.5C135.6,101,136.1,101,136.7,101.1z M137.3,62.3c0.1-0.2,0.1-0.4,0.2-0.6c0.2-1.5,0.2-3-0.1-4.5
			c-0.2-0.9-0.4-1.7-0.6-2.6c-0.1-0.4-0.4-0.7-0.7-0.9c-1.7-0.8-3.5-1.4-5.3-1.5c-1.2-0.1-2.3-0.2-3.6-0.1c-2,0.2-4,0.6-5.8,1.5
			c-0.5,0.2-0.8,0.5-0.9,1c-0.2,0.8-0.4,1.5-0.6,2.3c-0.3,1.6-0.4,3.3-0.1,4.9c0,0.2,0.1,0.2,0.2,0.5c0.6-0.2,1.3-0.5,1.9-0.6
			c1.1-0.4,2.1-0.7,3.2-1.1c1.6-0.5,3.3-0.6,5-0.4c1.9,0.2,3.7,0.7,5.4,1.5C136,62,136.6,62.3,137.3,62.3z M128.5,68.7
			c1.1-1.9,2.1-3.8,3.2-5.7c-1.6-0.6-5.5-0.6-6.3,0C126.4,64.9,127.5,66.8,128.5,68.7z M134.1,51c-0.2-0.8-0.6-1.5-1.1-1.9
			c-0.1-0.1-0.2-0.2-0.2-0.2c-0.6-0.2-1.1-0.4-1.7-0.4c-1.3-0.1-2.5-0.1-3.8-0.1c-0.8,0-1.6,0.2-2.3,0.3c-1.1,0.3-1.4,1.3-1.9,2.3
			C126.7,49.6,130.4,49.6,134.1,51z M129.5,72.9c-0.2-0.6-0.6-1.5-0.9-2.3c-0.1,0-0.1,0-0.2,0c-0.3,0.8-0.6,1.6-1,2.3
			c0.4,0.7,0.7,1.4,1,1.9C128.9,74.2,129.2,73.7,129.5,72.9z M128.1,96.4c0,0.1,0,0.1,0,0.2c0.2,0.2,0.3,0.3,0.5,0.4
			c0.2-0.2,0.4-0.3,0.6-0.5c0-0.1,0-0.1-0.1-0.2C128.7,96.4,128.4,96.4,128.1,96.4z M135.7,104.7L135.7,104.7c0-0.4,0-0.7-0.4-0.9
			C135.5,104,135.6,104.4,135.7,104.7z M121.7,103.8c-0.1,0-0.1-0.1-0.2-0.1c-0.2,0.2-0.3,0.6-0.2,1
			C121.5,104.4,121.6,104,121.7,103.8z"/>
	</g>
</g>
<g>
	<g>
		<path class="st1" d="M128.9,154c-0.6,0-1.1-0.5-1.1-1.1V143c0-0.6,0.5-1.1,1.1-1.1c0.6,0,1.1,0.5,1.1,1.1v9.9
			C130.2,153.5,129.6,154,128.9,154z"/>
	</g>
	<g>
		<path class="st1" d="M143.8,151.4c-0.5,0-0.9-0.3-1.1-0.8l-3.4-9.3c-0.2-0.6,0.1-1.3,0.7-1.5c0.6-0.2,1.3,0.1,1.5,0.7l3.4,9.3
			c0.2,0.6-0.1,1.3-0.7,1.5C144.2,151.4,144,151.4,143.8,151.4z"/>
	</g>
	<g>
		<path class="st1" d="M157,143.8c-0.3,0-0.6-0.2-0.9-0.4l-6.4-7.6c-0.4-0.5-0.3-1.2,0.2-1.6s1.2-0.3,1.6,0.2l6.4,7.6
			c0.4,0.5,0.3,1.2-0.2,1.6C157.5,143.7,157.3,143.8,157,143.8z"/>
	</g>
	<g>
		<path class="st1" d="M166.7,132.2c-0.2,0-0.4-0.1-0.6-0.2l-8.6-4.9c-0.6-0.3-0.7-1.1-0.4-1.6s1.1-0.7,1.6-0.4l8.6,4.9
			c0.6,0.3,0.7,1.1,0.4,1.6C167.5,132.1,167.1,132.2,166.7,132.2z"/>
	</g>
	<g>
		<path class="st1" d="M171.9,118c-0.1,0-0.2,0-0.2,0l-9.8-1.7c-0.6-0.1-1.1-0.7-1-1.4c0.1-0.6,0.7-1.1,1.4-1l9.8,1.7
			c0.6,0.1,1.1,0.7,1,1.4C172.9,117.6,172.4,118,171.9,118z"/>
	</g>
	<g>
		<path class="st1" d="M162.1,104.6c-0.6,0-1.1-0.4-1.1-1c-0.1-0.6,0.3-1.2,1-1.4l9.8-1.7c0.6-0.1,1.2,0.3,1.4,1
			c0.1,0.6-0.3,1.2-1,1.4l-9.8,1.7C162.3,104.6,162.2,104.6,162.1,104.6z"/>
	</g>
	<g>
		<path class="st1" d="M158.1,93.6c-0.4,0-0.8-0.2-1.1-0.6c-0.3-0.6-0.2-1.3,0.4-1.6l8.6-4.9c0.6-0.3,1.3-0.2,1.6,0.4
			c0.3,0.6,0.2,1.3-0.4,1.6l-8.6,4.9C158.5,93.5,158.3,93.6,158.1,93.6z"/>
	</g>
	<g>
		<path class="st1" d="M150.6,84.6c-0.2,0-0.6-0.1-0.7-0.2c-0.5-0.4-0.6-1.1-0.2-1.6l6.4-7.6c0.4-0.5,1.1-0.6,1.6-0.2
			c0.5,0.4,0.6,1.1,0.2,1.6l-6.4,7.6C151.3,84.4,151,84.6,150.6,84.6z"/>
	</g>
	<g>
		<path class="st1" d="M107.3,84.6c-0.3,0-0.6-0.2-0.9-0.4l-6.4-7.6c-0.4-0.5-0.3-1.2,0.2-1.6c0.5-0.4,1.2-0.3,1.6,0.2l6.4,7.6
			c0.4,0.5,0.3,1.2-0.2,1.6C107.8,84.5,107.6,84.6,107.3,84.6z"/>
	</g>
	<g>
		<path class="st1" d="M99.8,93.6c-0.2,0-0.4-0.1-0.6-0.2l-8.6-4.9c-0.6-0.3-0.7-1.1-0.4-1.6c0.3-0.6,1.1-0.7,1.6-0.4l8.6,4.9
			c0.6,0.3,0.7,1.1,0.4,1.6C100.6,93.4,100.2,93.6,99.8,93.6z"/>
	</g>
	<g>
		<path class="st1" d="M95.7,104.6c-0.1,0-0.2,0-0.2,0l-9.7-1.8c-0.6-0.1-1.1-0.7-1-1.4s0.7-1.1,1.4-1l9.8,1.7
			c0.6,0.1,1.1,0.7,1,1.4C96.8,104.2,96.3,104.6,95.7,104.6z"/>
	</g>
	<g>
		<path class="st1" d="M86,118c-0.6,0-1.1-0.4-1.1-1c-0.1-0.6,0.3-1.2,1-1.4l9.8-1.7c0.6-0.1,1.2,0.3,1.4,1c0.1,0.6-0.3,1.2-1,1.4
			l-9.8,1.7C86.2,118,86.1,118,86,118z"/>
	</g>
	<g>
		<path class="st1" d="M91.2,132.2c-0.4,0-0.8-0.2-1.1-0.6c-0.3-0.6-0.2-1.3,0.4-1.6l8.6-4.9c0.6-0.3,1.3-0.2,1.6,0.4
			c0.3,0.6,0.2,1.3-0.4,1.6l-8.6,4.9C91.6,132.1,91.4,132.2,91.2,132.2z"/>
	</g>
	<g>
		<path class="st1" d="M100.9,143.8c-0.2,0-0.6-0.1-0.7-0.2c-0.5-0.4-0.6-1.1-0.2-1.6l6.4-7.6c0.4-0.5,1.1-0.6,1.6-0.2
			s0.6,1.1,0.2,1.6l-6.4,7.6C101.6,143.7,101.3,143.8,100.9,143.8z"/>
	</g>
	<g>
		<path class="st1" d="M114,151.4c-0.2,0-0.2,0-0.4-0.1c-0.6-0.2-0.9-0.9-0.7-1.5l3.4-9.3c0.2-0.6,0.9-0.9,1.5-0.7
			c0.6,0.2,0.9,0.9,0.7,1.5l-3.4,9.3C114.9,151.1,114.5,151.4,114,151.4z"/>
	</g>
</g>
</svg>
