<svg viewBox="0 0 48.76 375.35" xmlns="http://www.w3.org/2000/svg"><g fill="#231f20"><path d="m44.54 372.46q-4.23 2.9-11.66 2.89h-16.88q-7.86 0-11.93-2.83t-4.07-10.04q0-6.44 3.48-9.23t10.27-2.81h3.78v6.32h-3.36a34 34 0 0 0 -5.08.29 4.65 4.65 0 0 0 -2.83 1.51 5.74 5.74 0 0 0 -1.07 3.86 6 6 0 0 0 1.16 4.05 5.55 5.55 0 0 0 3.18 1.74 28.34 28.34 0 0 0 5.46.41h18.95a21.56 21.56 0 0 0 5.73-.59 5 5 0 0 0 2.95-1.92 6.58 6.58 0 0 0 .88-3.69 5.44 5.44 0 0 0 -1.12-3.77 5.13 5.13 0 0 0 -3.07-1.57 34.89 34.89 0 0 0 -5.31-.32h-3.54v-6.32h3.54q7.14 0 11 2.69t3.81 9.35q-.05 7.09-4.27 9.98z"/><path d="m.41 336.51v-6.43l47.82-10.21v6.31l-12 2.19v9.73l12 2.31v6.25zm31-7.26-21.54 4 21.54 4z"/><path d="m45 312.93q-3.72 3.17-10.21 3.51l-1.6-5.9a18.55 18.55 0 0 0 7.44-1.8 5.21 5.21 0 0 0 2.83-5 5.06 5.06 0 0 0 -1.44-3.92 5.92 5.92 0 0 0 -4.16-1.33 8.91 8.91 0 0 0 -4.9 1.24 20.66 20.66 0 0 0 -4.31 3.95l-7.09 8a13.43 13.43 0 0 1 -4.56 3.55 14.63 14.63 0 0 1 -6 1.1q-5.25 0-8.15-3a11.32 11.32 0 0 1 -2.85-8.22q0-5.67 3-8.56t9.33-3.48l1.53 5.66a15 15 0 0 0 -6.46 1.63c-1.52.88-2.27 2.47-2.27 4.75a5.34 5.34 0 0 0 1.33 3.89 5.26 5.26 0 0 0 3.93 1.36 7.94 7.94 0 0 0 3.57-.71 9.41 9.41 0 0 0 2.92-2.42l7.12-8.08a23.88 23.88 0 0 1 6-5 14.54 14.54 0 0 1 7.37-1.86 11 11 0 0 1 8.33 3.19 11.43 11.43 0 0 1 3.07 8.26q-.01 6.04-3.77 9.19z"/><path d="m.41 287.11v-18.54h5v11.87h15.78v-9.63h4.72v9.63h17.53v-12h4.79v18.66z"/><path d="m45 247.47q-3.72 3.17-10.21 3.51l-1.6-5.9a18.55 18.55 0 0 0 7.44-1.8 5.21 5.21 0 0 0 2.83-5 5.06 5.06 0 0 0 -1.44-3.92 5.92 5.92 0 0 0 -4.12-1.36 8.91 8.91 0 0 0 -4.9 1.24 20.66 20.66 0 0 0 -4.31 3.95l-7.09 8a13.43 13.43 0 0 1 -4.6 3.58 14.64 14.64 0 0 1 -6 1.09q-5.25 0-8.15-3a11.32 11.32 0 0 1 -2.85-8.21q0-5.67 3-8.56t9.33-3.48l1.53 5.66a15 15 0 0 0 -6.46 1.63c-1.52.88-2.27 2.47-2.27 4.75a5.34 5.34 0 0 0 1.32 3.89 5.26 5.26 0 0 0 3.93 1.36 7.94 7.94 0 0 0 3.57-.71 9.41 9.41 0 0 0 2.92-2.42l7.13-8.08a23.88 23.88 0 0 1 6-5 14.54 14.54 0 0 1 7.37-1.86 11 11 0 0 1 8.32 3.17 11.43 11.43 0 0 1 3.07 8.26q0 6.06-3.76 9.21z"/><path d="m5.37 216.39v8.09h-5v-22.61h5v7.85h42.86v6.67z"/><path d="m46.75 192.75a10.23 10.23 0 0 1 -5.61 3.87 32.4 32.4 0 0 1 -9 1.06h-31.73v-6.37h32a21.08 21.08 0 0 0 8.26-1.31q2.84-1.28 2.83-5.11t-2.83-5.1a20.9 20.9 0 0 0 -8.26-1.27h-32v-6.32h31.7a32.4 32.4 0 0 1 9 1.06 10.29 10.29 0 0 1 5.61 3.84q2 2.78 2 7.79c.04 3.39-.63 5.99-1.97 7.86z"/><path d="m.41 165.22v-10.39q0-7.74 3.55-11t11-3.22h17.62q7.92 0 11.78 3.16t3.87 10.48v10.92zm43-10.45c0-2.32-.45-4-1.35-5.05a6.05 6.05 0 0 0 -3.69-1.95 48.4 48.4 0 0 0 -7.06-.38h-15.49a29.59 29.59 0 0 0 -6.23.5 5 5 0 0 0 -3.19 2.11 9.38 9.38 0 0 0 -1 5v3.6h38.04z"/><path d="m31.34 126.79-30.93 10.33v-6.2l23.08-7.32-23.08-7.2v-6.26l30.93 10.27h16.89v6.38z"/><path d="m5.37 87v8h-5v-22.57h5v7.85h42.86v6.72z"/><path d="m.41 69.42v-5.55l34.36-5.14-34.18-6.43v-4.72l34.35-6.5-34.53-5v-5.45l47.82 7.68v4.84l-35.42 6.67 35.42 6.73v5.07z"/><path d="m44.77 23.11q-4 3-11.54 3h-18.12q-7.44 0-11.27-3.07t-3.84-10.04q0-7 3.87-10t11.24-3h18.18q7.44 0 11.45 3.07t4 10q.02 7.01-3.97 10.04zm-3.45-15.11q-2.19-1.3-6.61-1.3h-21q-4.32.03-6.42 1.3c-1.4.86-2.1 2.54-2.1 5s.7 4.22 2.1 5.08 3.55 1.3 6.46 1.3h21q4.42 0 6.61-1.3c1.46-.86 2.18-2.56 2.18-5.08s-.76-4.11-2.22-5z"/></g></svg>