<svg viewBox="0 0 48.76 413.95" xmlns="http://www.w3.org/2000/svg"><g fill="#231f20"><path d="m44.54 411.06q-4.23 2.94-11.66 2.94h-16.88q-7.86 0-11.93-2.83t-4.07-10.08q0-6.43 3.48-9.24t10.27-2.85h3.78v6.32h-3.36a32.46 32.46 0 0 0 -5.08.3 4.64 4.64 0 0 0 -2.83 1.5 5.79 5.79 0 0 0 -1.07 3.88 6 6 0 0 0 1.16 4 5.44 5.44 0 0 0 3.18 1.74 28.22 28.22 0 0 0 5.46.42h18.95a22 22 0 0 0 5.73-.59 5.11 5.11 0 0 0 2.95-1.92 6.63 6.63 0 0 0 .88-3.65 5.49 5.49 0 0 0 -1.12-3.78 5 5 0 0 0 -3.07-1.56 33.43 33.43 0 0 0 -5.31-.33h-3.54v-6.33h3.54q7.14 0 11 2.69t3.81 9.36q-.05 7.12-4.27 10.01z"/><path d="m.41 375.11v-6.43l47.82-10.21v6.31l-12 2.19v9.74l12 2.3v6.26zm31-7.26-21.54 4 21.54 3.95z"/><path d="m45 351.53q-3.72 3.17-10.21 3.52l-1.6-5.91a18.22 18.22 0 0 0 7.44-1.8 5.2 5.2 0 0 0 2.83-5 5.08 5.08 0 0 0 -1.44-3.92 5.92 5.92 0 0 0 -4.16-1.33 8.93 8.93 0 0 0 -4.9 1.24 21 21 0 0 0 -4.31 4l-7.09 8a13.34 13.34 0 0 1 -4.56 3.51 14.81 14.81 0 0 1 -6 1.09c-3.5 0-6.22-1-8.15-3a11.35 11.35 0 0 1 -2.85-8.22q0-5.67 3-8.56t9.33-3.48l1.53 5.67a15.19 15.19 0 0 0 -6.45 1.66c-1.52.89-2.27 2.47-2.27 4.75a5.37 5.37 0 0 0 1.32 3.9 5.3 5.3 0 0 0 3.93 1.35 8.08 8.08 0 0 0 3.57-.71 9.55 9.55 0 0 0 2.92-2.42l7.12-8.12a24.09 24.09 0 0 1 6-5 14.54 14.54 0 0 1 7.37-1.86 11 11 0 0 1 8.33 3.19 11.45 11.45 0 0 1 3.07 8.26q-.01 6.04-3.77 9.19z"/><path d="m.41 325.71v-18.54h5v11.83h15.78v-9.62h4.72v9.62h17.53v-12h4.79v18.65z"/><path d="m45 286.07q-3.72 3.17-10.21 3.51l-1.6-5.9a18.22 18.22 0 0 0 7.44-1.8 5.2 5.2 0 0 0 2.83-5 5.06 5.06 0 0 0 -1.4-3.88 5.92 5.92 0 0 0 -4.16-1.33 8.93 8.93 0 0 0 -4.9 1.24 21 21 0 0 0 -4.31 4l-7.09 8a13.34 13.34 0 0 1 -4.6 3.47 14.81 14.81 0 0 1 -6 1.09c-3.5 0-6.22-1-8.15-3a11.35 11.35 0 0 1 -2.85-8.22q0-5.67 3-8.56c2-1.92 5.12-3.09 9.33-3.48l1.53 5.67a15 15 0 0 0 -6.46 1.62c-1.52.89-2.27 2.47-2.27 4.75a5.38 5.38 0 0 0 1.32 3.9 5.3 5.3 0 0 0 3.93 1.36 8.08 8.08 0 0 0 3.62-.71 9.55 9.55 0 0 0 2.92-2.42l7.08-8.09a24.09 24.09 0 0 1 6-5 14.54 14.54 0 0 1 7.37-1.86 11 11 0 0 1 8.33 3.19 11.45 11.45 0 0 1 3.07 8.26q-.01 6.04-3.77 9.19z"/><path d="m5.37 255v8.08h-5v-22.61h5v7.86h42.86v6.67z"/><path d="m46.75 231.36a10.27 10.27 0 0 1 -5.61 3.86 32.4 32.4 0 0 1 -9 1.06h-31.73v-6.37h32a20.9 20.9 0 0 0 8.26-1.27q2.84-1.27 2.83-5.11t-2.83-5.1a20.9 20.9 0 0 0 -8.26-1.27h-32v-6.32h31.7a32.36 32.36 0 0 1 9 1.07 10.22 10.22 0 0 1 5.61 3.83q2 2.77 2 7.79t-1.97 7.83z"/><path d="m.41 203.82v-10.39q0-7.73 3.55-11t11-3.22h17.62q7.92 0 11.78 3.16t3.87 10.48v10.92zm43-10.45q0-3.48-1.35-5.05a6 6 0 0 0 -3.69-1.94 46.72 46.72 0 0 0 -7.06-.39h-15.49a28.81 28.81 0 0 0 -6.23.51 5 5 0 0 0 -3.19 2.09 9.41 9.41 0 0 0 -1 5v3.6h38.04z"/><path d="m31.34 165.39-30.93 10.33v-6.2l23.08-7.31-23.08-7.21v-6.25l30.93 10.25h16.89v6.37z"/><path d="m5.37 125.55v8.09h-5v-22.64h5v7.85h42.86v6.67z"/><path d="m.41 106.43v-6.67h20.66v-12.28h-20.66v-6.67h47.82v6.67h-22.38v12.28h22.38v6.67z"/><path d="m.41 73.31v-9.62q0-7.26 3-10.65t9.71-3.4q9.21 0 11.16 5.9l24-6.78v6.43l-22.49 6.26v5.19h22.44v6.67zm20.59-9.21q0-4.3-1.71-6.17c-1.14-1.23-3.2-1.85-6.2-1.85a13.36 13.36 0 0 0 -4.63.64 4.49 4.49 0 0 0 -2.46 2.28 11 11 0 0 0 -.8 4.66v3h15.8z"/><path d="m.41 42.68v-18.54h5v11.86h15.78v-9.62h4.72v9.62h17.53v-12h4.79v18.68z"/><path d="m.41 18.65v-18.53h5v11.88h15.78v-9.64h4.72v9.64h17.53v-12h4.79v18.65z"/></g></svg>